%TF.GenerationSoftware,KiCad,Pcbnew,10.0.1*%
%TF.CreationDate,2026-05-17T15:29:23+02:00*%
%TF.ProjectId,Debugger,44656275-6767-4657-922e-6b696361645f,2*%
%TF.SameCoordinates,Original*%
%TF.FileFunction,Copper,L1,Top*%
%TF.FilePolarity,Positive*%
%FSLAX46Y46*%
G04 Gerber Fmt 4.6, Leading zero omitted, Abs format (unit mm)*
G04 Created by KiCad (PCBNEW 10.0.1) date 2026-05-17 15:29:23*
%MOMM*%
%LPD*%
G01*
G04 APERTURE LIST*
G04 Aperture macros list*
%AMRoundRect*
0 Rectangle with rounded corners*
0 $1 Rounding radius*
0 $2 $3 $4 $5 $6 $7 $8 $9 X,Y pos of 4 corners*
0 Add a 4 corners polygon primitive as box body*
4,1,4,$2,$3,$4,$5,$6,$7,$8,$9,$2,$3,0*
0 Add four circle primitives for the rounded corners*
1,1,$1+$1,$2,$3*
1,1,$1+$1,$4,$5*
1,1,$1+$1,$6,$7*
1,1,$1+$1,$8,$9*
0 Add four rect primitives between the rounded corners*
20,1,$1+$1,$2,$3,$4,$5,0*
20,1,$1+$1,$4,$5,$6,$7,0*
20,1,$1+$1,$6,$7,$8,$9,0*
20,1,$1+$1,$8,$9,$2,$3,0*%
G04 Aperture macros list end*
%TA.AperFunction,SMDPad,CuDef*%
%ADD10RoundRect,0.200000X0.200000X0.275000X-0.200000X0.275000X-0.200000X-0.275000X0.200000X-0.275000X0*%
%TD*%
%TA.AperFunction,SMDPad,CuDef*%
%ADD11RoundRect,0.218750X-0.218750X-0.256250X0.218750X-0.256250X0.218750X0.256250X-0.218750X0.256250X0*%
%TD*%
%TA.AperFunction,ComponentPad*%
%ADD12C,3.800000*%
%TD*%
%TA.AperFunction,ComponentPad*%
%ADD13R,1.700000X1.700000*%
%TD*%
%TA.AperFunction,ComponentPad*%
%ADD14C,1.700000*%
%TD*%
%TA.AperFunction,SMDPad,CuDef*%
%ADD15RoundRect,0.200000X0.275000X-0.200000X0.275000X0.200000X-0.275000X0.200000X-0.275000X-0.200000X0*%
%TD*%
%TA.AperFunction,SMDPad,CuDef*%
%ADD16RoundRect,0.250000X0.250000X0.475000X-0.250000X0.475000X-0.250000X-0.475000X0.250000X-0.475000X0*%
%TD*%
%TA.AperFunction,SMDPad,CuDef*%
%ADD17RoundRect,0.200000X-0.275000X0.200000X-0.275000X-0.200000X0.275000X-0.200000X0.275000X0.200000X0*%
%TD*%
%TA.AperFunction,ComponentPad*%
%ADD18R,1.050000X1.500000*%
%TD*%
%TA.AperFunction,ComponentPad*%
%ADD19O,1.050000X1.500000*%
%TD*%
%TA.AperFunction,ComponentPad*%
%ADD20RoundRect,0.250000X-0.550000X-0.550000X0.550000X-0.550000X0.550000X0.550000X-0.550000X0.550000X0*%
%TD*%
%TA.AperFunction,ComponentPad*%
%ADD21C,1.600000*%
%TD*%
%TA.AperFunction,SMDPad,CuDef*%
%ADD22RoundRect,0.225000X-0.225000X-0.250000X0.225000X-0.250000X0.225000X0.250000X-0.225000X0.250000X0*%
%TD*%
%TA.AperFunction,ComponentPad*%
%ADD23RoundRect,0.250000X0.550000X-0.550000X0.550000X0.550000X-0.550000X0.550000X-0.550000X-0.550000X0*%
%TD*%
%TA.AperFunction,SMDPad,CuDef*%
%ADD24RoundRect,0.200000X-0.200000X-0.275000X0.200000X-0.275000X0.200000X0.275000X-0.200000X0.275000X0*%
%TD*%
%TA.AperFunction,SMDPad,CuDef*%
%ADD25RoundRect,0.225000X-0.250000X0.225000X-0.250000X-0.225000X0.250000X-0.225000X0.250000X0.225000X0*%
%TD*%
%TA.AperFunction,ComponentPad*%
%ADD26C,2.000000*%
%TD*%
%TA.AperFunction,ComponentPad*%
%ADD27RoundRect,0.250000X-0.350000X-0.350000X0.350000X-0.350000X0.350000X0.350000X-0.350000X0.350000X0*%
%TD*%
%TA.AperFunction,ComponentPad*%
%ADD28C,1.200000*%
%TD*%
%TA.AperFunction,ComponentPad*%
%ADD29C,2.340000*%
%TD*%
%TA.AperFunction,ViaPad*%
%ADD30C,0.450000*%
%TD*%
%TA.AperFunction,Conductor*%
%ADD31C,0.300000*%
%TD*%
%TA.AperFunction,Conductor*%
%ADD32C,1.000000*%
%TD*%
%TA.AperFunction,Conductor*%
%ADD33C,0.130000*%
%TD*%
%TA.AperFunction,Conductor*%
%ADD34C,0.230000*%
%TD*%
%TA.AperFunction,Conductor*%
%ADD35C,0.500000*%
%TD*%
G04 APERTURE END LIST*
D10*
%TO.P,R4,1*%
%TO.N,Net-(U2-THRES)*%
X108471048Y-96833176D03*
%TO.P,R4,2*%
%TO.N,Net-(U2-DISCH)*%
X106821048Y-96833176D03*
%TD*%
D11*
%TO.P,D1,1,K_1*%
%TO.N,/{slash}HALT*%
X146951508Y-99831699D03*
%TO.P,D1,2,A_2*%
%TO.N,Net-(D1-A)*%
X148526508Y-99831699D03*
%TD*%
D12*
%TO.P,H2,1*%
%TO.N,N/C*%
X160000000Y-100000000D03*
%TD*%
D13*
%TO.P,J1,1,Pin_1_1*%
%TO.N,Net-(J1-Pin_1)*%
X116670102Y-94572982D03*
D14*
%TO.P,J1,2,Pin_2_2*%
%TO.N,/CLK*%
X119210102Y-94572982D03*
%TD*%
D15*
%TO.P,R3,1*%
%TO.N,Net-(D1-A)*%
X150149273Y-101175108D03*
%TO.P,R3,2*%
%TO.N,+5V*%
X150149273Y-99525108D03*
%TD*%
%TO.P,R8,1*%
%TO.N,Net-(D2-A)*%
X135325000Y-101160000D03*
%TO.P,R8,2*%
%TO.N,Net-(J1-Pin_1)*%
X135325000Y-99510000D03*
%TD*%
D16*
%TO.P,C4,1*%
%TO.N,+5V*%
X104859181Y-97280754D03*
%TO.P,C4,2*%
%TO.N,GND*%
X102959181Y-97280754D03*
%TD*%
D17*
%TO.P,R2,1*%
%TO.N,/{slash}HALT*%
X123175000Y-85330000D03*
%TO.P,R2,2*%
%TO.N,+5V*%
X123175000Y-86980000D03*
%TD*%
D12*
%TO.P,H4,1*%
%TO.N,N/C*%
X100000000Y-80000000D03*
%TD*%
D18*
%TO.P,Q1,1,C_1*%
%TO.N,/{slash}HALT*%
X124175000Y-81115000D03*
D19*
%TO.P,Q1,2,B_2*%
%TO.N,Net-(Q1-B)*%
X125445000Y-81115000D03*
%TO.P,Q1,3,E_3*%
%TO.N,GND*%
X126715000Y-81115000D03*
%TD*%
D17*
%TO.P,R6,1*%
%TO.N,Net-(R6-Pad1)*%
X127150996Y-88715624D03*
%TO.P,R6,2*%
%TO.N,Net-(Q1-B)*%
X127150996Y-90365624D03*
%TD*%
D20*
%TO.P,U3,1,~{R}_1*%
%TO.N,+5V*%
X131728848Y-81758005D03*
D21*
%TO.P,U3,2,D_2*%
%TO.N,Net-(U3A-D)*%
X131728848Y-84298005D03*
%TO.P,U3,3,C_3*%
%TO.N,/CLK*%
X131728848Y-86838005D03*
%TO.P,U3,4,~{S}_4*%
%TO.N,+5V*%
X131728848Y-89378005D03*
%TO.P,U3,5,Q_5*%
%TO.N,Net-(U3A-Q)*%
X131728848Y-91918005D03*
%TO.P,U3,6,~{Q}_6*%
%TO.N,unconnected-(U3A-~{Q}-Pad6)*%
X131728848Y-94458005D03*
%TO.P,U3,7,GND_7*%
%TO.N,GND*%
X131728848Y-96998005D03*
%TO.P,U3,8,~{Q}_8*%
%TO.N,Net-(U3A-D)*%
X139348848Y-96998005D03*
%TO.P,U3,9,Q_9*%
%TO.N,Net-(U3B-Q)*%
X139348848Y-94458005D03*
%TO.P,U3,10,~{S}_10*%
%TO.N,+5V*%
X139348848Y-91918005D03*
%TO.P,U3,11,C_11*%
%TO.N,/CLK*%
X139348848Y-89378005D03*
%TO.P,U3,12,D_12*%
%TO.N,/STEP*%
X139348848Y-86838005D03*
%TO.P,U3,13,~{R}_13*%
%TO.N,+5V*%
X139348848Y-84298005D03*
%TO.P,U3,14,VCC_14*%
X139348848Y-81758005D03*
%TD*%
D22*
%TO.P,C5,1*%
%TO.N,GND*%
X150052766Y-79201272D03*
%TO.P,C5,2*%
%TO.N,+5V*%
X151602766Y-79201272D03*
%TD*%
D11*
%TO.P,D4,1,K_1*%
%TO.N,GND*%
X118748222Y-100812135D03*
%TO.P,D4,2,A_2*%
%TO.N,Net-(D4-A)*%
X120323222Y-100812135D03*
%TD*%
D17*
%TO.P,R7,1*%
%TO.N,GND*%
X123163047Y-88694058D03*
%TO.P,R7,2*%
%TO.N,/CLK*%
X123163047Y-90344058D03*
%TD*%
D23*
%TO.P,U2,1,GND_1*%
%TO.N,GND*%
X111444941Y-89704705D03*
D21*
%TO.P,U2,2,TRIG_2*%
%TO.N,Net-(U2-THRES)*%
X113984941Y-89704705D03*
%TO.P,U2,3,OUT_3*%
%TO.N,Net-(J1-Pin_1)*%
X116524941Y-89704705D03*
%TO.P,U2,4,~{RST}_4*%
%TO.N,+5V*%
X119064941Y-89704705D03*
%TO.P,U2,5,CONT_5*%
%TO.N,Net-(U2-CONT)*%
X119064941Y-82084705D03*
%TO.P,U2,6,THRES_6*%
%TO.N,Net-(U2-THRES)*%
X116524941Y-82084705D03*
%TO.P,U2,7,DISCH_7*%
%TO.N,Net-(U2-DISCH)*%
X113984941Y-82084705D03*
%TO.P,U2,8,VCC_8*%
%TO.N,+5V*%
X111444941Y-82084705D03*
%TD*%
D24*
%TO.P,R5,1*%
%TO.N,Net-(R5-Pad1)*%
X112580000Y-79345000D03*
%TO.P,R5,2*%
%TO.N,Net-(U2-THRES)*%
X114230000Y-79345000D03*
%TD*%
D13*
%TO.P,J4,1,Pin_1_1*%
%TO.N,+5V*%
X155571024Y-84957573D03*
D14*
%TO.P,J4,2,Pin_2_2*%
%TO.N,GND*%
X155571024Y-87497573D03*
%TO.P,J4,3,Pin_3_3*%
%TO.N,Net-(J4-Pin_3)*%
X155571024Y-90037573D03*
%TO.P,J4,4,Pin_4_4*%
%TO.N,Net-(J4-Pin_4)*%
X155571024Y-92577573D03*
%TO.P,J4,5,Pin_5_5*%
%TO.N,Net-(J4-Pin_5)*%
X155571024Y-95117573D03*
%TD*%
D25*
%TO.P,C2,1*%
%TO.N,GND*%
X108175000Y-79370000D03*
%TO.P,C2,2*%
%TO.N,+5V*%
X108175000Y-80920000D03*
%TD*%
D15*
%TO.P,R1,1*%
%TO.N,Net-(U2-DISCH)*%
X104810000Y-80890000D03*
%TO.P,R1,2*%
%TO.N,+5V*%
X104810000Y-79240000D03*
%TD*%
D13*
%TO.P,J2,1,Pin_1_1*%
%TO.N,+5V*%
X105365000Y-100145000D03*
D14*
%TO.P,J2,2,Pin_2_2*%
%TO.N,GND*%
X107905000Y-100145000D03*
%TO.P,J2,3,Pin_3_3*%
%TO.N,/OSC*%
X110445000Y-100145000D03*
%TO.P,J2,4,Pin_4_4*%
%TO.N,/CLK*%
X112985000Y-100145000D03*
%TO.P,J2,5,Pin_5_5*%
%TO.N,/{slash}HALT*%
X115525000Y-100145000D03*
%TD*%
D17*
%TO.P,R11,1*%
%TO.N,GND*%
X127155000Y-85340000D03*
%TO.P,R11,2*%
%TO.N,/STEP*%
X127155000Y-86990000D03*
%TD*%
D26*
%TO.P,SW1,1,1_1*%
%TO.N,+5V*%
X123089766Y-100077554D03*
X123089766Y-93577554D03*
%TO.P,SW1,2,2_2*%
%TO.N,/STEP*%
X127589766Y-100077554D03*
X127589766Y-93577554D03*
%TD*%
D22*
%TO.P,C1,1*%
%TO.N,GND*%
X117620000Y-79315000D03*
%TO.P,C1,2*%
%TO.N,Net-(U2-CONT)*%
X119170000Y-79315000D03*
%TD*%
D11*
%TO.P,D2,1,K_1*%
%TO.N,GND*%
X132072500Y-99845000D03*
%TO.P,D2,2,A_2*%
%TO.N,Net-(D2-A)*%
X133647500Y-99845000D03*
%TD*%
D24*
%TO.P,R10,1*%
%TO.N,Net-(D4-A)*%
X118680000Y-99005000D03*
%TO.P,R10,2*%
%TO.N,+5V*%
X120330000Y-99005000D03*
%TD*%
D22*
%TO.P,C6,1*%
%TO.N,GND*%
X138553835Y-79173217D03*
%TO.P,C6,2*%
%TO.N,+5V*%
X140103835Y-79173217D03*
%TD*%
D27*
%TO.P,C3,1*%
%TO.N,GND*%
X110854801Y-94900000D03*
D28*
%TO.P,C3,2*%
%TO.N,Net-(U2-THRES)*%
X112854801Y-94900000D03*
%TD*%
D20*
%TO.P,U1,1*%
%TO.N,Net-(U3B-Q)*%
X143482766Y-81746272D03*
D21*
%TO.P,U1,2*%
%TO.N,Net-(U3A-Q)*%
X143482766Y-84286272D03*
%TO.P,U1,3*%
%TO.N,Net-(R6-Pad1)*%
X143482766Y-86826272D03*
%TO.P,U1,4*%
%TO.N,Net-(J1-Pin_1)*%
X143482766Y-89366272D03*
%TO.P,U1,5*%
X143482766Y-91906272D03*
%TO.P,U1,6*%
%TO.N,/OSC*%
X143482766Y-94446272D03*
%TO.P,U1,7,GND_7*%
%TO.N,GND*%
X143482766Y-96986272D03*
%TO.P,U1,8*%
%TO.N,Net-(J3-Pin_5)*%
X151102766Y-96986272D03*
%TO.P,U1,9*%
%TO.N,Net-(J3-Pin_4)*%
X151102766Y-94446272D03*
%TO.P,U1,10*%
%TO.N,Net-(J3-Pin_3)*%
X151102766Y-91906272D03*
%TO.P,U1,11*%
%TO.N,Net-(J4-Pin_5)*%
X151102766Y-89366272D03*
%TO.P,U1,12*%
%TO.N,Net-(J4-Pin_4)*%
X151102766Y-86826272D03*
%TO.P,U1,13*%
%TO.N,Net-(J4-Pin_3)*%
X151102766Y-84286272D03*
%TO.P,U1,14,VCC_14*%
%TO.N,+5V*%
X151102766Y-81746272D03*
%TD*%
D11*
%TO.P,D3,1,K_1*%
%TO.N,GND*%
X139588385Y-99829911D03*
%TO.P,D3,2,A_2*%
%TO.N,Net-(D3-A)*%
X141163385Y-99829911D03*
%TD*%
D15*
%TO.P,R9,1*%
%TO.N,Net-(D3-A)*%
X142830000Y-101160000D03*
%TO.P,R9,2*%
%TO.N,/CLK*%
X142830000Y-99510000D03*
%TD*%
D13*
%TO.P,J3,1,Pin_1_1*%
%TO.N,+5V*%
X160244294Y-84964924D03*
D14*
%TO.P,J3,2,Pin_2_2*%
%TO.N,GND*%
X160244294Y-87504924D03*
%TO.P,J3,3,Pin_3_3*%
%TO.N,Net-(J3-Pin_3)*%
X160244294Y-90044924D03*
%TO.P,J3,4,Pin_4_4*%
%TO.N,Net-(J3-Pin_4)*%
X160244294Y-92584924D03*
%TO.P,J3,5,Pin_5_5*%
%TO.N,Net-(J3-Pin_5)*%
X160244294Y-95124924D03*
%TD*%
D12*
%TO.P,H1,1*%
%TO.N,N/C*%
X100000000Y-100000000D03*
%TD*%
%TO.P,H3,1*%
%TO.N,N/C*%
X160000000Y-80000000D03*
%TD*%
D29*
%TO.P,RV1,1,1_1*%
%TO.N,Net-(U2-DISCH)*%
X100915000Y-84095000D03*
%TO.P,RV1,2,2_2*%
%TO.N,Net-(R5-Pad1)*%
X103415000Y-94095000D03*
%TO.P,RV1,3,3_3*%
%TO.N,unconnected-(RV1-Pad3)*%
X105915000Y-84095000D03*
%TD*%
D30*
%TO.N,/{slash}HALT*%
X121888970Y-85399249D03*
X146000000Y-99750000D03*
%TO.N,Net-(J1-Pin_1)*%
X135325000Y-98085000D03*
%TO.N,+5V*%
X106250000Y-79250000D03*
X149000000Y-98500000D03*
%TO.N,GND*%
X102087208Y-81974307D03*
X107250000Y-90000000D03*
X107250000Y-88000000D03*
X106740829Y-80490644D03*
X107250000Y-92000000D03*
X135586530Y-80878076D03*
X99250000Y-90000000D03*
X147289115Y-80813899D03*
X117748116Y-80748899D03*
X153323596Y-82169756D03*
X99250000Y-92000000D03*
X111500000Y-84000000D03*
X128381477Y-81152977D03*
X116386627Y-80246602D03*
X99250000Y-88000000D03*
X103126731Y-79227539D03*
X106503396Y-81217785D03*
X155887642Y-79946500D03*
X118750000Y-86500000D03*
X126765111Y-83308132D03*
X109442795Y-82127224D03*
X117409124Y-100785153D03*
%TO.N,Net-(Q1-B)*%
X126053992Y-90374706D03*
%TO.N,/STEP*%
X128500000Y-87250000D03*
%TD*%
%TO.N,Net-(U2-DISCH)*%
D31*
X106821048Y-96530655D02*
X106040393Y-95750000D01*
X106040393Y-95750000D02*
X102000000Y-95750000D01*
X106821048Y-96833176D02*
X106821048Y-96530655D01*
X102000000Y-95750000D02*
X100915000Y-94665000D01*
X100915000Y-94665000D02*
X100915000Y-84095000D01*
%TO.N,+5V*%
D32*
X105365000Y-100145000D02*
X104863141Y-99643141D01*
X104863141Y-99643141D02*
X104863141Y-97284714D01*
X104863141Y-97284714D02*
X104859181Y-97280754D01*
%TO.N,Net-(U2-THRES)*%
D31*
X112854801Y-94900000D02*
X112854801Y-95395199D01*
X112854801Y-95395199D02*
X111416824Y-96833176D01*
X111416824Y-96833176D02*
X108471048Y-96833176D01*
%TO.N,/{slash}HALT*%
D33*
X146869809Y-99750000D02*
X146951508Y-99831699D01*
X146000000Y-99750000D02*
X146869809Y-99750000D01*
D34*
X123105751Y-85399249D02*
X123175000Y-85330000D01*
X121888970Y-85399249D02*
X123105751Y-85399249D01*
X123175000Y-85330000D02*
X123175000Y-82115000D01*
X123175000Y-82115000D02*
X124175000Y-81115000D01*
%TO.N,Net-(D1-A)*%
D33*
X148526508Y-99831699D02*
X148526508Y-100612791D01*
X149084880Y-101171163D02*
X149086043Y-101170000D01*
X148526508Y-100612791D02*
X149084880Y-101171163D01*
X149086043Y-101170000D02*
X150085000Y-101170000D01*
%TO.N,Net-(J1-Pin_1)*%
X116524941Y-89704705D02*
X116524941Y-94427821D01*
X135325000Y-98085000D02*
X135325000Y-99510000D01*
X116524941Y-94427821D02*
X116670102Y-94572982D01*
%TO.N,/CLK*%
X124405942Y-90344058D02*
X125000000Y-89750000D01*
X123163047Y-90344058D02*
X120905942Y-90344058D01*
X139878005Y-89378005D02*
X141000000Y-90500000D01*
X139348848Y-89378005D02*
X139878005Y-89378005D01*
X125576930Y-87851119D02*
X130715734Y-87851119D01*
X125000000Y-88428049D02*
X125576930Y-87851119D01*
X130715734Y-87851119D02*
X131728848Y-86838005D01*
X123100734Y-90406371D02*
X123163047Y-90344058D01*
X123163047Y-90344058D02*
X124405942Y-90344058D01*
X119210102Y-92039898D02*
X119210102Y-94572982D01*
X120905942Y-90344058D02*
X119210102Y-92039898D01*
X141000000Y-90500000D02*
X141000000Y-97680000D01*
X141000000Y-97680000D02*
X142830000Y-99510000D01*
X125000000Y-89750000D02*
X125000000Y-88428049D01*
%TO.N,+5V*%
D35*
X140103835Y-79173217D02*
X140103835Y-81003018D01*
X108175000Y-80920000D02*
X110280236Y-80920000D01*
X151602766Y-81246272D02*
X151102766Y-81746272D01*
D33*
X149065000Y-98500000D02*
X149432936Y-98867936D01*
D31*
X119064941Y-89704705D02*
X119064941Y-87906165D01*
D35*
X151602766Y-79201272D02*
X151602766Y-81246272D01*
D31*
X119991106Y-86980000D02*
X123175000Y-86980000D01*
D35*
X104810000Y-79240000D02*
X106240000Y-79240000D01*
X106240000Y-79240000D02*
X106250000Y-79250000D01*
D33*
X120330000Y-99005000D02*
X122017212Y-99005000D01*
D35*
X140103835Y-81003018D02*
X139348848Y-81758005D01*
D33*
X122017212Y-99005000D02*
X123089766Y-100077554D01*
D31*
X119064941Y-87906165D02*
X119991106Y-86980000D01*
D35*
X110280236Y-80920000D02*
X111444941Y-82084705D01*
D33*
X149432936Y-98867936D02*
X150085000Y-99520000D01*
X149000000Y-98500000D02*
X149065000Y-98500000D01*
%TO.N,Net-(D2-A)*%
X133647500Y-100860918D02*
X133946582Y-101160000D01*
X133647500Y-99845000D02*
X133647500Y-100860918D01*
X133946582Y-101160000D02*
X135325000Y-101160000D01*
%TO.N,GND*%
D35*
X107880000Y-79370000D02*
X106500000Y-80750000D01*
X106500000Y-80750000D02*
X106500000Y-81250000D01*
X108175000Y-79370000D02*
X107880000Y-79370000D01*
%TO.N,Net-(Q1-B)*%
D34*
X126063074Y-90365624D02*
X126053992Y-90374706D01*
X127150996Y-90365624D02*
X126063074Y-90365624D01*
%TO.N,Net-(R6-Pad1)*%
X130534376Y-88715624D02*
X131154260Y-88095740D01*
X142213298Y-88095740D02*
X143482766Y-86826272D01*
X127150996Y-88715624D02*
X130534376Y-88715624D01*
X131154260Y-88095740D02*
X142213298Y-88095740D01*
%TO.N,/STEP*%
D33*
X128500000Y-87250000D02*
X128240000Y-86990000D01*
X128240000Y-86990000D02*
X127155000Y-86990000D01*
%TO.N,Net-(D4-A)*%
X118680000Y-99005000D02*
X118680000Y-99168913D01*
X118680000Y-99255000D02*
X118787791Y-99255000D01*
X118680000Y-99168913D02*
X120323222Y-100812135D01*
%TO.N,Net-(U2-THRES)*%
D31*
X112907052Y-94847749D02*
X112854801Y-94900000D01*
X116524941Y-84475059D02*
X113984941Y-87015059D01*
X113984941Y-87015059D02*
X113984941Y-89704705D01*
X114230000Y-79789764D02*
X114230000Y-79345000D01*
X116524941Y-82084705D02*
X114230000Y-79789764D01*
X116524941Y-82084705D02*
X116524941Y-84475059D01*
X113984941Y-91015059D02*
X112907052Y-92092948D01*
X113984941Y-89704705D02*
X113984941Y-91015059D01*
X112907052Y-92092948D02*
X112907052Y-94847749D01*
%TO.N,Net-(U2-CONT)*%
X119170000Y-81979646D02*
X119064941Y-82084705D01*
X119170000Y-79315000D02*
X119170000Y-81979646D01*
%TO.N,Net-(U2-DISCH)*%
X113984941Y-84015059D02*
X112000000Y-86000000D01*
X104810000Y-80890000D02*
X104810000Y-80940000D01*
X102820000Y-86000000D02*
X100915000Y-84095000D01*
X104810000Y-80940000D02*
X101655000Y-84095000D01*
X113984941Y-82084705D02*
X113984941Y-84015059D01*
X101655000Y-84095000D02*
X100915000Y-84095000D01*
X112000000Y-86000000D02*
X102820000Y-86000000D01*
%TO.N,Net-(R5-Pad1)*%
X106250000Y-86750000D02*
X103415000Y-89585000D01*
X103415000Y-89585000D02*
X103415000Y-94095000D01*
X112580000Y-80167500D02*
X112912500Y-80500000D01*
X115250000Y-81682500D02*
X115250000Y-84250000D01*
X115250000Y-84250000D02*
X112750000Y-86750000D01*
X112580000Y-79345000D02*
X112580000Y-80167500D01*
X112750000Y-86750000D02*
X106250000Y-86750000D01*
X114067500Y-80500000D02*
X115250000Y-81682500D01*
X112912500Y-80500000D02*
X114067500Y-80500000D01*
%TO.N,Net-(D3-A)*%
D33*
X141565956Y-101160000D02*
X142830000Y-101160000D01*
X141163385Y-100757429D02*
X141565956Y-101160000D01*
X141163385Y-99829911D02*
X141163385Y-100757429D01*
%TD*%
%TA.AperFunction,Conductor*%
%TO.N,GND*%
G36*
X98689970Y-82011897D02*
G01*
X98750375Y-82049852D01*
X98837002Y-82104284D01*
X99008881Y-82187056D01*
X99079921Y-82221267D01*
X99257922Y-82283552D01*
X99334397Y-82310312D01*
X99334405Y-82310315D01*
X99334408Y-82310315D01*
X99334409Y-82310316D01*
X99597268Y-82370312D01*
X99865187Y-82400499D01*
X99865188Y-82400500D01*
X100046187Y-82400500D01*
X100113226Y-82420185D01*
X100158981Y-82472989D01*
X100168925Y-82542147D01*
X100139900Y-82605703D01*
X100108187Y-82631887D01*
X99984929Y-82703049D01*
X99811201Y-82836355D01*
X99811194Y-82836361D01*
X99656361Y-82991194D01*
X99656355Y-82991201D01*
X99523049Y-83164929D01*
X99413565Y-83354561D01*
X99413561Y-83354569D01*
X99413560Y-83354572D01*
X99378847Y-83438374D01*
X99329758Y-83556884D01*
X99285060Y-83723699D01*
X99276038Y-83757376D01*
X99273084Y-83768399D01*
X99273082Y-83768410D01*
X99244500Y-83985502D01*
X99244500Y-84204497D01*
X99268306Y-84385314D01*
X99273083Y-84421598D01*
X99293282Y-84496981D01*
X99321565Y-84602539D01*
X99329759Y-84633117D01*
X99413560Y-84835428D01*
X99413562Y-84835433D01*
X99413565Y-84835438D01*
X99523049Y-85025070D01*
X99656355Y-85198798D01*
X99656361Y-85198805D01*
X99811194Y-85353638D01*
X99811201Y-85353644D01*
X99984929Y-85486950D01*
X100174568Y-85596438D01*
X100174576Y-85596442D01*
X100180278Y-85598803D01*
X100187949Y-85601980D01*
X100242353Y-85645818D01*
X100264421Y-85712112D01*
X100264500Y-85716543D01*
X100264500Y-94729069D01*
X100264500Y-94729071D01*
X100264499Y-94729071D01*
X100289497Y-94854738D01*
X100289499Y-94854744D01*
X100324604Y-94939496D01*
X100338535Y-94973127D01*
X100373863Y-95026000D01*
X100409726Y-95079673D01*
X101585328Y-96255275D01*
X101659243Y-96304663D01*
X101659242Y-96304663D01*
X101676796Y-96316391D01*
X101691873Y-96326465D01*
X101810256Y-96375501D01*
X101897897Y-96392934D01*
X101908437Y-96395031D01*
X101970348Y-96427416D01*
X102004922Y-96488131D01*
X102001952Y-96555651D01*
X101969676Y-96653053D01*
X101969674Y-96653063D01*
X101959181Y-96755767D01*
X101959181Y-97030754D01*
X102835181Y-97030754D01*
X102902220Y-97050439D01*
X102947975Y-97103243D01*
X102959181Y-97154754D01*
X102959181Y-97280754D01*
X103085181Y-97280754D01*
X103152220Y-97300439D01*
X103197975Y-97353243D01*
X103209181Y-97404754D01*
X103209181Y-98505753D01*
X103259153Y-98505753D01*
X103259167Y-98505752D01*
X103361878Y-98495259D01*
X103528300Y-98440112D01*
X103528305Y-98440110D01*
X103673544Y-98350526D01*
X103740937Y-98332086D01*
X103807600Y-98353009D01*
X103852370Y-98406650D01*
X103862641Y-98456065D01*
X103862641Y-99741682D01*
X103862641Y-99741684D01*
X103862640Y-99741684D01*
X103877855Y-99818171D01*
X103879961Y-99828757D01*
X103880021Y-99829056D01*
X103880021Y-99829057D01*
X103901088Y-99934969D01*
X103901091Y-99934981D01*
X103920478Y-99981784D01*
X103976508Y-100117054D01*
X103976509Y-100117055D01*
X103988374Y-100134813D01*
X103993602Y-100142636D01*
X104014480Y-100209313D01*
X104014500Y-100211527D01*
X104014500Y-101042870D01*
X104014501Y-101042876D01*
X104020908Y-101102483D01*
X104071202Y-101237328D01*
X104071204Y-101237331D01*
X104118156Y-101300051D01*
X104119382Y-101301688D01*
X104143800Y-101367153D01*
X104128949Y-101435426D01*
X104079544Y-101484832D01*
X104020116Y-101500000D01*
X102116891Y-101500000D01*
X102049852Y-101480315D01*
X102004097Y-101427511D01*
X101994153Y-101358353D01*
X102011898Y-101310028D01*
X102104284Y-101162997D01*
X102221267Y-100920079D01*
X102310316Y-100665591D01*
X102370312Y-100402732D01*
X102371298Y-100393986D01*
X102378698Y-100328302D01*
X102400500Y-100134809D01*
X102400500Y-99865191D01*
X102370312Y-99597268D01*
X102310316Y-99334409D01*
X102221267Y-99079921D01*
X102122491Y-98874810D01*
X102104285Y-98837005D01*
X102098472Y-98827753D01*
X101960838Y-98608711D01*
X101792734Y-98397915D01*
X101602085Y-98207266D01*
X101582302Y-98191490D01*
X101538237Y-98156349D01*
X101391289Y-98039162D01*
X101202966Y-97920830D01*
X101162994Y-97895714D01*
X100976161Y-97805740D01*
X101959182Y-97805740D01*
X101969675Y-97908451D01*
X102024822Y-98074873D01*
X102024824Y-98074878D01*
X102116865Y-98224099D01*
X102240835Y-98348069D01*
X102390056Y-98440110D01*
X102390061Y-98440112D01*
X102556483Y-98495259D01*
X102556490Y-98495260D01*
X102659200Y-98505753D01*
X102709180Y-98505752D01*
X102709181Y-98505752D01*
X102709181Y-97530754D01*
X101959182Y-97530754D01*
X101959182Y-97805740D01*
X100976161Y-97805740D01*
X100920082Y-97778734D01*
X100665602Y-97689687D01*
X100665594Y-97689684D01*
X100468446Y-97644687D01*
X100402732Y-97629688D01*
X100402728Y-97629687D01*
X100402719Y-97629686D01*
X100162432Y-97602612D01*
X100134813Y-97599500D01*
X100134809Y-97599500D01*
X99865191Y-97599500D01*
X99865186Y-97599500D01*
X99597280Y-97629686D01*
X99597268Y-97629688D01*
X99334405Y-97689684D01*
X99334397Y-97689687D01*
X99079917Y-97778734D01*
X98837007Y-97895713D01*
X98797034Y-97920830D01*
X98766097Y-97929571D01*
X98735641Y-97939750D01*
X98732710Y-97939005D01*
X98729797Y-97939829D01*
X98699052Y-97930459D01*
X98667921Y-97922554D01*
X98664749Y-97920004D01*
X98662962Y-97919460D01*
X98640414Y-97900444D01*
X98533349Y-97785731D01*
X98501997Y-97723290D01*
X98500000Y-97701124D01*
X98500000Y-82116891D01*
X98519685Y-82049852D01*
X98572489Y-82004097D01*
X98641647Y-81994153D01*
X98689970Y-82011897D01*
G37*
%TD.AperFunction*%
%TA.AperFunction,Conductor*%
G36*
X107439075Y-100337993D02*
G01*
X107504901Y-100452007D01*
X107597993Y-100545099D01*
X107712007Y-100610925D01*
X107775590Y-100627962D01*
X107143282Y-101260269D01*
X107143282Y-101260270D01*
X107164494Y-101275681D01*
X107207160Y-101331011D01*
X107213139Y-101400624D01*
X107180534Y-101462420D01*
X107119696Y-101496777D01*
X107091609Y-101500000D01*
X106709884Y-101500000D01*
X106642845Y-101480315D01*
X106597090Y-101427511D01*
X106587146Y-101358353D01*
X106610618Y-101301688D01*
X106658796Y-101237331D01*
X106709091Y-101102483D01*
X106715500Y-101042873D01*
X106715499Y-101032312D01*
X106735179Y-100965275D01*
X106751818Y-100944626D01*
X107422037Y-100274408D01*
X107439075Y-100337993D01*
G37*
%TD.AperFunction*%
%TA.AperFunction,Conductor*%
G36*
X109020270Y-100906717D02*
G01*
X109020270Y-100906716D01*
X109059622Y-100852555D01*
X109064232Y-100843507D01*
X109112205Y-100792709D01*
X109180025Y-100775912D01*
X109246161Y-100798447D01*
X109285204Y-100843504D01*
X109289949Y-100852817D01*
X109414890Y-101024786D01*
X109414896Y-101024792D01*
X109565208Y-101175104D01*
X109703642Y-101275682D01*
X109746308Y-101331011D01*
X109752287Y-101400625D01*
X109719682Y-101462420D01*
X109658843Y-101496777D01*
X109630757Y-101500000D01*
X108718392Y-101500000D01*
X108651353Y-101480315D01*
X108605598Y-101427511D01*
X108595654Y-101358353D01*
X108624679Y-101294797D01*
X108645506Y-101275683D01*
X108666716Y-101260272D01*
X108666717Y-101260270D01*
X108034408Y-100627962D01*
X108097993Y-100610925D01*
X108212007Y-100545099D01*
X108305099Y-100452007D01*
X108370925Y-100337993D01*
X108387962Y-100274409D01*
X109020270Y-100906717D01*
G37*
%TD.AperFunction*%
%TA.AperFunction,Conductor*%
G36*
X138094488Y-88730925D02*
G01*
X138140243Y-88783729D01*
X138150187Y-88852887D01*
X138144417Y-88873920D01*
X138145134Y-88874153D01*
X138143629Y-88878782D01*
X138143628Y-88878786D01*
X138140026Y-88889873D01*
X138080370Y-89073470D01*
X138048348Y-89275653D01*
X138048348Y-89480356D01*
X138080370Y-89682539D01*
X138143629Y-89877228D01*
X138207539Y-90002658D01*
X138230584Y-90047885D01*
X138236563Y-90059618D01*
X138356876Y-90225218D01*
X138501634Y-90369976D01*
X138649645Y-90477510D01*
X138667238Y-90490292D01*
X138736901Y-90525787D01*
X138759928Y-90537520D01*
X138810724Y-90585495D01*
X138827519Y-90653316D01*
X138804982Y-90719451D01*
X138759928Y-90758490D01*
X138667234Y-90805720D01*
X138501634Y-90926033D01*
X138356876Y-91070791D01*
X138236563Y-91236391D01*
X138143629Y-91418781D01*
X138080370Y-91613470D01*
X138048348Y-91815653D01*
X138048348Y-92020356D01*
X138080370Y-92222539D01*
X138143629Y-92417228D01*
X138206438Y-92540495D01*
X138233478Y-92593565D01*
X138236563Y-92599618D01*
X138356876Y-92765218D01*
X138501634Y-92909976D01*
X138613432Y-92991200D01*
X138667238Y-93030292D01*
X138736901Y-93065787D01*
X138759928Y-93077520D01*
X138810724Y-93125495D01*
X138827519Y-93193316D01*
X138804982Y-93259451D01*
X138759928Y-93298490D01*
X138667234Y-93345720D01*
X138501634Y-93466033D01*
X138356876Y-93610791D01*
X138236563Y-93776391D01*
X138143629Y-93958781D01*
X138080370Y-94153470D01*
X138048348Y-94355653D01*
X138048348Y-94560356D01*
X138080370Y-94762539D01*
X138143629Y-94957228D01*
X138205194Y-95078054D01*
X138230584Y-95127885D01*
X138236563Y-95139618D01*
X138356876Y-95305218D01*
X138501634Y-95449976D01*
X138651085Y-95558556D01*
X138667238Y-95570292D01*
X138758688Y-95616888D01*
X138759928Y-95617520D01*
X138810724Y-95665495D01*
X138827519Y-95733316D01*
X138804982Y-95799451D01*
X138759928Y-95838490D01*
X138667234Y-95885720D01*
X138501634Y-96006033D01*
X138356876Y-96150791D01*
X138236563Y-96316391D01*
X138143629Y-96498781D01*
X138080370Y-96693470D01*
X138048348Y-96895653D01*
X138048348Y-97100356D01*
X138080370Y-97302539D01*
X138143629Y-97497228D01*
X138182620Y-97573750D01*
X138236433Y-97679364D01*
X138236563Y-97679618D01*
X138356876Y-97845218D01*
X138501634Y-97989976D01*
X138618494Y-98074878D01*
X138667238Y-98110292D01*
X138757626Y-98156347D01*
X138849624Y-98203223D01*
X138849626Y-98203223D01*
X138849629Y-98203225D01*
X138913873Y-98224099D01*
X139044313Y-98266482D01*
X139145405Y-98282493D01*
X139246496Y-98298505D01*
X139246497Y-98298505D01*
X139451199Y-98298505D01*
X139451200Y-98298505D01*
X139653382Y-98266482D01*
X139848067Y-98203225D01*
X140030458Y-98110292D01*
X140196067Y-97989971D01*
X140290957Y-97895080D01*
X140352276Y-97861598D01*
X140421968Y-97866582D01*
X140477902Y-97908453D01*
X140486022Y-97920764D01*
X140547484Y-98027221D01*
X140547488Y-98027226D01*
X141162992Y-98642730D01*
X141196477Y-98704053D01*
X141191493Y-98773745D01*
X141149621Y-98829678D01*
X141084157Y-98854095D01*
X141075311Y-98854411D01*
X140896703Y-98854411D01*
X140798201Y-98864474D01*
X140798200Y-98864475D01*
X140752668Y-98879563D01*
X140638600Y-98917361D01*
X140638589Y-98917366D01*
X140495497Y-99005627D01*
X140495492Y-99005630D01*
X140463212Y-99037911D01*
X140401888Y-99071396D01*
X140332197Y-99066410D01*
X140287852Y-99037911D01*
X140255965Y-99006025D01*
X140112962Y-98917819D01*
X140112957Y-98917817D01*
X139953468Y-98864968D01*
X139855035Y-98854911D01*
X139838385Y-98854911D01*
X139838385Y-100804910D01*
X139855021Y-100804910D01*
X139855037Y-100804909D01*
X139953468Y-100794854D01*
X140112957Y-100742004D01*
X140112962Y-100742002D01*
X140255965Y-100653796D01*
X140287851Y-100621911D01*
X140289059Y-100621250D01*
X140289746Y-100620056D01*
X140319632Y-100604557D01*
X140349174Y-100588426D01*
X140350547Y-100588524D01*
X140351771Y-100587890D01*
X140385293Y-100591009D01*
X140418866Y-100593410D01*
X140420413Y-100594276D01*
X140421340Y-100594363D01*
X140425759Y-100597270D01*
X140451948Y-100611937D01*
X140457883Y-100616581D01*
X140495494Y-100654192D01*
X140544858Y-100684639D01*
X140550301Y-100688899D01*
X140566774Y-100711915D01*
X140585706Y-100732963D01*
X140587504Y-100740877D01*
X140590967Y-100745715D01*
X140591634Y-100759050D01*
X140597885Y-100786554D01*
X140597885Y-100831879D01*
X140617938Y-100906716D01*
X140636423Y-100975705D01*
X140636424Y-100975706D01*
X140710869Y-101104650D01*
X140710873Y-101104655D01*
X140894537Y-101288319D01*
X140928022Y-101349642D01*
X140923038Y-101419334D01*
X140881166Y-101475267D01*
X140815702Y-101499684D01*
X140806856Y-101500000D01*
X136424500Y-101500000D01*
X136357461Y-101480315D01*
X136311706Y-101427511D01*
X136300500Y-101376000D01*
X136300500Y-100903386D01*
X136295905Y-100852820D01*
X136294086Y-100832804D01*
X136243478Y-100670394D01*
X136155472Y-100524815D01*
X136155470Y-100524813D01*
X136155469Y-100524811D01*
X136053339Y-100422681D01*
X136019854Y-100361358D01*
X136024838Y-100291666D01*
X136053339Y-100247319D01*
X136155468Y-100145189D01*
X136155469Y-100145188D01*
X136155472Y-100145185D01*
X136162196Y-100134063D01*
X138650886Y-100134063D01*
X138660941Y-100232494D01*
X138713791Y-100391983D01*
X138713793Y-100391988D01*
X138801999Y-100534991D01*
X138920804Y-100653796D01*
X139063807Y-100742002D01*
X139063812Y-100742004D01*
X139223301Y-100794853D01*
X139321741Y-100804910D01*
X139338385Y-100804909D01*
X139338385Y-100079911D01*
X138650886Y-100079911D01*
X138650886Y-100134063D01*
X136162196Y-100134063D01*
X136243478Y-99999606D01*
X136247600Y-99986380D01*
X136255989Y-99959456D01*
X136294086Y-99837196D01*
X136300500Y-99766616D01*
X136300500Y-99525760D01*
X138650885Y-99525760D01*
X138650885Y-99579911D01*
X139338385Y-99579911D01*
X139338385Y-98854910D01*
X139321741Y-98854911D01*
X139223300Y-98864968D01*
X139063812Y-98917817D01*
X139063807Y-98917819D01*
X138920804Y-99006025D01*
X138801999Y-99124830D01*
X138713793Y-99267833D01*
X138713791Y-99267838D01*
X138660942Y-99427327D01*
X138650885Y-99525760D01*
X136300500Y-99525760D01*
X136300500Y-99253384D01*
X136294086Y-99182804D01*
X136243478Y-99020394D01*
X136155472Y-98874815D01*
X136155470Y-98874813D01*
X136155469Y-98874811D01*
X136035189Y-98754531D01*
X136035185Y-98754528D01*
X135950349Y-98703242D01*
X135943083Y-98695308D01*
X135933297Y-98690839D01*
X135919898Y-98669989D01*
X135903162Y-98651714D01*
X135900343Y-98639561D01*
X135895523Y-98632061D01*
X135890500Y-98597126D01*
X135890500Y-98582147D01*
X135910185Y-98515108D01*
X135911360Y-98513312D01*
X135967929Y-98428653D01*
X136022619Y-98296620D01*
X136043623Y-98191027D01*
X136050500Y-98156457D01*
X136050500Y-98013542D01*
X136022620Y-97873385D01*
X136022619Y-97873384D01*
X136022619Y-97873380D01*
X135980318Y-97771258D01*
X135967930Y-97741349D01*
X135967925Y-97741340D01*
X135888532Y-97622521D01*
X135888529Y-97622517D01*
X135787482Y-97521470D01*
X135787478Y-97521467D01*
X135668659Y-97442074D01*
X135668650Y-97442069D01*
X135536620Y-97387381D01*
X135536614Y-97387379D01*
X135396457Y-97359500D01*
X135396455Y-97359500D01*
X135253545Y-97359500D01*
X135253543Y-97359500D01*
X135113385Y-97387379D01*
X135113379Y-97387381D01*
X134981349Y-97442069D01*
X134981340Y-97442074D01*
X134862521Y-97521467D01*
X134862517Y-97521470D01*
X134761470Y-97622517D01*
X134761467Y-97622521D01*
X134682074Y-97741340D01*
X134682069Y-97741349D01*
X134627381Y-97873379D01*
X134627379Y-97873385D01*
X134599500Y-98013542D01*
X134599500Y-98013545D01*
X134599500Y-98156455D01*
X134599500Y-98156457D01*
X134599499Y-98156457D01*
X134627379Y-98296614D01*
X134627381Y-98296620D01*
X134682069Y-98428650D01*
X134682070Y-98428652D01*
X134682071Y-98428653D01*
X134738602Y-98513258D01*
X134744252Y-98531302D01*
X134754477Y-98547212D01*
X134758928Y-98578171D01*
X134759480Y-98579933D01*
X134759500Y-98582147D01*
X134759500Y-98597126D01*
X134739815Y-98664165D01*
X134699651Y-98703242D01*
X134614814Y-98754528D01*
X134614810Y-98754531D01*
X134494531Y-98874810D01*
X134494528Y-98874814D01*
X134446353Y-98954504D01*
X134394825Y-99001691D01*
X134325965Y-99013529D01*
X134275140Y-98995892D01*
X134265508Y-98989951D01*
X134180395Y-98937452D01*
X134172289Y-98932452D01*
X134172284Y-98932450D01*
X134132144Y-98919149D01*
X134012685Y-98879564D01*
X134012683Y-98879563D01*
X133914181Y-98869500D01*
X133914174Y-98869500D01*
X133380826Y-98869500D01*
X133380818Y-98869500D01*
X133282316Y-98879563D01*
X133282315Y-98879564D01*
X133239040Y-98893904D01*
X133122715Y-98932450D01*
X133122704Y-98932455D01*
X132979612Y-99020716D01*
X132979607Y-99020719D01*
X132947327Y-99053000D01*
X132886003Y-99086485D01*
X132816312Y-99081499D01*
X132771967Y-99053000D01*
X132740080Y-99021114D01*
X132597077Y-98932908D01*
X132597072Y-98932906D01*
X132437583Y-98880057D01*
X132339150Y-98870000D01*
X132322500Y-98870000D01*
X132322500Y-100819999D01*
X132339136Y-100819999D01*
X132339152Y-100819998D01*
X132437583Y-100809943D01*
X132597072Y-100757093D01*
X132597077Y-100757091D01*
X132740080Y-100668885D01*
X132771966Y-100637000D01*
X132773174Y-100636339D01*
X132773861Y-100635145D01*
X132803747Y-100619646D01*
X132833289Y-100603515D01*
X132834662Y-100603613D01*
X132835886Y-100602979D01*
X132869408Y-100606098D01*
X132902981Y-100608499D01*
X132904528Y-100609365D01*
X132905455Y-100609452D01*
X132909874Y-100612359D01*
X132936063Y-100627026D01*
X132941998Y-100631670D01*
X132979609Y-100669281D01*
X133028973Y-100699728D01*
X133034416Y-100703988D01*
X133050889Y-100727004D01*
X133069821Y-100748052D01*
X133071619Y-100755966D01*
X133075082Y-100760804D01*
X133075749Y-100774139D01*
X133082000Y-100801643D01*
X133082000Y-100935368D01*
X133092809Y-100975706D01*
X133120538Y-101079194D01*
X133120539Y-101079195D01*
X133194984Y-101208139D01*
X133194988Y-101208144D01*
X133275163Y-101288319D01*
X133308648Y-101349642D01*
X133303664Y-101419334D01*
X133261792Y-101475267D01*
X133196328Y-101499684D01*
X133187482Y-101500000D01*
X128566372Y-101500000D01*
X128499333Y-101480315D01*
X128453578Y-101427511D01*
X128443634Y-101358353D01*
X128472659Y-101294797D01*
X128493487Y-101275682D01*
X128514697Y-101260272D01*
X128567276Y-101222071D01*
X128734283Y-101055064D01*
X128873109Y-100863987D01*
X128980334Y-100653546D01*
X129053319Y-100428922D01*
X129059020Y-100392925D01*
X129090266Y-100195651D01*
X129090266Y-100149152D01*
X131135001Y-100149152D01*
X131145056Y-100247583D01*
X131197906Y-100407072D01*
X131197908Y-100407077D01*
X131286114Y-100550080D01*
X131404919Y-100668885D01*
X131547922Y-100757091D01*
X131547927Y-100757093D01*
X131707416Y-100809942D01*
X131805856Y-100819999D01*
X131822500Y-100819998D01*
X131822500Y-100095000D01*
X131135001Y-100095000D01*
X131135001Y-100149152D01*
X129090266Y-100149152D01*
X129090266Y-99959456D01*
X129053319Y-99726185D01*
X129026940Y-99645000D01*
X128993099Y-99540849D01*
X131135000Y-99540849D01*
X131135000Y-99595000D01*
X131822500Y-99595000D01*
X131822500Y-98869999D01*
X131805856Y-98870000D01*
X131707415Y-98880057D01*
X131547927Y-98932906D01*
X131547922Y-98932908D01*
X131404919Y-99021114D01*
X131286114Y-99139919D01*
X131197908Y-99282922D01*
X131197906Y-99282927D01*
X131145057Y-99442416D01*
X131135000Y-99540849D01*
X128993099Y-99540849D01*
X128980334Y-99501562D01*
X128873109Y-99291121D01*
X128734283Y-99100044D01*
X128567276Y-98933037D01*
X128376199Y-98794211D01*
X128358033Y-98784955D01*
X128165762Y-98686987D01*
X127941134Y-98614000D01*
X127707863Y-98577054D01*
X127707858Y-98577054D01*
X127471674Y-98577054D01*
X127471669Y-98577054D01*
X127238397Y-98614000D01*
X127013769Y-98686987D01*
X126803332Y-98794211D01*
X126706623Y-98864475D01*
X126612256Y-98933037D01*
X126612254Y-98933039D01*
X126612253Y-98933039D01*
X126445251Y-99100041D01*
X126445251Y-99100042D01*
X126445249Y-99100044D01*
X126416278Y-99139919D01*
X126306423Y-99291120D01*
X126199199Y-99501557D01*
X126126212Y-99726185D01*
X126089266Y-99959456D01*
X126089266Y-100195651D01*
X126126212Y-100428922D01*
X126199199Y-100653550D01*
X126290063Y-100831879D01*
X126306423Y-100863987D01*
X126445249Y-101055064D01*
X126612256Y-101222071D01*
X126633260Y-101237331D01*
X126686045Y-101275682D01*
X126728711Y-101331012D01*
X126734690Y-101400625D01*
X126702084Y-101462420D01*
X126641245Y-101496778D01*
X126613160Y-101500000D01*
X124066372Y-101500000D01*
X123999333Y-101480315D01*
X123953578Y-101427511D01*
X123943634Y-101358353D01*
X123972659Y-101294797D01*
X123993487Y-101275682D01*
X124014697Y-101260272D01*
X124067276Y-101222071D01*
X124234283Y-101055064D01*
X124373109Y-100863987D01*
X124480334Y-100653546D01*
X124553319Y-100428922D01*
X124559020Y-100392925D01*
X124590266Y-100195651D01*
X124590266Y-99959456D01*
X124553319Y-99726185D01*
X124509129Y-99590185D01*
X124480334Y-99501562D01*
X124480332Y-99501559D01*
X124480332Y-99501557D01*
X124373108Y-99291120D01*
X124370493Y-99287521D01*
X124234283Y-99100044D01*
X124067276Y-98933037D01*
X123876199Y-98794211D01*
X123858033Y-98784955D01*
X123665762Y-98686987D01*
X123441134Y-98614000D01*
X123207863Y-98577054D01*
X123207858Y-98577054D01*
X122971674Y-98577054D01*
X122971669Y-98577054D01*
X122738396Y-98614001D01*
X122738393Y-98614001D01*
X122574842Y-98667143D01*
X122505001Y-98669138D01*
X122448843Y-98636893D01*
X122364438Y-98552488D01*
X122364433Y-98552484D01*
X122235489Y-98478039D01*
X122235488Y-98478038D01*
X122199530Y-98468403D01*
X122091662Y-98439500D01*
X122091659Y-98439500D01*
X121242874Y-98439500D01*
X121175835Y-98419815D01*
X121136758Y-98379651D01*
X121091727Y-98305162D01*
X121085472Y-98294815D01*
X121085471Y-98294814D01*
X121085468Y-98294810D01*
X120965188Y-98174530D01*
X120935292Y-98156457D01*
X120819606Y-98086522D01*
X120657196Y-98035914D01*
X120657194Y-98035913D01*
X120657192Y-98035913D01*
X120607778Y-98031423D01*
X120586616Y-98029500D01*
X120073384Y-98029500D01*
X120054145Y-98031248D01*
X120002807Y-98035913D01*
X119840393Y-98086522D01*
X119694811Y-98174530D01*
X119694810Y-98174531D01*
X119592681Y-98276661D01*
X119531358Y-98310146D01*
X119461666Y-98305162D01*
X119417319Y-98276661D01*
X119315188Y-98174530D01*
X119285098Y-98156340D01*
X119169606Y-98086522D01*
X119007196Y-98035914D01*
X119007194Y-98035913D01*
X119007192Y-98035913D01*
X118957778Y-98031423D01*
X118936616Y-98029500D01*
X118423384Y-98029500D01*
X118404145Y-98031248D01*
X118352807Y-98035913D01*
X118190393Y-98086522D01*
X118044811Y-98174530D01*
X117924530Y-98294811D01*
X117836522Y-98440393D01*
X117785913Y-98602807D01*
X117779500Y-98673386D01*
X117779500Y-99336613D01*
X117785913Y-99407192D01*
X117785913Y-99407194D01*
X117785914Y-99407196D01*
X117836522Y-99569606D01*
X117922691Y-99712147D01*
X117924530Y-99715188D01*
X118050118Y-99840776D01*
X118048099Y-99842794D01*
X118081017Y-99888835D01*
X118084474Y-99958620D01*
X118051596Y-100017295D01*
X117961834Y-100107057D01*
X117873630Y-100250057D01*
X117873628Y-100250062D01*
X117820779Y-100409551D01*
X117810722Y-100507984D01*
X117810722Y-100562135D01*
X118624222Y-100562135D01*
X118691261Y-100581820D01*
X118737016Y-100634624D01*
X118748222Y-100686135D01*
X118748222Y-100938135D01*
X118728537Y-101005174D01*
X118675733Y-101050929D01*
X118624222Y-101062135D01*
X117810723Y-101062135D01*
X117810723Y-101116287D01*
X117820778Y-101214718D01*
X117861298Y-101336996D01*
X117863700Y-101406824D01*
X117827968Y-101466866D01*
X117765448Y-101498059D01*
X117743592Y-101500000D01*
X116339243Y-101500000D01*
X116272204Y-101480315D01*
X116226449Y-101427511D01*
X116216505Y-101358353D01*
X116245530Y-101294797D01*
X116266357Y-101275682D01*
X116404792Y-101175104D01*
X116555104Y-101024792D01*
X116555106Y-101024788D01*
X116555109Y-101024786D01*
X116680048Y-100852820D01*
X116680050Y-100852817D01*
X116680051Y-100852816D01*
X116776557Y-100663412D01*
X116842246Y-100461243D01*
X116875500Y-100251287D01*
X116875500Y-100038713D01*
X116842246Y-99828757D01*
X116776557Y-99626588D01*
X116680051Y-99437184D01*
X116680049Y-99437181D01*
X116680048Y-99437179D01*
X116555109Y-99265213D01*
X116404786Y-99114890D01*
X116232820Y-98989951D01*
X116043414Y-98893444D01*
X116043413Y-98893443D01*
X116043412Y-98893443D01*
X115841243Y-98827754D01*
X115841241Y-98827753D01*
X115841240Y-98827753D01*
X115679957Y-98802208D01*
X115631287Y-98794500D01*
X115418713Y-98794500D01*
X115370042Y-98802208D01*
X115208760Y-98827753D01*
X115006585Y-98893444D01*
X114817179Y-98989951D01*
X114645213Y-99114890D01*
X114494890Y-99265213D01*
X114369949Y-99437182D01*
X114365484Y-99445946D01*
X114317509Y-99496742D01*
X114249688Y-99513536D01*
X114183553Y-99490998D01*
X114144516Y-99445946D01*
X114140050Y-99437182D01*
X114015109Y-99265213D01*
X113864786Y-99114890D01*
X113692820Y-98989951D01*
X113503414Y-98893444D01*
X113503413Y-98893443D01*
X113503412Y-98893443D01*
X113301243Y-98827754D01*
X113301241Y-98827753D01*
X113301240Y-98827753D01*
X113139957Y-98802208D01*
X113091287Y-98794500D01*
X112878713Y-98794500D01*
X112830042Y-98802208D01*
X112668760Y-98827753D01*
X112466585Y-98893444D01*
X112277179Y-98989951D01*
X112105213Y-99114890D01*
X111954890Y-99265213D01*
X111829949Y-99437182D01*
X111825484Y-99445946D01*
X111777509Y-99496742D01*
X111709688Y-99513536D01*
X111643553Y-99490998D01*
X111604516Y-99445946D01*
X111600050Y-99437182D01*
X111475109Y-99265213D01*
X111324786Y-99114890D01*
X111152820Y-98989951D01*
X110963414Y-98893444D01*
X110963413Y-98893443D01*
X110963412Y-98893443D01*
X110761243Y-98827754D01*
X110761241Y-98827753D01*
X110761240Y-98827753D01*
X110599957Y-98802208D01*
X110551287Y-98794500D01*
X110338713Y-98794500D01*
X110290042Y-98802208D01*
X110128760Y-98827753D01*
X109926585Y-98893444D01*
X109737179Y-98989951D01*
X109565213Y-99114890D01*
X109414890Y-99265213D01*
X109289949Y-99437182D01*
X109285202Y-99446499D01*
X109237227Y-99497293D01*
X109169405Y-99514087D01*
X109103271Y-99491548D01*
X109064234Y-99446495D01*
X109059626Y-99437452D01*
X109020270Y-99383282D01*
X109020269Y-99383282D01*
X108387962Y-100015590D01*
X108370925Y-99952007D01*
X108305099Y-99837993D01*
X108212007Y-99744901D01*
X108097993Y-99679075D01*
X108034409Y-99662037D01*
X108666716Y-99029728D01*
X108612550Y-98990375D01*
X108423217Y-98893904D01*
X108221129Y-98828242D01*
X108011246Y-98795000D01*
X107798754Y-98795000D01*
X107588872Y-98828242D01*
X107588869Y-98828242D01*
X107386782Y-98893904D01*
X107197439Y-98990380D01*
X107143282Y-99029727D01*
X107143282Y-99029728D01*
X107775591Y-99662037D01*
X107712007Y-99679075D01*
X107597993Y-99744901D01*
X107504901Y-99837993D01*
X107439075Y-99952007D01*
X107422037Y-100015591D01*
X106751818Y-99345372D01*
X106718333Y-99284049D01*
X106718330Y-99284036D01*
X106715499Y-99271015D01*
X106715499Y-99247128D01*
X106709091Y-99187517D01*
X106669549Y-99081499D01*
X106658798Y-99052673D01*
X106658793Y-99052664D01*
X106572547Y-98937455D01*
X106572544Y-98937452D01*
X106457335Y-98851206D01*
X106457328Y-98851202D01*
X106322482Y-98800908D01*
X106322483Y-98800908D01*
X106262883Y-98794501D01*
X106262881Y-98794500D01*
X106262873Y-98794500D01*
X106262865Y-98794500D01*
X105987641Y-98794500D01*
X105920602Y-98774815D01*
X105874847Y-98722011D01*
X105863641Y-98670500D01*
X105863641Y-97640789D01*
X105883326Y-97573750D01*
X105936130Y-97527995D01*
X106005288Y-97518051D01*
X106068844Y-97547076D01*
X106075322Y-97553108D01*
X106185859Y-97663645D01*
X106185861Y-97663646D01*
X106185863Y-97663648D01*
X106331442Y-97751654D01*
X106493852Y-97802262D01*
X106564432Y-97808676D01*
X106564435Y-97808676D01*
X107077661Y-97808676D01*
X107077664Y-97808676D01*
X107148244Y-97802262D01*
X107310654Y-97751654D01*
X107456233Y-97663648D01*
X107497364Y-97622517D01*
X107558367Y-97561515D01*
X107619690Y-97528030D01*
X107689382Y-97533014D01*
X107733729Y-97561515D01*
X107835859Y-97663645D01*
X107835861Y-97663646D01*
X107835863Y-97663648D01*
X107981442Y-97751654D01*
X108143852Y-97802262D01*
X108214432Y-97808676D01*
X108214435Y-97808676D01*
X108727661Y-97808676D01*
X108727664Y-97808676D01*
X108798244Y-97802262D01*
X108960654Y-97751654D01*
X109106233Y-97663648D01*
X109226520Y-97543361D01*
X109226522Y-97543356D01*
X109231142Y-97537461D01*
X109232165Y-97538263D01*
X109277952Y-97496336D01*
X109332537Y-97483676D01*
X111480895Y-97483676D01*
X111565439Y-97466858D01*
X111606568Y-97458677D01*
X111724951Y-97409641D01*
X111831493Y-97338453D01*
X112537228Y-96632718D01*
X112987269Y-96182676D01*
X113215944Y-95954000D01*
X113265308Y-95923751D01*
X113277246Y-95919873D01*
X113431589Y-95841232D01*
X113571729Y-95739414D01*
X113694215Y-95616928D01*
X113796033Y-95476788D01*
X113874674Y-95322445D01*
X113928203Y-95157701D01*
X113955301Y-94986611D01*
X113955301Y-94813389D01*
X113928203Y-94642299D01*
X113874674Y-94477555D01*
X113796033Y-94323212D01*
X113694215Y-94183072D01*
X113593871Y-94082728D01*
X113560386Y-94021405D01*
X113557552Y-93995047D01*
X113557552Y-92413756D01*
X113577237Y-92346717D01*
X113593871Y-92326075D01*
X114490212Y-91429734D01*
X114490217Y-91429729D01*
X114530069Y-91370085D01*
X114561405Y-91323188D01*
X114567873Y-91307573D01*
X114610442Y-91204803D01*
X114613877Y-91187536D01*
X114613878Y-91187533D01*
X114635441Y-91079130D01*
X114635441Y-90902775D01*
X114655126Y-90835736D01*
X114686554Y-90802458D01*
X114826130Y-90701052D01*
X114832156Y-90696674D01*
X114832156Y-90696673D01*
X114832160Y-90696671D01*
X114976907Y-90551924D01*
X114976909Y-90551920D01*
X114976912Y-90551918D01*
X115097225Y-90386319D01*
X115097224Y-90386319D01*
X115097228Y-90386315D01*
X115144457Y-90293622D01*
X115192430Y-90242828D01*
X115260251Y-90226033D01*
X115326386Y-90248570D01*
X115365424Y-90293622D01*
X115404326Y-90369971D01*
X115412656Y-90386319D01*
X115532969Y-90551918D01*
X115677727Y-90696676D01*
X115843329Y-90816991D01*
X115891735Y-90841655D01*
X115942531Y-90889629D01*
X115959441Y-90952140D01*
X115959441Y-93098482D01*
X115939756Y-93165521D01*
X115886952Y-93211276D01*
X115835443Y-93222482D01*
X115772232Y-93222482D01*
X115772225Y-93222483D01*
X115712618Y-93228890D01*
X115577773Y-93279184D01*
X115577766Y-93279188D01*
X115462557Y-93365434D01*
X115462554Y-93365437D01*
X115376308Y-93480646D01*
X115376304Y-93480653D01*
X115326010Y-93615499D01*
X115319603Y-93675098D01*
X115319602Y-93675117D01*
X115319602Y-95470852D01*
X115319603Y-95470858D01*
X115326010Y-95530465D01*
X115376304Y-95665310D01*
X115376308Y-95665317D01*
X115462554Y-95780526D01*
X115462557Y-95780529D01*
X115577766Y-95866775D01*
X115577773Y-95866779D01*
X115712619Y-95917073D01*
X115712618Y-95917073D01*
X115719546Y-95917817D01*
X115772229Y-95923482D01*
X117567974Y-95923481D01*
X117627585Y-95917073D01*
X117762433Y-95866778D01*
X117877648Y-95780528D01*
X117963898Y-95665313D01*
X118012912Y-95533898D01*
X118054783Y-95477966D01*
X118120247Y-95453548D01*
X118188520Y-95468399D01*
X118216775Y-95489551D01*
X118330315Y-95603091D01*
X118502281Y-95728030D01*
X118502283Y-95728031D01*
X118502286Y-95728033D01*
X118691690Y-95824539D01*
X118893859Y-95890228D01*
X119103815Y-95923482D01*
X119103816Y-95923482D01*
X119316388Y-95923482D01*
X119316389Y-95923482D01*
X119526345Y-95890228D01*
X119728514Y-95824539D01*
X119917918Y-95728033D01*
X119941414Y-95710962D01*
X120089888Y-95603091D01*
X120089890Y-95603088D01*
X120089894Y-95603086D01*
X120240206Y-95452774D01*
X120240208Y-95452770D01*
X120240211Y-95452768D01*
X120365150Y-95280802D01*
X120365149Y-95280802D01*
X120365153Y-95280798D01*
X120461659Y-95091394D01*
X120527348Y-94889225D01*
X120560602Y-94679269D01*
X120560602Y-94466695D01*
X120527348Y-94256739D01*
X120461659Y-94054570D01*
X120365153Y-93865166D01*
X120365151Y-93865163D01*
X120365150Y-93865161D01*
X120240211Y-93693195D01*
X120089888Y-93542872D01*
X119975074Y-93459456D01*
X121589266Y-93459456D01*
X121589266Y-93695651D01*
X121626212Y-93928922D01*
X121699199Y-94153550D01*
X121785647Y-94323212D01*
X121806423Y-94363987D01*
X121945249Y-94555064D01*
X122112256Y-94722071D01*
X122303333Y-94860897D01*
X122358084Y-94888794D01*
X122513769Y-94968120D01*
X122513771Y-94968120D01*
X122513774Y-94968122D01*
X122634178Y-95007243D01*
X122738397Y-95041107D01*
X122971669Y-95078054D01*
X122971674Y-95078054D01*
X123207863Y-95078054D01*
X123441134Y-95041107D01*
X123665758Y-94968122D01*
X123876199Y-94860897D01*
X124067276Y-94722071D01*
X124234283Y-94555064D01*
X124373109Y-94363987D01*
X124480334Y-94153546D01*
X124553319Y-93928922D01*
X124556129Y-93911179D01*
X124590266Y-93695651D01*
X124590266Y-93459456D01*
X126089266Y-93459456D01*
X126089266Y-93695651D01*
X126126212Y-93928922D01*
X126199199Y-94153550D01*
X126285647Y-94323212D01*
X126306423Y-94363987D01*
X126445249Y-94555064D01*
X126612256Y-94722071D01*
X126803333Y-94860897D01*
X126858084Y-94888794D01*
X127013769Y-94968120D01*
X127013771Y-94968120D01*
X127013774Y-94968122D01*
X127134178Y-95007243D01*
X127238397Y-95041107D01*
X127471669Y-95078054D01*
X127471674Y-95078054D01*
X127707863Y-95078054D01*
X127941134Y-95041107D01*
X128165758Y-94968122D01*
X128376199Y-94860897D01*
X128567276Y-94722071D01*
X128734283Y-94555064D01*
X128873109Y-94363987D01*
X128980334Y-94153546D01*
X129053319Y-93928922D01*
X129056129Y-93911179D01*
X129090266Y-93695651D01*
X129090266Y-93459456D01*
X129053319Y-93226185D01*
X128989668Y-93030289D01*
X128980334Y-93001562D01*
X128980332Y-93001559D01*
X128980332Y-93001557D01*
X128873108Y-92791120D01*
X128734283Y-92600044D01*
X128567276Y-92433037D01*
X128376199Y-92294211D01*
X128336800Y-92274136D01*
X128165762Y-92186987D01*
X127941134Y-92114000D01*
X127707863Y-92077054D01*
X127707858Y-92077054D01*
X127471674Y-92077054D01*
X127471669Y-92077054D01*
X127238397Y-92114000D01*
X127013769Y-92186987D01*
X126803332Y-92294211D01*
X126760270Y-92325498D01*
X126612256Y-92433037D01*
X126612254Y-92433039D01*
X126612253Y-92433039D01*
X126445251Y-92600041D01*
X126445251Y-92600042D01*
X126445249Y-92600044D01*
X126418926Y-92636275D01*
X126306423Y-92791120D01*
X126199199Y-93001557D01*
X126126212Y-93226185D01*
X126089266Y-93459456D01*
X124590266Y-93459456D01*
X124553319Y-93226185D01*
X124489668Y-93030289D01*
X124480334Y-93001562D01*
X124480332Y-93001559D01*
X124480332Y-93001557D01*
X124373108Y-92791120D01*
X124234283Y-92600044D01*
X124067276Y-92433037D01*
X123876199Y-92294211D01*
X123836800Y-92274136D01*
X123665762Y-92186987D01*
X123441134Y-92114000D01*
X123207863Y-92077054D01*
X123207858Y-92077054D01*
X122971674Y-92077054D01*
X122971669Y-92077054D01*
X122738397Y-92114000D01*
X122513769Y-92186987D01*
X122303332Y-92294211D01*
X122260270Y-92325498D01*
X122112256Y-92433037D01*
X122112254Y-92433039D01*
X122112253Y-92433039D01*
X121945251Y-92600041D01*
X121945251Y-92600042D01*
X121945249Y-92600044D01*
X121918926Y-92636275D01*
X121806423Y-92791120D01*
X121699199Y-93001557D01*
X121626212Y-93226185D01*
X121589266Y-93459456D01*
X119975074Y-93459456D01*
X119917919Y-93417931D01*
X119843306Y-93379913D01*
X119792511Y-93331938D01*
X119775602Y-93269429D01*
X119775602Y-92325498D01*
X119795287Y-92258459D01*
X119811921Y-92237817D01*
X121103861Y-90945877D01*
X121165184Y-90912392D01*
X121191542Y-90909558D01*
X122220512Y-90909558D01*
X122287551Y-90929243D01*
X122326629Y-90969408D01*
X122332572Y-90979239D01*
X122332573Y-90979240D01*
X122332575Y-90979243D01*
X122452862Y-91099530D01*
X122598441Y-91187536D01*
X122760851Y-91238144D01*
X122831431Y-91244558D01*
X122831434Y-91244558D01*
X123494660Y-91244558D01*
X123494663Y-91244558D01*
X123565243Y-91238144D01*
X123727653Y-91187536D01*
X123873232Y-91099530D01*
X123993519Y-90979243D01*
X123997183Y-90973182D01*
X123999465Y-90969408D01*
X124050993Y-90922220D01*
X124105582Y-90909558D01*
X124480389Y-90909558D01*
X124480392Y-90909558D01*
X124624217Y-90871020D01*
X124753167Y-90796571D01*
X125127136Y-90422600D01*
X125188459Y-90389116D01*
X125258150Y-90394100D01*
X125314084Y-90435971D01*
X125336434Y-90486090D01*
X125356371Y-90586320D01*
X125356373Y-90586326D01*
X125411061Y-90718356D01*
X125411066Y-90718365D01*
X125490459Y-90837184D01*
X125490462Y-90837188D01*
X125591509Y-90938235D01*
X125591513Y-90938238D01*
X125710332Y-91017631D01*
X125710338Y-91017634D01*
X125710339Y-91017635D01*
X125842372Y-91072325D01*
X125842376Y-91072325D01*
X125842377Y-91072326D01*
X125982534Y-91100206D01*
X125982537Y-91100206D01*
X126125449Y-91100206D01*
X126219743Y-91081448D01*
X126265612Y-91072325D01*
X126278463Y-91067001D01*
X126347931Y-91059533D01*
X126410410Y-91090807D01*
X126413596Y-91093882D01*
X126440807Y-91121093D01*
X126440809Y-91121094D01*
X126440811Y-91121096D01*
X126586390Y-91209102D01*
X126748800Y-91259710D01*
X126819380Y-91266124D01*
X126819383Y-91266124D01*
X127482609Y-91266124D01*
X127482612Y-91266124D01*
X127553192Y-91259710D01*
X127715602Y-91209102D01*
X127861181Y-91121096D01*
X127981468Y-91000809D01*
X128069474Y-90855230D01*
X128120082Y-90692820D01*
X128126496Y-90622240D01*
X128126496Y-90109008D01*
X128120082Y-90038428D01*
X128069474Y-89876018D01*
X127981468Y-89730439D01*
X127981466Y-89730437D01*
X127981465Y-89730435D01*
X127879335Y-89628305D01*
X127874996Y-89620359D01*
X127867749Y-89614934D01*
X127858514Y-89590174D01*
X127845850Y-89566982D01*
X127846495Y-89557952D01*
X127843332Y-89549470D01*
X127848948Y-89523649D01*
X127850834Y-89497290D01*
X127856652Y-89488236D01*
X127858184Y-89481197D01*
X127879335Y-89452943D01*
X127964835Y-89367443D01*
X128026158Y-89333958D01*
X128052516Y-89331124D01*
X130304348Y-89331124D01*
X130371387Y-89350809D01*
X130417142Y-89403613D01*
X130428348Y-89455124D01*
X130428348Y-89480356D01*
X130460370Y-89682539D01*
X130523629Y-89877228D01*
X130587539Y-90002658D01*
X130610584Y-90047885D01*
X130616563Y-90059618D01*
X130736876Y-90225218D01*
X130881634Y-90369976D01*
X131029645Y-90477510D01*
X131047238Y-90490292D01*
X131116901Y-90525787D01*
X131139928Y-90537520D01*
X131190724Y-90585495D01*
X131207519Y-90653316D01*
X131184982Y-90719451D01*
X131139928Y-90758490D01*
X131047234Y-90805720D01*
X130881634Y-90926033D01*
X130736876Y-91070791D01*
X130616563Y-91236391D01*
X130523629Y-91418781D01*
X130460370Y-91613470D01*
X130428348Y-91815653D01*
X130428348Y-92020356D01*
X130460370Y-92222539D01*
X130523629Y-92417228D01*
X130586438Y-92540495D01*
X130613478Y-92593565D01*
X130616563Y-92599618D01*
X130736876Y-92765218D01*
X130881634Y-92909976D01*
X130993432Y-92991200D01*
X131047238Y-93030292D01*
X131116901Y-93065787D01*
X131139928Y-93077520D01*
X131190724Y-93125495D01*
X131207519Y-93193316D01*
X131184982Y-93259451D01*
X131139928Y-93298490D01*
X131047234Y-93345720D01*
X130881634Y-93466033D01*
X130736876Y-93610791D01*
X130616563Y-93776391D01*
X130523629Y-93958781D01*
X130460370Y-94153470D01*
X130428348Y-94355653D01*
X130428348Y-94560356D01*
X130460370Y-94762539D01*
X130523629Y-94957228D01*
X130585194Y-95078054D01*
X130610584Y-95127885D01*
X130616563Y-95139618D01*
X130736876Y-95305218D01*
X130881634Y-95449976D01*
X131047233Y-95570289D01*
X131047235Y-95570290D01*
X131047238Y-95570292D01*
X131139928Y-95617520D01*
X131140478Y-95617800D01*
X131191274Y-95665775D01*
X131208069Y-95733596D01*
X131185532Y-95799730D01*
X131140478Y-95838770D01*
X131047492Y-95886148D01*
X131002925Y-95918528D01*
X131002925Y-95918529D01*
X131682402Y-96598005D01*
X131676187Y-96598005D01*
X131574454Y-96625264D01*
X131483242Y-96677925D01*
X131408768Y-96752399D01*
X131356107Y-96843611D01*
X131328848Y-96945344D01*
X131328848Y-96951558D01*
X130649372Y-96272082D01*
X130649371Y-96272082D01*
X130616991Y-96316649D01*
X130524092Y-96498973D01*
X130460857Y-96693587D01*
X130428848Y-96895687D01*
X130428848Y-97100322D01*
X130460857Y-97302422D01*
X130524092Y-97497036D01*
X130616989Y-97679355D01*
X130616995Y-97679364D01*
X130649371Y-97723926D01*
X130649372Y-97723927D01*
X131328848Y-97044451D01*
X131328848Y-97050666D01*
X131356107Y-97152399D01*
X131408768Y-97243611D01*
X131483242Y-97318085D01*
X131574454Y-97370746D01*
X131676187Y-97398005D01*
X131682401Y-97398005D01*
X131002924Y-98077479D01*
X131047498Y-98109864D01*
X131229816Y-98202760D01*
X131424430Y-98265995D01*
X131626531Y-98298005D01*
X131831165Y-98298005D01*
X132033265Y-98265995D01*
X132227879Y-98202760D01*
X132410197Y-98109864D01*
X132454769Y-98077479D01*
X131775295Y-97398005D01*
X131781509Y-97398005D01*
X131883242Y-97370746D01*
X131974454Y-97318085D01*
X132048928Y-97243611D01*
X132101589Y-97152399D01*
X132128848Y-97050666D01*
X132128848Y-97044452D01*
X132808322Y-97723926D01*
X132840707Y-97679354D01*
X132933603Y-97497036D01*
X132996838Y-97302422D01*
X133028848Y-97100322D01*
X133028848Y-96895687D01*
X132996838Y-96693587D01*
X132933603Y-96498973D01*
X132840707Y-96316655D01*
X132808322Y-96272082D01*
X132808322Y-96272081D01*
X132128848Y-96951556D01*
X132128848Y-96945344D01*
X132101589Y-96843611D01*
X132048928Y-96752399D01*
X131974454Y-96677925D01*
X131883242Y-96625264D01*
X131781509Y-96598005D01*
X131775294Y-96598005D01*
X132454770Y-95918529D01*
X132454769Y-95918528D01*
X132410207Y-95886152D01*
X132410198Y-95886146D01*
X132317217Y-95838770D01*
X132266421Y-95790795D01*
X132249626Y-95722974D01*
X132272163Y-95656840D01*
X132317218Y-95617800D01*
X132317768Y-95617520D01*
X132410458Y-95570292D01*
X132492205Y-95510900D01*
X132576061Y-95449976D01*
X132576063Y-95449973D01*
X132576067Y-95449971D01*
X132720814Y-95305224D01*
X132720816Y-95305220D01*
X132720819Y-95305218D01*
X132814500Y-95176275D01*
X132841135Y-95139615D01*
X132934068Y-94957224D01*
X132997325Y-94762539D01*
X133029348Y-94560357D01*
X133029348Y-94355653D01*
X133004218Y-94196992D01*
X132997325Y-94153470D01*
X132967145Y-94060586D01*
X132934068Y-93958786D01*
X132934066Y-93958783D01*
X132934066Y-93958781D01*
X132886366Y-93865166D01*
X132841135Y-93776395D01*
X132814674Y-93739974D01*
X132720819Y-93610791D01*
X132576061Y-93466033D01*
X132410462Y-93345720D01*
X132392304Y-93336468D01*
X132317765Y-93298488D01*
X132266971Y-93250516D01*
X132250176Y-93182695D01*
X132272713Y-93116560D01*
X132317765Y-93077521D01*
X132410458Y-93030292D01*
X132492205Y-92970900D01*
X132576061Y-92909976D01*
X132576063Y-92909973D01*
X132576067Y-92909971D01*
X132720814Y-92765224D01*
X132720816Y-92765220D01*
X132720819Y-92765218D01*
X132814500Y-92636275D01*
X132841135Y-92599615D01*
X132934068Y-92417224D01*
X132997325Y-92222539D01*
X133029348Y-92020357D01*
X133029348Y-91815653D01*
X133007590Y-91678278D01*
X132997325Y-91613470D01*
X132937625Y-91429734D01*
X132934068Y-91418786D01*
X132934066Y-91418783D01*
X132934066Y-91418781D01*
X132883854Y-91320236D01*
X132841135Y-91236395D01*
X132826961Y-91216886D01*
X132720819Y-91070791D01*
X132576061Y-90926033D01*
X132410462Y-90805720D01*
X132392502Y-90796569D01*
X132317765Y-90758488D01*
X132266971Y-90710516D01*
X132250176Y-90642695D01*
X132272713Y-90576560D01*
X132317765Y-90537521D01*
X132410458Y-90490292D01*
X132499566Y-90425552D01*
X132576061Y-90369976D01*
X132576063Y-90369973D01*
X132576067Y-90369971D01*
X132720814Y-90225224D01*
X132720816Y-90225220D01*
X132720819Y-90225218D01*
X132779929Y-90143859D01*
X132841135Y-90059615D01*
X132934068Y-89877224D01*
X132997325Y-89682539D01*
X133029348Y-89480357D01*
X133029348Y-89275653D01*
X133018444Y-89206806D01*
X132997325Y-89073470D01*
X132957415Y-88950640D01*
X132934068Y-88878786D01*
X132934066Y-88878782D01*
X132932562Y-88874153D01*
X132934691Y-88873460D01*
X132928219Y-88813216D01*
X132959497Y-88750739D01*
X133019588Y-88715090D01*
X133050247Y-88711240D01*
X138027449Y-88711240D01*
X138094488Y-88730925D01*
G37*
%TD.AperFunction*%
%TA.AperFunction,Conductor*%
G36*
X149069137Y-78508022D02*
G01*
X149097174Y-78513043D01*
X149102233Y-78517740D01*
X149108854Y-78519685D01*
X149127499Y-78541203D01*
X149148373Y-78560586D01*
X149150089Y-78567272D01*
X149154609Y-78572489D01*
X149158661Y-78600675D01*
X149165742Y-78628263D01*
X149164015Y-78637906D01*
X149164553Y-78641647D01*
X149159521Y-78663004D01*
X149112910Y-78803665D01*
X149102766Y-78902949D01*
X149102766Y-78951272D01*
X149928766Y-78951272D01*
X149995805Y-78970957D01*
X150041560Y-79023761D01*
X150052766Y-79075272D01*
X150052766Y-79201272D01*
X150178766Y-79201272D01*
X150245805Y-79220957D01*
X150291560Y-79273761D01*
X150302766Y-79325272D01*
X150302766Y-80176271D01*
X150326074Y-80176271D01*
X150326088Y-80176270D01*
X150425373Y-80166127D01*
X150586247Y-80112819D01*
X150586254Y-80112816D01*
X150663168Y-80065374D01*
X150670787Y-80063289D01*
X150676755Y-80058118D01*
X150704002Y-80054200D01*
X150730560Y-80046933D01*
X150738095Y-80049298D01*
X150745913Y-80048174D01*
X150770957Y-80059611D01*
X150797224Y-80067855D01*
X150802284Y-80073917D01*
X150809469Y-80077199D01*
X150824353Y-80100360D01*
X150841994Y-80121496D01*
X150843933Y-80130827D01*
X150847243Y-80135977D01*
X150852266Y-80170912D01*
X150852266Y-80370147D01*
X150832581Y-80437186D01*
X150779777Y-80482941D01*
X150766584Y-80488078D01*
X150603544Y-80541053D01*
X150421152Y-80633987D01*
X150255552Y-80754300D01*
X150110794Y-80899058D01*
X149990481Y-81064658D01*
X149897547Y-81247048D01*
X149834288Y-81441737D01*
X149802266Y-81643920D01*
X149802266Y-81848623D01*
X149834288Y-82050806D01*
X149897547Y-82245495D01*
X149948901Y-82346281D01*
X149988674Y-82424340D01*
X149990481Y-82427885D01*
X150110794Y-82593485D01*
X150255552Y-82738243D01*
X150390597Y-82836357D01*
X150421156Y-82858559D01*
X150503892Y-82900715D01*
X150513846Y-82905787D01*
X150564642Y-82953762D01*
X150581437Y-83021583D01*
X150558900Y-83087718D01*
X150513846Y-83126757D01*
X150421152Y-83173987D01*
X150255552Y-83294300D01*
X150110794Y-83439058D01*
X149990481Y-83604658D01*
X149897547Y-83787048D01*
X149834288Y-83981737D01*
X149802266Y-84183920D01*
X149802266Y-84388623D01*
X149834288Y-84590806D01*
X149897547Y-84785495D01*
X149990481Y-84967885D01*
X150110794Y-85133485D01*
X150255552Y-85278243D01*
X150359335Y-85353644D01*
X150421156Y-85398559D01*
X150512606Y-85445155D01*
X150513846Y-85445787D01*
X150564642Y-85493762D01*
X150581437Y-85561583D01*
X150558900Y-85627718D01*
X150513846Y-85666757D01*
X150421152Y-85713987D01*
X150255552Y-85834300D01*
X150110794Y-85979058D01*
X149990481Y-86144658D01*
X149897547Y-86327048D01*
X149834288Y-86521737D01*
X149802266Y-86723920D01*
X149802266Y-86928623D01*
X149834288Y-87130806D01*
X149897547Y-87325495D01*
X149955432Y-87439098D01*
X149988971Y-87504923D01*
X149990481Y-87507885D01*
X150110794Y-87673485D01*
X150255552Y-87818243D01*
X150374997Y-87905023D01*
X150421156Y-87938559D01*
X150512606Y-87985155D01*
X150513846Y-87985787D01*
X150564642Y-88033762D01*
X150581437Y-88101583D01*
X150558900Y-88167718D01*
X150513846Y-88206757D01*
X150421152Y-88253987D01*
X150255552Y-88374300D01*
X150110794Y-88519058D01*
X149990481Y-88684658D01*
X149897547Y-88867048D01*
X149834288Y-89061737D01*
X149802266Y-89263920D01*
X149802266Y-89468623D01*
X149834288Y-89670806D01*
X149897547Y-89865495D01*
X149940764Y-89950311D01*
X149985663Y-90038431D01*
X149990481Y-90047885D01*
X150110794Y-90213485D01*
X150255552Y-90358243D01*
X150397940Y-90461692D01*
X150421156Y-90478559D01*
X150512606Y-90525155D01*
X150513846Y-90525787D01*
X150564642Y-90573762D01*
X150581437Y-90641583D01*
X150558900Y-90707718D01*
X150513846Y-90746757D01*
X150421152Y-90793987D01*
X150255552Y-90914300D01*
X150110794Y-91059058D01*
X149990481Y-91224658D01*
X149897547Y-91407048D01*
X149834288Y-91601737D01*
X149802266Y-91803920D01*
X149802266Y-92008623D01*
X149834288Y-92210806D01*
X149897547Y-92405495D01*
X149961457Y-92530925D01*
X149989647Y-92586250D01*
X149990481Y-92587885D01*
X150110794Y-92753485D01*
X150255552Y-92898243D01*
X150397761Y-93001562D01*
X150421156Y-93018559D01*
X150512606Y-93065155D01*
X150513846Y-93065787D01*
X150564642Y-93113762D01*
X150581437Y-93181583D01*
X150558900Y-93247718D01*
X150513846Y-93286757D01*
X150421152Y-93333987D01*
X150255552Y-93454300D01*
X150110794Y-93599058D01*
X149990481Y-93764658D01*
X149897547Y-93947048D01*
X149834288Y-94141737D01*
X149802266Y-94343920D01*
X149802266Y-94548623D01*
X149834288Y-94750806D01*
X149897547Y-94945495D01*
X149946265Y-95041107D01*
X149988755Y-95124499D01*
X149990481Y-95127885D01*
X150110794Y-95293485D01*
X150255552Y-95438243D01*
X150387214Y-95533899D01*
X150421156Y-95558559D01*
X150508545Y-95603086D01*
X150513846Y-95605787D01*
X150564642Y-95653762D01*
X150581437Y-95721583D01*
X150558900Y-95787718D01*
X150513846Y-95826757D01*
X150421152Y-95873987D01*
X150255552Y-95994300D01*
X150110794Y-96139058D01*
X149990481Y-96304658D01*
X149897547Y-96487048D01*
X149834288Y-96681737D01*
X149808650Y-96843611D01*
X149802266Y-96883920D01*
X149802266Y-97088624D01*
X149806644Y-97116267D01*
X149834288Y-97290806D01*
X149897547Y-97485495D01*
X149957222Y-97602612D01*
X149990351Y-97667631D01*
X149990481Y-97667885D01*
X150110794Y-97833485D01*
X150255552Y-97978243D01*
X150404588Y-98086522D01*
X150421156Y-98098559D01*
X150534557Y-98156340D01*
X150603542Y-98191490D01*
X150603544Y-98191490D01*
X150603547Y-98191492D01*
X150703901Y-98224099D01*
X150798231Y-98254749D01*
X150869235Y-98265995D01*
X151000414Y-98286772D01*
X151000415Y-98286772D01*
X151205117Y-98286772D01*
X151205118Y-98286772D01*
X151407300Y-98254749D01*
X151601985Y-98191492D01*
X151784376Y-98098559D01*
X151911986Y-98005846D01*
X151949979Y-97978243D01*
X151949981Y-97978240D01*
X151949985Y-97978238D01*
X152094732Y-97833491D01*
X152094734Y-97833487D01*
X152094737Y-97833485D01*
X152152158Y-97754450D01*
X152215053Y-97667882D01*
X152307986Y-97485491D01*
X152371243Y-97290806D01*
X152403266Y-97088624D01*
X152403266Y-96883920D01*
X152395023Y-96831878D01*
X152371243Y-96681737D01*
X152330275Y-96555651D01*
X152307986Y-96487053D01*
X152307984Y-96487050D01*
X152307984Y-96487048D01*
X152261098Y-96395031D01*
X152215053Y-96304662D01*
X152191774Y-96272621D01*
X152094737Y-96139058D01*
X151949979Y-95994300D01*
X151784380Y-95873987D01*
X151722220Y-95842315D01*
X151691683Y-95826755D01*
X151640889Y-95778783D01*
X151624094Y-95710962D01*
X151646631Y-95644827D01*
X151691683Y-95605788D01*
X151784376Y-95558559D01*
X151862149Y-95502054D01*
X151949979Y-95438243D01*
X151949981Y-95438240D01*
X151949985Y-95438238D01*
X152094732Y-95293491D01*
X152094734Y-95293487D01*
X152094737Y-95293485D01*
X152153076Y-95213187D01*
X152215053Y-95127882D01*
X152307986Y-94945491D01*
X152371243Y-94750806D01*
X152403266Y-94548624D01*
X152403266Y-94343920D01*
X152387620Y-94245135D01*
X152371243Y-94141737D01*
X152318112Y-93978218D01*
X152307986Y-93947053D01*
X152307984Y-93947050D01*
X152307984Y-93947048D01*
X152270441Y-93873367D01*
X152215053Y-93764662D01*
X152191776Y-93732624D01*
X152094737Y-93599058D01*
X151949979Y-93454300D01*
X151784380Y-93333987D01*
X151714713Y-93298490D01*
X151691683Y-93286755D01*
X151640889Y-93238783D01*
X151624094Y-93170962D01*
X151646631Y-93104827D01*
X151691683Y-93065788D01*
X151784376Y-93018559D01*
X151862149Y-92962054D01*
X151949979Y-92898243D01*
X151949981Y-92898240D01*
X151949985Y-92898238D01*
X152094732Y-92753491D01*
X152094734Y-92753487D01*
X152094737Y-92753485D01*
X152147498Y-92680862D01*
X152215053Y-92587882D01*
X152307986Y-92405491D01*
X152371243Y-92210806D01*
X152403266Y-92008624D01*
X152403266Y-91803920D01*
X152376355Y-91634012D01*
X152371243Y-91601737D01*
X152315401Y-91429875D01*
X152307986Y-91407053D01*
X152307984Y-91407050D01*
X152307984Y-91407048D01*
X152270441Y-91333367D01*
X152215053Y-91224662D01*
X152191776Y-91192624D01*
X152094737Y-91059058D01*
X151949979Y-90914300D01*
X151784380Y-90793987D01*
X151777772Y-90790620D01*
X151691683Y-90746755D01*
X151640889Y-90698783D01*
X151624094Y-90630962D01*
X151646631Y-90564827D01*
X151691683Y-90525788D01*
X151784376Y-90478559D01*
X151807592Y-90461692D01*
X151949979Y-90358243D01*
X151949981Y-90358240D01*
X151949985Y-90358238D01*
X152094732Y-90213491D01*
X152094734Y-90213487D01*
X152094737Y-90213485D01*
X152170641Y-90109010D01*
X152215053Y-90047882D01*
X152305628Y-89870119D01*
X152305630Y-89870116D01*
X152307982Y-89865500D01*
X152307984Y-89865495D01*
X152307986Y-89865491D01*
X152371243Y-89670806D01*
X152403266Y-89468624D01*
X152403266Y-89263920D01*
X152393052Y-89199430D01*
X152371243Y-89061737D01*
X152340686Y-88967692D01*
X152307986Y-88867053D01*
X152307984Y-88867050D01*
X152307984Y-88867048D01*
X152270441Y-88793367D01*
X152215053Y-88684662D01*
X152192937Y-88654222D01*
X152094737Y-88519058D01*
X151949979Y-88374300D01*
X151784380Y-88253987D01*
X151731362Y-88226973D01*
X151691683Y-88206755D01*
X151640889Y-88158783D01*
X151624094Y-88090962D01*
X151646631Y-88024827D01*
X151691683Y-87985788D01*
X151784376Y-87938559D01*
X151840653Y-87897672D01*
X151949979Y-87818243D01*
X151949981Y-87818240D01*
X151949985Y-87818238D01*
X152094732Y-87673491D01*
X152094734Y-87673487D01*
X152094737Y-87673485D01*
X152174718Y-87563399D01*
X152215053Y-87507882D01*
X152283738Y-87373079D01*
X152305608Y-87330159D01*
X152305609Y-87330157D01*
X152307489Y-87326466D01*
X152307986Y-87325491D01*
X152371243Y-87130806D01*
X152403266Y-86928624D01*
X152403266Y-86723920D01*
X152394755Y-86670185D01*
X152371243Y-86521737D01*
X152333252Y-86404815D01*
X152307986Y-86327053D01*
X152307984Y-86327050D01*
X152307984Y-86327048D01*
X152269911Y-86252327D01*
X152215053Y-86144662D01*
X152207322Y-86134021D01*
X152094737Y-85979058D01*
X151949979Y-85834300D01*
X151784380Y-85713987D01*
X151714713Y-85678490D01*
X151691683Y-85666755D01*
X151640889Y-85618783D01*
X151624094Y-85550962D01*
X151646631Y-85484827D01*
X151691683Y-85445788D01*
X151784376Y-85398559D01*
X151846205Y-85353638D01*
X151949979Y-85278243D01*
X151949981Y-85278240D01*
X151949985Y-85278238D01*
X152094732Y-85133491D01*
X152094734Y-85133487D01*
X152094737Y-85133485D01*
X152182348Y-85012897D01*
X152215053Y-84967882D01*
X152307986Y-84785491D01*
X152371243Y-84590806D01*
X152403266Y-84388624D01*
X152403266Y-84183920D01*
X152384755Y-84067051D01*
X152383592Y-84059708D01*
X154220524Y-84059708D01*
X154220524Y-85855443D01*
X154220525Y-85855449D01*
X154226932Y-85915056D01*
X154277226Y-86049901D01*
X154277230Y-86049908D01*
X154363476Y-86165117D01*
X154363479Y-86165120D01*
X154478688Y-86251366D01*
X154478695Y-86251370D01*
X154502359Y-86260196D01*
X154613541Y-86301664D01*
X154673151Y-86308073D01*
X154683709Y-86308072D01*
X154750747Y-86327752D01*
X154771396Y-86344391D01*
X155441615Y-87014610D01*
X155378031Y-87031648D01*
X155264017Y-87097474D01*
X155170925Y-87190566D01*
X155105099Y-87304580D01*
X155088061Y-87368164D01*
X154455752Y-86735855D01*
X154455751Y-86735855D01*
X154416404Y-86790012D01*
X154319928Y-86979355D01*
X154254266Y-87181442D01*
X154254266Y-87181445D01*
X154221024Y-87391326D01*
X154221024Y-87603819D01*
X154254266Y-87813700D01*
X154254266Y-87813703D01*
X154319928Y-88015790D01*
X154416399Y-88205123D01*
X154455752Y-88259289D01*
X155088060Y-87626980D01*
X155105099Y-87690566D01*
X155170925Y-87804580D01*
X155264017Y-87897672D01*
X155378031Y-87963498D01*
X155441614Y-87980535D01*
X154809306Y-88612842D01*
X154809306Y-88612843D01*
X154863476Y-88652199D01*
X154863475Y-88652199D01*
X154872519Y-88656807D01*
X154923316Y-88704781D01*
X154940111Y-88772602D01*
X154917574Y-88838737D01*
X154872523Y-88877775D01*
X154863206Y-88882522D01*
X154691237Y-89007463D01*
X154540914Y-89157786D01*
X154415975Y-89329752D01*
X154319468Y-89519158D01*
X154319467Y-89519160D01*
X154319467Y-89519161D01*
X154317079Y-89526512D01*
X154253777Y-89721333D01*
X154230212Y-89870116D01*
X154220524Y-89931286D01*
X154220524Y-90143860D01*
X154224448Y-90168634D01*
X154242359Y-90281723D01*
X154253778Y-90353816D01*
X154318147Y-90551924D01*
X154319468Y-90555987D01*
X154415975Y-90745393D01*
X154540914Y-90917359D01*
X154691237Y-91067682D01*
X154863206Y-91192623D01*
X154871970Y-91197089D01*
X154922766Y-91245064D01*
X154939560Y-91312885D01*
X154917022Y-91379020D01*
X154871970Y-91418057D01*
X154863206Y-91422522D01*
X154691237Y-91547463D01*
X154540914Y-91697786D01*
X154415975Y-91869752D01*
X154319468Y-92059158D01*
X154319467Y-92059160D01*
X154319467Y-92059161D01*
X154317079Y-92066512D01*
X154253777Y-92261333D01*
X154243523Y-92326075D01*
X154220524Y-92471286D01*
X154220524Y-92683860D01*
X154230558Y-92747217D01*
X154252099Y-92883219D01*
X154253778Y-92893816D01*
X154313467Y-93077520D01*
X154319468Y-93095987D01*
X154415975Y-93285393D01*
X154540914Y-93457359D01*
X154691237Y-93607682D01*
X154863206Y-93732623D01*
X154871970Y-93737089D01*
X154922766Y-93785064D01*
X154939560Y-93852885D01*
X154917022Y-93919020D01*
X154871970Y-93958057D01*
X154863206Y-93962522D01*
X154691237Y-94087463D01*
X154540914Y-94237786D01*
X154415975Y-94409752D01*
X154319468Y-94599158D01*
X154319467Y-94599160D01*
X154319467Y-94599161D01*
X154317079Y-94606512D01*
X154253777Y-94801333D01*
X154226568Y-94973125D01*
X154220524Y-95011286D01*
X154220524Y-95223860D01*
X154223829Y-95244726D01*
X154252099Y-95423219D01*
X154253778Y-95433816D01*
X154313558Y-95617800D01*
X154319468Y-95635987D01*
X154415975Y-95825393D01*
X154540914Y-95997359D01*
X154691237Y-96147682D01*
X154863203Y-96272621D01*
X154863205Y-96272622D01*
X154863208Y-96272624D01*
X155052612Y-96369130D01*
X155254781Y-96434819D01*
X155464737Y-96468073D01*
X155464738Y-96468073D01*
X155677310Y-96468073D01*
X155677311Y-96468073D01*
X155887267Y-96434819D01*
X156089436Y-96369130D01*
X156278840Y-96272624D01*
X156426651Y-96165234D01*
X156450810Y-96147682D01*
X156450812Y-96147679D01*
X156450816Y-96147677D01*
X156601128Y-95997365D01*
X156601130Y-95997361D01*
X156601133Y-95997359D01*
X156726072Y-95825393D01*
X156726071Y-95825393D01*
X156726075Y-95825389D01*
X156822581Y-95635985D01*
X156888270Y-95433816D01*
X156921524Y-95223860D01*
X156921524Y-95011286D01*
X156888270Y-94801330D01*
X156822581Y-94599161D01*
X156726075Y-94409757D01*
X156726073Y-94409754D01*
X156726072Y-94409752D01*
X156601133Y-94237786D01*
X156450810Y-94087463D01*
X156278844Y-93962524D01*
X156278139Y-93962164D01*
X156270078Y-93958058D01*
X156219283Y-93910085D01*
X156202487Y-93842265D01*
X156225023Y-93776129D01*
X156270078Y-93737088D01*
X156278840Y-93732624D01*
X156358003Y-93675109D01*
X156450810Y-93607682D01*
X156450812Y-93607679D01*
X156450816Y-93607677D01*
X156601128Y-93457365D01*
X156601130Y-93457361D01*
X156601133Y-93457359D01*
X156726072Y-93285393D01*
X156726071Y-93285393D01*
X156726075Y-93285389D01*
X156822581Y-93095985D01*
X156888270Y-92893816D01*
X156921524Y-92683860D01*
X156921524Y-92471286D01*
X156888270Y-92261330D01*
X156822581Y-92059161D01*
X156726075Y-91869757D01*
X156726073Y-91869754D01*
X156726072Y-91869752D01*
X156601133Y-91697786D01*
X156450810Y-91547463D01*
X156278844Y-91422524D01*
X156278139Y-91422164D01*
X156270078Y-91418058D01*
X156219283Y-91370085D01*
X156202487Y-91302265D01*
X156225023Y-91236129D01*
X156270078Y-91197088D01*
X156278840Y-91192624D01*
X156377295Y-91121093D01*
X156450810Y-91067682D01*
X156450812Y-91067679D01*
X156450816Y-91067677D01*
X156601128Y-90917365D01*
X156601130Y-90917361D01*
X156601133Y-90917359D01*
X156722165Y-90750771D01*
X156726075Y-90745389D01*
X156822581Y-90555985D01*
X156888270Y-90353816D01*
X156921524Y-90143860D01*
X156921524Y-89931286D01*
X156888270Y-89721330D01*
X156822581Y-89519161D01*
X156726075Y-89329757D01*
X156726073Y-89329754D01*
X156726072Y-89329752D01*
X156601133Y-89157786D01*
X156450810Y-89007463D01*
X156278841Y-88882522D01*
X156269528Y-88877777D01*
X156218731Y-88829803D01*
X156201936Y-88761982D01*
X156224473Y-88695847D01*
X156269531Y-88656805D01*
X156278579Y-88652195D01*
X156332740Y-88612843D01*
X156332741Y-88612843D01*
X155700432Y-87980535D01*
X155764017Y-87963498D01*
X155878031Y-87897672D01*
X155971123Y-87804580D01*
X156036949Y-87690566D01*
X156053986Y-87626981D01*
X156686294Y-88259290D01*
X156686294Y-88259289D01*
X156725646Y-88205127D01*
X156822119Y-88015790D01*
X156887781Y-87813703D01*
X156887781Y-87813700D01*
X156921024Y-87603819D01*
X156921024Y-87391326D01*
X156887781Y-87181445D01*
X156887781Y-87181442D01*
X156822119Y-86979355D01*
X156725648Y-86790022D01*
X156686294Y-86735855D01*
X156686293Y-86735855D01*
X156053986Y-87368163D01*
X156036949Y-87304580D01*
X155971123Y-87190566D01*
X155878031Y-87097474D01*
X155764017Y-87031648D01*
X155700433Y-87014610D01*
X156370651Y-86344391D01*
X156431974Y-86310906D01*
X156458331Y-86308072D01*
X156468896Y-86308072D01*
X156528507Y-86301664D01*
X156663355Y-86251369D01*
X156778570Y-86165119D01*
X156864820Y-86049904D01*
X156915115Y-85915056D01*
X156921524Y-85855446D01*
X156921523Y-84059701D01*
X156915115Y-84000090D01*
X156912646Y-83993471D01*
X156864821Y-83865244D01*
X156864817Y-83865237D01*
X156778571Y-83750028D01*
X156778568Y-83750025D01*
X156663359Y-83663779D01*
X156663352Y-83663775D01*
X156528506Y-83613481D01*
X156528507Y-83613481D01*
X156468907Y-83607074D01*
X156468905Y-83607073D01*
X156468897Y-83607073D01*
X156468888Y-83607073D01*
X154673153Y-83607073D01*
X154673147Y-83607074D01*
X154613540Y-83613481D01*
X154478695Y-83663775D01*
X154478688Y-83663779D01*
X154363479Y-83750025D01*
X154363476Y-83750028D01*
X154277230Y-83865237D01*
X154277226Y-83865244D01*
X154226932Y-84000090D01*
X154221768Y-84048127D01*
X154220525Y-84059696D01*
X154220524Y-84059708D01*
X152383592Y-84059708D01*
X152375314Y-84007441D01*
X152371243Y-83981738D01*
X152307986Y-83787053D01*
X152307984Y-83787050D01*
X152307984Y-83787048D01*
X152248918Y-83671126D01*
X152215053Y-83604662D01*
X152180340Y-83556883D01*
X152094737Y-83439058D01*
X151949979Y-83294300D01*
X151784380Y-83173987D01*
X151714713Y-83138490D01*
X151691683Y-83126755D01*
X151640889Y-83078783D01*
X151624094Y-83010962D01*
X151646631Y-82944827D01*
X151691683Y-82905788D01*
X151784376Y-82858559D01*
X151814937Y-82836355D01*
X151949979Y-82738243D01*
X151949981Y-82738240D01*
X151949985Y-82738238D01*
X152094732Y-82593491D01*
X152094734Y-82593487D01*
X152094737Y-82593485D01*
X152182281Y-82472989D01*
X152215053Y-82427882D01*
X152307986Y-82245491D01*
X152371243Y-82050806D01*
X152403266Y-81848624D01*
X152403266Y-81643920D01*
X152371243Y-81441738D01*
X152355093Y-81392036D01*
X152351409Y-81329524D01*
X152353266Y-81320190D01*
X152353266Y-80003146D01*
X152372951Y-79936107D01*
X152389585Y-79915465D01*
X152389967Y-79915083D01*
X152400734Y-79904316D01*
X152489769Y-79759969D01*
X152543115Y-79598980D01*
X152553266Y-79499617D01*
X152553265Y-78902928D01*
X152552404Y-78894504D01*
X152543115Y-78803564D01*
X152543114Y-78803561D01*
X152533852Y-78775610D01*
X152496537Y-78663002D01*
X152494136Y-78593176D01*
X152529868Y-78533134D01*
X152592388Y-78501941D01*
X152614244Y-78500000D01*
X157883108Y-78500000D01*
X157950147Y-78519685D01*
X157995902Y-78572489D01*
X158005846Y-78641647D01*
X157988102Y-78689972D01*
X157895714Y-78837005D01*
X157778734Y-79079917D01*
X157689687Y-79334397D01*
X157689684Y-79334405D01*
X157629688Y-79597268D01*
X157629686Y-79597280D01*
X157599500Y-79865186D01*
X157599500Y-80134813D01*
X157629686Y-80402719D01*
X157629687Y-80402728D01*
X157629688Y-80402732D01*
X157637552Y-80437186D01*
X157689684Y-80665594D01*
X157689687Y-80665602D01*
X157778734Y-80920082D01*
X157895714Y-81162994D01*
X157929769Y-81217192D01*
X158039162Y-81391289D01*
X158207266Y-81602085D01*
X158397915Y-81792734D01*
X158608711Y-81960838D01*
X158837003Y-82104284D01*
X159079921Y-82221267D01*
X159257922Y-82283552D01*
X159334397Y-82310312D01*
X159334405Y-82310315D01*
X159334408Y-82310315D01*
X159334409Y-82310316D01*
X159597268Y-82370312D01*
X159865187Y-82400499D01*
X159865188Y-82400500D01*
X159865191Y-82400500D01*
X160134812Y-82400500D01*
X160134812Y-82400499D01*
X160402732Y-82370312D01*
X160665591Y-82310316D01*
X160920079Y-82221267D01*
X161162997Y-82104284D01*
X161310028Y-82011897D01*
X161377264Y-81992897D01*
X161444099Y-82013264D01*
X161489314Y-82066532D01*
X161500000Y-82116891D01*
X161500000Y-83553469D01*
X161480315Y-83620508D01*
X161427511Y-83666263D01*
X161358353Y-83676207D01*
X161332667Y-83669651D01*
X161201776Y-83620832D01*
X161201777Y-83620832D01*
X161142177Y-83614425D01*
X161142175Y-83614424D01*
X161142167Y-83614424D01*
X161142158Y-83614424D01*
X159346423Y-83614424D01*
X159346417Y-83614425D01*
X159286810Y-83620832D01*
X159151965Y-83671126D01*
X159151958Y-83671130D01*
X159036749Y-83757376D01*
X159036746Y-83757379D01*
X158950500Y-83872588D01*
X158950496Y-83872595D01*
X158900202Y-84007441D01*
X158893795Y-84067040D01*
X158893794Y-84067059D01*
X158893794Y-85862794D01*
X158893795Y-85862800D01*
X158900202Y-85922407D01*
X158950496Y-86057252D01*
X158950500Y-86057259D01*
X159036746Y-86172468D01*
X159036749Y-86172471D01*
X159151958Y-86258717D01*
X159151965Y-86258721D01*
X159181978Y-86269915D01*
X159286811Y-86309015D01*
X159346421Y-86315424D01*
X159356979Y-86315423D01*
X159424017Y-86335103D01*
X159444666Y-86351742D01*
X160114885Y-87021961D01*
X160051301Y-87038999D01*
X159937287Y-87104825D01*
X159844195Y-87197917D01*
X159778369Y-87311931D01*
X159761331Y-87375515D01*
X159129022Y-86743206D01*
X159129021Y-86743206D01*
X159089674Y-86797363D01*
X158993198Y-86986706D01*
X158927536Y-87188793D01*
X158927536Y-87188796D01*
X158894294Y-87398677D01*
X158894294Y-87611170D01*
X158927536Y-87821051D01*
X158927536Y-87821054D01*
X158993198Y-88023141D01*
X159089669Y-88212474D01*
X159129022Y-88266640D01*
X159761330Y-87634331D01*
X159778369Y-87697917D01*
X159844195Y-87811931D01*
X159937287Y-87905023D01*
X160051301Y-87970849D01*
X160114884Y-87987886D01*
X159482576Y-88620193D01*
X159482576Y-88620194D01*
X159536746Y-88659550D01*
X159536745Y-88659550D01*
X159545789Y-88664158D01*
X159596586Y-88712132D01*
X159613381Y-88779953D01*
X159590844Y-88846088D01*
X159545793Y-88885126D01*
X159536476Y-88889873D01*
X159364507Y-89014814D01*
X159214184Y-89165137D01*
X159089245Y-89337103D01*
X158992738Y-89526509D01*
X158992737Y-89526511D01*
X158992737Y-89526512D01*
X158982521Y-89557952D01*
X158927047Y-89728684D01*
X158893794Y-89938637D01*
X158893794Y-90151210D01*
X158925883Y-90353816D01*
X158927048Y-90361167D01*
X158990349Y-90555987D01*
X158992738Y-90563338D01*
X159089245Y-90752744D01*
X159214184Y-90924710D01*
X159364507Y-91075033D01*
X159536476Y-91199974D01*
X159545240Y-91204440D01*
X159596036Y-91252415D01*
X159612830Y-91320236D01*
X159590292Y-91386371D01*
X159545240Y-91425408D01*
X159536476Y-91429873D01*
X159364507Y-91554814D01*
X159364503Y-91554818D01*
X159214191Y-91705131D01*
X159214184Y-91705137D01*
X159089245Y-91877103D01*
X158992738Y-92066509D01*
X158927047Y-92268684D01*
X158893794Y-92478637D01*
X158893794Y-92691210D01*
X158925883Y-92893816D01*
X158927048Y-92901167D01*
X158990349Y-93095987D01*
X158992738Y-93103338D01*
X159089245Y-93292744D01*
X159214184Y-93464710D01*
X159364507Y-93615033D01*
X159536476Y-93739974D01*
X159545240Y-93744440D01*
X159596036Y-93792415D01*
X159612830Y-93860236D01*
X159590292Y-93926371D01*
X159545240Y-93965408D01*
X159536476Y-93969873D01*
X159364507Y-94094814D01*
X159214184Y-94245137D01*
X159089245Y-94417103D01*
X158992738Y-94606509D01*
X158927047Y-94808684D01*
X158903521Y-94957224D01*
X158893794Y-95018637D01*
X158893794Y-95231211D01*
X158903657Y-95293485D01*
X158926362Y-95436839D01*
X158927048Y-95441167D01*
X158990349Y-95635987D01*
X158992738Y-95643338D01*
X159089245Y-95832744D01*
X159214184Y-96004710D01*
X159364507Y-96155033D01*
X159536473Y-96279972D01*
X159536475Y-96279973D01*
X159536478Y-96279975D01*
X159725882Y-96376481D01*
X159928051Y-96442170D01*
X160138007Y-96475424D01*
X160138008Y-96475424D01*
X160350580Y-96475424D01*
X160350581Y-96475424D01*
X160560537Y-96442170D01*
X160762706Y-96376481D01*
X160952110Y-96279975D01*
X161110039Y-96165234D01*
X161124080Y-96155033D01*
X161124082Y-96155030D01*
X161124086Y-96155028D01*
X161274398Y-96004716D01*
X161274402Y-96004710D01*
X161275681Y-96002951D01*
X161276340Y-96002442D01*
X161277570Y-96001003D01*
X161277872Y-96001261D01*
X161331010Y-95960284D01*
X161400624Y-95954304D01*
X161462419Y-95986910D01*
X161496777Y-96047748D01*
X161500000Y-96075835D01*
X161500000Y-97883108D01*
X161480315Y-97950147D01*
X161427511Y-97995902D01*
X161358353Y-98005846D01*
X161310028Y-97988102D01*
X161162994Y-97895714D01*
X160920082Y-97778734D01*
X160665602Y-97689687D01*
X160665594Y-97689684D01*
X160468446Y-97644687D01*
X160402732Y-97629688D01*
X160402728Y-97629687D01*
X160402719Y-97629686D01*
X160134813Y-97599500D01*
X160134809Y-97599500D01*
X159865191Y-97599500D01*
X159865186Y-97599500D01*
X159597280Y-97629686D01*
X159597268Y-97629688D01*
X159334405Y-97689684D01*
X159334397Y-97689687D01*
X159079917Y-97778734D01*
X158837005Y-97895714D01*
X158608712Y-98039161D01*
X158397915Y-98207265D01*
X158207265Y-98397915D01*
X158039161Y-98608712D01*
X157895714Y-98837005D01*
X157778734Y-99079917D01*
X157689687Y-99334397D01*
X157689684Y-99334405D01*
X157629688Y-99597268D01*
X157629686Y-99597280D01*
X157599500Y-99865186D01*
X157599500Y-100134813D01*
X157629686Y-100402725D01*
X157689684Y-100665594D01*
X157689687Y-100665602D01*
X157778734Y-100920082D01*
X157895714Y-101162994D01*
X157988102Y-101310028D01*
X158007102Y-101377265D01*
X157986734Y-101444100D01*
X157933466Y-101489314D01*
X157883108Y-101500000D01*
X151248773Y-101500000D01*
X151181734Y-101480315D01*
X151135979Y-101427511D01*
X151124773Y-101376000D01*
X151124773Y-100918494D01*
X151118805Y-100852820D01*
X151118359Y-100847912D01*
X151067751Y-100685502D01*
X150979745Y-100539923D01*
X150979743Y-100539921D01*
X150979742Y-100539919D01*
X150877612Y-100437789D01*
X150844127Y-100376466D01*
X150849111Y-100306774D01*
X150877612Y-100262427D01*
X150979741Y-100160297D01*
X150979742Y-100160296D01*
X150979745Y-100160293D01*
X151067751Y-100014714D01*
X151118359Y-99852304D01*
X151124773Y-99781724D01*
X151124773Y-99268492D01*
X151118359Y-99197912D01*
X151067751Y-99035502D01*
X150979745Y-98889923D01*
X150979743Y-98889921D01*
X150979742Y-98889919D01*
X150859461Y-98769638D01*
X150834469Y-98754530D01*
X150713879Y-98681630D01*
X150551469Y-98631022D01*
X150551467Y-98631021D01*
X150551465Y-98631021D01*
X150502051Y-98626531D01*
X150480889Y-98624608D01*
X150480886Y-98624608D01*
X150040708Y-98624608D01*
X149973669Y-98604923D01*
X149953027Y-98588289D01*
X149735266Y-98370528D01*
X149701781Y-98309205D01*
X149701340Y-98307089D01*
X149697619Y-98288380D01*
X149642929Y-98156347D01*
X149642928Y-98156346D01*
X149642925Y-98156340D01*
X149563532Y-98037521D01*
X149563529Y-98037517D01*
X149462482Y-97936470D01*
X149462478Y-97936467D01*
X149343659Y-97857074D01*
X149343650Y-97857069D01*
X149211620Y-97802381D01*
X149211614Y-97802379D01*
X149071457Y-97774500D01*
X149071455Y-97774500D01*
X148928545Y-97774500D01*
X148928543Y-97774500D01*
X148788385Y-97802379D01*
X148788379Y-97802381D01*
X148656349Y-97857069D01*
X148656340Y-97857074D01*
X148537521Y-97936467D01*
X148537517Y-97936470D01*
X148436470Y-98037517D01*
X148436467Y-98037521D01*
X148357074Y-98156340D01*
X148357069Y-98156349D01*
X148302381Y-98288379D01*
X148302379Y-98288385D01*
X148274500Y-98428542D01*
X148274500Y-98428545D01*
X148274500Y-98571455D01*
X148274500Y-98571457D01*
X148274499Y-98571457D01*
X148303125Y-98715363D01*
X148296898Y-98784955D01*
X148254035Y-98840132D01*
X148194112Y-98862913D01*
X148161324Y-98866262D01*
X148161323Y-98866263D01*
X148119696Y-98880057D01*
X148001723Y-98919149D01*
X148001712Y-98919154D01*
X147858620Y-99007415D01*
X147858616Y-99007418D01*
X147826689Y-99039346D01*
X147765366Y-99072831D01*
X147695674Y-99067847D01*
X147651327Y-99039346D01*
X147619399Y-99007418D01*
X147619395Y-99007415D01*
X147476303Y-98919154D01*
X147476297Y-98919151D01*
X147476295Y-98919150D01*
X147316693Y-98866263D01*
X147316691Y-98866262D01*
X147218189Y-98856199D01*
X147218182Y-98856199D01*
X146684834Y-98856199D01*
X146684826Y-98856199D01*
X146586324Y-98866262D01*
X146586323Y-98866263D01*
X146544696Y-98880057D01*
X146426723Y-98919149D01*
X146426712Y-98919154D01*
X146283617Y-99007416D01*
X146283615Y-99007418D01*
X146281030Y-99010004D01*
X146278819Y-99011211D01*
X146277949Y-99011899D01*
X146277831Y-99011750D01*
X146219704Y-99043485D01*
X146169164Y-99043935D01*
X146071455Y-99024500D01*
X145928545Y-99024500D01*
X145928543Y-99024500D01*
X145788385Y-99052379D01*
X145788379Y-99052381D01*
X145656349Y-99107069D01*
X145656340Y-99107074D01*
X145537521Y-99186467D01*
X145537517Y-99186470D01*
X145436470Y-99287517D01*
X145436467Y-99287521D01*
X145357074Y-99406340D01*
X145357069Y-99406349D01*
X145302381Y-99538379D01*
X145302379Y-99538385D01*
X145274500Y-99678542D01*
X145274500Y-99678545D01*
X145274500Y-99821455D01*
X145274500Y-99821457D01*
X145274499Y-99821457D01*
X145302379Y-99961614D01*
X145302381Y-99961620D01*
X145357069Y-100093650D01*
X145357074Y-100093659D01*
X145436467Y-100212478D01*
X145436470Y-100212482D01*
X145537517Y-100313529D01*
X145537521Y-100313532D01*
X145656340Y-100392925D01*
X145656349Y-100392930D01*
X145680013Y-100402732D01*
X145788380Y-100447619D01*
X145788384Y-100447619D01*
X145788385Y-100447620D01*
X145928542Y-100475500D01*
X146057531Y-100475500D01*
X146124570Y-100495185D01*
X146160188Y-100531468D01*
X146160246Y-100531423D01*
X146160666Y-100531954D01*
X146163069Y-100534402D01*
X146164726Y-100537089D01*
X146283616Y-100655979D01*
X146283620Y-100655982D01*
X146426712Y-100744243D01*
X146426715Y-100744244D01*
X146426721Y-100744248D01*
X146586323Y-100797135D01*
X146684834Y-100807199D01*
X146684839Y-100807199D01*
X147218177Y-100807199D01*
X147218182Y-100807199D01*
X147316693Y-100797135D01*
X147476295Y-100744248D01*
X147619399Y-100655980D01*
X147651327Y-100624052D01*
X147712650Y-100590567D01*
X147782342Y-100595551D01*
X147813146Y-100612337D01*
X147820339Y-100617702D01*
X147858617Y-100655980D01*
X147933975Y-100702461D01*
X147938359Y-100705731D01*
X147956190Y-100729465D01*
X147976042Y-100751536D01*
X147979214Y-100760109D01*
X147980327Y-100761591D01*
X147980466Y-100763494D01*
X147983995Y-100773032D01*
X147999544Y-100831061D01*
X147999547Y-100831068D01*
X148073992Y-100960012D01*
X148073996Y-100960017D01*
X148402298Y-101288319D01*
X148435783Y-101349642D01*
X148430799Y-101419334D01*
X148388927Y-101475267D01*
X148323463Y-101499684D01*
X148314617Y-101500000D01*
X143929500Y-101500000D01*
X143862461Y-101480315D01*
X143816706Y-101427511D01*
X143805500Y-101376000D01*
X143805500Y-100903386D01*
X143800905Y-100852820D01*
X143799086Y-100832804D01*
X143748478Y-100670394D01*
X143660472Y-100524815D01*
X143660470Y-100524813D01*
X143660469Y-100524811D01*
X143558339Y-100422681D01*
X143524854Y-100361358D01*
X143529838Y-100291666D01*
X143558339Y-100247319D01*
X143660468Y-100145189D01*
X143660469Y-100145188D01*
X143660472Y-100145185D01*
X143748478Y-99999606D01*
X143799086Y-99837196D01*
X143805500Y-99766616D01*
X143805500Y-99253384D01*
X143799086Y-99182804D01*
X143748478Y-99020394D01*
X143660472Y-98874815D01*
X143660470Y-98874813D01*
X143660469Y-98874811D01*
X143540188Y-98754530D01*
X143486395Y-98722011D01*
X143394606Y-98666522D01*
X143232196Y-98615914D01*
X143232194Y-98615913D01*
X143232192Y-98615913D01*
X143182778Y-98611423D01*
X143161616Y-98609500D01*
X143161613Y-98609500D01*
X142780600Y-98609500D01*
X142713561Y-98589815D01*
X142692919Y-98573181D01*
X141601819Y-97482081D01*
X141568334Y-97420758D01*
X141565500Y-97394400D01*
X141565500Y-90425552D01*
X141565500Y-90425550D01*
X141526962Y-90281725D01*
X141452513Y-90152775D01*
X141347225Y-90047487D01*
X141347224Y-90047486D01*
X141342894Y-90043156D01*
X141342883Y-90043146D01*
X140685667Y-89385929D01*
X140652182Y-89324606D01*
X140649348Y-89298248D01*
X140649348Y-89275653D01*
X140617325Y-89073470D01*
X140577415Y-88950640D01*
X140554068Y-88878786D01*
X140554066Y-88878782D01*
X140552562Y-88874153D01*
X140554691Y-88873460D01*
X140548219Y-88813216D01*
X140579497Y-88750739D01*
X140639588Y-88715090D01*
X140670247Y-88711240D01*
X142157501Y-88711240D01*
X142224540Y-88730925D01*
X142270295Y-88783729D01*
X142280239Y-88852887D01*
X142275432Y-88873558D01*
X142214289Y-89061733D01*
X142214289Y-89061736D01*
X142182266Y-89263920D01*
X142182266Y-89468623D01*
X142214288Y-89670806D01*
X142277547Y-89865495D01*
X142320764Y-89950311D01*
X142365663Y-90038431D01*
X142370481Y-90047885D01*
X142490794Y-90213485D01*
X142635552Y-90358243D01*
X142777940Y-90461692D01*
X142801156Y-90478559D01*
X142892606Y-90525155D01*
X142893846Y-90525787D01*
X142944642Y-90573762D01*
X142961437Y-90641583D01*
X142938900Y-90707718D01*
X142893846Y-90746757D01*
X142801152Y-90793987D01*
X142635552Y-90914300D01*
X142490794Y-91059058D01*
X142370481Y-91224658D01*
X142277547Y-91407048D01*
X142214288Y-91601737D01*
X142182266Y-91803920D01*
X142182266Y-92008623D01*
X142214288Y-92210806D01*
X142277547Y-92405495D01*
X142341457Y-92530925D01*
X142369647Y-92586250D01*
X142370481Y-92587885D01*
X142490794Y-92753485D01*
X142635552Y-92898243D01*
X142777761Y-93001562D01*
X142801156Y-93018559D01*
X142892606Y-93065155D01*
X142893846Y-93065787D01*
X142944642Y-93113762D01*
X142961437Y-93181583D01*
X142938900Y-93247718D01*
X142893846Y-93286757D01*
X142801152Y-93333987D01*
X142635552Y-93454300D01*
X142490794Y-93599058D01*
X142370481Y-93764658D01*
X142277547Y-93947048D01*
X142214288Y-94141737D01*
X142182266Y-94343920D01*
X142182266Y-94548623D01*
X142214288Y-94750806D01*
X142277547Y-94945495D01*
X142326265Y-95041107D01*
X142368755Y-95124499D01*
X142370481Y-95127885D01*
X142490794Y-95293485D01*
X142635552Y-95438243D01*
X142801151Y-95558556D01*
X142801153Y-95558557D01*
X142801156Y-95558559D01*
X142888545Y-95603086D01*
X142894396Y-95606067D01*
X142945192Y-95654042D01*
X142961987Y-95721863D01*
X142939450Y-95787997D01*
X142894396Y-95827037D01*
X142801410Y-95874415D01*
X142756843Y-95906795D01*
X142756843Y-95906796D01*
X143436320Y-96586272D01*
X143430105Y-96586272D01*
X143328372Y-96613531D01*
X143237160Y-96666192D01*
X143162686Y-96740666D01*
X143110025Y-96831878D01*
X143082766Y-96933611D01*
X143082766Y-96939825D01*
X142403290Y-96260349D01*
X142403289Y-96260349D01*
X142370909Y-96304916D01*
X142278010Y-96487240D01*
X142214775Y-96681854D01*
X142182766Y-96883954D01*
X142182766Y-97088589D01*
X142214775Y-97290689D01*
X142278010Y-97485303D01*
X142370907Y-97667622D01*
X142370913Y-97667631D01*
X142403289Y-97712193D01*
X142403290Y-97712194D01*
X143082766Y-97032718D01*
X143082766Y-97038933D01*
X143110025Y-97140666D01*
X143162686Y-97231878D01*
X143237160Y-97306352D01*
X143328372Y-97359013D01*
X143430105Y-97386272D01*
X143436319Y-97386272D01*
X142756842Y-98065746D01*
X142801416Y-98098131D01*
X142983734Y-98191027D01*
X143178348Y-98254262D01*
X143380449Y-98286272D01*
X143585083Y-98286272D01*
X143787183Y-98254262D01*
X143981797Y-98191027D01*
X144164115Y-98098131D01*
X144208687Y-98065746D01*
X143529213Y-97386272D01*
X143535427Y-97386272D01*
X143637160Y-97359013D01*
X143728372Y-97306352D01*
X143802846Y-97231878D01*
X143855507Y-97140666D01*
X143882766Y-97038933D01*
X143882766Y-97032719D01*
X144562240Y-97712193D01*
X144594625Y-97667621D01*
X144687521Y-97485303D01*
X144750756Y-97290689D01*
X144782766Y-97088589D01*
X144782766Y-96883954D01*
X144750756Y-96681854D01*
X144687521Y-96487240D01*
X144594625Y-96304922D01*
X144562240Y-96260349D01*
X144562240Y-96260348D01*
X143882766Y-96939823D01*
X143882766Y-96933611D01*
X143855507Y-96831878D01*
X143802846Y-96740666D01*
X143728372Y-96666192D01*
X143637160Y-96613531D01*
X143535427Y-96586272D01*
X143529212Y-96586272D01*
X144208688Y-95906796D01*
X144208687Y-95906795D01*
X144164125Y-95874419D01*
X144164116Y-95874413D01*
X144071135Y-95827037D01*
X144020339Y-95779062D01*
X144003544Y-95711241D01*
X144026081Y-95645107D01*
X144071136Y-95606067D01*
X144076987Y-95603086D01*
X144164376Y-95558559D01*
X144275304Y-95477966D01*
X144329979Y-95438243D01*
X144329981Y-95438240D01*
X144329985Y-95438238D01*
X144474732Y-95293491D01*
X144474734Y-95293487D01*
X144474737Y-95293485D01*
X144533076Y-95213187D01*
X144595053Y-95127882D01*
X144687986Y-94945491D01*
X144751243Y-94750806D01*
X144783266Y-94548624D01*
X144783266Y-94343920D01*
X144767620Y-94245135D01*
X144751243Y-94141737D01*
X144698112Y-93978218D01*
X144687986Y-93947053D01*
X144687984Y-93947050D01*
X144687984Y-93947048D01*
X144650441Y-93873367D01*
X144595053Y-93764662D01*
X144571776Y-93732624D01*
X144474737Y-93599058D01*
X144329979Y-93454300D01*
X144164380Y-93333987D01*
X144094713Y-93298490D01*
X144071683Y-93286755D01*
X144020889Y-93238783D01*
X144004094Y-93170962D01*
X144026631Y-93104827D01*
X144071683Y-93065788D01*
X144164376Y-93018559D01*
X144242149Y-92962054D01*
X144329979Y-92898243D01*
X144329981Y-92898240D01*
X144329985Y-92898238D01*
X144474732Y-92753491D01*
X144474734Y-92753487D01*
X144474737Y-92753485D01*
X144527498Y-92680862D01*
X144595053Y-92587882D01*
X144687986Y-92405491D01*
X144751243Y-92210806D01*
X144783266Y-92008624D01*
X144783266Y-91803920D01*
X144756355Y-91634012D01*
X144751243Y-91601737D01*
X144695401Y-91429875D01*
X144687986Y-91407053D01*
X144687984Y-91407050D01*
X144687984Y-91407048D01*
X144650441Y-91333367D01*
X144595053Y-91224662D01*
X144571776Y-91192624D01*
X144474737Y-91059058D01*
X144329979Y-90914300D01*
X144164380Y-90793987D01*
X144157772Y-90790620D01*
X144071683Y-90746755D01*
X144020889Y-90698783D01*
X144004094Y-90630962D01*
X144026631Y-90564827D01*
X144071683Y-90525788D01*
X144164376Y-90478559D01*
X144187592Y-90461692D01*
X144329979Y-90358243D01*
X144329981Y-90358240D01*
X144329985Y-90358238D01*
X144474732Y-90213491D01*
X144474734Y-90213487D01*
X144474737Y-90213485D01*
X144550641Y-90109010D01*
X144595053Y-90047882D01*
X144687986Y-89865491D01*
X144751243Y-89670806D01*
X144783266Y-89468624D01*
X144783266Y-89263920D01*
X144773052Y-89199430D01*
X144751243Y-89061737D01*
X144720686Y-88967692D01*
X144687986Y-88867053D01*
X144687984Y-88867050D01*
X144687984Y-88867048D01*
X144650441Y-88793367D01*
X144595053Y-88684662D01*
X144572937Y-88654222D01*
X144474737Y-88519058D01*
X144329979Y-88374300D01*
X144164380Y-88253987D01*
X144111362Y-88226973D01*
X144071683Y-88206755D01*
X144020889Y-88158783D01*
X144004094Y-88090962D01*
X144026631Y-88024827D01*
X144071683Y-87985788D01*
X144164376Y-87938559D01*
X144220653Y-87897672D01*
X144329979Y-87818243D01*
X144329981Y-87818240D01*
X144329985Y-87818238D01*
X144474732Y-87673491D01*
X144474734Y-87673487D01*
X144474737Y-87673485D01*
X144554718Y-87563399D01*
X144595053Y-87507882D01*
X144687986Y-87325491D01*
X144751243Y-87130806D01*
X144783266Y-86928624D01*
X144783266Y-86723920D01*
X144774755Y-86670185D01*
X144751243Y-86521737D01*
X144713252Y-86404815D01*
X144687986Y-86327053D01*
X144687984Y-86327050D01*
X144687984Y-86327048D01*
X144649911Y-86252327D01*
X144595053Y-86144662D01*
X144587322Y-86134021D01*
X144474737Y-85979058D01*
X144329979Y-85834300D01*
X144164380Y-85713987D01*
X144094713Y-85678490D01*
X144071683Y-85666755D01*
X144020889Y-85618783D01*
X144004094Y-85550962D01*
X144026631Y-85484827D01*
X144071683Y-85445788D01*
X144164376Y-85398559D01*
X144226205Y-85353638D01*
X144329979Y-85278243D01*
X144329981Y-85278240D01*
X144329985Y-85278238D01*
X144474732Y-85133491D01*
X144474734Y-85133487D01*
X144474737Y-85133485D01*
X144562348Y-85012897D01*
X144595053Y-84967882D01*
X144687986Y-84785491D01*
X144751243Y-84590806D01*
X144783266Y-84388624D01*
X144783266Y-84183920D01*
X144764756Y-84067052D01*
X144751243Y-83981737D01*
X144713391Y-83865242D01*
X144687986Y-83787053D01*
X144687984Y-83787050D01*
X144687984Y-83787048D01*
X144628918Y-83671126D01*
X144595053Y-83604662D01*
X144560340Y-83556883D01*
X144474737Y-83439058D01*
X144329985Y-83294306D01*
X144314114Y-83282775D01*
X144236313Y-83226250D01*
X144193648Y-83170921D01*
X144187669Y-83101308D01*
X144220274Y-83039512D01*
X144270192Y-83008227D01*
X144352100Y-82981086D01*
X144501422Y-82888984D01*
X144625478Y-82764928D01*
X144717580Y-82615606D01*
X144772765Y-82449069D01*
X144783266Y-82346281D01*
X144783265Y-81146264D01*
X144776576Y-81080787D01*
X144772765Y-81043475D01*
X144772764Y-81043472D01*
X144760107Y-81005277D01*
X144717580Y-80876938D01*
X144625478Y-80727616D01*
X144501422Y-80603560D01*
X144371124Y-80523192D01*
X144352102Y-80511459D01*
X144352097Y-80511457D01*
X144350628Y-80510970D01*
X144185563Y-80456273D01*
X144185561Y-80456272D01*
X144082776Y-80445772D01*
X142882764Y-80445772D01*
X142882747Y-80445773D01*
X142779969Y-80456272D01*
X142779966Y-80456273D01*
X142613434Y-80511457D01*
X142613429Y-80511459D01*
X142464108Y-80603561D01*
X142340055Y-80727614D01*
X142247953Y-80876935D01*
X142247951Y-80876940D01*
X142221312Y-80957333D01*
X142192767Y-81043475D01*
X142192767Y-81043476D01*
X142192766Y-81043476D01*
X142182266Y-81146255D01*
X142182266Y-82346273D01*
X142182267Y-82346290D01*
X142192766Y-82449068D01*
X142192767Y-82449071D01*
X142247951Y-82615603D01*
X142247953Y-82615608D01*
X142255187Y-82627336D01*
X142340054Y-82764928D01*
X142464110Y-82888984D01*
X142613432Y-82981086D01*
X142695336Y-83008226D01*
X142752781Y-83047999D01*
X142779604Y-83112515D01*
X142767289Y-83181290D01*
X142729217Y-83226250D01*
X142635553Y-83294300D01*
X142635548Y-83294304D01*
X142490794Y-83439058D01*
X142370481Y-83604658D01*
X142277547Y-83787048D01*
X142214288Y-83981737D01*
X142182266Y-84183920D01*
X142182266Y-84388623D01*
X142214288Y-84590806D01*
X142277547Y-84785495D01*
X142370481Y-84967885D01*
X142490794Y-85133485D01*
X142635552Y-85278243D01*
X142739335Y-85353644D01*
X142801156Y-85398559D01*
X142892606Y-85445155D01*
X142893846Y-85445787D01*
X142944642Y-85493762D01*
X142961437Y-85561583D01*
X142938900Y-85627718D01*
X142893846Y-85666757D01*
X142801152Y-85713987D01*
X142635552Y-85834300D01*
X142490794Y-85979058D01*
X142370481Y-86144658D01*
X142277547Y-86327048D01*
X142214288Y-86521737D01*
X142182266Y-86723920D01*
X142182266Y-86928623D01*
X142214288Y-87130802D01*
X142215426Y-87135541D01*
X142213930Y-87135900D01*
X142215731Y-87198945D01*
X142183486Y-87255102D01*
X141994668Y-87443921D01*
X141933345Y-87477406D01*
X141906987Y-87480240D01*
X140678270Y-87480240D01*
X140611231Y-87460555D01*
X140565476Y-87407751D01*
X140555532Y-87338593D01*
X140560336Y-87317931D01*
X140617325Y-87142539D01*
X140649348Y-86940357D01*
X140649348Y-86735653D01*
X140631901Y-86625500D01*
X140617325Y-86533470D01*
X140559275Y-86354811D01*
X140554068Y-86338786D01*
X140554066Y-86338783D01*
X140554066Y-86338781D01*
X140505100Y-86242681D01*
X140461135Y-86156395D01*
X140428318Y-86111226D01*
X140340819Y-85990791D01*
X140196061Y-85846033D01*
X140030462Y-85725720D01*
X140012451Y-85716543D01*
X139937765Y-85678488D01*
X139886971Y-85630516D01*
X139870176Y-85562695D01*
X139892713Y-85496560D01*
X139937765Y-85457521D01*
X140030458Y-85410292D01*
X140108428Y-85353644D01*
X140196061Y-85289976D01*
X140196063Y-85289973D01*
X140196067Y-85289971D01*
X140340814Y-85145224D01*
X140340816Y-85145220D01*
X140340819Y-85145218D01*
X140393580Y-85072595D01*
X140461135Y-84979615D01*
X140554068Y-84797224D01*
X140617325Y-84602539D01*
X140649348Y-84400357D01*
X140649348Y-84195653D01*
X140619538Y-84007441D01*
X140617325Y-83993470D01*
X140578048Y-83872588D01*
X140554068Y-83798786D01*
X140554066Y-83798783D01*
X140554066Y-83798781D01*
X140520351Y-83732612D01*
X140461135Y-83616395D01*
X140452608Y-83604658D01*
X140340819Y-83450791D01*
X140196061Y-83306033D01*
X140030462Y-83185720D01*
X140021768Y-83181290D01*
X139937765Y-83138488D01*
X139886971Y-83090516D01*
X139870176Y-83022695D01*
X139892713Y-82956560D01*
X139937765Y-82917521D01*
X140030458Y-82870292D01*
X140051618Y-82854918D01*
X140196061Y-82749976D01*
X140196063Y-82749973D01*
X140196067Y-82749971D01*
X140340814Y-82605224D01*
X140340816Y-82605220D01*
X140340819Y-82605218D01*
X140410173Y-82509759D01*
X140461135Y-82439615D01*
X140554068Y-82257224D01*
X140617325Y-82062539D01*
X140649348Y-81860357D01*
X140649348Y-81655653D01*
X140640529Y-81599977D01*
X140649483Y-81530686D01*
X140662830Y-81507494D01*
X140668504Y-81499715D01*
X140686787Y-81481434D01*
X140739130Y-81403095D01*
X140768919Y-81358513D01*
X140825493Y-81221931D01*
X140840037Y-81148815D01*
X140854335Y-81076938D01*
X140854335Y-79975091D01*
X140874020Y-79908052D01*
X140890654Y-79887410D01*
X140901803Y-79876261D01*
X140990838Y-79731914D01*
X141044184Y-79570925D01*
X141051471Y-79499594D01*
X149102767Y-79499594D01*
X149112910Y-79598879D01*
X149166218Y-79759753D01*
X149166223Y-79759764D01*
X149255190Y-79904000D01*
X149255193Y-79904004D01*
X149375033Y-80023844D01*
X149375037Y-80023847D01*
X149519273Y-80112814D01*
X149519284Y-80112819D01*
X149680159Y-80166127D01*
X149779449Y-80176271D01*
X149802766Y-80176270D01*
X149802766Y-79451272D01*
X149102767Y-79451272D01*
X149102767Y-79499594D01*
X141051471Y-79499594D01*
X141054335Y-79471562D01*
X141054334Y-79173217D01*
X141054334Y-78874879D01*
X141054333Y-78874861D01*
X141044184Y-78775509D01*
X141044183Y-78775506D01*
X141006904Y-78663004D01*
X141004502Y-78593175D01*
X141040234Y-78533134D01*
X141102755Y-78501941D01*
X141124610Y-78500000D01*
X149041815Y-78500000D01*
X149069137Y-78508022D01*
G37*
%TD.AperFunction*%
%TA.AperFunction,Conductor*%
G36*
X113275608Y-87268331D02*
G01*
X113322298Y-87320310D01*
X113334441Y-87373826D01*
X113334441Y-88506633D01*
X113314756Y-88573672D01*
X113283326Y-88606951D01*
X113137728Y-88712733D01*
X113137723Y-88712737D01*
X112992973Y-88857487D01*
X112924557Y-88951654D01*
X112869227Y-88994319D01*
X112799613Y-89000298D01*
X112737818Y-88967692D01*
X112706533Y-88917772D01*
X112679299Y-88835585D01*
X112679297Y-88835580D01*
X112587256Y-88686359D01*
X112463286Y-88562389D01*
X112314065Y-88470348D01*
X112314060Y-88470346D01*
X112147638Y-88415199D01*
X112147631Y-88415198D01*
X112044927Y-88404705D01*
X111694941Y-88404705D01*
X111694941Y-89389019D01*
X111690547Y-89384625D01*
X111599335Y-89331964D01*
X111497602Y-89304705D01*
X111392280Y-89304705D01*
X111290547Y-89331964D01*
X111199335Y-89384625D01*
X111194941Y-89389019D01*
X111194941Y-88404705D01*
X110844969Y-88404705D01*
X110844953Y-88404706D01*
X110742243Y-88415199D01*
X110575821Y-88470346D01*
X110575816Y-88470348D01*
X110426595Y-88562389D01*
X110302625Y-88686359D01*
X110210584Y-88835580D01*
X110210582Y-88835585D01*
X110155435Y-89002007D01*
X110155434Y-89002014D01*
X110144941Y-89104718D01*
X110144941Y-89454705D01*
X111129255Y-89454705D01*
X111124861Y-89459099D01*
X111072200Y-89550311D01*
X111044941Y-89652044D01*
X111044941Y-89757366D01*
X111072200Y-89859099D01*
X111124861Y-89950311D01*
X111129255Y-89954705D01*
X110144942Y-89954705D01*
X110144942Y-90304691D01*
X110155435Y-90407402D01*
X110210582Y-90573824D01*
X110210584Y-90573829D01*
X110302625Y-90723050D01*
X110426595Y-90847020D01*
X110575816Y-90939061D01*
X110575821Y-90939063D01*
X110742243Y-90994210D01*
X110742250Y-90994211D01*
X110844960Y-91004704D01*
X111194940Y-91004704D01*
X111194941Y-91004703D01*
X111194941Y-90020391D01*
X111199335Y-90024785D01*
X111290547Y-90077446D01*
X111392280Y-90104705D01*
X111497602Y-90104705D01*
X111599335Y-90077446D01*
X111690547Y-90024785D01*
X111694941Y-90020391D01*
X111694941Y-91004704D01*
X112044913Y-91004704D01*
X112044927Y-91004703D01*
X112147638Y-90994210D01*
X112314060Y-90939063D01*
X112314065Y-90939061D01*
X112463286Y-90847020D01*
X112587256Y-90723050D01*
X112679297Y-90573829D01*
X112679300Y-90573822D01*
X112706533Y-90491637D01*
X112746305Y-90434192D01*
X112810820Y-90407368D01*
X112879596Y-90419682D01*
X112924557Y-90457754D01*
X112948195Y-90490289D01*
X112992975Y-90551924D01*
X113137723Y-90696672D01*
X113137728Y-90696676D01*
X113162548Y-90714709D01*
X113205214Y-90770038D01*
X113211193Y-90839652D01*
X113178588Y-90901447D01*
X113177344Y-90902708D01*
X112401775Y-91678278D01*
X112383834Y-91705131D01*
X112383833Y-91705132D01*
X112330586Y-91784822D01*
X112281551Y-91903203D01*
X112281549Y-91903209D01*
X112256552Y-92028876D01*
X112256552Y-93911179D01*
X112236867Y-93978218D01*
X112205438Y-94011497D01*
X112137874Y-94060585D01*
X112029967Y-94168492D01*
X111968644Y-94201976D01*
X111898952Y-94196992D01*
X111843019Y-94155120D01*
X111836747Y-94145906D01*
X111797118Y-94081656D01*
X111673146Y-93957684D01*
X111523925Y-93865643D01*
X111523920Y-93865641D01*
X111357498Y-93810494D01*
X111357491Y-93810493D01*
X111254787Y-93800000D01*
X111104801Y-93800000D01*
X111104801Y-94733011D01*
X111094861Y-94715795D01*
X111039006Y-94659940D01*
X110970597Y-94620444D01*
X110894297Y-94600000D01*
X110815305Y-94600000D01*
X110739005Y-94620444D01*
X110670596Y-94659940D01*
X110614741Y-94715795D01*
X110575245Y-94784204D01*
X110554801Y-94860504D01*
X110554801Y-94939496D01*
X110575245Y-95015796D01*
X110614741Y-95084205D01*
X110670596Y-95140060D01*
X110687813Y-95150000D01*
X109754802Y-95150000D01*
X109754802Y-95299986D01*
X109765295Y-95402697D01*
X109820442Y-95569119D01*
X109820444Y-95569124D01*
X109912485Y-95718345D01*
X110036455Y-95842315D01*
X110185676Y-95934356D01*
X110185681Y-95934358D01*
X110205634Y-95940970D01*
X110263079Y-95980743D01*
X110289902Y-96045259D01*
X110277587Y-96114034D01*
X110230044Y-96165234D01*
X110166630Y-96182676D01*
X109332537Y-96182676D01*
X109265498Y-96162991D01*
X109231810Y-96128367D01*
X109231142Y-96128891D01*
X109226516Y-96122986D01*
X109106236Y-96002706D01*
X109105799Y-96002442D01*
X108960654Y-95914698D01*
X108798244Y-95864090D01*
X108798242Y-95864089D01*
X108798240Y-95864089D01*
X108748826Y-95859599D01*
X108727664Y-95857676D01*
X108214432Y-95857676D01*
X108195193Y-95859424D01*
X108143855Y-95864089D01*
X107981441Y-95914698D01*
X107835859Y-96002706D01*
X107835858Y-96002707D01*
X107733729Y-96104837D01*
X107672406Y-96138322D01*
X107602714Y-96133338D01*
X107558367Y-96104837D01*
X107456236Y-96002706D01*
X107455799Y-96002442D01*
X107310654Y-95914698D01*
X107148244Y-95864090D01*
X107148242Y-95864089D01*
X107148240Y-95864089D01*
X107121532Y-95861662D01*
X107111762Y-95860774D01*
X107046780Y-95835104D01*
X107035304Y-95824965D01*
X106455067Y-95244727D01*
X106455066Y-95244726D01*
X106455062Y-95244723D01*
X106348520Y-95173535D01*
X106310293Y-95157701D01*
X106230137Y-95124499D01*
X106230131Y-95124497D01*
X106104464Y-95099500D01*
X106104462Y-95099500D01*
X104978752Y-95099500D01*
X104911713Y-95079815D01*
X104865958Y-95027011D01*
X104856014Y-94957853D01*
X104871365Y-94913500D01*
X104885380Y-94889225D01*
X104916440Y-94835428D01*
X105000241Y-94633117D01*
X105035906Y-94500013D01*
X109754801Y-94500013D01*
X109754801Y-94650000D01*
X110604801Y-94650000D01*
X110604801Y-93800000D01*
X110454828Y-93800000D01*
X110454813Y-93800001D01*
X110352103Y-93810494D01*
X110185681Y-93865641D01*
X110185676Y-93865643D01*
X110036455Y-93957684D01*
X109912485Y-94081654D01*
X109820444Y-94230875D01*
X109820442Y-94230880D01*
X109765295Y-94397302D01*
X109765294Y-94397309D01*
X109754801Y-94500013D01*
X105035906Y-94500013D01*
X105056917Y-94421598D01*
X105085500Y-94204490D01*
X105085500Y-93985510D01*
X105056917Y-93768402D01*
X105000241Y-93556883D01*
X104916440Y-93354572D01*
X104911329Y-93345720D01*
X104806950Y-93164929D01*
X104673644Y-92991201D01*
X104673638Y-92991194D01*
X104518805Y-92836361D01*
X104518798Y-92836355D01*
X104345070Y-92703049D01*
X104155438Y-92593565D01*
X104155430Y-92593561D01*
X104155428Y-92593560D01*
X104155421Y-92593557D01*
X104142043Y-92588015D01*
X104087641Y-92544172D01*
X104065579Y-92477878D01*
X104065500Y-92473456D01*
X104065500Y-89905808D01*
X104069943Y-89890676D01*
X104069227Y-89885696D01*
X104074742Y-89873617D01*
X104080668Y-89846381D01*
X104084422Y-89841365D01*
X104085185Y-89838769D01*
X104097816Y-89823094D01*
X104098252Y-89822140D01*
X104100727Y-89819481D01*
X104101819Y-89818127D01*
X106483127Y-87436819D01*
X106544450Y-87403334D01*
X106570808Y-87400500D01*
X112814071Y-87400500D01*
X112898615Y-87383682D01*
X112939744Y-87375501D01*
X113058127Y-87326465D01*
X113058132Y-87326461D01*
X113058135Y-87326460D01*
X113071997Y-87317198D01*
X113071998Y-87317197D01*
X113119258Y-87285619D01*
X113141550Y-87270723D01*
X113208228Y-87249846D01*
X113275608Y-87268331D01*
G37*
%TD.AperFunction*%
%TA.AperFunction,Conductor*%
G36*
X101770703Y-85871095D02*
G01*
X101777181Y-85877127D01*
X102405325Y-86505272D01*
X102405328Y-86505275D01*
X102434100Y-86524500D01*
X102487614Y-86560256D01*
X102487615Y-86560257D01*
X102487614Y-86560257D01*
X102511871Y-86576464D01*
X102511872Y-86576464D01*
X102511873Y-86576465D01*
X102630256Y-86625501D01*
X102630260Y-86625501D01*
X102630261Y-86625502D01*
X102755928Y-86650500D01*
X102755931Y-86650500D01*
X105130192Y-86650500D01*
X105197231Y-86670185D01*
X105242986Y-86722989D01*
X105252930Y-86792147D01*
X105223905Y-86855703D01*
X105217873Y-86862181D01*
X102909722Y-89170331D01*
X102901007Y-89183376D01*
X102890281Y-89199429D01*
X102886234Y-89205486D01*
X102838534Y-89276873D01*
X102789499Y-89395255D01*
X102789497Y-89395261D01*
X102764500Y-89520928D01*
X102764500Y-92473456D01*
X102744815Y-92540495D01*
X102692011Y-92586250D01*
X102687957Y-92588015D01*
X102674578Y-92593557D01*
X102674561Y-92593565D01*
X102484929Y-92703049D01*
X102311201Y-92836355D01*
X102311194Y-92836361D01*
X102156361Y-92991194D01*
X102156355Y-92991201D01*
X102023049Y-93164929D01*
X101913565Y-93354561D01*
X101913561Y-93354569D01*
X101913560Y-93354572D01*
X101892626Y-93405110D01*
X101829758Y-93556884D01*
X101809275Y-93633331D01*
X101772910Y-93692992D01*
X101710063Y-93723521D01*
X101640687Y-93715226D01*
X101586810Y-93670741D01*
X101565535Y-93604189D01*
X101565500Y-93601238D01*
X101565500Y-85964808D01*
X101585185Y-85897769D01*
X101637989Y-85852014D01*
X101707147Y-85842070D01*
X101770703Y-85871095D01*
G37*
%TD.AperFunction*%
%TA.AperFunction,Conductor*%
G36*
X137600626Y-78519685D02*
G01*
X137646381Y-78572489D01*
X137656325Y-78641647D01*
X137651293Y-78663004D01*
X137613979Y-78775610D01*
X137603835Y-78874894D01*
X137603835Y-78923217D01*
X138429835Y-78923217D01*
X138496874Y-78942902D01*
X138542629Y-78995706D01*
X138553835Y-79047217D01*
X138553835Y-79173217D01*
X138679835Y-79173217D01*
X138746874Y-79192902D01*
X138792629Y-79245706D01*
X138803835Y-79297217D01*
X138803835Y-80148216D01*
X138827143Y-80148216D01*
X138827157Y-80148215D01*
X138926442Y-80138072D01*
X139087316Y-80084764D01*
X139087323Y-80084761D01*
X139164237Y-80037319D01*
X139171856Y-80035234D01*
X139177824Y-80030063D01*
X139205071Y-80026145D01*
X139231629Y-80018878D01*
X139239164Y-80021243D01*
X139246982Y-80020119D01*
X139272026Y-80031556D01*
X139298293Y-80039800D01*
X139303353Y-80045862D01*
X139310538Y-80049144D01*
X139325422Y-80072305D01*
X139343063Y-80093441D01*
X139345002Y-80102772D01*
X139348312Y-80107922D01*
X139353335Y-80142857D01*
X139353335Y-80334677D01*
X139333650Y-80401716D01*
X139280846Y-80447471D01*
X139248733Y-80457150D01*
X139044313Y-80489527D01*
X138849624Y-80552786D01*
X138667234Y-80645720D01*
X138501634Y-80766033D01*
X138356876Y-80910791D01*
X138236563Y-81076391D01*
X138143629Y-81258781D01*
X138080370Y-81453470D01*
X138048348Y-81655653D01*
X138048348Y-81860357D01*
X138049954Y-81870498D01*
X138080370Y-82062539D01*
X138143629Y-82257228D01*
X138207539Y-82382658D01*
X138230584Y-82427885D01*
X138236563Y-82439618D01*
X138356876Y-82605218D01*
X138501634Y-82749976D01*
X138651085Y-82858556D01*
X138667238Y-82870292D01*
X138736901Y-82905787D01*
X138759928Y-82917520D01*
X138810724Y-82965495D01*
X138827519Y-83033316D01*
X138804982Y-83099451D01*
X138759928Y-83138490D01*
X138667234Y-83185720D01*
X138501634Y-83306033D01*
X138356876Y-83450791D01*
X138236563Y-83616391D01*
X138143629Y-83798781D01*
X138080370Y-83993470D01*
X138048348Y-84195653D01*
X138048348Y-84400356D01*
X138080370Y-84602539D01*
X138143629Y-84797228D01*
X138190764Y-84889734D01*
X138230584Y-84967885D01*
X138236563Y-84979618D01*
X138356876Y-85145218D01*
X138501634Y-85289976D01*
X138651085Y-85398556D01*
X138667238Y-85410292D01*
X138736901Y-85445787D01*
X138759928Y-85457520D01*
X138810724Y-85505495D01*
X138827519Y-85573316D01*
X138804982Y-85639451D01*
X138759928Y-85678490D01*
X138667234Y-85725720D01*
X138501634Y-85846033D01*
X138356876Y-85990791D01*
X138236563Y-86156391D01*
X138143629Y-86338781D01*
X138080370Y-86533470D01*
X138048348Y-86735653D01*
X138048348Y-86940356D01*
X138080370Y-87142539D01*
X138103307Y-87213130D01*
X138137357Y-87317924D01*
X138139352Y-87387762D01*
X138103272Y-87447595D01*
X138040572Y-87478424D01*
X138019426Y-87480240D01*
X133058270Y-87480240D01*
X132991231Y-87460555D01*
X132945476Y-87407751D01*
X132935532Y-87338593D01*
X132940336Y-87317931D01*
X132997325Y-87142539D01*
X133029348Y-86940357D01*
X133029348Y-86735653D01*
X133011901Y-86625500D01*
X132997325Y-86533470D01*
X132939275Y-86354811D01*
X132934068Y-86338786D01*
X132934066Y-86338783D01*
X132934066Y-86338781D01*
X132885100Y-86242681D01*
X132841135Y-86156395D01*
X132808318Y-86111226D01*
X132720819Y-85990791D01*
X132576061Y-85846033D01*
X132410462Y-85725720D01*
X132392451Y-85716543D01*
X132317765Y-85678488D01*
X132266971Y-85630516D01*
X132250176Y-85562695D01*
X132272713Y-85496560D01*
X132317765Y-85457521D01*
X132410458Y-85410292D01*
X132488428Y-85353644D01*
X132576061Y-85289976D01*
X132576063Y-85289973D01*
X132576067Y-85289971D01*
X132720814Y-85145224D01*
X132720816Y-85145220D01*
X132720819Y-85145218D01*
X132773580Y-85072595D01*
X132841135Y-84979615D01*
X132934068Y-84797224D01*
X132997325Y-84602539D01*
X133029348Y-84400357D01*
X133029348Y-84195653D01*
X132999538Y-84007441D01*
X132997325Y-83993470D01*
X132958048Y-83872588D01*
X132934068Y-83798786D01*
X132934066Y-83798783D01*
X132934066Y-83798781D01*
X132900351Y-83732612D01*
X132841135Y-83616395D01*
X132832608Y-83604658D01*
X132720819Y-83450791D01*
X132576067Y-83306039D01*
X132559915Y-83294304D01*
X132482395Y-83237983D01*
X132439730Y-83182654D01*
X132433751Y-83113041D01*
X132466356Y-83051245D01*
X132516274Y-83019960D01*
X132598182Y-82992819D01*
X132747504Y-82900717D01*
X132871560Y-82776661D01*
X132963662Y-82627339D01*
X133018847Y-82460802D01*
X133029348Y-82358014D01*
X133029347Y-81157997D01*
X133028184Y-81146616D01*
X133018847Y-81055208D01*
X133018846Y-81055205D01*
X133004274Y-81011230D01*
X132963662Y-80888671D01*
X132871560Y-80739349D01*
X132747504Y-80615293D01*
X132627141Y-80541053D01*
X132598184Y-80523192D01*
X132598179Y-80523190D01*
X132562771Y-80511457D01*
X132431645Y-80468006D01*
X132431643Y-80468005D01*
X132328858Y-80457505D01*
X131128846Y-80457505D01*
X131128829Y-80457506D01*
X131026051Y-80468005D01*
X131026048Y-80468006D01*
X130859516Y-80523190D01*
X130859511Y-80523192D01*
X130710190Y-80615294D01*
X130586137Y-80739347D01*
X130494035Y-80888668D01*
X130494033Y-80888673D01*
X130490592Y-80899058D01*
X130438849Y-81055208D01*
X130438849Y-81055209D01*
X130438848Y-81055209D01*
X130428348Y-81157988D01*
X130428348Y-82358006D01*
X130428349Y-82358023D01*
X130438848Y-82460801D01*
X130438849Y-82460804D01*
X130486974Y-82606033D01*
X130494034Y-82627339D01*
X130586136Y-82776661D01*
X130710192Y-82900717D01*
X130859514Y-82992819D01*
X130941418Y-83019959D01*
X130998863Y-83059732D01*
X131025686Y-83124248D01*
X131013371Y-83193023D01*
X130975299Y-83237983D01*
X130881635Y-83306033D01*
X130881630Y-83306037D01*
X130736876Y-83450791D01*
X130616563Y-83616391D01*
X130523629Y-83798781D01*
X130460370Y-83993470D01*
X130428348Y-84195653D01*
X130428348Y-84400356D01*
X130460370Y-84602539D01*
X130523629Y-84797228D01*
X130570764Y-84889734D01*
X130610584Y-84967885D01*
X130616563Y-84979618D01*
X130736876Y-85145218D01*
X130881634Y-85289976D01*
X131031085Y-85398556D01*
X131047238Y-85410292D01*
X131116901Y-85445787D01*
X131139928Y-85457520D01*
X131190724Y-85505495D01*
X131207519Y-85573316D01*
X131184982Y-85639451D01*
X131139928Y-85678490D01*
X131047234Y-85725720D01*
X130881634Y-85846033D01*
X130736876Y-85990791D01*
X130616563Y-86156391D01*
X130523629Y-86338781D01*
X130460370Y-86533470D01*
X130428348Y-86735653D01*
X130428348Y-86940356D01*
X130460320Y-87142221D01*
X130451365Y-87211515D01*
X130406369Y-87264967D01*
X130339618Y-87285606D01*
X130337847Y-87285619D01*
X129348433Y-87285619D01*
X129281394Y-87265934D01*
X129235639Y-87213130D01*
X129227865Y-87184285D01*
X129226689Y-87184520D01*
X129197620Y-87038385D01*
X129197619Y-87038384D01*
X129197619Y-87038380D01*
X129155318Y-86936258D01*
X129142930Y-86906349D01*
X129142925Y-86906340D01*
X129063532Y-86787521D01*
X129063529Y-86787517D01*
X128962482Y-86686470D01*
X128962478Y-86686467D01*
X128843659Y-86607074D01*
X128843650Y-86607069D01*
X128711620Y-86552381D01*
X128711614Y-86552379D01*
X128581273Y-86526452D01*
X128543465Y-86512222D01*
X128458277Y-86463039D01*
X128458276Y-86463038D01*
X128422318Y-86453403D01*
X128314450Y-86424500D01*
X128314447Y-86424500D01*
X128097535Y-86424500D01*
X128030496Y-86404815D01*
X128006908Y-86385133D01*
X127998094Y-86375695D01*
X127985472Y-86354815D01*
X127881492Y-86250835D01*
X127880038Y-86249278D01*
X127865270Y-86219887D01*
X127849499Y-86191003D01*
X127849655Y-86188810D01*
X127848669Y-86186846D01*
X127852135Y-86154131D01*
X127854483Y-86121311D01*
X127855837Y-86119203D01*
X127856032Y-86117366D01*
X127860964Y-86111226D01*
X127882985Y-86076963D01*
X127985071Y-85974878D01*
X127985072Y-85974877D01*
X128073019Y-85829395D01*
X128123590Y-85667106D01*
X128130000Y-85596572D01*
X128130000Y-85590000D01*
X126180001Y-85590000D01*
X126180001Y-85596582D01*
X126186408Y-85667102D01*
X126186409Y-85667107D01*
X126236981Y-85829396D01*
X126324927Y-85974877D01*
X126427015Y-86076965D01*
X126460500Y-86138288D01*
X126455516Y-86207980D01*
X126427015Y-86252327D01*
X126324531Y-86354810D01*
X126324530Y-86354811D01*
X126236522Y-86500393D01*
X126185913Y-86662807D01*
X126179500Y-86733386D01*
X126179500Y-87161619D01*
X126159815Y-87228658D01*
X126107011Y-87274413D01*
X126055500Y-87285619D01*
X125651380Y-87285619D01*
X125502480Y-87285619D01*
X125421969Y-87307192D01*
X125358653Y-87324157D01*
X125358652Y-87324158D01*
X125229708Y-87398603D01*
X125229703Y-87398607D01*
X124547488Y-88080822D01*
X124547484Y-88080827D01*
X124473039Y-88209771D01*
X124473038Y-88209772D01*
X124461191Y-88253987D01*
X124434500Y-88353599D01*
X124434500Y-88353601D01*
X124434500Y-89464400D01*
X124414815Y-89531439D01*
X124398181Y-89552081D01*
X124208023Y-89742239D01*
X124181095Y-89756942D01*
X124155277Y-89773535D01*
X124149076Y-89774426D01*
X124146700Y-89775724D01*
X124120342Y-89778558D01*
X124105582Y-89778558D01*
X124038543Y-89758873D01*
X123999465Y-89718708D01*
X123993521Y-89708876D01*
X123993520Y-89708875D01*
X123993519Y-89708873D01*
X123891030Y-89606384D01*
X123857546Y-89545061D01*
X123862530Y-89475369D01*
X123891032Y-89431021D01*
X123993118Y-89328936D01*
X123993119Y-89328935D01*
X124081066Y-89183453D01*
X124131637Y-89021164D01*
X124138047Y-88950630D01*
X124138047Y-88944058D01*
X122188048Y-88944058D01*
X122188048Y-88950640D01*
X122194455Y-89021160D01*
X122194456Y-89021165D01*
X122245028Y-89183454D01*
X122332974Y-89328935D01*
X122435062Y-89431023D01*
X122438375Y-89437091D01*
X122444050Y-89441044D01*
X122454903Y-89467360D01*
X122468547Y-89492346D01*
X122468053Y-89499243D01*
X122470690Y-89505636D01*
X122465593Y-89533640D01*
X122463563Y-89562038D01*
X122459119Y-89569219D01*
X122458181Y-89574376D01*
X122442455Y-89596148D01*
X122438008Y-89603337D01*
X122436553Y-89604894D01*
X122332575Y-89708873D01*
X122319952Y-89729753D01*
X122311139Y-89739191D01*
X122291730Y-89750666D01*
X122275101Y-89765896D01*
X122260084Y-89769379D01*
X122250996Y-89774753D01*
X122238863Y-89774301D01*
X122220512Y-89778558D01*
X120980392Y-89778558D01*
X120831492Y-89778558D01*
X120745197Y-89801680D01*
X120687665Y-89817096D01*
X120687664Y-89817097D01*
X120551679Y-89895608D01*
X120549944Y-89892604D01*
X120499554Y-89911990D01*
X120431133Y-89897838D01*
X120381224Y-89848942D01*
X120365441Y-89788403D01*
X120365441Y-89602353D01*
X120333418Y-89400170D01*
X120270159Y-89205481D01*
X120213362Y-89094012D01*
X120177228Y-89023095D01*
X120136976Y-88967692D01*
X120056912Y-88857491D01*
X119912158Y-88712737D01*
X119912153Y-88712733D01*
X119766556Y-88606951D01*
X119723890Y-88551621D01*
X119715441Y-88506633D01*
X119715441Y-88226973D01*
X119735126Y-88159934D01*
X119751760Y-88139292D01*
X120224233Y-87666819D01*
X120285556Y-87633334D01*
X120311914Y-87630500D01*
X122308481Y-87630500D01*
X122337450Y-87639006D01*
X122367009Y-87645182D01*
X122372591Y-87649325D01*
X122375520Y-87650185D01*
X122395437Y-87666099D01*
X122395742Y-87666399D01*
X122464815Y-87735472D01*
X122467793Y-87737272D01*
X122475438Y-87744792D01*
X122489172Y-87769459D01*
X122505588Y-87792423D01*
X122505941Y-87799577D01*
X122509427Y-87805837D01*
X122507645Y-87834010D01*
X122509040Y-87862207D01*
X122505469Y-87868418D01*
X122505017Y-87875568D01*
X122488287Y-87898303D01*
X122474216Y-87922780D01*
X122465191Y-87929691D01*
X122463608Y-87931844D01*
X122461158Y-87932780D01*
X122458101Y-87935121D01*
X122453168Y-87938986D01*
X122332974Y-88059180D01*
X122245027Y-88204662D01*
X122194456Y-88366951D01*
X122188047Y-88437485D01*
X122188047Y-88444058D01*
X124138046Y-88444058D01*
X124138046Y-88437475D01*
X124131638Y-88366955D01*
X124131637Y-88366950D01*
X124081065Y-88204661D01*
X123993119Y-88059180D01*
X123867618Y-87933679D01*
X123868533Y-87932763D01*
X123832420Y-87882250D01*
X123828965Y-87812466D01*
X123863786Y-87751892D01*
X123883453Y-87736828D01*
X123885180Y-87735474D01*
X123885185Y-87735472D01*
X124005472Y-87615185D01*
X124093478Y-87469606D01*
X124144086Y-87307196D01*
X124150500Y-87236616D01*
X124150500Y-86723384D01*
X124144086Y-86652804D01*
X124093478Y-86490394D01*
X124005472Y-86344815D01*
X124005470Y-86344813D01*
X124005469Y-86344811D01*
X123903339Y-86242681D01*
X123869854Y-86181358D01*
X123874838Y-86111666D01*
X123903339Y-86067319D01*
X124005468Y-85965189D01*
X124005469Y-85965188D01*
X124005472Y-85965185D01*
X124093478Y-85819606D01*
X124144086Y-85657196D01*
X124150500Y-85586616D01*
X124150500Y-85083427D01*
X126180000Y-85083427D01*
X126180000Y-85090000D01*
X126905000Y-85090000D01*
X127405000Y-85090000D01*
X128129999Y-85090000D01*
X128129999Y-85083417D01*
X128123591Y-85012897D01*
X128123590Y-85012892D01*
X128073018Y-84850603D01*
X127985072Y-84705122D01*
X127864877Y-84584927D01*
X127719395Y-84496980D01*
X127719396Y-84496980D01*
X127557105Y-84446409D01*
X127557106Y-84446409D01*
X127486572Y-84440000D01*
X127405000Y-84440000D01*
X127405000Y-85090000D01*
X126905000Y-85090000D01*
X126905000Y-84440000D01*
X126904999Y-84439999D01*
X126823417Y-84440000D01*
X126752897Y-84446408D01*
X126752892Y-84446409D01*
X126590603Y-84496981D01*
X126445122Y-84584927D01*
X126324927Y-84705122D01*
X126236980Y-84850604D01*
X126186409Y-85012893D01*
X126180000Y-85083427D01*
X124150500Y-85083427D01*
X124150500Y-85073384D01*
X124144086Y-85002804D01*
X124093478Y-84840394D01*
X124005472Y-84694815D01*
X124005470Y-84694813D01*
X124005469Y-84694811D01*
X123885188Y-84574530D01*
X123850348Y-84553468D01*
X123803162Y-84501939D01*
X123790500Y-84447352D01*
X123790500Y-82489499D01*
X123810185Y-82422460D01*
X123862989Y-82376705D01*
X123914500Y-82365499D01*
X124747871Y-82365499D01*
X124747872Y-82365499D01*
X124807483Y-82359091D01*
X124942331Y-82308796D01*
X124943430Y-82307972D01*
X124944717Y-82307492D01*
X124950112Y-82304547D01*
X124950535Y-82305322D01*
X125008887Y-82283552D01*
X125065198Y-82292673D01*
X125145873Y-82326091D01*
X125311777Y-82359091D01*
X125343992Y-82365499D01*
X125343996Y-82365500D01*
X125343997Y-82365500D01*
X125546004Y-82365500D01*
X125546005Y-82365499D01*
X125744127Y-82326091D01*
X125930756Y-82248786D01*
X126011562Y-82194792D01*
X126078234Y-82173917D01*
X126145614Y-82192401D01*
X126149340Y-82194795D01*
X126229479Y-82248343D01*
X126229486Y-82248347D01*
X126416016Y-82325609D01*
X126416025Y-82325612D01*
X126465000Y-82335353D01*
X126465000Y-81480865D01*
X126465067Y-81476789D01*
X126465400Y-81466638D01*
X126470500Y-81441003D01*
X126470500Y-81400830D01*
X126484745Y-81415075D01*
X126570255Y-81464444D01*
X126665630Y-81490000D01*
X126764370Y-81490000D01*
X126859745Y-81464444D01*
X126945255Y-81415075D01*
X126965000Y-81395330D01*
X126965000Y-82335352D01*
X127013974Y-82325612D01*
X127013983Y-82325609D01*
X127200513Y-82248347D01*
X127200526Y-82248340D01*
X127368399Y-82136170D01*
X127368403Y-82136167D01*
X127511167Y-81993403D01*
X127511170Y-81993399D01*
X127623340Y-81825526D01*
X127623347Y-81825513D01*
X127700609Y-81638983D01*
X127700612Y-81638974D01*
X127739999Y-81440958D01*
X127740000Y-81440955D01*
X127740000Y-81365000D01*
X126995330Y-81365000D01*
X127015075Y-81345255D01*
X127064444Y-81259745D01*
X127090000Y-81164370D01*
X127090000Y-81065630D01*
X127064444Y-80970255D01*
X127015075Y-80884745D01*
X126995330Y-80865000D01*
X127740000Y-80865000D01*
X127740000Y-80789045D01*
X127739999Y-80789041D01*
X127700612Y-80591025D01*
X127700609Y-80591016D01*
X127623347Y-80404486D01*
X127623340Y-80404473D01*
X127511170Y-80236600D01*
X127511167Y-80236596D01*
X127368403Y-80093832D01*
X127368399Y-80093829D01*
X127200526Y-79981659D01*
X127200513Y-79981652D01*
X127013984Y-79904390D01*
X127013977Y-79904388D01*
X126965000Y-79894645D01*
X126965000Y-80834670D01*
X126945255Y-80814925D01*
X126859745Y-80765556D01*
X126764370Y-80740000D01*
X126665630Y-80740000D01*
X126570255Y-80765556D01*
X126484745Y-80814925D01*
X126470500Y-80829170D01*
X126470500Y-80788997D01*
X126467383Y-80773326D01*
X126465000Y-80749134D01*
X126465000Y-79894646D01*
X126464999Y-79894645D01*
X126416022Y-79904388D01*
X126416015Y-79904390D01*
X126229481Y-79981654D01*
X126229479Y-79981655D01*
X126149337Y-80035204D01*
X126082660Y-80056081D01*
X126015280Y-80037596D01*
X126011558Y-80035204D01*
X126006098Y-80031556D01*
X125988982Y-80020119D01*
X125930754Y-79981212D01*
X125744127Y-79903909D01*
X125744119Y-79903907D01*
X125546007Y-79864500D01*
X125546003Y-79864500D01*
X125343997Y-79864500D01*
X125343992Y-79864500D01*
X125145880Y-79903907D01*
X125145868Y-79903910D01*
X125065198Y-79937325D01*
X124995729Y-79944794D01*
X124950342Y-79925036D01*
X124950114Y-79925454D01*
X124945447Y-79922905D01*
X124943432Y-79922028D01*
X124942331Y-79921204D01*
X124942330Y-79921203D01*
X124942328Y-79921202D01*
X124807482Y-79870908D01*
X124807483Y-79870908D01*
X124747883Y-79864501D01*
X124747881Y-79864500D01*
X124747873Y-79864500D01*
X124747864Y-79864500D01*
X123602129Y-79864500D01*
X123602123Y-79864501D01*
X123542516Y-79870908D01*
X123407671Y-79921202D01*
X123407664Y-79921206D01*
X123292455Y-80007452D01*
X123292452Y-80007455D01*
X123206206Y-80122664D01*
X123206202Y-80122671D01*
X123155908Y-80257517D01*
X123149501Y-80317116D01*
X123149500Y-80317135D01*
X123149500Y-81218688D01*
X123129815Y-81285727D01*
X123113181Y-81306369D01*
X122696912Y-81722637D01*
X122696911Y-81722638D01*
X122672666Y-81758923D01*
X122648531Y-81795045D01*
X122632126Y-81819597D01*
X122629549Y-81823454D01*
X122583153Y-81935464D01*
X122583151Y-81935472D01*
X122559500Y-82054374D01*
X122559500Y-84447352D01*
X122539815Y-84514391D01*
X122499652Y-84553468D01*
X122464811Y-84574530D01*
X122344531Y-84694810D01*
X122339906Y-84700715D01*
X122337636Y-84698937D01*
X122295933Y-84737096D01*
X122227068Y-84748905D01*
X122193938Y-84740296D01*
X122100590Y-84701630D01*
X122100584Y-84701628D01*
X121960427Y-84673749D01*
X121960425Y-84673749D01*
X121817515Y-84673749D01*
X121817513Y-84673749D01*
X121677355Y-84701628D01*
X121677349Y-84701630D01*
X121545319Y-84756318D01*
X121545310Y-84756323D01*
X121426491Y-84835716D01*
X121426487Y-84835719D01*
X121325440Y-84936766D01*
X121325437Y-84936770D01*
X121246044Y-85055589D01*
X121246039Y-85055598D01*
X121191351Y-85187628D01*
X121191349Y-85187634D01*
X121163470Y-85327791D01*
X121163470Y-85327794D01*
X121163470Y-85470704D01*
X121163470Y-85470706D01*
X121163469Y-85470706D01*
X121191349Y-85610863D01*
X121191351Y-85610869D01*
X121246039Y-85742899D01*
X121246044Y-85742908D01*
X121325437Y-85861727D01*
X121325440Y-85861731D01*
X121426487Y-85962778D01*
X121426491Y-85962781D01*
X121545310Y-86042174D01*
X121545323Y-86042181D01*
X121663036Y-86090939D01*
X121717440Y-86134780D01*
X121739505Y-86201074D01*
X121722226Y-86268773D01*
X121671089Y-86316384D01*
X121615584Y-86329500D01*
X119927035Y-86329500D01*
X119801367Y-86354497D01*
X119801361Y-86354499D01*
X119682980Y-86403534D01*
X119576432Y-86474726D01*
X118559667Y-87491491D01*
X118491407Y-87593650D01*
X118491406Y-87593653D01*
X118488476Y-87598038D01*
X118488474Y-87598040D01*
X118488474Y-87598042D01*
X118439440Y-87716420D01*
X118439438Y-87716426D01*
X118414441Y-87842093D01*
X118414441Y-88506633D01*
X118394756Y-88573672D01*
X118363326Y-88606951D01*
X118217728Y-88712733D01*
X118217723Y-88712737D01*
X118072969Y-88857491D01*
X117952656Y-89023091D01*
X117905426Y-89115785D01*
X117857451Y-89166581D01*
X117789630Y-89183376D01*
X117723495Y-89160839D01*
X117684456Y-89115785D01*
X117673362Y-89094012D01*
X117637228Y-89023095D01*
X117596976Y-88967692D01*
X117516912Y-88857491D01*
X117372154Y-88712733D01*
X117206554Y-88592420D01*
X117206553Y-88592419D01*
X117206551Y-88592418D01*
X117126483Y-88551621D01*
X117024164Y-88499486D01*
X116829475Y-88436227D01*
X116654936Y-88408583D01*
X116627293Y-88404205D01*
X116422589Y-88404205D01*
X116398270Y-88408056D01*
X116220406Y-88436227D01*
X116025717Y-88499486D01*
X115843327Y-88592420D01*
X115677727Y-88712733D01*
X115532969Y-88857491D01*
X115412656Y-89023091D01*
X115365426Y-89115785D01*
X115317451Y-89166581D01*
X115249630Y-89183376D01*
X115183495Y-89160839D01*
X115144456Y-89115785D01*
X115133362Y-89094012D01*
X115097228Y-89023095D01*
X115056976Y-88967692D01*
X114976912Y-88857491D01*
X114832158Y-88712737D01*
X114832153Y-88712733D01*
X114686556Y-88606951D01*
X114643890Y-88551621D01*
X114635441Y-88506633D01*
X114635441Y-87335867D01*
X114655126Y-87268828D01*
X114671760Y-87248186D01*
X117030212Y-84889734D01*
X117030217Y-84889729D01*
X117092026Y-84797224D01*
X117101405Y-84783188D01*
X117112535Y-84756318D01*
X117150442Y-84664803D01*
X117163277Y-84600277D01*
X117165161Y-84590806D01*
X117175441Y-84539129D01*
X117175441Y-83282775D01*
X117195126Y-83215736D01*
X117226554Y-83182458D01*
X117372160Y-83076671D01*
X117516907Y-82931924D01*
X117516909Y-82931920D01*
X117516912Y-82931918D01*
X117629419Y-82777063D01*
X117637228Y-82766315D01*
X117684457Y-82673622D01*
X117732430Y-82622828D01*
X117800251Y-82606033D01*
X117866386Y-82628570D01*
X117905424Y-82673622D01*
X117920419Y-82703050D01*
X117952656Y-82766319D01*
X118072969Y-82931918D01*
X118217727Y-83076676D01*
X118367816Y-83185720D01*
X118383331Y-83196992D01*
X118499548Y-83256208D01*
X118565717Y-83289923D01*
X118565719Y-83289923D01*
X118565722Y-83289925D01*
X118615310Y-83306037D01*
X118760406Y-83353182D01*
X118861498Y-83369193D01*
X118962589Y-83385205D01*
X118962590Y-83385205D01*
X119167292Y-83385205D01*
X119167293Y-83385205D01*
X119369475Y-83353182D01*
X119564160Y-83289925D01*
X119746551Y-83196992D01*
X119893104Y-83090516D01*
X119912154Y-83076676D01*
X119912156Y-83076673D01*
X119912160Y-83076671D01*
X120056907Y-82931924D01*
X120056909Y-82931920D01*
X120056912Y-82931918D01*
X120134259Y-82825457D01*
X120177228Y-82766315D01*
X120270161Y-82583924D01*
X120333418Y-82389239D01*
X120365441Y-82187057D01*
X120365441Y-81982353D01*
X120358014Y-81935464D01*
X120333418Y-81780170D01*
X120300593Y-81679145D01*
X120270161Y-81585486D01*
X120270159Y-81585483D01*
X120270159Y-81585481D01*
X120221508Y-81490000D01*
X120177228Y-81403095D01*
X120149551Y-81365000D01*
X120056912Y-81237491D01*
X119912162Y-81092741D01*
X119912160Y-81092739D01*
X119871613Y-81063279D01*
X119828949Y-81007951D01*
X119820500Y-80962963D01*
X119820500Y-80216874D01*
X119840185Y-80149835D01*
X119856819Y-80129193D01*
X119912095Y-80073917D01*
X119967968Y-80018044D01*
X120057003Y-79873697D01*
X120110349Y-79712708D01*
X120120500Y-79613345D01*
X120120500Y-79471539D01*
X137603836Y-79471539D01*
X137613979Y-79570824D01*
X137667287Y-79731698D01*
X137667292Y-79731709D01*
X137756259Y-79875945D01*
X137756262Y-79875949D01*
X137876102Y-79995789D01*
X137876106Y-79995792D01*
X138020342Y-80084759D01*
X138020353Y-80084764D01*
X138181228Y-80138072D01*
X138280518Y-80148216D01*
X138303835Y-80148215D01*
X138303835Y-79423217D01*
X137603836Y-79423217D01*
X137603836Y-79471539D01*
X120120500Y-79471539D01*
X120120499Y-79315000D01*
X120120499Y-79016662D01*
X120120498Y-79016644D01*
X120110349Y-78917292D01*
X120110348Y-78917289D01*
X120102799Y-78894507D01*
X120057003Y-78756303D01*
X120056999Y-78756297D01*
X120056998Y-78756294D01*
X120015550Y-78689097D01*
X119997109Y-78621705D01*
X120018031Y-78555041D01*
X120071673Y-78510272D01*
X120121088Y-78500000D01*
X137533587Y-78500000D01*
X137600626Y-78519685D01*
G37*
%TD.AperFunction*%
%TA.AperFunction,Conductor*%
G36*
X161359563Y-88266640D02*
G01*
X161366271Y-88266113D01*
X161434648Y-88280477D01*
X161484405Y-88329528D01*
X161500000Y-88389731D01*
X161500000Y-89094012D01*
X161480315Y-89161051D01*
X161427511Y-89206806D01*
X161358353Y-89216750D01*
X161294797Y-89187725D01*
X161275687Y-89166905D01*
X161274624Y-89165444D01*
X161274398Y-89165132D01*
X161124086Y-89014820D01*
X161124080Y-89014814D01*
X160952111Y-88889873D01*
X160942798Y-88885128D01*
X160892001Y-88837154D01*
X160875206Y-88769333D01*
X160897743Y-88703198D01*
X160942801Y-88664156D01*
X160951849Y-88659546D01*
X161006010Y-88620194D01*
X161006011Y-88620194D01*
X160373702Y-87987886D01*
X160437287Y-87970849D01*
X160551301Y-87905023D01*
X160644393Y-87811931D01*
X160710219Y-87697917D01*
X160727256Y-87634332D01*
X161359563Y-88266640D01*
G37*
%TD.AperFunction*%
%TA.AperFunction,Conductor*%
G36*
X161397802Y-86255537D02*
G01*
X161402358Y-86255212D01*
X161429284Y-86269915D01*
X161457203Y-86282665D01*
X161459673Y-86286508D01*
X161463681Y-86288697D01*
X161478384Y-86315624D01*
X161494977Y-86341443D01*
X161495868Y-86347643D01*
X161497166Y-86350020D01*
X161500000Y-86376378D01*
X161500000Y-86620116D01*
X161480315Y-86687155D01*
X161427511Y-86732910D01*
X161366271Y-86743734D01*
X161359563Y-86743206D01*
X160727256Y-87375514D01*
X160710219Y-87311931D01*
X160644393Y-87197917D01*
X160551301Y-87104825D01*
X160437287Y-87038999D01*
X160373703Y-87021961D01*
X161043921Y-86351742D01*
X161105244Y-86318257D01*
X161131601Y-86315423D01*
X161142166Y-86315423D01*
X161201777Y-86309015D01*
X161332667Y-86260195D01*
X161363275Y-86258007D01*
X161393647Y-86253640D01*
X161397802Y-86255537D01*
G37*
%TD.AperFunction*%
%TA.AperFunction,Conductor*%
G36*
X107139272Y-79434391D02*
G01*
X107186883Y-79485527D01*
X107200000Y-79541032D01*
X107200000Y-79643306D01*
X107200001Y-79643323D01*
X107210144Y-79742607D01*
X107263452Y-79903481D01*
X107263457Y-79903492D01*
X107352424Y-80047728D01*
X107352427Y-80047732D01*
X107361660Y-80056965D01*
X107395145Y-80118288D01*
X107390161Y-80187980D01*
X107361663Y-80232324D01*
X107352033Y-80241953D01*
X107352029Y-80241959D01*
X107263001Y-80386294D01*
X107262996Y-80386305D01*
X107209651Y-80547290D01*
X107199500Y-80646647D01*
X107199500Y-81193337D01*
X107199501Y-81193355D01*
X107209650Y-81292707D01*
X107209651Y-81292710D01*
X107262996Y-81453694D01*
X107263001Y-81453705D01*
X107352029Y-81598040D01*
X107352032Y-81598044D01*
X107471955Y-81717967D01*
X107471959Y-81717970D01*
X107616294Y-81806998D01*
X107616297Y-81806999D01*
X107616303Y-81807003D01*
X107777292Y-81860349D01*
X107876655Y-81870500D01*
X108473344Y-81870499D01*
X108473352Y-81870498D01*
X108473355Y-81870498D01*
X108534284Y-81864274D01*
X108572708Y-81860349D01*
X108733697Y-81807003D01*
X108878044Y-81717968D01*
X108889193Y-81706819D01*
X108950516Y-81673334D01*
X108976874Y-81670500D01*
X109918006Y-81670500D01*
X109947449Y-81679145D01*
X109977432Y-81685668D01*
X109982447Y-81689422D01*
X109985045Y-81690185D01*
X110005682Y-81706814D01*
X110118468Y-81819599D01*
X110151952Y-81880920D01*
X110153259Y-81926676D01*
X110144441Y-81982352D01*
X110144441Y-81982353D01*
X110144441Y-82187057D01*
X110145667Y-82194795D01*
X110176463Y-82389239D01*
X110239722Y-82583928D01*
X110300418Y-82703049D01*
X110331947Y-82764928D01*
X110332656Y-82766318D01*
X110452969Y-82931918D01*
X110597727Y-83076676D01*
X110747816Y-83185720D01*
X110763331Y-83196992D01*
X110879548Y-83256208D01*
X110945717Y-83289923D01*
X110945719Y-83289923D01*
X110945722Y-83289925D01*
X110995310Y-83306037D01*
X111140406Y-83353182D01*
X111241498Y-83369193D01*
X111342589Y-83385205D01*
X111342590Y-83385205D01*
X111547292Y-83385205D01*
X111547293Y-83385205D01*
X111749475Y-83353182D01*
X111944160Y-83289925D01*
X112126551Y-83196992D01*
X112273104Y-83090516D01*
X112292154Y-83076676D01*
X112292156Y-83076673D01*
X112292160Y-83076671D01*
X112436907Y-82931924D01*
X112436909Y-82931920D01*
X112436912Y-82931918D01*
X112549419Y-82777063D01*
X112557228Y-82766315D01*
X112604457Y-82673622D01*
X112652430Y-82622828D01*
X112720251Y-82606033D01*
X112786386Y-82628570D01*
X112825424Y-82673622D01*
X112840419Y-82703050D01*
X112872656Y-82766319D01*
X112992969Y-82931918D01*
X113137725Y-83076674D01*
X113169076Y-83099451D01*
X113283326Y-83182458D01*
X113325992Y-83237786D01*
X113334441Y-83282775D01*
X113334441Y-83694251D01*
X113314756Y-83761290D01*
X113298122Y-83781932D01*
X111766873Y-85313181D01*
X111705550Y-85346666D01*
X111679192Y-85349500D01*
X107309454Y-85349500D01*
X107242415Y-85329815D01*
X107196660Y-85277011D01*
X107186716Y-85207853D01*
X107211078Y-85150014D01*
X107262172Y-85083427D01*
X107306950Y-85025071D01*
X107416440Y-84835428D01*
X107500241Y-84633117D01*
X107556917Y-84421598D01*
X107585500Y-84204490D01*
X107585500Y-83985510D01*
X107556917Y-83768402D01*
X107500241Y-83556883D01*
X107416440Y-83354572D01*
X107415637Y-83353182D01*
X107306950Y-83164929D01*
X107173644Y-82991201D01*
X107173638Y-82991194D01*
X107018805Y-82836361D01*
X107018798Y-82836355D01*
X106845070Y-82703049D01*
X106655438Y-82593565D01*
X106655433Y-82593562D01*
X106655428Y-82593560D01*
X106453117Y-82509759D01*
X106453118Y-82509759D01*
X106453115Y-82509758D01*
X106347357Y-82481421D01*
X106241598Y-82453083D01*
X106205314Y-82448306D01*
X106024497Y-82424500D01*
X106024490Y-82424500D01*
X105805510Y-82424500D01*
X105805502Y-82424500D01*
X105598853Y-82451707D01*
X105588402Y-82453083D01*
X105559602Y-82460800D01*
X105376884Y-82509758D01*
X105298692Y-82542147D01*
X105174572Y-82593560D01*
X105174569Y-82593561D01*
X105174561Y-82593565D01*
X104984929Y-82703049D01*
X104811201Y-82836355D01*
X104811194Y-82836361D01*
X104656361Y-82991194D01*
X104656355Y-82991201D01*
X104523049Y-83164929D01*
X104413565Y-83354561D01*
X104413561Y-83354569D01*
X104413560Y-83354572D01*
X104378847Y-83438374D01*
X104329758Y-83556884D01*
X104285060Y-83723699D01*
X104276038Y-83757376D01*
X104273084Y-83768399D01*
X104273082Y-83768410D01*
X104244500Y-83985502D01*
X104244500Y-84204497D01*
X104268306Y-84385314D01*
X104273083Y-84421598D01*
X104293282Y-84496981D01*
X104321565Y-84602539D01*
X104329759Y-84633117D01*
X104413560Y-84835428D01*
X104413562Y-84835433D01*
X104413565Y-84835438D01*
X104523049Y-85025070D01*
X104618922Y-85150014D01*
X104644116Y-85215183D01*
X104630078Y-85283628D01*
X104581264Y-85333617D01*
X104520546Y-85349500D01*
X103140808Y-85349500D01*
X103073769Y-85329815D01*
X103053127Y-85313181D01*
X102521578Y-84781632D01*
X102488093Y-84720309D01*
X102493077Y-84650617D01*
X102494698Y-84646498D01*
X102500241Y-84633117D01*
X102556917Y-84421598D01*
X102585500Y-84204490D01*
X102585500Y-84135808D01*
X102605185Y-84068769D01*
X102621819Y-84048127D01*
X104843127Y-81826819D01*
X104904450Y-81793334D01*
X104930808Y-81790500D01*
X105141613Y-81790500D01*
X105141616Y-81790500D01*
X105212196Y-81784086D01*
X105374606Y-81733478D01*
X105520185Y-81645472D01*
X105640472Y-81525185D01*
X105728478Y-81379606D01*
X105779086Y-81217196D01*
X105785500Y-81146616D01*
X105785500Y-80633384D01*
X105779086Y-80562804D01*
X105728478Y-80400394D01*
X105640472Y-80254815D01*
X105640470Y-80254813D01*
X105640469Y-80254811D01*
X105587839Y-80202181D01*
X105554354Y-80140858D01*
X105559338Y-80071166D01*
X105601210Y-80015233D01*
X105666674Y-79990816D01*
X105675520Y-79990500D01*
X106113597Y-79990500D01*
X106137790Y-79992883D01*
X106176081Y-80000500D01*
X106176082Y-80000500D01*
X106323919Y-80000500D01*
X106440453Y-79977319D01*
X106468912Y-79971658D01*
X106584623Y-79923729D01*
X106605492Y-79915085D01*
X106605495Y-79915083D01*
X106616018Y-79908052D01*
X106728416Y-79832951D01*
X106832951Y-79728416D01*
X106915084Y-79605494D01*
X106961441Y-79493576D01*
X107005279Y-79439178D01*
X107071573Y-79417112D01*
X107139272Y-79434391D01*
G37*
%TD.AperFunction*%
%TA.AperFunction,Conductor*%
G36*
X116736538Y-78519685D02*
G01*
X116782293Y-78572489D01*
X116792237Y-78641647D01*
X116775038Y-78689097D01*
X116733454Y-78756513D01*
X116733452Y-78756518D01*
X116680144Y-78917393D01*
X116670000Y-79016677D01*
X116670000Y-79065000D01*
X117496000Y-79065000D01*
X117563039Y-79084685D01*
X117608794Y-79137489D01*
X117620000Y-79189000D01*
X117620000Y-79315000D01*
X117746000Y-79315000D01*
X117813039Y-79334685D01*
X117858794Y-79387489D01*
X117870000Y-79439000D01*
X117870000Y-80289999D01*
X117893308Y-80289999D01*
X117893322Y-80289998D01*
X117992607Y-80279855D01*
X118153481Y-80226547D01*
X118153492Y-80226542D01*
X118297731Y-80137573D01*
X118306959Y-80128345D01*
X118314907Y-80124003D01*
X118320336Y-80116753D01*
X118345090Y-80107519D01*
X118368279Y-80094856D01*
X118377313Y-80095501D01*
X118385800Y-80092336D01*
X118411617Y-80097952D01*
X118437971Y-80099835D01*
X118447028Y-80105655D01*
X118454073Y-80107188D01*
X118482327Y-80128339D01*
X118483181Y-80129193D01*
X118516666Y-80190516D01*
X118519500Y-80216874D01*
X118519500Y-80827048D01*
X118499815Y-80894087D01*
X118451796Y-80937532D01*
X118383329Y-80972418D01*
X118217727Y-81092733D01*
X118072969Y-81237491D01*
X117952656Y-81403091D01*
X117905426Y-81495785D01*
X117857451Y-81546581D01*
X117789630Y-81563376D01*
X117723495Y-81540839D01*
X117684456Y-81495785D01*
X117663011Y-81453697D01*
X117637228Y-81403095D01*
X117609551Y-81365000D01*
X117516912Y-81237491D01*
X117372154Y-81092733D01*
X117206554Y-80972420D01*
X117206553Y-80972419D01*
X117206551Y-80972418D01*
X117149594Y-80943396D01*
X117024164Y-80879486D01*
X116829475Y-80816227D01*
X116654936Y-80788583D01*
X116627293Y-80784205D01*
X116422589Y-80784205D01*
X116244827Y-80812359D01*
X116175534Y-80803404D01*
X116137749Y-80777567D01*
X115163759Y-79803577D01*
X115148623Y-79775858D01*
X115131948Y-79749027D01*
X115131547Y-79744586D01*
X115130274Y-79742254D01*
X115127454Y-79714020D01*
X115127524Y-79709358D01*
X115130500Y-79676616D01*
X115130500Y-79613322D01*
X116670001Y-79613322D01*
X116680144Y-79712607D01*
X116733452Y-79873481D01*
X116733457Y-79873492D01*
X116822424Y-80017728D01*
X116822427Y-80017732D01*
X116942267Y-80137572D01*
X116942271Y-80137575D01*
X117086507Y-80226542D01*
X117086518Y-80226547D01*
X117247393Y-80279855D01*
X117346683Y-80289999D01*
X117370000Y-80289998D01*
X117370000Y-79565000D01*
X116670001Y-79565000D01*
X116670001Y-79613322D01*
X115130500Y-79613322D01*
X115130500Y-79013384D01*
X115124086Y-78942804D01*
X115073478Y-78780394D01*
X115017713Y-78688149D01*
X114999878Y-78620595D01*
X115021396Y-78554122D01*
X115075436Y-78509834D01*
X115123831Y-78500000D01*
X116669499Y-78500000D01*
X116736538Y-78519685D01*
G37*
%TD.AperFunction*%
%TA.AperFunction,Conductor*%
G36*
X111753208Y-78519685D02*
G01*
X111798963Y-78572489D01*
X111808907Y-78641647D01*
X111792286Y-78688148D01*
X111778061Y-78711681D01*
X111736522Y-78780393D01*
X111685913Y-78942807D01*
X111679500Y-79013386D01*
X111679500Y-79676613D01*
X111685913Y-79747192D01*
X111685913Y-79747194D01*
X111685914Y-79747196D01*
X111736522Y-79909606D01*
X111824528Y-80055185D01*
X111893182Y-80123839D01*
X111926666Y-80185160D01*
X111928115Y-80193037D01*
X111929500Y-80202225D01*
X111929500Y-80231569D01*
X111947190Y-80320500D01*
X111947754Y-80323339D01*
X111947757Y-80323354D01*
X111954497Y-80357236D01*
X111954499Y-80357244D01*
X111996028Y-80457505D01*
X112003535Y-80475627D01*
X112061784Y-80562804D01*
X112074726Y-80582173D01*
X112262938Y-80770385D01*
X112296423Y-80831708D01*
X112291439Y-80901400D01*
X112249567Y-80957333D01*
X112184103Y-80981750D01*
X112118962Y-80968551D01*
X111944164Y-80879486D01*
X111749475Y-80816227D01*
X111574936Y-80788583D01*
X111547293Y-80784205D01*
X111342589Y-80784205D01*
X111286912Y-80793023D01*
X111217619Y-80784068D01*
X111179834Y-80758231D01*
X110758657Y-80337052D01*
X110758656Y-80337051D01*
X110733885Y-80320500D01*
X110673794Y-80280349D01*
X110639624Y-80257517D01*
X110635736Y-80254919D01*
X110635724Y-80254912D01*
X110499153Y-80198343D01*
X110499143Y-80198340D01*
X110354156Y-80169500D01*
X110354154Y-80169500D01*
X109144641Y-80169500D01*
X109077602Y-80149815D01*
X109031847Y-80097011D01*
X109021903Y-80027853D01*
X109039103Y-79980403D01*
X109086542Y-79903492D01*
X109086547Y-79903481D01*
X109139855Y-79742606D01*
X109149999Y-79643322D01*
X109150000Y-79643309D01*
X109150000Y-79620000D01*
X108299000Y-79620000D01*
X108231961Y-79600315D01*
X108186206Y-79547511D01*
X108175000Y-79496000D01*
X108175000Y-79244000D01*
X108194685Y-79176961D01*
X108247489Y-79131206D01*
X108299000Y-79120000D01*
X109149999Y-79120000D01*
X109149999Y-79096692D01*
X109149998Y-79096677D01*
X109139855Y-78997392D01*
X109086547Y-78836518D01*
X109086542Y-78836507D01*
X108995618Y-78689097D01*
X108977177Y-78621705D01*
X108998099Y-78555041D01*
X109051741Y-78510271D01*
X109101156Y-78500000D01*
X111686169Y-78500000D01*
X111753208Y-78519685D01*
G37*
%TD.AperFunction*%
%TD*%
%TA.AperFunction,NonConductor*%
G36*
X103890072Y-78519685D02*
G01*
X103935827Y-78572489D01*
X103945771Y-78641647D01*
X103929150Y-78688150D01*
X103891522Y-78750393D01*
X103840913Y-78912807D01*
X103837418Y-78951272D01*
X103834500Y-78983384D01*
X103834500Y-79496616D01*
X103836423Y-79517778D01*
X103840913Y-79567192D01*
X103840913Y-79567194D01*
X103840914Y-79567196D01*
X103891522Y-79729606D01*
X103978628Y-79873697D01*
X103979530Y-79875188D01*
X104081661Y-79977319D01*
X104115146Y-80038642D01*
X104110162Y-80108334D01*
X104081661Y-80152681D01*
X103979531Y-80254810D01*
X103979530Y-80254811D01*
X103891522Y-80400393D01*
X103840913Y-80562807D01*
X103834500Y-80633386D01*
X103834500Y-80944191D01*
X103814815Y-81011230D01*
X103798181Y-81031872D01*
X102081490Y-82748562D01*
X102020167Y-82782047D01*
X101950475Y-82777063D01*
X101918323Y-82759257D01*
X101845070Y-82703049D01*
X101655438Y-82593565D01*
X101655433Y-82593562D01*
X101655428Y-82593560D01*
X101453117Y-82509759D01*
X101453118Y-82509759D01*
X101453115Y-82509758D01*
X101347357Y-82481421D01*
X101241598Y-82453083D01*
X101206419Y-82448451D01*
X101023282Y-82424340D01*
X100959386Y-82396073D01*
X100920915Y-82337748D01*
X100920084Y-82267884D01*
X100957156Y-82208660D01*
X100985664Y-82189682D01*
X101162997Y-82104284D01*
X101391289Y-81960838D01*
X101602085Y-81792734D01*
X101792734Y-81602085D01*
X101960838Y-81391289D01*
X102104284Y-81162997D01*
X102221267Y-80920079D01*
X102310316Y-80665591D01*
X102370312Y-80402732D01*
X102400500Y-80134809D01*
X102400500Y-79865191D01*
X102370312Y-79597268D01*
X102310316Y-79334409D01*
X102221267Y-79079921D01*
X102104284Y-78837003D01*
X102011898Y-78689972D01*
X101992898Y-78622735D01*
X102013266Y-78555900D01*
X102066534Y-78510686D01*
X102116892Y-78500000D01*
X103823033Y-78500000D01*
X103890072Y-78519685D01*
G37*
%TD.AperFunction*%
M02*
