%TF.GenerationSoftware,KiCad,Pcbnew,10.0.1*%
%TF.CreationDate,2026-05-17T15:29:23+02:00*%
%TF.ProjectId,Debugger,44656275-6767-4657-922e-6b696361645f,2*%
%TF.SameCoordinates,Original*%
%TF.FileFunction,Soldermask,Top*%
%TF.FilePolarity,Negative*%
%FSLAX46Y46*%
G04 Gerber Fmt 4.6, Leading zero omitted, Abs format (unit mm)*
G04 Created by KiCad (PCBNEW 10.0.1) date 2026-05-17 15:29:23*
%MOMM*%
%LPD*%
G01*
G04 APERTURE LIST*
G04 Aperture macros list*
%AMRoundRect*
0 Rectangle with rounded corners*
0 $1 Rounding radius*
0 $2 $3 $4 $5 $6 $7 $8 $9 X,Y pos of 4 corners*
0 Add a 4 corners polygon primitive as box body*
4,1,4,$2,$3,$4,$5,$6,$7,$8,$9,$2,$3,0*
0 Add four circle primitives for the rounded corners*
1,1,$1+$1,$2,$3*
1,1,$1+$1,$4,$5*
1,1,$1+$1,$6,$7*
1,1,$1+$1,$8,$9*
0 Add four rect primitives between the rounded corners*
20,1,$1+$1,$2,$3,$4,$5,0*
20,1,$1+$1,$4,$5,$6,$7,0*
20,1,$1+$1,$6,$7,$8,$9,0*
20,1,$1+$1,$8,$9,$2,$3,0*%
G04 Aperture macros list end*
%ADD10RoundRect,0.200000X0.200000X0.275000X-0.200000X0.275000X-0.200000X-0.275000X0.200000X-0.275000X0*%
%ADD11RoundRect,0.218750X-0.218750X-0.256250X0.218750X-0.256250X0.218750X0.256250X-0.218750X0.256250X0*%
%ADD12C,3.800000*%
%ADD13R,1.700000X1.700000*%
%ADD14C,1.700000*%
%ADD15RoundRect,0.200000X0.275000X-0.200000X0.275000X0.200000X-0.275000X0.200000X-0.275000X-0.200000X0*%
%ADD16RoundRect,0.250000X0.250000X0.475000X-0.250000X0.475000X-0.250000X-0.475000X0.250000X-0.475000X0*%
%ADD17RoundRect,0.200000X-0.275000X0.200000X-0.275000X-0.200000X0.275000X-0.200000X0.275000X0.200000X0*%
%ADD18R,1.050000X1.500000*%
%ADD19O,1.050000X1.500000*%
%ADD20RoundRect,0.250000X-0.550000X-0.550000X0.550000X-0.550000X0.550000X0.550000X-0.550000X0.550000X0*%
%ADD21C,1.600000*%
%ADD22RoundRect,0.225000X-0.225000X-0.250000X0.225000X-0.250000X0.225000X0.250000X-0.225000X0.250000X0*%
%ADD23RoundRect,0.250000X0.550000X-0.550000X0.550000X0.550000X-0.550000X0.550000X-0.550000X-0.550000X0*%
%ADD24RoundRect,0.200000X-0.200000X-0.275000X0.200000X-0.275000X0.200000X0.275000X-0.200000X0.275000X0*%
%ADD25RoundRect,0.225000X-0.250000X0.225000X-0.250000X-0.225000X0.250000X-0.225000X0.250000X0.225000X0*%
%ADD26C,2.000000*%
%ADD27RoundRect,0.250000X-0.350000X-0.350000X0.350000X-0.350000X0.350000X0.350000X-0.350000X0.350000X0*%
%ADD28C,1.200000*%
%ADD29C,2.340000*%
G04 APERTURE END LIST*
D10*
%TO.C,R4*%
X108471048Y-96833176D03*
X106821048Y-96833176D03*
%TD*%
D11*
%TO.C,D1*%
X146951508Y-99831699D03*
X148526508Y-99831699D03*
%TD*%
D12*
%TO.C,H2*%
X160000000Y-100000000D03*
%TD*%
D13*
%TO.C,J1*%
X116670102Y-94572982D03*
D14*
X119210102Y-94572982D03*
%TD*%
D15*
%TO.C,R3*%
X150149273Y-101175108D03*
X150149273Y-99525108D03*
%TD*%
%TO.C,R8*%
X135325000Y-101160000D03*
X135325000Y-99510000D03*
%TD*%
D16*
%TO.C,C4*%
X104859181Y-97280754D03*
X102959181Y-97280754D03*
%TD*%
D17*
%TO.C,R2*%
X123175000Y-85330000D03*
X123175000Y-86980000D03*
%TD*%
D12*
%TO.C,H4*%
X100000000Y-80000000D03*
%TD*%
D18*
%TO.C,Q1*%
X124175000Y-81115000D03*
D19*
X125445000Y-81115000D03*
X126715000Y-81115000D03*
%TD*%
D17*
%TO.C,R6*%
X127150996Y-88715624D03*
X127150996Y-90365624D03*
%TD*%
D20*
%TO.C,U3*%
X131728848Y-81758005D03*
D21*
X131728848Y-84298005D03*
X131728848Y-86838005D03*
X131728848Y-89378005D03*
X131728848Y-91918005D03*
X131728848Y-94458005D03*
X131728848Y-96998005D03*
X139348848Y-96998005D03*
X139348848Y-94458005D03*
X139348848Y-91918005D03*
X139348848Y-89378005D03*
X139348848Y-86838005D03*
X139348848Y-84298005D03*
X139348848Y-81758005D03*
%TD*%
D22*
%TO.C,C5*%
X150052766Y-79201272D03*
X151602766Y-79201272D03*
%TD*%
D11*
%TO.C,D4*%
X118748222Y-100812135D03*
X120323222Y-100812135D03*
%TD*%
D17*
%TO.C,R7*%
X123163047Y-88694058D03*
X123163047Y-90344058D03*
%TD*%
D23*
%TO.C,U2*%
X111444941Y-89704705D03*
D21*
X113984941Y-89704705D03*
X116524941Y-89704705D03*
X119064941Y-89704705D03*
X119064941Y-82084705D03*
X116524941Y-82084705D03*
X113984941Y-82084705D03*
X111444941Y-82084705D03*
%TD*%
D24*
%TO.C,R5*%
X112580000Y-79345000D03*
X114230000Y-79345000D03*
%TD*%
D13*
%TO.C,J4*%
X155571024Y-84957573D03*
D14*
X155571024Y-87497573D03*
X155571024Y-90037573D03*
X155571024Y-92577573D03*
X155571024Y-95117573D03*
%TD*%
D25*
%TO.C,C2*%
X108175000Y-79370000D03*
X108175000Y-80920000D03*
%TD*%
D15*
%TO.C,R1*%
X104810000Y-80890000D03*
X104810000Y-79240000D03*
%TD*%
D13*
%TO.C,J2*%
X105365000Y-100145000D03*
D14*
X107905000Y-100145000D03*
X110445000Y-100145000D03*
X112985000Y-100145000D03*
X115525000Y-100145000D03*
%TD*%
D17*
%TO.C,R11*%
X127155000Y-85340000D03*
X127155000Y-86990000D03*
%TD*%
D26*
%TO.C,SW1*%
X123089766Y-100077554D03*
X123089766Y-93577554D03*
X127589766Y-100077554D03*
X127589766Y-93577554D03*
%TD*%
D22*
%TO.C,C1*%
X117620000Y-79315000D03*
X119170000Y-79315000D03*
%TD*%
D11*
%TO.C,D2*%
X132072500Y-99845000D03*
X133647500Y-99845000D03*
%TD*%
D24*
%TO.C,R10*%
X118680000Y-99005000D03*
X120330000Y-99005000D03*
%TD*%
D22*
%TO.C,C6*%
X138553835Y-79173217D03*
X140103835Y-79173217D03*
%TD*%
D27*
%TO.C,C3*%
X110854801Y-94900000D03*
D28*
X112854801Y-94900000D03*
%TD*%
D20*
%TO.C,U1*%
X143482766Y-81746272D03*
D21*
X143482766Y-84286272D03*
X143482766Y-86826272D03*
X143482766Y-89366272D03*
X143482766Y-91906272D03*
X143482766Y-94446272D03*
X143482766Y-96986272D03*
X151102766Y-96986272D03*
X151102766Y-94446272D03*
X151102766Y-91906272D03*
X151102766Y-89366272D03*
X151102766Y-86826272D03*
X151102766Y-84286272D03*
X151102766Y-81746272D03*
%TD*%
D11*
%TO.C,D3*%
X139588385Y-99829911D03*
X141163385Y-99829911D03*
%TD*%
D15*
%TO.C,R9*%
X142830000Y-101160000D03*
X142830000Y-99510000D03*
%TD*%
D13*
%TO.C,J3*%
X160244294Y-84964924D03*
D14*
X160244294Y-87504924D03*
X160244294Y-90044924D03*
X160244294Y-92584924D03*
X160244294Y-95124924D03*
%TD*%
D12*
%TO.C,H1*%
X100000000Y-100000000D03*
%TD*%
%TO.C,H3*%
X160000000Y-80000000D03*
%TD*%
D29*
%TO.C,RV1*%
X100915000Y-84095000D03*
X103415000Y-94095000D03*
X105915000Y-84095000D03*
%TD*%
M02*
