%TF.GenerationSoftware,KiCad,Pcbnew,10.0.1*%
%TF.CreationDate,2026-05-17T15:29:23+02:00*%
%TF.ProjectId,Debugger,44656275-6767-4657-922e-6b696361645f,2*%
%TF.SameCoordinates,Original*%
%TF.FileFunction,Copper,L2,Inr*%
%TF.FilePolarity,Positive*%
%FSLAX46Y46*%
G04 Gerber Fmt 4.6, Leading zero omitted, Abs format (unit mm)*
G04 Created by KiCad (PCBNEW 10.0.1) date 2026-05-17 15:29:23*
%MOMM*%
%LPD*%
G01*
G04 APERTURE LIST*
G04 Aperture macros list*
%AMRoundRect*
0 Rectangle with rounded corners*
0 $1 Rounding radius*
0 $2 $3 $4 $5 $6 $7 $8 $9 X,Y pos of 4 corners*
0 Add a 4 corners polygon primitive as box body*
4,1,4,$2,$3,$4,$5,$6,$7,$8,$9,$2,$3,0*
0 Add four circle primitives for the rounded corners*
1,1,$1+$1,$2,$3*
1,1,$1+$1,$4,$5*
1,1,$1+$1,$6,$7*
1,1,$1+$1,$8,$9*
0 Add four rect primitives between the rounded corners*
20,1,$1+$1,$2,$3,$4,$5,0*
20,1,$1+$1,$4,$5,$6,$7,0*
20,1,$1+$1,$6,$7,$8,$9,0*
20,1,$1+$1,$8,$9,$2,$3,0*%
G04 Aperture macros list end*
%TA.AperFunction,ComponentPad*%
%ADD10C,3.800000*%
%TD*%
%TA.AperFunction,ComponentPad*%
%ADD11R,1.700000X1.700000*%
%TD*%
%TA.AperFunction,ComponentPad*%
%ADD12C,1.700000*%
%TD*%
%TA.AperFunction,ComponentPad*%
%ADD13R,1.050000X1.500000*%
%TD*%
%TA.AperFunction,ComponentPad*%
%ADD14O,1.050000X1.500000*%
%TD*%
%TA.AperFunction,ComponentPad*%
%ADD15RoundRect,0.250000X-0.550000X-0.550000X0.550000X-0.550000X0.550000X0.550000X-0.550000X0.550000X0*%
%TD*%
%TA.AperFunction,ComponentPad*%
%ADD16C,1.600000*%
%TD*%
%TA.AperFunction,ComponentPad*%
%ADD17RoundRect,0.250000X0.550000X-0.550000X0.550000X0.550000X-0.550000X0.550000X-0.550000X-0.550000X0*%
%TD*%
%TA.AperFunction,ComponentPad*%
%ADD18C,2.000000*%
%TD*%
%TA.AperFunction,ComponentPad*%
%ADD19RoundRect,0.250000X-0.350000X-0.350000X0.350000X-0.350000X0.350000X0.350000X-0.350000X0.350000X0*%
%TD*%
%TA.AperFunction,ComponentPad*%
%ADD20C,1.200000*%
%TD*%
%TA.AperFunction,ComponentPad*%
%ADD21C,2.340000*%
%TD*%
%TA.AperFunction,ViaPad*%
%ADD22C,0.450000*%
%TD*%
%TA.AperFunction,Conductor*%
%ADD23C,0.130000*%
%TD*%
%TA.AperFunction,Conductor*%
%ADD24C,0.127000*%
%TD*%
G04 APERTURE END LIST*
D10*
%TO.N,N/C*%
%TO.C,H2*%
X160000000Y-100000000D03*
%TD*%
D11*
%TO.N,Net-(J1-Pin_1)*%
%TO.C,J1*%
X116670102Y-94572982D03*
D12*
%TO.N,/CLK*%
X119210102Y-94572982D03*
%TD*%
D10*
%TO.N,N/C*%
%TO.C,H4*%
X100000000Y-80000000D03*
%TD*%
D13*
%TO.N,/{slash}HALT*%
%TO.C,Q1*%
X124175000Y-81115000D03*
D14*
%TO.N,Net-(Q1-B)*%
X125445000Y-81115000D03*
%TO.N,GND*%
X126715000Y-81115000D03*
%TD*%
D15*
%TO.N,+5V*%
%TO.C,U3*%
X131728848Y-81758005D03*
D16*
%TO.N,Net-(U3A-D)*%
X131728848Y-84298005D03*
%TO.N,/CLK*%
X131728848Y-86838005D03*
%TO.N,+5V*%
X131728848Y-89378005D03*
%TO.N,Net-(U3A-Q)*%
X131728848Y-91918005D03*
%TO.N,unconnected-(U3A-~{Q}-Pad6)*%
X131728848Y-94458005D03*
%TO.N,GND*%
X131728848Y-96998005D03*
%TO.N,Net-(U3A-D)*%
X139348848Y-96998005D03*
%TO.N,Net-(U3B-Q)*%
X139348848Y-94458005D03*
%TO.N,+5V*%
X139348848Y-91918005D03*
%TO.N,/CLK*%
X139348848Y-89378005D03*
%TO.N,/STEP*%
X139348848Y-86838005D03*
%TO.N,+5V*%
X139348848Y-84298005D03*
X139348848Y-81758005D03*
%TD*%
D17*
%TO.N,GND*%
%TO.C,U2*%
X111444941Y-89704705D03*
D16*
%TO.N,Net-(U2-THRES)*%
X113984941Y-89704705D03*
%TO.N,Net-(J1-Pin_1)*%
X116524941Y-89704705D03*
%TO.N,+5V*%
X119064941Y-89704705D03*
%TO.N,Net-(U2-CONT)*%
X119064941Y-82084705D03*
%TO.N,Net-(U2-THRES)*%
X116524941Y-82084705D03*
%TO.N,Net-(U2-DISCH)*%
X113984941Y-82084705D03*
%TO.N,+5V*%
X111444941Y-82084705D03*
%TD*%
D11*
%TO.N,+5V*%
%TO.C,J4*%
X155571024Y-84957573D03*
D12*
%TO.N,GND*%
X155571024Y-87497573D03*
%TO.N,Net-(J4-Pin_3)*%
X155571024Y-90037573D03*
%TO.N,Net-(J4-Pin_4)*%
X155571024Y-92577573D03*
%TO.N,Net-(J4-Pin_5)*%
X155571024Y-95117573D03*
%TD*%
D11*
%TO.N,+5V*%
%TO.C,J2*%
X105365000Y-100145000D03*
D12*
%TO.N,GND*%
X107905000Y-100145000D03*
%TO.N,/OSC*%
X110445000Y-100145000D03*
%TO.N,/CLK*%
X112985000Y-100145000D03*
%TO.N,/{slash}HALT*%
X115525000Y-100145000D03*
%TD*%
D18*
%TO.N,+5V*%
%TO.C,SW1*%
X123089766Y-100077554D03*
X123089766Y-93577554D03*
%TO.N,/STEP*%
X127589766Y-100077554D03*
X127589766Y-93577554D03*
%TD*%
D19*
%TO.N,GND*%
%TO.C,C3*%
X110854801Y-94900000D03*
D20*
%TO.N,Net-(U2-THRES)*%
X112854801Y-94900000D03*
%TD*%
D15*
%TO.N,Net-(U3B-Q)*%
%TO.C,U1*%
X143482766Y-81746272D03*
D16*
%TO.N,Net-(U3A-Q)*%
X143482766Y-84286272D03*
%TO.N,Net-(R6-Pad1)*%
X143482766Y-86826272D03*
%TO.N,Net-(J1-Pin_1)*%
X143482766Y-89366272D03*
X143482766Y-91906272D03*
%TO.N,/OSC*%
X143482766Y-94446272D03*
%TO.N,GND*%
X143482766Y-96986272D03*
%TO.N,Net-(J3-Pin_5)*%
X151102766Y-96986272D03*
%TO.N,Net-(J3-Pin_4)*%
X151102766Y-94446272D03*
%TO.N,Net-(J3-Pin_3)*%
X151102766Y-91906272D03*
%TO.N,Net-(J4-Pin_5)*%
X151102766Y-89366272D03*
%TO.N,Net-(J4-Pin_4)*%
X151102766Y-86826272D03*
%TO.N,Net-(J4-Pin_3)*%
X151102766Y-84286272D03*
%TO.N,+5V*%
X151102766Y-81746272D03*
%TD*%
D11*
%TO.N,+5V*%
%TO.C,J3*%
X160244294Y-84964924D03*
D12*
%TO.N,GND*%
X160244294Y-87504924D03*
%TO.N,Net-(J3-Pin_3)*%
X160244294Y-90044924D03*
%TO.N,Net-(J3-Pin_4)*%
X160244294Y-92584924D03*
%TO.N,Net-(J3-Pin_5)*%
X160244294Y-95124924D03*
%TD*%
D10*
%TO.N,N/C*%
%TO.C,H1*%
X100000000Y-100000000D03*
%TD*%
%TO.N,N/C*%
%TO.C,H3*%
X160000000Y-80000000D03*
%TD*%
D21*
%TO.N,Net-(U2-DISCH)*%
%TO.C,RV1*%
X100915000Y-84095000D03*
%TO.N,Net-(R5-Pad1)*%
X103415000Y-94095000D03*
%TO.N,unconnected-(RV1-Pad3)*%
X105915000Y-84095000D03*
%TD*%
D22*
%TO.N,/{slash}HALT*%
X121888970Y-85399249D03*
X146000000Y-99750000D03*
%TO.N,Net-(J1-Pin_1)*%
X135325000Y-98085000D03*
%TO.N,+5V*%
X106250000Y-79250000D03*
X149000000Y-98500000D03*
%TO.N,GND*%
X102087208Y-81974307D03*
X107250000Y-90000000D03*
X107250000Y-88000000D03*
X106740829Y-80490644D03*
X107250000Y-92000000D03*
X135586530Y-80878076D03*
X99250000Y-90000000D03*
X147289115Y-80813899D03*
X117748116Y-80748899D03*
X153323596Y-82169756D03*
X99250000Y-92000000D03*
X111500000Y-84000000D03*
X128381477Y-81152977D03*
X116386627Y-80246602D03*
X99250000Y-88000000D03*
X103126731Y-79227539D03*
X106503396Y-81217785D03*
X155887642Y-79946500D03*
X118750000Y-86500000D03*
X126765111Y-83308132D03*
X109442795Y-82127224D03*
X117409124Y-100785153D03*
%TO.N,Net-(Q1-B)*%
X126053992Y-90374706D03*
%TO.N,/STEP*%
X128500000Y-87250000D03*
%TD*%
%TO.N,/{slash}HALT*%
D23*
X116988997Y-98681003D02*
X115525000Y-100145000D01*
X133931003Y-98681003D02*
X116988997Y-98681003D01*
X134500000Y-99250000D02*
X133931003Y-98681003D01*
X134515261Y-99234739D02*
X134500000Y-99250000D01*
X145484739Y-99234739D02*
X134515261Y-99234739D01*
X145484739Y-99234739D02*
X146000000Y-99750000D01*
%TO.N,Net-(J1-Pin_1)*%
X143482766Y-91906272D02*
X143482766Y-89366272D01*
X140584994Y-98084994D02*
X141000000Y-97669987D01*
X118085000Y-98085000D02*
X135325000Y-98085000D01*
X140584988Y-98085000D02*
X140584994Y-98084994D01*
X135325000Y-98085000D02*
X135325000Y-98160000D01*
X116670102Y-96670102D02*
X118085000Y-98085000D01*
X116670102Y-94572982D02*
X116670102Y-96670102D01*
X141000000Y-94389038D02*
X143482766Y-91906272D01*
X135325000Y-98085000D02*
X140584988Y-98085000D01*
X141000000Y-97669987D02*
X141000000Y-94389038D01*
%TO.N,/CLK*%
X139871995Y-89378005D02*
X139348848Y-89378005D01*
X141000000Y-88250000D02*
X139871995Y-89378005D01*
X131728848Y-86838005D02*
X135911995Y-86838005D01*
X140250000Y-85500000D02*
X141000000Y-86250000D01*
X141000000Y-86250000D02*
X141000000Y-88250000D01*
X137250000Y-85500000D02*
X140250000Y-85500000D01*
X135911995Y-86838005D02*
X137250000Y-85500000D01*
%TO.N,Net-(U3A-Q)*%
D24*
X132885711Y-91918005D02*
X134177247Y-90626469D01*
X141108626Y-90626469D02*
X141545046Y-90190049D01*
X131728848Y-91918005D02*
X132885711Y-91918005D01*
X142963728Y-84286272D02*
X143482766Y-84286272D01*
X134177247Y-90626469D02*
X141108626Y-90626469D01*
X141545046Y-90190049D02*
X141545046Y-85704954D01*
X141545046Y-85704954D02*
X142963728Y-84286272D01*
%TO.N,Net-(U3B-Q)*%
X142250000Y-90500000D02*
X142250000Y-88500000D01*
X141500000Y-92306853D02*
X141500000Y-91250000D01*
X141500000Y-91250000D02*
X142250000Y-90500000D01*
X144983075Y-82733075D02*
X143996272Y-81746272D01*
X144408698Y-88029637D02*
X144983075Y-87455260D01*
X144983075Y-87455260D02*
X144983075Y-82733075D01*
X142720363Y-88029637D02*
X144408698Y-88029637D01*
X139348848Y-94458005D02*
X141500000Y-92306853D01*
X142250000Y-88500000D02*
X142720363Y-88029637D01*
X143996272Y-81746272D02*
X143482766Y-81746272D01*
%TO.N,/STEP*%
D23*
X137661995Y-86838005D02*
X136500000Y-88000000D01*
X129250000Y-88000000D02*
X128500000Y-87250000D01*
X139348848Y-86838005D02*
X137661995Y-86838005D01*
X136500000Y-88000000D02*
X129250000Y-88000000D01*
%TO.N,/OSC*%
X142803728Y-94446272D02*
X141500000Y-95750000D01*
X141500000Y-95750000D02*
X141500000Y-98000000D01*
X140750000Y-98750000D02*
X141146924Y-98353076D01*
X134500000Y-98353076D02*
X134896924Y-98750000D01*
X112236924Y-98353076D02*
X134500000Y-98353076D01*
X110445000Y-100145000D02*
X112236924Y-98353076D01*
X134896924Y-98750000D02*
X140750000Y-98750000D01*
X143482766Y-94446272D02*
X142803728Y-94446272D01*
X141500000Y-98000000D02*
X141146924Y-98353076D01*
%TO.N,Net-(J3-Pin_5)*%
X158382946Y-96986272D02*
X160244294Y-95124924D01*
X151102766Y-96986272D02*
X158382946Y-96986272D01*
%TO.N,Net-(J3-Pin_4)*%
X151102766Y-94446272D02*
X151704944Y-93844094D01*
X151704944Y-93844094D02*
X158985124Y-93844094D01*
X158985124Y-93844094D02*
X160244294Y-92584924D01*
%TO.N,Net-(J3-Pin_3)*%
X151738092Y-91270946D02*
X159018272Y-91270946D01*
X151102766Y-91906272D02*
X151738092Y-91270946D01*
X159018272Y-91270946D02*
X160244294Y-90044924D01*
%TD*%
%TA.AperFunction,Conductor*%
%TO.N,GND*%
G36*
X105741665Y-78519685D02*
G01*
X105787420Y-78572489D01*
X105797364Y-78641647D01*
X105768339Y-78705203D01*
X105762307Y-78711681D01*
X105686470Y-78787517D01*
X105686467Y-78787521D01*
X105607074Y-78906340D01*
X105607069Y-78906349D01*
X105552381Y-79038379D01*
X105552379Y-79038385D01*
X105524500Y-79178542D01*
X105524500Y-79178545D01*
X105524500Y-79321455D01*
X105524500Y-79321457D01*
X105524499Y-79321457D01*
X105552379Y-79461614D01*
X105552381Y-79461620D01*
X105607069Y-79593650D01*
X105607074Y-79593659D01*
X105686467Y-79712478D01*
X105686470Y-79712482D01*
X105787517Y-79813529D01*
X105787521Y-79813532D01*
X105906340Y-79892925D01*
X105906349Y-79892930D01*
X105910492Y-79894646D01*
X106038380Y-79947619D01*
X106038384Y-79947619D01*
X106038385Y-79947620D01*
X106178542Y-79975500D01*
X106178545Y-79975500D01*
X106321457Y-79975500D01*
X106415751Y-79956742D01*
X106461620Y-79947619D01*
X106593653Y-79892929D01*
X106712479Y-79813532D01*
X106813532Y-79712479D01*
X106892929Y-79593653D01*
X106947619Y-79461620D01*
X106956742Y-79415751D01*
X106975500Y-79321457D01*
X106975500Y-79178542D01*
X106947620Y-79038385D01*
X106947619Y-79038384D01*
X106947619Y-79038380D01*
X106892929Y-78906347D01*
X106892928Y-78906346D01*
X106892925Y-78906340D01*
X106813532Y-78787521D01*
X106813529Y-78787517D01*
X106737693Y-78711681D01*
X106704208Y-78650358D01*
X106709192Y-78580666D01*
X106751064Y-78524733D01*
X106816528Y-78500316D01*
X106825374Y-78500000D01*
X157883108Y-78500000D01*
X157950147Y-78519685D01*
X157995902Y-78572489D01*
X158005846Y-78641647D01*
X157988102Y-78689972D01*
X157895714Y-78837005D01*
X157778734Y-79079917D01*
X157689687Y-79334397D01*
X157689684Y-79334405D01*
X157629688Y-79597268D01*
X157629686Y-79597280D01*
X157599500Y-79865186D01*
X157599500Y-80134813D01*
X157629686Y-80402719D01*
X157629687Y-80402728D01*
X157629688Y-80402732D01*
X157639512Y-80445772D01*
X157689684Y-80665594D01*
X157689687Y-80665602D01*
X157778734Y-80920082D01*
X157895714Y-81162994D01*
X157895716Y-81162997D01*
X158039162Y-81391289D01*
X158207266Y-81602085D01*
X158397915Y-81792734D01*
X158608711Y-81960838D01*
X158837003Y-82104284D01*
X159079921Y-82221267D01*
X159252806Y-82281762D01*
X159334397Y-82310312D01*
X159334405Y-82310315D01*
X159334408Y-82310315D01*
X159334409Y-82310316D01*
X159597268Y-82370312D01*
X159865187Y-82400499D01*
X159865188Y-82400500D01*
X159865191Y-82400500D01*
X160134812Y-82400500D01*
X160134812Y-82400499D01*
X160402732Y-82370312D01*
X160665591Y-82310316D01*
X160920079Y-82221267D01*
X161162997Y-82104284D01*
X161310028Y-82011897D01*
X161377264Y-81992897D01*
X161444099Y-82013264D01*
X161489314Y-82066532D01*
X161500000Y-82116891D01*
X161500000Y-83553469D01*
X161480315Y-83620508D01*
X161427511Y-83666263D01*
X161358353Y-83676207D01*
X161332667Y-83669651D01*
X161201776Y-83620832D01*
X161201777Y-83620832D01*
X161142177Y-83614425D01*
X161142175Y-83614424D01*
X161142167Y-83614424D01*
X161142158Y-83614424D01*
X159346423Y-83614424D01*
X159346417Y-83614425D01*
X159286810Y-83620832D01*
X159151965Y-83671126D01*
X159151958Y-83671130D01*
X159036749Y-83757376D01*
X159036746Y-83757379D01*
X158950500Y-83872588D01*
X158950496Y-83872595D01*
X158900202Y-84007441D01*
X158893795Y-84067040D01*
X158893794Y-84067059D01*
X158893794Y-85862794D01*
X158893795Y-85862800D01*
X158900202Y-85922407D01*
X158950496Y-86057252D01*
X158950500Y-86057259D01*
X159036746Y-86172468D01*
X159036749Y-86172471D01*
X159151958Y-86258717D01*
X159151965Y-86258721D01*
X159196912Y-86275485D01*
X159286811Y-86309015D01*
X159346421Y-86315424D01*
X159356979Y-86315423D01*
X159424017Y-86335103D01*
X159444666Y-86351742D01*
X160114885Y-87021961D01*
X160051301Y-87038999D01*
X159937287Y-87104825D01*
X159844195Y-87197917D01*
X159778369Y-87311931D01*
X159761331Y-87375515D01*
X159129022Y-86743206D01*
X159129021Y-86743206D01*
X159089674Y-86797363D01*
X158993198Y-86986706D01*
X158927536Y-87188793D01*
X158927536Y-87188796D01*
X158894294Y-87398677D01*
X158894294Y-87611170D01*
X158927536Y-87821051D01*
X158927536Y-87821054D01*
X158993198Y-88023141D01*
X159089669Y-88212474D01*
X159129022Y-88266640D01*
X159761330Y-87634331D01*
X159778369Y-87697917D01*
X159844195Y-87811931D01*
X159937287Y-87905023D01*
X160051301Y-87970849D01*
X160114884Y-87987886D01*
X159482576Y-88620193D01*
X159482576Y-88620194D01*
X159536746Y-88659550D01*
X159536745Y-88659550D01*
X159545789Y-88664158D01*
X159596586Y-88712132D01*
X159613381Y-88779953D01*
X159590844Y-88846088D01*
X159545793Y-88885126D01*
X159536476Y-88889873D01*
X159364507Y-89014814D01*
X159214184Y-89165137D01*
X159089245Y-89337103D01*
X158992738Y-89526509D01*
X158927047Y-89728684D01*
X158893794Y-89938637D01*
X158893794Y-90151210D01*
X158927048Y-90361170D01*
X158952923Y-90440807D01*
X158953357Y-90456018D01*
X158958676Y-90470277D01*
X158954334Y-90490234D01*
X158954918Y-90510648D01*
X158946830Y-90524733D01*
X158943825Y-90538550D01*
X158922674Y-90566804D01*
X158820354Y-90669126D01*
X158759031Y-90702612D01*
X158732672Y-90705446D01*
X156944689Y-90705446D01*
X156877650Y-90685761D01*
X156831895Y-90632957D01*
X156821951Y-90563799D01*
X156826756Y-90543133D01*
X156888270Y-90353816D01*
X156921524Y-90143860D01*
X156921524Y-89931286D01*
X156888270Y-89721330D01*
X156822581Y-89519161D01*
X156726075Y-89329757D01*
X156726073Y-89329754D01*
X156726072Y-89329752D01*
X156601133Y-89157786D01*
X156450810Y-89007463D01*
X156278841Y-88882522D01*
X156269528Y-88877777D01*
X156218731Y-88829803D01*
X156201936Y-88761982D01*
X156224473Y-88695847D01*
X156269531Y-88656805D01*
X156278579Y-88652195D01*
X156332740Y-88612843D01*
X156332741Y-88612843D01*
X155700432Y-87980535D01*
X155764017Y-87963498D01*
X155878031Y-87897672D01*
X155971123Y-87804580D01*
X156036949Y-87690566D01*
X156053986Y-87626981D01*
X156686294Y-88259290D01*
X156686294Y-88259289D01*
X156725646Y-88205127D01*
X156822119Y-88015790D01*
X156887781Y-87813703D01*
X156887781Y-87813700D01*
X156921024Y-87603819D01*
X156921024Y-87391326D01*
X156887781Y-87181445D01*
X156887781Y-87181442D01*
X156822119Y-86979355D01*
X156725648Y-86790022D01*
X156686294Y-86735855D01*
X156686293Y-86735855D01*
X156053986Y-87368163D01*
X156036949Y-87304580D01*
X155971123Y-87190566D01*
X155878031Y-87097474D01*
X155764017Y-87031648D01*
X155700433Y-87014610D01*
X156370651Y-86344391D01*
X156431974Y-86310906D01*
X156458331Y-86308072D01*
X156468896Y-86308072D01*
X156528507Y-86301664D01*
X156663355Y-86251369D01*
X156778570Y-86165119D01*
X156864820Y-86049904D01*
X156915115Y-85915056D01*
X156921524Y-85855446D01*
X156921523Y-84059701D01*
X156915115Y-84000090D01*
X156912646Y-83993471D01*
X156864821Y-83865244D01*
X156864817Y-83865237D01*
X156778571Y-83750028D01*
X156778568Y-83750025D01*
X156663359Y-83663779D01*
X156663352Y-83663775D01*
X156528506Y-83613481D01*
X156528507Y-83613481D01*
X156468907Y-83607074D01*
X156468905Y-83607073D01*
X156468897Y-83607073D01*
X156468888Y-83607073D01*
X154673153Y-83607073D01*
X154673147Y-83607074D01*
X154613540Y-83613481D01*
X154478695Y-83663775D01*
X154478688Y-83663779D01*
X154363479Y-83750025D01*
X154363476Y-83750028D01*
X154277230Y-83865237D01*
X154277226Y-83865244D01*
X154226932Y-84000090D01*
X154220525Y-84059689D01*
X154220525Y-84059696D01*
X154220524Y-84059708D01*
X154220524Y-85855443D01*
X154220525Y-85855449D01*
X154226932Y-85915056D01*
X154277226Y-86049901D01*
X154277230Y-86049908D01*
X154363476Y-86165117D01*
X154363479Y-86165120D01*
X154478688Y-86251366D01*
X154478695Y-86251370D01*
X154502359Y-86260196D01*
X154613541Y-86301664D01*
X154673151Y-86308073D01*
X154683709Y-86308072D01*
X154750747Y-86327752D01*
X154771396Y-86344391D01*
X155441615Y-87014610D01*
X155378031Y-87031648D01*
X155264017Y-87097474D01*
X155170925Y-87190566D01*
X155105099Y-87304580D01*
X155088061Y-87368164D01*
X154455752Y-86735855D01*
X154455751Y-86735855D01*
X154416404Y-86790012D01*
X154319928Y-86979355D01*
X154254266Y-87181442D01*
X154254266Y-87181445D01*
X154221024Y-87391326D01*
X154221024Y-87603819D01*
X154254266Y-87813700D01*
X154254266Y-87813703D01*
X154319928Y-88015790D01*
X154416399Y-88205123D01*
X154455752Y-88259289D01*
X155088060Y-87626980D01*
X155105099Y-87690566D01*
X155170925Y-87804580D01*
X155264017Y-87897672D01*
X155378031Y-87963498D01*
X155441614Y-87980535D01*
X154809306Y-88612842D01*
X154809306Y-88612843D01*
X154863476Y-88652199D01*
X154863475Y-88652199D01*
X154872519Y-88656807D01*
X154923316Y-88704781D01*
X154940111Y-88772602D01*
X154917574Y-88838737D01*
X154872523Y-88877775D01*
X154863206Y-88882522D01*
X154691237Y-89007463D01*
X154540914Y-89157786D01*
X154415975Y-89329752D01*
X154319468Y-89519158D01*
X154319467Y-89519160D01*
X154319467Y-89519161D01*
X154317079Y-89526512D01*
X154253777Y-89721333D01*
X154220524Y-89931286D01*
X154220524Y-90143859D01*
X154237108Y-90248570D01*
X154253778Y-90353816D01*
X154315290Y-90543129D01*
X154317285Y-90612969D01*
X154281205Y-90672802D01*
X154218504Y-90703630D01*
X154197359Y-90705446D01*
X151853726Y-90705446D01*
X151786687Y-90685761D01*
X151740932Y-90632957D01*
X151730988Y-90563799D01*
X151760013Y-90500243D01*
X151780841Y-90481128D01*
X151949979Y-90358243D01*
X151949981Y-90358240D01*
X151949985Y-90358238D01*
X152094732Y-90213491D01*
X152094734Y-90213487D01*
X152094737Y-90213485D01*
X152173769Y-90104705D01*
X152215053Y-90047882D01*
X152307986Y-89865491D01*
X152371243Y-89670806D01*
X152403266Y-89468624D01*
X152403266Y-89263920D01*
X152387620Y-89165135D01*
X152371243Y-89061737D01*
X152340686Y-88967692D01*
X152307986Y-88867053D01*
X152307984Y-88867050D01*
X152307984Y-88867048D01*
X152270441Y-88793367D01*
X152215053Y-88684662D01*
X152194814Y-88656805D01*
X152094737Y-88519058D01*
X151949979Y-88374300D01*
X151784380Y-88253987D01*
X151714713Y-88218490D01*
X151691683Y-88206755D01*
X151640889Y-88158783D01*
X151624094Y-88090962D01*
X151646631Y-88024827D01*
X151691683Y-87985788D01*
X151784376Y-87938559D01*
X151840653Y-87897672D01*
X151949979Y-87818243D01*
X151949981Y-87818240D01*
X151949985Y-87818238D01*
X152094732Y-87673491D01*
X152094734Y-87673487D01*
X152094737Y-87673485D01*
X152174718Y-87563399D01*
X152215053Y-87507882D01*
X152307986Y-87325491D01*
X152371243Y-87130806D01*
X152403266Y-86928624D01*
X152403266Y-86723920D01*
X152384758Y-86607069D01*
X152371243Y-86521737D01*
X152326974Y-86385492D01*
X152307986Y-86327053D01*
X152307984Y-86327050D01*
X152307984Y-86327048D01*
X152270162Y-86252820D01*
X152215053Y-86144662D01*
X152207322Y-86134021D01*
X152094737Y-85979058D01*
X151949979Y-85834300D01*
X151784380Y-85713987D01*
X151777772Y-85710620D01*
X151691683Y-85666755D01*
X151640889Y-85618783D01*
X151624094Y-85550962D01*
X151646631Y-85484827D01*
X151691683Y-85445788D01*
X151784376Y-85398559D01*
X151832437Y-85363641D01*
X151949979Y-85278243D01*
X151949981Y-85278240D01*
X151949985Y-85278238D01*
X152094732Y-85133491D01*
X152094734Y-85133487D01*
X152094737Y-85133485D01*
X152157219Y-85047484D01*
X152215053Y-84967882D01*
X152307986Y-84785491D01*
X152371243Y-84590806D01*
X152403266Y-84388624D01*
X152403266Y-84183920D01*
X152384755Y-84067051D01*
X152375314Y-84007441D01*
X152371243Y-83981738D01*
X152307986Y-83787053D01*
X152307984Y-83787050D01*
X152307984Y-83787048D01*
X152248918Y-83671126D01*
X152215053Y-83604662D01*
X152180340Y-83556883D01*
X152094737Y-83439058D01*
X151949979Y-83294300D01*
X151784380Y-83173987D01*
X151714713Y-83138490D01*
X151691683Y-83126755D01*
X151640889Y-83078783D01*
X151624094Y-83010962D01*
X151646631Y-82944827D01*
X151691683Y-82905788D01*
X151784376Y-82858559D01*
X151814937Y-82836355D01*
X151949979Y-82738243D01*
X151949981Y-82738240D01*
X151949985Y-82738238D01*
X152094732Y-82593491D01*
X152094734Y-82593487D01*
X152094737Y-82593485D01*
X152182281Y-82472989D01*
X152215053Y-82427882D01*
X152307986Y-82245491D01*
X152371243Y-82050806D01*
X152403266Y-81848624D01*
X152403266Y-81643920D01*
X152374839Y-81464444D01*
X152371243Y-81441737D01*
X152311798Y-81258786D01*
X152307986Y-81247053D01*
X152307984Y-81247050D01*
X152307984Y-81247048D01*
X152265156Y-81162994D01*
X152215053Y-81064662D01*
X152199658Y-81043472D01*
X152094737Y-80899058D01*
X151949979Y-80754300D01*
X151784379Y-80633987D01*
X151784378Y-80633986D01*
X151784376Y-80633985D01*
X151724664Y-80603560D01*
X151601989Y-80541053D01*
X151407300Y-80477794D01*
X151232761Y-80450150D01*
X151205118Y-80445772D01*
X151000414Y-80445772D01*
X150976095Y-80449623D01*
X150798231Y-80477794D01*
X150603542Y-80541053D01*
X150421152Y-80633987D01*
X150255552Y-80754300D01*
X150110794Y-80899058D01*
X149990481Y-81064658D01*
X149897547Y-81247048D01*
X149834288Y-81441737D01*
X149802266Y-81643920D01*
X149802266Y-81848623D01*
X149834288Y-82050806D01*
X149897547Y-82245495D01*
X149948906Y-82346290D01*
X149988674Y-82424340D01*
X149990481Y-82427885D01*
X150110794Y-82593485D01*
X150255552Y-82738243D01*
X150390597Y-82836357D01*
X150421156Y-82858559D01*
X150503892Y-82900715D01*
X150513846Y-82905787D01*
X150564642Y-82953762D01*
X150581437Y-83021583D01*
X150558900Y-83087718D01*
X150513846Y-83126757D01*
X150421152Y-83173987D01*
X150255552Y-83294300D01*
X150110794Y-83439058D01*
X149990481Y-83604658D01*
X149897547Y-83787048D01*
X149834288Y-83981737D01*
X149802266Y-84183920D01*
X149802266Y-84388623D01*
X149834288Y-84590806D01*
X149897547Y-84785495D01*
X149990481Y-84967885D01*
X150110794Y-85133485D01*
X150255552Y-85278243D01*
X150373095Y-85363641D01*
X150421156Y-85398559D01*
X150512606Y-85445155D01*
X150513846Y-85445787D01*
X150564642Y-85493762D01*
X150581437Y-85561583D01*
X150558900Y-85627718D01*
X150513846Y-85666757D01*
X150421152Y-85713987D01*
X150255552Y-85834300D01*
X150110794Y-85979058D01*
X149990481Y-86144658D01*
X149897547Y-86327048D01*
X149834288Y-86521737D01*
X149802266Y-86723920D01*
X149802266Y-86928623D01*
X149834288Y-87130806D01*
X149897547Y-87325495D01*
X149953089Y-87434500D01*
X149988971Y-87504923D01*
X149990481Y-87507885D01*
X150110794Y-87673485D01*
X150255552Y-87818243D01*
X150377132Y-87906574D01*
X150421156Y-87938559D01*
X150484529Y-87970849D01*
X150513846Y-87985787D01*
X150564642Y-88033762D01*
X150581437Y-88101583D01*
X150558900Y-88167718D01*
X150513846Y-88206757D01*
X150421152Y-88253987D01*
X150255552Y-88374300D01*
X150110794Y-88519058D01*
X149990481Y-88684658D01*
X149897547Y-88867048D01*
X149834288Y-89061737D01*
X149802266Y-89263920D01*
X149802266Y-89468623D01*
X149834288Y-89670806D01*
X149897547Y-89865495D01*
X149940764Y-89950311D01*
X149987881Y-90042784D01*
X149990481Y-90047885D01*
X150110794Y-90213485D01*
X150255552Y-90358243D01*
X150409757Y-90470277D01*
X150421156Y-90478559D01*
X150511777Y-90524733D01*
X150513846Y-90525787D01*
X150564642Y-90573762D01*
X150581437Y-90641583D01*
X150558900Y-90707718D01*
X150513846Y-90746757D01*
X150421152Y-90793987D01*
X150255552Y-90914300D01*
X150110794Y-91059058D01*
X149990481Y-91224658D01*
X149897547Y-91407048D01*
X149834288Y-91601737D01*
X149802266Y-91803920D01*
X149802266Y-92008623D01*
X149834288Y-92210806D01*
X149897547Y-92405495D01*
X149990481Y-92587885D01*
X150110794Y-92753485D01*
X150255552Y-92898243D01*
X150397761Y-93001562D01*
X150421156Y-93018559D01*
X150511777Y-93064733D01*
X150513846Y-93065787D01*
X150564642Y-93113762D01*
X150581437Y-93181583D01*
X150558900Y-93247718D01*
X150513846Y-93286757D01*
X150421152Y-93333987D01*
X150255552Y-93454300D01*
X150110794Y-93599058D01*
X149990481Y-93764658D01*
X149897547Y-93947048D01*
X149834288Y-94141737D01*
X149814334Y-94267725D01*
X149802266Y-94343920D01*
X149802266Y-94548624D01*
X149803209Y-94554579D01*
X149834288Y-94750806D01*
X149897547Y-94945495D01*
X149938094Y-95025071D01*
X149971888Y-95091396D01*
X149990481Y-95127885D01*
X150110794Y-95293485D01*
X150255552Y-95438243D01*
X150387214Y-95533899D01*
X150421156Y-95558559D01*
X150494923Y-95596145D01*
X150513846Y-95605787D01*
X150564642Y-95653762D01*
X150581437Y-95721583D01*
X150558900Y-95787718D01*
X150513846Y-95826757D01*
X150421152Y-95873987D01*
X150255552Y-95994300D01*
X150110794Y-96139058D01*
X149990481Y-96304658D01*
X149897547Y-96487048D01*
X149834288Y-96681737D01*
X149802266Y-96883920D01*
X149802266Y-97088623D01*
X149834288Y-97290806D01*
X149897547Y-97485495D01*
X149961457Y-97610925D01*
X149990351Y-97667631D01*
X149990481Y-97667885D01*
X150110794Y-97833485D01*
X150255552Y-97978243D01*
X150410515Y-98090828D01*
X150421156Y-98098559D01*
X150534557Y-98156340D01*
X150603542Y-98191490D01*
X150603544Y-98191490D01*
X150603547Y-98191492D01*
X150685977Y-98218275D01*
X150798231Y-98254749D01*
X150899323Y-98270760D01*
X151000414Y-98286772D01*
X151000415Y-98286772D01*
X151205117Y-98286772D01*
X151205118Y-98286772D01*
X151407300Y-98254749D01*
X151601985Y-98191492D01*
X151784376Y-98098559D01*
X151911986Y-98005846D01*
X151949979Y-97978243D01*
X151949981Y-97978240D01*
X151949985Y-97978238D01*
X152094732Y-97833491D01*
X152094734Y-97833487D01*
X152094737Y-97833485D01*
X152215052Y-97667883D01*
X152215181Y-97667631D01*
X152239716Y-97619477D01*
X152287690Y-97568682D01*
X152350201Y-97551772D01*
X158457393Y-97551772D01*
X158457396Y-97551772D01*
X158601221Y-97513234D01*
X158730171Y-97438785D01*
X159722413Y-96446541D01*
X159783734Y-96413058D01*
X159848409Y-96416292D01*
X159889343Y-96429593D01*
X159928050Y-96442170D01*
X160033029Y-96458797D01*
X160138007Y-96475424D01*
X160138008Y-96475424D01*
X160350580Y-96475424D01*
X160350581Y-96475424D01*
X160560537Y-96442170D01*
X160762706Y-96376481D01*
X160952110Y-96279975D01*
X161067068Y-96196454D01*
X161124080Y-96155033D01*
X161124082Y-96155030D01*
X161124086Y-96155028D01*
X161274398Y-96004716D01*
X161274401Y-96004712D01*
X161275681Y-96002951D01*
X161276340Y-96002442D01*
X161277570Y-96001003D01*
X161277872Y-96001261D01*
X161331010Y-95960284D01*
X161400624Y-95954304D01*
X161462419Y-95986910D01*
X161496777Y-96047748D01*
X161500000Y-96075835D01*
X161500000Y-97883108D01*
X161480315Y-97950147D01*
X161427511Y-97995902D01*
X161358353Y-98005846D01*
X161310028Y-97988102D01*
X161162994Y-97895714D01*
X160920082Y-97778734D01*
X160665602Y-97689687D01*
X160665594Y-97689684D01*
X160435723Y-97637218D01*
X160402732Y-97629688D01*
X160402728Y-97629687D01*
X160402719Y-97629686D01*
X160134813Y-97599500D01*
X160134809Y-97599500D01*
X159865191Y-97599500D01*
X159865186Y-97599500D01*
X159597280Y-97629686D01*
X159597268Y-97629688D01*
X159334405Y-97689684D01*
X159334397Y-97689687D01*
X159079917Y-97778734D01*
X158837005Y-97895714D01*
X158608712Y-98039161D01*
X158397915Y-98207265D01*
X158207265Y-98397915D01*
X158039161Y-98608712D01*
X157895714Y-98837005D01*
X157778734Y-99079917D01*
X157689687Y-99334397D01*
X157689684Y-99334405D01*
X157629688Y-99597268D01*
X157629686Y-99597280D01*
X157599500Y-99865186D01*
X157599500Y-100134813D01*
X157629686Y-100402719D01*
X157629688Y-100402731D01*
X157689684Y-100665594D01*
X157689687Y-100665602D01*
X157778734Y-100920082D01*
X157895714Y-101162994D01*
X157988102Y-101310028D01*
X158007102Y-101377265D01*
X157986734Y-101444100D01*
X157933466Y-101489314D01*
X157883108Y-101500000D01*
X128566372Y-101500000D01*
X128499333Y-101480315D01*
X128453578Y-101427511D01*
X128443634Y-101358353D01*
X128472659Y-101294797D01*
X128493487Y-101275682D01*
X128514697Y-101260272D01*
X128567276Y-101222071D01*
X128734283Y-101055064D01*
X128873109Y-100863987D01*
X128980334Y-100653546D01*
X129053319Y-100428922D01*
X129071595Y-100313532D01*
X129090266Y-100195651D01*
X129090266Y-99959456D01*
X129053319Y-99726185D01*
X129011417Y-99597225D01*
X128980334Y-99501562D01*
X128980332Y-99501559D01*
X128980332Y-99501557D01*
X128942240Y-99426798D01*
X128929344Y-99358129D01*
X128955620Y-99293388D01*
X129012727Y-99253131D01*
X129052725Y-99246503D01*
X133645403Y-99246503D01*
X133712442Y-99266188D01*
X133733084Y-99282822D01*
X134047487Y-99597225D01*
X134152775Y-99702513D01*
X134281725Y-99776962D01*
X134425550Y-99815500D01*
X134425553Y-99815500D01*
X134574448Y-99815500D01*
X134574450Y-99815500D01*
X134615637Y-99804463D01*
X134647730Y-99800239D01*
X145168516Y-99800239D01*
X145235555Y-99819924D01*
X145281310Y-99872728D01*
X145290133Y-99900048D01*
X145302379Y-99961612D01*
X145302381Y-99961620D01*
X145357069Y-100093650D01*
X145357074Y-100093659D01*
X145436467Y-100212478D01*
X145436470Y-100212482D01*
X145537517Y-100313529D01*
X145537521Y-100313532D01*
X145656340Y-100392925D01*
X145656346Y-100392928D01*
X145656347Y-100392929D01*
X145788380Y-100447619D01*
X145788384Y-100447619D01*
X145788385Y-100447620D01*
X145928542Y-100475500D01*
X145928545Y-100475500D01*
X146071457Y-100475500D01*
X146189560Y-100452007D01*
X146211620Y-100447619D01*
X146343653Y-100392929D01*
X146462479Y-100313532D01*
X146563532Y-100212479D01*
X146642929Y-100093653D01*
X146697619Y-99961620D01*
X146716801Y-99865186D01*
X146725500Y-99821457D01*
X146725500Y-99678542D01*
X146697620Y-99538385D01*
X146697619Y-99538384D01*
X146697619Y-99538380D01*
X146642929Y-99406347D01*
X146642928Y-99406346D01*
X146642925Y-99406340D01*
X146563532Y-99287521D01*
X146563529Y-99287517D01*
X146462482Y-99186470D01*
X146462478Y-99186467D01*
X146343659Y-99107074D01*
X146343650Y-99107069D01*
X146211620Y-99052381D01*
X146211612Y-99052379D01*
X146111821Y-99032529D01*
X146049910Y-99000144D01*
X146048331Y-98998593D01*
X145831965Y-98782227D01*
X145831960Y-98782223D01*
X145703016Y-98707778D01*
X145703015Y-98707777D01*
X145667057Y-98698142D01*
X145559189Y-98669239D01*
X145559186Y-98669239D01*
X141929861Y-98669239D01*
X141908982Y-98663108D01*
X141887271Y-98661695D01*
X141876120Y-98653459D01*
X141862822Y-98649554D01*
X141848575Y-98633112D01*
X141831071Y-98620183D01*
X141826143Y-98607224D01*
X141817067Y-98596750D01*
X141813970Y-98575215D01*
X141812541Y-98571457D01*
X148274499Y-98571457D01*
X148302379Y-98711614D01*
X148302381Y-98711620D01*
X148357069Y-98843650D01*
X148357074Y-98843659D01*
X148436467Y-98962478D01*
X148436470Y-98962482D01*
X148537517Y-99063529D01*
X148537521Y-99063532D01*
X148656340Y-99142925D01*
X148656346Y-99142928D01*
X148656347Y-99142929D01*
X148788380Y-99197619D01*
X148788384Y-99197619D01*
X148788385Y-99197620D01*
X148928542Y-99225500D01*
X148928545Y-99225500D01*
X149071457Y-99225500D01*
X149165751Y-99206742D01*
X149211620Y-99197619D01*
X149343653Y-99142929D01*
X149462479Y-99063532D01*
X149563532Y-98962479D01*
X149642929Y-98843653D01*
X149697619Y-98711620D01*
X149709965Y-98649554D01*
X149725500Y-98571457D01*
X149725500Y-98428542D01*
X149697620Y-98288385D01*
X149697619Y-98288384D01*
X149697619Y-98288380D01*
X149642929Y-98156347D01*
X149642928Y-98156346D01*
X149642925Y-98156340D01*
X149563532Y-98037521D01*
X149563529Y-98037517D01*
X149462482Y-97936470D01*
X149462478Y-97936467D01*
X149343659Y-97857074D01*
X149343650Y-97857069D01*
X149211620Y-97802381D01*
X149211614Y-97802379D01*
X149071457Y-97774500D01*
X149071455Y-97774500D01*
X148928545Y-97774500D01*
X148928543Y-97774500D01*
X148788385Y-97802379D01*
X148788379Y-97802381D01*
X148656349Y-97857069D01*
X148656340Y-97857074D01*
X148537521Y-97936467D01*
X148537517Y-97936470D01*
X148436470Y-98037517D01*
X148436467Y-98037521D01*
X148357074Y-98156340D01*
X148357069Y-98156349D01*
X148302381Y-98288379D01*
X148302379Y-98288385D01*
X148274500Y-98428542D01*
X148274500Y-98428545D01*
X148274500Y-98571455D01*
X148274500Y-98571457D01*
X148274499Y-98571457D01*
X141812541Y-98571457D01*
X141806236Y-98554876D01*
X141809095Y-98541312D01*
X141807123Y-98527592D01*
X141816161Y-98507799D01*
X141820651Y-98486509D01*
X141834214Y-98468269D01*
X141836148Y-98464036D01*
X141841621Y-98458120D01*
X141841853Y-98457884D01*
X141952513Y-98347225D01*
X142026962Y-98218275D01*
X142065500Y-98074450D01*
X142065500Y-97925550D01*
X142065500Y-97584724D01*
X142085185Y-97517685D01*
X142137989Y-97471930D01*
X142207147Y-97461986D01*
X142270703Y-97491011D01*
X142299985Y-97528429D01*
X142370907Y-97667622D01*
X142370913Y-97667631D01*
X142403289Y-97712193D01*
X142403290Y-97712194D01*
X143082766Y-97032718D01*
X143082766Y-97038933D01*
X143110025Y-97140666D01*
X143162686Y-97231878D01*
X143237160Y-97306352D01*
X143328372Y-97359013D01*
X143430105Y-97386272D01*
X143436319Y-97386272D01*
X142756842Y-98065746D01*
X142801416Y-98098131D01*
X142983734Y-98191027D01*
X143178348Y-98254262D01*
X143380449Y-98286272D01*
X143585083Y-98286272D01*
X143787183Y-98254262D01*
X143981797Y-98191027D01*
X144164115Y-98098131D01*
X144208687Y-98065746D01*
X143529213Y-97386272D01*
X143535427Y-97386272D01*
X143637160Y-97359013D01*
X143728372Y-97306352D01*
X143802846Y-97231878D01*
X143855507Y-97140666D01*
X143882766Y-97038933D01*
X143882766Y-97032719D01*
X144562240Y-97712193D01*
X144594625Y-97667621D01*
X144687521Y-97485303D01*
X144750756Y-97290689D01*
X144782766Y-97088589D01*
X144782766Y-96883954D01*
X144750756Y-96681854D01*
X144687521Y-96487240D01*
X144594625Y-96304922D01*
X144562240Y-96260349D01*
X144562240Y-96260348D01*
X143882766Y-96939823D01*
X143882766Y-96933611D01*
X143855507Y-96831878D01*
X143802846Y-96740666D01*
X143728372Y-96666192D01*
X143637160Y-96613531D01*
X143535427Y-96586272D01*
X143529212Y-96586272D01*
X144208688Y-95906796D01*
X144208687Y-95906795D01*
X144164125Y-95874419D01*
X144164116Y-95874413D01*
X144071135Y-95827037D01*
X144020339Y-95779062D01*
X144003544Y-95711241D01*
X144026081Y-95645107D01*
X144071136Y-95606067D01*
X144090609Y-95596145D01*
X144164376Y-95558559D01*
X144260385Y-95488805D01*
X144329979Y-95438243D01*
X144329981Y-95438240D01*
X144329985Y-95438238D01*
X144474732Y-95293491D01*
X144474734Y-95293487D01*
X144474737Y-95293485D01*
X144533076Y-95213187D01*
X144595053Y-95127882D01*
X144687986Y-94945491D01*
X144751243Y-94750806D01*
X144783266Y-94548624D01*
X144783266Y-94343920D01*
X144769458Y-94256739D01*
X144751243Y-94141737D01*
X144695401Y-93969875D01*
X144687986Y-93947053D01*
X144687984Y-93947050D01*
X144687984Y-93947048D01*
X144638339Y-93849616D01*
X144595053Y-93764662D01*
X144544914Y-93695651D01*
X144474737Y-93599058D01*
X144329979Y-93454300D01*
X144164380Y-93333987D01*
X144157772Y-93330620D01*
X144071683Y-93286755D01*
X144020889Y-93238783D01*
X144004094Y-93170962D01*
X144026631Y-93104827D01*
X144071683Y-93065788D01*
X144164376Y-93018559D01*
X144216338Y-92980807D01*
X144329979Y-92898243D01*
X144329981Y-92898240D01*
X144329985Y-92898238D01*
X144474732Y-92753491D01*
X144474734Y-92753487D01*
X144474737Y-92753485D01*
X144527498Y-92680862D01*
X144595053Y-92587882D01*
X144687986Y-92405491D01*
X144751243Y-92210806D01*
X144783266Y-92008624D01*
X144783266Y-91803920D01*
X144767620Y-91705135D01*
X144751243Y-91601737D01*
X144712863Y-91483616D01*
X144687986Y-91407053D01*
X144687984Y-91407050D01*
X144687984Y-91407048D01*
X144638339Y-91309616D01*
X144595053Y-91224662D01*
X144570211Y-91190469D01*
X144474737Y-91059058D01*
X144329979Y-90914300D01*
X144164377Y-90793985D01*
X144115970Y-90769320D01*
X144104906Y-90758871D01*
X144091063Y-90752549D01*
X144080021Y-90735368D01*
X144065175Y-90721346D01*
X144060933Y-90705666D01*
X144053289Y-90693771D01*
X144048266Y-90658836D01*
X144048266Y-90613707D01*
X144067951Y-90546668D01*
X144115972Y-90503222D01*
X144121819Y-90500243D01*
X144164376Y-90478559D01*
X144216338Y-90440807D01*
X144329979Y-90358243D01*
X144329981Y-90358240D01*
X144329985Y-90358238D01*
X144474732Y-90213491D01*
X144474734Y-90213487D01*
X144474737Y-90213485D01*
X144553769Y-90104705D01*
X144595053Y-90047882D01*
X144687986Y-89865491D01*
X144751243Y-89670806D01*
X144783266Y-89468624D01*
X144783266Y-89263920D01*
X144767620Y-89165135D01*
X144751243Y-89061737D01*
X144720686Y-88967692D01*
X144687986Y-88867053D01*
X144687984Y-88867050D01*
X144687984Y-88867048D01*
X144604629Y-88703456D01*
X144591733Y-88634787D01*
X144618009Y-88570046D01*
X144653109Y-88539777D01*
X144755002Y-88480950D01*
X144860011Y-88375941D01*
X144860011Y-88375939D01*
X144870215Y-88365736D01*
X144870219Y-88365731D01*
X145319169Y-87916781D01*
X145319174Y-87916777D01*
X145329377Y-87906573D01*
X145329379Y-87906573D01*
X145434388Y-87801564D01*
X145508640Y-87672956D01*
X145547076Y-87529512D01*
X145547076Y-87381007D01*
X145547076Y-87373412D01*
X145547075Y-87373394D01*
X145547075Y-82658825D01*
X145547074Y-82658820D01*
X145537717Y-82623898D01*
X145515812Y-82542147D01*
X145508640Y-82515379D01*
X145505395Y-82509759D01*
X145505394Y-82509757D01*
X145505393Y-82509755D01*
X145434390Y-82386774D01*
X145434389Y-82386773D01*
X145434388Y-82386771D01*
X145329379Y-82281762D01*
X145329378Y-82281761D01*
X145325048Y-82277431D01*
X145325037Y-82277421D01*
X144819584Y-81771968D01*
X144786099Y-81710645D01*
X144783265Y-81684287D01*
X144783265Y-81146270D01*
X144783264Y-81146253D01*
X144772765Y-81043475D01*
X144772764Y-81043472D01*
X144717580Y-80876938D01*
X144625478Y-80727616D01*
X144501422Y-80603560D01*
X144371124Y-80523192D01*
X144352102Y-80511459D01*
X144352097Y-80511457D01*
X144350628Y-80510970D01*
X144185563Y-80456273D01*
X144185561Y-80456272D01*
X144082776Y-80445772D01*
X142882764Y-80445772D01*
X142882747Y-80445773D01*
X142779969Y-80456272D01*
X142779966Y-80456273D01*
X142613434Y-80511457D01*
X142613429Y-80511459D01*
X142464108Y-80603561D01*
X142340055Y-80727614D01*
X142247953Y-80876935D01*
X142247951Y-80876940D01*
X142245365Y-80884745D01*
X142192767Y-81043475D01*
X142192767Y-81043476D01*
X142192766Y-81043476D01*
X142182266Y-81146255D01*
X142182266Y-82346273D01*
X142182267Y-82346290D01*
X142192766Y-82449068D01*
X142192767Y-82449071D01*
X142247951Y-82615603D01*
X142247953Y-82615608D01*
X142282835Y-82672160D01*
X142340054Y-82764928D01*
X142464110Y-82888984D01*
X142613432Y-82981086D01*
X142695336Y-83008226D01*
X142752781Y-83047999D01*
X142779604Y-83112515D01*
X142767289Y-83181290D01*
X142729217Y-83226250D01*
X142635553Y-83294300D01*
X142635548Y-83294304D01*
X142490794Y-83439058D01*
X142370481Y-83604658D01*
X142277547Y-83787048D01*
X142214288Y-83981737D01*
X142182266Y-84183920D01*
X142182266Y-84218755D01*
X142162581Y-84285794D01*
X142145947Y-84306436D01*
X141198744Y-85253638D01*
X141198744Y-85253639D01*
X141198742Y-85253641D01*
X141124592Y-85327791D01*
X141088741Y-85363642D01*
X141027418Y-85397126D01*
X140957726Y-85392142D01*
X140913379Y-85363641D01*
X140597224Y-85047486D01*
X140567252Y-85030182D01*
X140519037Y-84979614D01*
X140505815Y-84911007D01*
X140518767Y-84866504D01*
X140554068Y-84797224D01*
X140617325Y-84602539D01*
X140649348Y-84400357D01*
X140649348Y-84195653D01*
X140619538Y-84007441D01*
X140617325Y-83993470D01*
X140578048Y-83872588D01*
X140554068Y-83798786D01*
X140554066Y-83798783D01*
X140554066Y-83798781D01*
X140520351Y-83732612D01*
X140461135Y-83616395D01*
X140452608Y-83604658D01*
X140340819Y-83450791D01*
X140196061Y-83306033D01*
X140030462Y-83185720D01*
X140021768Y-83181290D01*
X139937765Y-83138488D01*
X139886971Y-83090516D01*
X139870176Y-83022695D01*
X139892713Y-82956560D01*
X139937765Y-82917521D01*
X140030458Y-82870292D01*
X140051618Y-82854918D01*
X140196061Y-82749976D01*
X140196063Y-82749973D01*
X140196067Y-82749971D01*
X140340814Y-82605224D01*
X140340816Y-82605220D01*
X140340819Y-82605218D01*
X140410173Y-82509759D01*
X140461135Y-82439615D01*
X140554068Y-82257224D01*
X140617325Y-82062539D01*
X140649348Y-81860357D01*
X140649348Y-81655653D01*
X140647490Y-81643920D01*
X140617325Y-81453470D01*
X140571228Y-81311599D01*
X140554068Y-81258786D01*
X140554066Y-81258783D01*
X140554066Y-81258781D01*
X140520351Y-81192612D01*
X140461135Y-81076395D01*
X140437218Y-81043476D01*
X140340819Y-80910791D01*
X140196061Y-80766033D01*
X140030461Y-80645720D01*
X140030460Y-80645719D01*
X140030458Y-80645718D01*
X139970746Y-80615293D01*
X139848071Y-80552786D01*
X139653382Y-80489527D01*
X139478843Y-80461883D01*
X139451200Y-80457505D01*
X139246496Y-80457505D01*
X139222177Y-80461356D01*
X139044313Y-80489527D01*
X138849624Y-80552786D01*
X138667234Y-80645720D01*
X138501634Y-80766033D01*
X138356876Y-80910791D01*
X138236563Y-81076391D01*
X138143629Y-81258781D01*
X138080370Y-81453470D01*
X138048348Y-81655653D01*
X138048348Y-81860356D01*
X138080370Y-82062539D01*
X138143629Y-82257228D01*
X138207539Y-82382658D01*
X138230584Y-82427885D01*
X138236563Y-82439618D01*
X138356876Y-82605218D01*
X138501634Y-82749976D01*
X138651085Y-82858556D01*
X138667238Y-82870292D01*
X138736901Y-82905787D01*
X138759928Y-82917520D01*
X138810724Y-82965495D01*
X138827519Y-83033316D01*
X138804982Y-83099451D01*
X138759928Y-83138490D01*
X138667234Y-83185720D01*
X138501634Y-83306033D01*
X138356876Y-83450791D01*
X138236563Y-83616391D01*
X138143629Y-83798781D01*
X138080370Y-83993470D01*
X138048348Y-84195653D01*
X138048348Y-84400356D01*
X138080370Y-84602539D01*
X138108420Y-84688866D01*
X138135492Y-84772184D01*
X138137487Y-84842022D01*
X138101407Y-84901855D01*
X138038707Y-84932684D01*
X138017561Y-84934500D01*
X137324450Y-84934500D01*
X137175550Y-84934500D01*
X137089255Y-84957622D01*
X137031723Y-84973038D01*
X137031722Y-84973039D01*
X136902778Y-85047484D01*
X136902773Y-85047488D01*
X135714076Y-86236186D01*
X135652753Y-86269671D01*
X135626395Y-86272505D01*
X132976283Y-86272505D01*
X132909244Y-86252820D01*
X132865798Y-86204799D01*
X132862104Y-86197550D01*
X132841135Y-86156395D01*
X132841134Y-86156393D01*
X132720819Y-85990791D01*
X132576061Y-85846033D01*
X132410462Y-85725720D01*
X132403854Y-85722353D01*
X132317765Y-85678488D01*
X132266971Y-85630516D01*
X132250176Y-85562695D01*
X132272713Y-85496560D01*
X132317765Y-85457521D01*
X132410458Y-85410292D01*
X132451695Y-85380332D01*
X132576061Y-85289976D01*
X132576063Y-85289973D01*
X132576067Y-85289971D01*
X132720814Y-85145224D01*
X132720816Y-85145220D01*
X132720819Y-85145218D01*
X132773580Y-85072595D01*
X132841135Y-84979615D01*
X132934068Y-84797224D01*
X132997325Y-84602539D01*
X133029348Y-84400357D01*
X133029348Y-84195653D01*
X132999538Y-84007441D01*
X132997325Y-83993470D01*
X132958048Y-83872588D01*
X132934068Y-83798786D01*
X132934066Y-83798783D01*
X132934066Y-83798781D01*
X132900351Y-83732612D01*
X132841135Y-83616395D01*
X132832608Y-83604658D01*
X132720819Y-83450791D01*
X132576067Y-83306039D01*
X132559915Y-83294304D01*
X132482395Y-83237983D01*
X132439730Y-83182654D01*
X132433751Y-83113041D01*
X132466356Y-83051245D01*
X132516274Y-83019960D01*
X132598182Y-82992819D01*
X132747504Y-82900717D01*
X132871560Y-82776661D01*
X132963662Y-82627339D01*
X133018847Y-82460802D01*
X133029348Y-82358014D01*
X133029347Y-81157997D01*
X133028148Y-81146264D01*
X133018847Y-81055208D01*
X133018846Y-81055205D01*
X133014958Y-81043472D01*
X132963662Y-80888671D01*
X132871560Y-80739349D01*
X132747504Y-80615293D01*
X132627141Y-80541053D01*
X132598184Y-80523192D01*
X132598179Y-80523190D01*
X132562771Y-80511457D01*
X132431645Y-80468006D01*
X132431643Y-80468005D01*
X132328858Y-80457505D01*
X131128846Y-80457505D01*
X131128829Y-80457506D01*
X131026051Y-80468005D01*
X131026048Y-80468006D01*
X130859516Y-80523190D01*
X130859511Y-80523192D01*
X130710190Y-80615294D01*
X130586137Y-80739347D01*
X130494035Y-80888668D01*
X130494033Y-80888673D01*
X130490592Y-80899058D01*
X130438849Y-81055208D01*
X130438849Y-81055209D01*
X130438848Y-81055209D01*
X130428348Y-81157988D01*
X130428348Y-82358006D01*
X130428349Y-82358023D01*
X130438848Y-82460801D01*
X130438849Y-82460804D01*
X130494033Y-82627336D01*
X130494035Y-82627341D01*
X130513453Y-82658823D01*
X130586136Y-82776661D01*
X130710192Y-82900717D01*
X130859514Y-82992819D01*
X130941418Y-83019959D01*
X130998863Y-83059732D01*
X131025686Y-83124248D01*
X131013371Y-83193023D01*
X130975299Y-83237983D01*
X130881635Y-83306033D01*
X130881630Y-83306037D01*
X130736876Y-83450791D01*
X130616563Y-83616391D01*
X130523629Y-83798781D01*
X130460370Y-83993470D01*
X130428348Y-84195653D01*
X130428348Y-84400356D01*
X130460370Y-84602539D01*
X130523629Y-84797228D01*
X130558925Y-84866499D01*
X130616560Y-84979614D01*
X130616563Y-84979618D01*
X130736876Y-85145218D01*
X130881634Y-85289976D01*
X131006001Y-85380332D01*
X131047238Y-85410292D01*
X131116901Y-85445787D01*
X131139928Y-85457520D01*
X131190724Y-85505495D01*
X131207519Y-85573316D01*
X131184982Y-85639451D01*
X131139928Y-85678490D01*
X131047234Y-85725720D01*
X130881634Y-85846033D01*
X130736876Y-85990791D01*
X130616563Y-86156391D01*
X130523629Y-86338781D01*
X130460370Y-86533470D01*
X130428348Y-86735653D01*
X130428348Y-86940356D01*
X130460370Y-87142539D01*
X130475976Y-87190566D01*
X130502495Y-87272183D01*
X130504490Y-87342022D01*
X130468410Y-87401855D01*
X130405710Y-87432684D01*
X130384564Y-87434500D01*
X129535600Y-87434500D01*
X129468561Y-87414815D01*
X129447919Y-87398181D01*
X129251405Y-87201667D01*
X129217920Y-87140344D01*
X129217498Y-87138323D01*
X129197619Y-87038380D01*
X129155318Y-86936258D01*
X129142930Y-86906349D01*
X129142925Y-86906340D01*
X129063532Y-86787521D01*
X129063529Y-86787517D01*
X128962482Y-86686470D01*
X128962478Y-86686467D01*
X128843659Y-86607074D01*
X128843650Y-86607069D01*
X128711620Y-86552381D01*
X128711614Y-86552379D01*
X128571457Y-86524500D01*
X128571455Y-86524500D01*
X128428545Y-86524500D01*
X128428543Y-86524500D01*
X128288385Y-86552379D01*
X128288379Y-86552381D01*
X128156349Y-86607069D01*
X128156340Y-86607074D01*
X128037521Y-86686467D01*
X128037517Y-86686470D01*
X127936470Y-86787517D01*
X127936467Y-86787521D01*
X127857074Y-86906340D01*
X127857069Y-86906349D01*
X127802381Y-87038379D01*
X127802379Y-87038385D01*
X127774500Y-87178542D01*
X127774500Y-87178545D01*
X127774500Y-87321455D01*
X127774500Y-87321457D01*
X127774499Y-87321457D01*
X127802379Y-87461614D01*
X127802381Y-87461620D01*
X127857069Y-87593650D01*
X127857074Y-87593659D01*
X127936467Y-87712478D01*
X127936470Y-87712482D01*
X128037517Y-87813529D01*
X128037521Y-87813532D01*
X128156340Y-87892925D01*
X128156349Y-87892930D01*
X128185544Y-87905023D01*
X128288380Y-87947619D01*
X128388180Y-87967470D01*
X128450087Y-87999853D01*
X128451667Y-88001405D01*
X128797487Y-88347225D01*
X128902775Y-88452513D01*
X128902776Y-88452514D01*
X128902778Y-88452515D01*
X128967250Y-88489737D01*
X129031725Y-88526962D01*
X129175550Y-88565500D01*
X130480905Y-88565500D01*
X130547944Y-88585185D01*
X130593699Y-88637989D01*
X130603643Y-88707147D01*
X130591390Y-88745795D01*
X130523629Y-88878781D01*
X130460370Y-89073470D01*
X130428348Y-89275653D01*
X130428348Y-89480356D01*
X130460370Y-89682539D01*
X130523629Y-89877228D01*
X130587539Y-90002658D01*
X130610584Y-90047885D01*
X130616563Y-90059618D01*
X130736876Y-90225218D01*
X130881634Y-90369976D01*
X131002454Y-90457755D01*
X131047238Y-90490292D01*
X131116901Y-90525787D01*
X131139928Y-90537520D01*
X131190724Y-90585495D01*
X131207519Y-90653316D01*
X131184982Y-90719451D01*
X131139928Y-90758490D01*
X131047234Y-90805720D01*
X130881634Y-90926033D01*
X130736876Y-91070791D01*
X130616563Y-91236391D01*
X130523629Y-91418781D01*
X130460370Y-91613470D01*
X130428348Y-91815653D01*
X130428348Y-92020356D01*
X130460370Y-92222539D01*
X130523629Y-92417228D01*
X130570777Y-92509759D01*
X130613478Y-92593565D01*
X130616563Y-92599618D01*
X130736876Y-92765218D01*
X130881634Y-92909976D01*
X130993432Y-92991200D01*
X131047238Y-93030292D01*
X131138688Y-93076888D01*
X131139928Y-93077520D01*
X131190724Y-93125495D01*
X131207519Y-93193316D01*
X131184982Y-93259451D01*
X131139928Y-93298490D01*
X131047234Y-93345720D01*
X130881634Y-93466033D01*
X130736876Y-93610791D01*
X130616563Y-93776391D01*
X130523629Y-93958781D01*
X130460370Y-94153470D01*
X130428348Y-94355653D01*
X130428348Y-94560356D01*
X130460370Y-94762539D01*
X130523629Y-94957228D01*
X130585194Y-95078054D01*
X130610584Y-95127885D01*
X130616563Y-95139618D01*
X130736876Y-95305218D01*
X130881634Y-95449976D01*
X131047233Y-95570289D01*
X131047235Y-95570290D01*
X131047238Y-95570292D01*
X131139928Y-95617520D01*
X131140478Y-95617800D01*
X131191274Y-95665775D01*
X131208069Y-95733596D01*
X131185532Y-95799730D01*
X131140478Y-95838770D01*
X131047492Y-95886148D01*
X131002925Y-95918528D01*
X131002925Y-95918529D01*
X131682402Y-96598005D01*
X131676187Y-96598005D01*
X131574454Y-96625264D01*
X131483242Y-96677925D01*
X131408768Y-96752399D01*
X131356107Y-96843611D01*
X131328848Y-96945344D01*
X131328848Y-96951558D01*
X130649372Y-96272082D01*
X130649371Y-96272082D01*
X130616991Y-96316649D01*
X130524092Y-96498973D01*
X130460857Y-96693587D01*
X130428848Y-96895687D01*
X130428848Y-97100322D01*
X130460858Y-97302423D01*
X130460858Y-97302426D01*
X130478650Y-97357182D01*
X130480645Y-97427023D01*
X130444565Y-97486856D01*
X130381864Y-97517684D01*
X130360719Y-97519500D01*
X118370600Y-97519500D01*
X118303561Y-97499815D01*
X118282919Y-97483181D01*
X117271921Y-96472183D01*
X117238436Y-96410860D01*
X117235602Y-96384502D01*
X117235602Y-96047481D01*
X117255287Y-95980442D01*
X117308091Y-95934687D01*
X117359602Y-95923481D01*
X117567973Y-95923481D01*
X117567974Y-95923481D01*
X117627585Y-95917073D01*
X117762433Y-95866778D01*
X117877648Y-95780528D01*
X117963898Y-95665313D01*
X118012912Y-95533898D01*
X118054783Y-95477966D01*
X118120247Y-95453548D01*
X118188520Y-95468399D01*
X118216775Y-95489551D01*
X118330315Y-95603091D01*
X118502281Y-95728030D01*
X118502283Y-95728031D01*
X118502286Y-95728033D01*
X118691690Y-95824539D01*
X118893859Y-95890228D01*
X119103815Y-95923482D01*
X119103816Y-95923482D01*
X119316388Y-95923482D01*
X119316389Y-95923482D01*
X119526345Y-95890228D01*
X119728514Y-95824539D01*
X119917918Y-95728033D01*
X119941414Y-95710962D01*
X120089888Y-95603091D01*
X120089890Y-95603088D01*
X120089894Y-95603086D01*
X120240206Y-95452774D01*
X120240208Y-95452770D01*
X120240211Y-95452768D01*
X120365150Y-95280802D01*
X120365149Y-95280802D01*
X120365153Y-95280798D01*
X120461659Y-95091394D01*
X120527348Y-94889225D01*
X120560602Y-94679269D01*
X120560602Y-94466695D01*
X120527348Y-94256739D01*
X120461659Y-94054570D01*
X120365153Y-93865166D01*
X120365151Y-93865163D01*
X120365150Y-93865161D01*
X120240211Y-93693195D01*
X120089888Y-93542872D01*
X119975074Y-93459456D01*
X121589266Y-93459456D01*
X121589266Y-93695651D01*
X121626212Y-93928922D01*
X121699199Y-94153550D01*
X121785647Y-94323212D01*
X121806423Y-94363987D01*
X121945249Y-94555064D01*
X122112256Y-94722071D01*
X122303333Y-94860897D01*
X122350171Y-94884762D01*
X122513769Y-94968120D01*
X122513771Y-94968120D01*
X122513774Y-94968122D01*
X122634178Y-95007243D01*
X122738397Y-95041107D01*
X122971669Y-95078054D01*
X122971674Y-95078054D01*
X123207863Y-95078054D01*
X123441134Y-95041107D01*
X123665758Y-94968122D01*
X123876199Y-94860897D01*
X124067276Y-94722071D01*
X124234283Y-94555064D01*
X124373109Y-94363987D01*
X124480334Y-94153546D01*
X124553319Y-93928922D01*
X124561047Y-93880127D01*
X124590266Y-93695651D01*
X124590266Y-93459456D01*
X126089266Y-93459456D01*
X126089266Y-93695651D01*
X126126212Y-93928922D01*
X126199199Y-94153550D01*
X126285647Y-94323212D01*
X126306423Y-94363987D01*
X126445249Y-94555064D01*
X126612256Y-94722071D01*
X126803333Y-94860897D01*
X126850171Y-94884762D01*
X127013769Y-94968120D01*
X127013771Y-94968120D01*
X127013774Y-94968122D01*
X127134178Y-95007243D01*
X127238397Y-95041107D01*
X127471669Y-95078054D01*
X127471674Y-95078054D01*
X127707863Y-95078054D01*
X127941134Y-95041107D01*
X128165758Y-94968122D01*
X128376199Y-94860897D01*
X128567276Y-94722071D01*
X128734283Y-94555064D01*
X128873109Y-94363987D01*
X128980334Y-94153546D01*
X129053319Y-93928922D01*
X129061047Y-93880127D01*
X129090266Y-93695651D01*
X129090266Y-93459456D01*
X129053319Y-93226185D01*
X129013402Y-93103336D01*
X128980334Y-93001562D01*
X128980332Y-93001559D01*
X128980332Y-93001557D01*
X128873108Y-92791120D01*
X128734283Y-92600044D01*
X128567276Y-92433037D01*
X128376199Y-92294211D01*
X128165762Y-92186987D01*
X127941134Y-92114000D01*
X127707863Y-92077054D01*
X127707858Y-92077054D01*
X127471674Y-92077054D01*
X127471669Y-92077054D01*
X127238397Y-92114000D01*
X127013769Y-92186987D01*
X126803332Y-92294211D01*
X126747548Y-92334741D01*
X126612256Y-92433037D01*
X126612254Y-92433039D01*
X126612253Y-92433039D01*
X126445251Y-92600041D01*
X126445251Y-92600042D01*
X126445249Y-92600044D01*
X126432738Y-92617264D01*
X126306423Y-92791120D01*
X126199199Y-93001557D01*
X126126212Y-93226185D01*
X126089266Y-93459456D01*
X124590266Y-93459456D01*
X124553319Y-93226185D01*
X124513402Y-93103336D01*
X124480334Y-93001562D01*
X124480332Y-93001559D01*
X124480332Y-93001557D01*
X124373108Y-92791120D01*
X124234283Y-92600044D01*
X124067276Y-92433037D01*
X123876199Y-92294211D01*
X123665762Y-92186987D01*
X123441134Y-92114000D01*
X123207863Y-92077054D01*
X123207858Y-92077054D01*
X122971674Y-92077054D01*
X122971669Y-92077054D01*
X122738397Y-92114000D01*
X122513769Y-92186987D01*
X122303332Y-92294211D01*
X122247548Y-92334741D01*
X122112256Y-92433037D01*
X122112254Y-92433039D01*
X122112253Y-92433039D01*
X121945251Y-92600041D01*
X121945251Y-92600042D01*
X121945249Y-92600044D01*
X121932738Y-92617264D01*
X121806423Y-92791120D01*
X121699199Y-93001557D01*
X121626212Y-93226185D01*
X121589266Y-93459456D01*
X119975074Y-93459456D01*
X119917922Y-93417933D01*
X119728516Y-93321426D01*
X119728515Y-93321425D01*
X119728514Y-93321425D01*
X119526345Y-93255736D01*
X119526343Y-93255735D01*
X119526342Y-93255735D01*
X119365059Y-93230190D01*
X119316389Y-93222482D01*
X119103815Y-93222482D01*
X119055144Y-93230190D01*
X118893862Y-93255735D01*
X118691687Y-93321426D01*
X118502281Y-93417933D01*
X118330317Y-93542871D01*
X118216775Y-93656413D01*
X118155452Y-93689897D01*
X118085760Y-93684913D01*
X118029827Y-93643041D01*
X118012912Y-93612064D01*
X117963899Y-93480653D01*
X117963895Y-93480646D01*
X117877649Y-93365437D01*
X117877646Y-93365434D01*
X117762437Y-93279188D01*
X117762430Y-93279184D01*
X117627584Y-93228890D01*
X117627585Y-93228890D01*
X117567985Y-93222483D01*
X117567983Y-93222482D01*
X117567975Y-93222482D01*
X117567966Y-93222482D01*
X115772231Y-93222482D01*
X115772225Y-93222483D01*
X115712618Y-93228890D01*
X115577773Y-93279184D01*
X115577766Y-93279188D01*
X115462557Y-93365434D01*
X115462554Y-93365437D01*
X115376308Y-93480646D01*
X115376304Y-93480653D01*
X115326010Y-93615499D01*
X115319603Y-93675098D01*
X115319602Y-93675117D01*
X115319602Y-95470852D01*
X115319603Y-95470858D01*
X115326010Y-95530465D01*
X115376304Y-95665310D01*
X115376308Y-95665317D01*
X115462554Y-95780526D01*
X115462557Y-95780529D01*
X115577766Y-95866775D01*
X115577773Y-95866779D01*
X115622720Y-95883543D01*
X115712619Y-95917073D01*
X115772229Y-95923482D01*
X115980602Y-95923481D01*
X116047641Y-95943165D01*
X116093396Y-95995969D01*
X116104602Y-96047481D01*
X116104602Y-96595652D01*
X116104602Y-96744552D01*
X116106705Y-96752399D01*
X116143140Y-96888378D01*
X116143141Y-96888379D01*
X116217586Y-97017323D01*
X116217590Y-97017328D01*
X116776157Y-97575895D01*
X116809642Y-97637218D01*
X116804658Y-97706910D01*
X116762786Y-97762843D01*
X116697322Y-97787260D01*
X116688476Y-97787576D01*
X112311374Y-97787576D01*
X112162474Y-97787576D01*
X112076179Y-97810698D01*
X112018647Y-97826114D01*
X112018646Y-97826115D01*
X111889702Y-97900560D01*
X111889697Y-97900564D01*
X110966881Y-98823379D01*
X110905558Y-98856864D01*
X110840883Y-98853629D01*
X110761246Y-98827754D01*
X110603776Y-98802813D01*
X110551287Y-98794500D01*
X110338713Y-98794500D01*
X110290042Y-98802208D01*
X110128760Y-98827753D01*
X110049122Y-98853629D01*
X109976853Y-98877111D01*
X109926585Y-98893444D01*
X109737179Y-98989951D01*
X109565213Y-99114890D01*
X109414890Y-99265213D01*
X109289949Y-99437182D01*
X109285202Y-99446499D01*
X109237227Y-99497293D01*
X109169405Y-99514087D01*
X109103271Y-99491548D01*
X109064234Y-99446495D01*
X109059626Y-99437452D01*
X109020270Y-99383282D01*
X109020269Y-99383282D01*
X108387962Y-100015590D01*
X108370925Y-99952007D01*
X108305099Y-99837993D01*
X108212007Y-99744901D01*
X108097993Y-99679075D01*
X108034409Y-99662037D01*
X108666716Y-99029728D01*
X108612550Y-98990375D01*
X108423217Y-98893904D01*
X108221129Y-98828242D01*
X108011246Y-98795000D01*
X107798754Y-98795000D01*
X107588872Y-98828242D01*
X107588869Y-98828242D01*
X107386782Y-98893904D01*
X107197439Y-98990380D01*
X107143282Y-99029727D01*
X107143282Y-99029728D01*
X107775591Y-99662037D01*
X107712007Y-99679075D01*
X107597993Y-99744901D01*
X107504901Y-99837993D01*
X107439075Y-99952007D01*
X107422037Y-100015591D01*
X106751818Y-99345372D01*
X106718333Y-99284049D01*
X106718330Y-99284036D01*
X106715499Y-99271015D01*
X106715499Y-99247128D01*
X106709091Y-99187517D01*
X106679086Y-99107069D01*
X106658798Y-99052673D01*
X106658793Y-99052664D01*
X106572547Y-98937455D01*
X106572544Y-98937452D01*
X106457335Y-98851206D01*
X106457328Y-98851202D01*
X106322482Y-98800908D01*
X106322483Y-98800908D01*
X106262883Y-98794501D01*
X106262881Y-98794500D01*
X106262873Y-98794500D01*
X106262864Y-98794500D01*
X104467129Y-98794500D01*
X104467123Y-98794501D01*
X104407516Y-98800908D01*
X104272671Y-98851202D01*
X104272664Y-98851206D01*
X104157455Y-98937452D01*
X104157452Y-98937455D01*
X104071206Y-99052664D01*
X104071202Y-99052671D01*
X104020908Y-99187517D01*
X104014501Y-99247116D01*
X104014500Y-99247135D01*
X104014500Y-101042870D01*
X104014501Y-101042876D01*
X104020908Y-101102483D01*
X104071202Y-101237328D01*
X104071204Y-101237331D01*
X104118156Y-101300051D01*
X104119382Y-101301688D01*
X104143800Y-101367153D01*
X104128949Y-101435426D01*
X104079544Y-101484832D01*
X104020116Y-101500000D01*
X102116891Y-101500000D01*
X102049852Y-101480315D01*
X102004097Y-101427511D01*
X101994153Y-101358353D01*
X102011898Y-101310028D01*
X102104284Y-101162997D01*
X102221267Y-100920079D01*
X102310316Y-100665591D01*
X102370312Y-100402732D01*
X102400500Y-100134809D01*
X102400500Y-99865191D01*
X102370312Y-99597268D01*
X102310316Y-99334409D01*
X102305873Y-99321713D01*
X102272207Y-99225500D01*
X102221267Y-99079921D01*
X102107489Y-98843659D01*
X102104285Y-98837005D01*
X102095723Y-98823379D01*
X101960838Y-98608711D01*
X101792734Y-98397915D01*
X101602085Y-98207266D01*
X101582302Y-98191490D01*
X101538237Y-98156349D01*
X101391289Y-98039162D01*
X101162997Y-97895716D01*
X101162994Y-97895714D01*
X100920082Y-97778734D01*
X100665602Y-97689687D01*
X100665594Y-97689684D01*
X100435723Y-97637218D01*
X100402732Y-97629688D01*
X100402728Y-97629687D01*
X100402719Y-97629686D01*
X100134813Y-97599500D01*
X100134809Y-97599500D01*
X99865191Y-97599500D01*
X99865186Y-97599500D01*
X99597280Y-97629686D01*
X99597268Y-97629688D01*
X99334405Y-97689684D01*
X99334397Y-97689687D01*
X99079917Y-97778734D01*
X98837007Y-97895713D01*
X98797034Y-97920830D01*
X98766097Y-97929571D01*
X98735641Y-97939750D01*
X98732710Y-97939005D01*
X98729797Y-97939829D01*
X98699052Y-97930459D01*
X98667921Y-97922554D01*
X98664749Y-97920004D01*
X98662962Y-97919460D01*
X98640414Y-97900444D01*
X98533349Y-97785731D01*
X98501997Y-97723290D01*
X98500000Y-97701124D01*
X98500000Y-93985502D01*
X101744500Y-93985502D01*
X101744500Y-94204497D01*
X101752825Y-94267725D01*
X101773083Y-94421598D01*
X101784651Y-94464770D01*
X101829758Y-94633115D01*
X101836752Y-94650000D01*
X101913560Y-94835428D01*
X101913562Y-94835433D01*
X101913565Y-94835438D01*
X102023049Y-95025070D01*
X102156355Y-95198798D01*
X102156361Y-95198805D01*
X102311194Y-95353638D01*
X102311201Y-95353644D01*
X102484929Y-95486950D01*
X102674561Y-95596434D01*
X102674563Y-95596434D01*
X102674572Y-95596440D01*
X102876883Y-95680241D01*
X103088402Y-95736917D01*
X103305510Y-95765500D01*
X103305517Y-95765500D01*
X103524483Y-95765500D01*
X103524490Y-95765500D01*
X103741598Y-95736917D01*
X103953117Y-95680241D01*
X104155428Y-95596440D01*
X104345071Y-95486950D01*
X104518800Y-95353643D01*
X104572457Y-95299986D01*
X109754802Y-95299986D01*
X109765295Y-95402697D01*
X109820442Y-95569119D01*
X109820444Y-95569124D01*
X109912485Y-95718345D01*
X110036455Y-95842315D01*
X110185676Y-95934356D01*
X110185681Y-95934358D01*
X110352103Y-95989505D01*
X110352110Y-95989506D01*
X110454820Y-95999999D01*
X110604800Y-95999999D01*
X110604801Y-95999998D01*
X110604801Y-95150000D01*
X109754802Y-95150000D01*
X109754802Y-95299986D01*
X104572457Y-95299986D01*
X104673643Y-95198800D01*
X104806950Y-95025071D01*
X104901962Y-94860504D01*
X110554801Y-94860504D01*
X110554801Y-94939496D01*
X110575245Y-95015796D01*
X110614741Y-95084205D01*
X110670596Y-95140060D01*
X110739005Y-95179556D01*
X110815305Y-95200000D01*
X110894297Y-95200000D01*
X110970597Y-95179556D01*
X111039006Y-95140060D01*
X111094861Y-95084205D01*
X111104801Y-95066988D01*
X111104801Y-95999999D01*
X111254773Y-95999999D01*
X111254787Y-95999998D01*
X111357498Y-95989505D01*
X111523920Y-95934358D01*
X111523925Y-95934356D01*
X111673146Y-95842315D01*
X111797116Y-95718345D01*
X111836746Y-95654094D01*
X111888694Y-95607368D01*
X111957656Y-95596145D01*
X112021738Y-95623988D01*
X112029967Y-95631508D01*
X112137873Y-95739414D01*
X112278013Y-95841232D01*
X112432356Y-95919873D01*
X112597100Y-95973402D01*
X112768190Y-96000500D01*
X112768191Y-96000500D01*
X112941411Y-96000500D01*
X112941412Y-96000500D01*
X113112502Y-95973402D01*
X113277246Y-95919873D01*
X113431589Y-95841232D01*
X113571729Y-95739414D01*
X113694215Y-95616928D01*
X113796033Y-95476788D01*
X113874674Y-95322445D01*
X113928203Y-95157701D01*
X113955301Y-94986611D01*
X113955301Y-94813389D01*
X113928203Y-94642299D01*
X113874674Y-94477555D01*
X113796033Y-94323212D01*
X113694215Y-94183072D01*
X113571729Y-94060586D01*
X113431589Y-93958768D01*
X113277246Y-93880127D01*
X113112502Y-93826598D01*
X113112500Y-93826597D01*
X113112499Y-93826597D01*
X112981072Y-93805781D01*
X112941412Y-93799500D01*
X112768190Y-93799500D01*
X112728529Y-93805781D01*
X112597103Y-93826597D01*
X112432353Y-93880128D01*
X112278012Y-93958768D01*
X112137874Y-94060585D01*
X112029967Y-94168492D01*
X111968644Y-94201976D01*
X111898952Y-94196992D01*
X111843019Y-94155120D01*
X111836747Y-94145906D01*
X111797118Y-94081656D01*
X111673146Y-93957684D01*
X111523925Y-93865643D01*
X111523920Y-93865641D01*
X111357498Y-93810494D01*
X111357491Y-93810493D01*
X111254787Y-93800000D01*
X111104801Y-93800000D01*
X111104801Y-94733011D01*
X111094861Y-94715795D01*
X111039006Y-94659940D01*
X110970597Y-94620444D01*
X110894297Y-94600000D01*
X110815305Y-94600000D01*
X110739005Y-94620444D01*
X110670596Y-94659940D01*
X110614741Y-94715795D01*
X110575245Y-94784204D01*
X110554801Y-94860504D01*
X104901962Y-94860504D01*
X104916440Y-94835428D01*
X105000241Y-94633117D01*
X105035906Y-94500013D01*
X109754801Y-94500013D01*
X109754801Y-94650000D01*
X110604801Y-94650000D01*
X110604801Y-93800000D01*
X110454828Y-93800000D01*
X110454813Y-93800001D01*
X110352103Y-93810494D01*
X110185681Y-93865641D01*
X110185676Y-93865643D01*
X110036455Y-93957684D01*
X109912485Y-94081654D01*
X109820444Y-94230875D01*
X109820442Y-94230880D01*
X109765295Y-94397302D01*
X109765294Y-94397309D01*
X109754801Y-94500013D01*
X105035906Y-94500013D01*
X105056917Y-94421598D01*
X105085500Y-94204490D01*
X105085500Y-93985510D01*
X105056917Y-93768402D01*
X105000241Y-93556883D01*
X104916440Y-93354572D01*
X104911329Y-93345720D01*
X104806950Y-93164929D01*
X104673644Y-92991201D01*
X104673638Y-92991194D01*
X104518805Y-92836361D01*
X104518798Y-92836355D01*
X104345070Y-92703049D01*
X104155438Y-92593565D01*
X104155433Y-92593562D01*
X104155428Y-92593560D01*
X103953117Y-92509759D01*
X103953118Y-92509759D01*
X103953115Y-92509758D01*
X103836967Y-92478637D01*
X103741598Y-92453083D01*
X103705314Y-92448306D01*
X103524497Y-92424500D01*
X103524490Y-92424500D01*
X103305510Y-92424500D01*
X103305502Y-92424500D01*
X103098853Y-92451707D01*
X103088402Y-92453083D01*
X103043699Y-92465060D01*
X102876884Y-92509758D01*
X102783483Y-92548447D01*
X102674572Y-92593560D01*
X102674569Y-92593561D01*
X102674561Y-92593565D01*
X102484929Y-92703049D01*
X102311201Y-92836355D01*
X102311194Y-92836361D01*
X102156361Y-92991194D01*
X102156355Y-92991201D01*
X102023049Y-93164929D01*
X101913565Y-93354561D01*
X101913560Y-93354573D01*
X101829758Y-93556884D01*
X101773084Y-93768399D01*
X101773082Y-93768410D01*
X101744500Y-93985502D01*
X98500000Y-93985502D01*
X98500000Y-89104718D01*
X110144941Y-89104718D01*
X110144941Y-89454705D01*
X111129255Y-89454705D01*
X111124861Y-89459099D01*
X111072200Y-89550311D01*
X111044941Y-89652044D01*
X111044941Y-89757366D01*
X111072200Y-89859099D01*
X111124861Y-89950311D01*
X111129255Y-89954705D01*
X110144942Y-89954705D01*
X110144942Y-90304691D01*
X110155435Y-90407402D01*
X110210582Y-90573824D01*
X110210584Y-90573829D01*
X110302625Y-90723050D01*
X110426595Y-90847020D01*
X110575816Y-90939061D01*
X110575821Y-90939063D01*
X110742243Y-90994210D01*
X110742250Y-90994211D01*
X110844960Y-91004704D01*
X111194940Y-91004704D01*
X111194941Y-91004703D01*
X111194941Y-90020391D01*
X111199335Y-90024785D01*
X111290547Y-90077446D01*
X111392280Y-90104705D01*
X111497602Y-90104705D01*
X111599335Y-90077446D01*
X111690547Y-90024785D01*
X111694941Y-90020391D01*
X111694941Y-91004704D01*
X112044913Y-91004704D01*
X112044927Y-91004703D01*
X112147638Y-90994210D01*
X112314060Y-90939063D01*
X112314065Y-90939061D01*
X112463286Y-90847020D01*
X112587256Y-90723050D01*
X112679297Y-90573829D01*
X112679300Y-90573822D01*
X112706533Y-90491637D01*
X112746305Y-90434192D01*
X112810820Y-90407368D01*
X112879596Y-90419682D01*
X112924557Y-90457754D01*
X112964749Y-90513074D01*
X112992975Y-90551924D01*
X113137727Y-90696676D01*
X113287816Y-90805720D01*
X113303331Y-90816992D01*
X113415812Y-90874304D01*
X113485717Y-90909923D01*
X113485719Y-90909923D01*
X113485722Y-90909925D01*
X113575400Y-90939063D01*
X113680406Y-90973182D01*
X113781498Y-90989193D01*
X113882589Y-91005205D01*
X113882590Y-91005205D01*
X114087292Y-91005205D01*
X114087293Y-91005205D01*
X114289475Y-90973182D01*
X114484160Y-90909925D01*
X114666551Y-90816992D01*
X114779648Y-90734823D01*
X114832154Y-90696676D01*
X114832156Y-90696673D01*
X114832160Y-90696671D01*
X114976907Y-90551924D01*
X114976909Y-90551920D01*
X114976912Y-90551918D01*
X115097225Y-90386319D01*
X115097224Y-90386319D01*
X115097228Y-90386315D01*
X115144457Y-90293622D01*
X115192430Y-90242828D01*
X115260251Y-90226033D01*
X115326386Y-90248570D01*
X115365424Y-90293622D01*
X115399842Y-90361170D01*
X115412656Y-90386319D01*
X115532969Y-90551918D01*
X115677727Y-90696676D01*
X115827816Y-90805720D01*
X115843331Y-90816992D01*
X115955812Y-90874304D01*
X116025717Y-90909923D01*
X116025719Y-90909923D01*
X116025722Y-90909925D01*
X116115400Y-90939063D01*
X116220406Y-90973182D01*
X116321498Y-90989193D01*
X116422589Y-91005205D01*
X116422590Y-91005205D01*
X116627292Y-91005205D01*
X116627293Y-91005205D01*
X116829475Y-90973182D01*
X117024160Y-90909925D01*
X117206551Y-90816992D01*
X117319648Y-90734823D01*
X117372154Y-90696676D01*
X117372156Y-90696673D01*
X117372160Y-90696671D01*
X117516907Y-90551924D01*
X117516909Y-90551920D01*
X117516912Y-90551918D01*
X117637225Y-90386319D01*
X117637224Y-90386319D01*
X117637228Y-90386315D01*
X117684457Y-90293622D01*
X117732430Y-90242828D01*
X117800251Y-90226033D01*
X117866386Y-90248570D01*
X117905424Y-90293622D01*
X117939842Y-90361170D01*
X117952656Y-90386319D01*
X118072969Y-90551918D01*
X118217727Y-90696676D01*
X118367816Y-90805720D01*
X118383331Y-90816992D01*
X118495812Y-90874304D01*
X118565717Y-90909923D01*
X118565719Y-90909923D01*
X118565722Y-90909925D01*
X118655400Y-90939063D01*
X118760406Y-90973182D01*
X118861498Y-90989193D01*
X118962589Y-91005205D01*
X118962590Y-91005205D01*
X119167292Y-91005205D01*
X119167293Y-91005205D01*
X119369475Y-90973182D01*
X119564160Y-90909925D01*
X119746551Y-90816992D01*
X119859648Y-90734823D01*
X119912154Y-90696676D01*
X119912156Y-90696673D01*
X119912160Y-90696671D01*
X120056907Y-90551924D01*
X120056909Y-90551920D01*
X120056912Y-90551918D01*
X120133746Y-90446163D01*
X125328491Y-90446163D01*
X125356371Y-90586320D01*
X125356373Y-90586326D01*
X125411061Y-90718356D01*
X125411066Y-90718365D01*
X125490459Y-90837184D01*
X125490462Y-90837188D01*
X125591509Y-90938235D01*
X125591513Y-90938238D01*
X125710332Y-91017631D01*
X125710338Y-91017634D01*
X125710339Y-91017635D01*
X125842372Y-91072325D01*
X125842376Y-91072325D01*
X125842377Y-91072326D01*
X125982534Y-91100206D01*
X125982537Y-91100206D01*
X126125449Y-91100206D01*
X126239264Y-91077566D01*
X126265612Y-91072325D01*
X126397645Y-91017635D01*
X126516471Y-90938238D01*
X126617524Y-90837185D01*
X126696921Y-90718359D01*
X126751611Y-90586326D01*
X126761114Y-90538550D01*
X126779492Y-90446163D01*
X126779492Y-90303248D01*
X126751612Y-90163091D01*
X126751611Y-90163090D01*
X126751611Y-90163086D01*
X126696921Y-90031053D01*
X126696920Y-90031052D01*
X126696917Y-90031046D01*
X126617524Y-89912227D01*
X126617521Y-89912223D01*
X126516474Y-89811176D01*
X126516470Y-89811173D01*
X126397651Y-89731780D01*
X126397642Y-89731775D01*
X126265612Y-89677087D01*
X126265606Y-89677085D01*
X126125449Y-89649206D01*
X126125447Y-89649206D01*
X125982537Y-89649206D01*
X125982535Y-89649206D01*
X125842377Y-89677085D01*
X125842371Y-89677087D01*
X125710341Y-89731775D01*
X125710332Y-89731780D01*
X125591513Y-89811173D01*
X125591509Y-89811176D01*
X125490462Y-89912223D01*
X125490459Y-89912227D01*
X125411066Y-90031046D01*
X125411061Y-90031055D01*
X125356373Y-90163085D01*
X125356371Y-90163091D01*
X125328492Y-90303248D01*
X125328492Y-90303251D01*
X125328492Y-90446161D01*
X125328492Y-90446163D01*
X125328491Y-90446163D01*
X120133746Y-90446163D01*
X120177225Y-90386319D01*
X120177224Y-90386319D01*
X120177228Y-90386315D01*
X120270161Y-90203924D01*
X120333418Y-90009239D01*
X120365441Y-89807057D01*
X120365441Y-89602353D01*
X120353428Y-89526509D01*
X120333418Y-89400170D01*
X120270159Y-89205481D01*
X120213362Y-89094012D01*
X120177228Y-89023095D01*
X120136976Y-88967692D01*
X120056912Y-88857491D01*
X119912154Y-88712733D01*
X119746554Y-88592420D01*
X119746553Y-88592419D01*
X119746551Y-88592418D01*
X119643230Y-88539773D01*
X119564164Y-88499486D01*
X119369475Y-88436227D01*
X119194936Y-88408583D01*
X119167293Y-88404205D01*
X118962589Y-88404205D01*
X118938270Y-88408056D01*
X118760406Y-88436227D01*
X118565717Y-88499486D01*
X118383327Y-88592420D01*
X118217727Y-88712733D01*
X118072969Y-88857491D01*
X117952656Y-89023091D01*
X117905426Y-89115785D01*
X117857451Y-89166581D01*
X117789630Y-89183376D01*
X117723495Y-89160839D01*
X117684456Y-89115785D01*
X117673362Y-89094012D01*
X117637228Y-89023095D01*
X117596976Y-88967692D01*
X117516912Y-88857491D01*
X117372154Y-88712733D01*
X117206554Y-88592420D01*
X117206553Y-88592419D01*
X117206551Y-88592418D01*
X117103230Y-88539773D01*
X117024164Y-88499486D01*
X116829475Y-88436227D01*
X116654936Y-88408583D01*
X116627293Y-88404205D01*
X116422589Y-88404205D01*
X116398270Y-88408056D01*
X116220406Y-88436227D01*
X116025717Y-88499486D01*
X115843327Y-88592420D01*
X115677727Y-88712733D01*
X115532969Y-88857491D01*
X115412656Y-89023091D01*
X115365426Y-89115785D01*
X115317451Y-89166581D01*
X115249630Y-89183376D01*
X115183495Y-89160839D01*
X115144456Y-89115785D01*
X115133362Y-89094012D01*
X115097228Y-89023095D01*
X115056976Y-88967692D01*
X114976912Y-88857491D01*
X114832154Y-88712733D01*
X114666554Y-88592420D01*
X114666553Y-88592419D01*
X114666551Y-88592418D01*
X114563230Y-88539773D01*
X114484164Y-88499486D01*
X114289475Y-88436227D01*
X114114936Y-88408583D01*
X114087293Y-88404205D01*
X113882589Y-88404205D01*
X113858270Y-88408056D01*
X113680406Y-88436227D01*
X113485717Y-88499486D01*
X113303327Y-88592420D01*
X113137727Y-88712733D01*
X112992973Y-88857487D01*
X112924557Y-88951654D01*
X112869227Y-88994319D01*
X112799613Y-89000298D01*
X112737818Y-88967692D01*
X112706533Y-88917772D01*
X112679299Y-88835585D01*
X112679297Y-88835580D01*
X112587256Y-88686359D01*
X112463286Y-88562389D01*
X112314065Y-88470348D01*
X112314060Y-88470346D01*
X112147638Y-88415199D01*
X112147631Y-88415198D01*
X112044927Y-88404705D01*
X111694941Y-88404705D01*
X111694941Y-89389019D01*
X111690547Y-89384625D01*
X111599335Y-89331964D01*
X111497602Y-89304705D01*
X111392280Y-89304705D01*
X111290547Y-89331964D01*
X111199335Y-89384625D01*
X111194941Y-89389019D01*
X111194941Y-88404705D01*
X110844969Y-88404705D01*
X110844953Y-88404706D01*
X110742243Y-88415199D01*
X110575821Y-88470346D01*
X110575816Y-88470348D01*
X110426595Y-88562389D01*
X110302625Y-88686359D01*
X110210584Y-88835580D01*
X110210582Y-88835585D01*
X110155435Y-89002007D01*
X110155434Y-89002014D01*
X110144941Y-89104718D01*
X98500000Y-89104718D01*
X98500000Y-82116891D01*
X98519685Y-82049852D01*
X98572489Y-82004097D01*
X98641647Y-81994153D01*
X98689970Y-82011897D01*
X98750375Y-82049852D01*
X98837002Y-82104284D01*
X99008881Y-82187056D01*
X99079921Y-82221267D01*
X99252806Y-82281762D01*
X99334397Y-82310312D01*
X99334405Y-82310315D01*
X99334408Y-82310315D01*
X99334409Y-82310316D01*
X99597268Y-82370312D01*
X99865187Y-82400499D01*
X99865188Y-82400500D01*
X100046187Y-82400500D01*
X100113226Y-82420185D01*
X100158981Y-82472989D01*
X100168925Y-82542147D01*
X100139900Y-82605703D01*
X100108187Y-82631887D01*
X99984929Y-82703049D01*
X99811201Y-82836355D01*
X99811194Y-82836361D01*
X99656361Y-82991194D01*
X99656355Y-82991201D01*
X99523049Y-83164929D01*
X99413565Y-83354561D01*
X99413561Y-83354569D01*
X99413560Y-83354572D01*
X99378847Y-83438374D01*
X99329758Y-83556884D01*
X99301117Y-83663777D01*
X99276038Y-83757376D01*
X99273084Y-83768399D01*
X99273082Y-83768410D01*
X99244500Y-83985502D01*
X99244500Y-84204497D01*
X99268306Y-84385314D01*
X99273083Y-84421598D01*
X99273084Y-84421600D01*
X99321565Y-84602539D01*
X99329759Y-84633117D01*
X99413560Y-84835428D01*
X99413562Y-84835433D01*
X99413565Y-84835438D01*
X99523049Y-85025070D01*
X99656355Y-85198798D01*
X99656361Y-85198805D01*
X99811194Y-85353638D01*
X99811201Y-85353644D01*
X99984929Y-85486950D01*
X100174561Y-85596434D01*
X100174563Y-85596434D01*
X100174572Y-85596440D01*
X100376883Y-85680241D01*
X100588402Y-85736917D01*
X100805510Y-85765500D01*
X100805517Y-85765500D01*
X101024483Y-85765500D01*
X101024490Y-85765500D01*
X101241598Y-85736917D01*
X101453117Y-85680241D01*
X101655428Y-85596440D01*
X101845071Y-85486950D01*
X102018800Y-85353643D01*
X102173643Y-85198800D01*
X102306950Y-85025071D01*
X102416440Y-84835428D01*
X102500241Y-84633117D01*
X102556917Y-84421598D01*
X102585500Y-84204490D01*
X102585500Y-83985510D01*
X102585499Y-83985502D01*
X104244500Y-83985502D01*
X104244500Y-84204497D01*
X104268306Y-84385314D01*
X104273083Y-84421598D01*
X104273084Y-84421600D01*
X104321565Y-84602539D01*
X104329759Y-84633117D01*
X104413560Y-84835428D01*
X104413562Y-84835433D01*
X104413565Y-84835438D01*
X104523049Y-85025070D01*
X104656355Y-85198798D01*
X104656361Y-85198805D01*
X104811194Y-85353638D01*
X104811201Y-85353644D01*
X104984929Y-85486950D01*
X105174561Y-85596434D01*
X105174563Y-85596434D01*
X105174572Y-85596440D01*
X105376883Y-85680241D01*
X105588402Y-85736917D01*
X105805510Y-85765500D01*
X105805517Y-85765500D01*
X106024483Y-85765500D01*
X106024490Y-85765500D01*
X106241598Y-85736917D01*
X106453117Y-85680241D01*
X106655428Y-85596440D01*
X106845071Y-85486950D01*
X106866241Y-85470706D01*
X121163469Y-85470706D01*
X121191349Y-85610863D01*
X121191351Y-85610869D01*
X121246039Y-85742899D01*
X121246044Y-85742908D01*
X121325437Y-85861727D01*
X121325440Y-85861731D01*
X121426487Y-85962778D01*
X121426491Y-85962781D01*
X121545310Y-86042174D01*
X121545316Y-86042177D01*
X121545317Y-86042178D01*
X121677350Y-86096868D01*
X121677354Y-86096868D01*
X121677355Y-86096869D01*
X121817512Y-86124749D01*
X121817515Y-86124749D01*
X121960427Y-86124749D01*
X122054721Y-86105991D01*
X122100590Y-86096868D01*
X122232623Y-86042178D01*
X122351449Y-85962781D01*
X122452502Y-85861728D01*
X122531899Y-85742902D01*
X122586589Y-85610869D01*
X122609327Y-85496560D01*
X122614470Y-85470706D01*
X122614470Y-85327791D01*
X122586590Y-85187634D01*
X122586589Y-85187633D01*
X122586589Y-85187629D01*
X122531899Y-85055596D01*
X122531898Y-85055595D01*
X122531895Y-85055589D01*
X122452502Y-84936770D01*
X122452499Y-84936766D01*
X122351452Y-84835719D01*
X122351448Y-84835716D01*
X122232629Y-84756323D01*
X122232620Y-84756318D01*
X122100590Y-84701630D01*
X122100584Y-84701628D01*
X121960427Y-84673749D01*
X121960425Y-84673749D01*
X121817515Y-84673749D01*
X121817513Y-84673749D01*
X121677355Y-84701628D01*
X121677349Y-84701630D01*
X121545319Y-84756318D01*
X121545310Y-84756323D01*
X121426491Y-84835716D01*
X121426487Y-84835719D01*
X121325440Y-84936766D01*
X121325437Y-84936770D01*
X121246044Y-85055589D01*
X121246039Y-85055598D01*
X121191351Y-85187628D01*
X121191349Y-85187634D01*
X121163470Y-85327791D01*
X121163470Y-85327794D01*
X121163470Y-85470704D01*
X121163470Y-85470706D01*
X121163469Y-85470706D01*
X106866241Y-85470706D01*
X107018800Y-85353643D01*
X107044652Y-85327791D01*
X107138423Y-85234021D01*
X107173638Y-85198805D01*
X107173643Y-85198800D01*
X107306950Y-85025071D01*
X107416440Y-84835428D01*
X107500241Y-84633117D01*
X107556917Y-84421598D01*
X107585500Y-84204490D01*
X107585500Y-83985510D01*
X107556917Y-83768402D01*
X107500241Y-83556883D01*
X107416440Y-83354572D01*
X107415637Y-83353182D01*
X107306950Y-83164929D01*
X107173644Y-82991201D01*
X107173638Y-82991194D01*
X107018805Y-82836361D01*
X107018798Y-82836355D01*
X106845070Y-82703049D01*
X106655438Y-82593565D01*
X106655433Y-82593562D01*
X106655428Y-82593560D01*
X106466685Y-82515379D01*
X106453115Y-82509758D01*
X106347357Y-82481421D01*
X106241598Y-82453083D01*
X106205314Y-82448306D01*
X106024497Y-82424500D01*
X106024490Y-82424500D01*
X105805510Y-82424500D01*
X105805502Y-82424500D01*
X105598853Y-82451707D01*
X105588402Y-82453083D01*
X105559602Y-82460800D01*
X105376884Y-82509758D01*
X105298692Y-82542147D01*
X105174572Y-82593560D01*
X105174569Y-82593561D01*
X105174561Y-82593565D01*
X104984929Y-82703049D01*
X104811201Y-82836355D01*
X104811194Y-82836361D01*
X104656361Y-82991194D01*
X104656355Y-82991201D01*
X104523049Y-83164929D01*
X104413565Y-83354561D01*
X104413561Y-83354569D01*
X104413560Y-83354572D01*
X104378847Y-83438374D01*
X104329758Y-83556884D01*
X104301117Y-83663777D01*
X104276038Y-83757376D01*
X104273084Y-83768399D01*
X104273082Y-83768410D01*
X104244500Y-83985502D01*
X102585499Y-83985502D01*
X102556917Y-83768402D01*
X102500241Y-83556883D01*
X102416440Y-83354572D01*
X102415637Y-83353182D01*
X102306950Y-83164929D01*
X102173644Y-82991201D01*
X102173638Y-82991194D01*
X102018805Y-82836361D01*
X102018798Y-82836355D01*
X101845070Y-82703049D01*
X101655438Y-82593565D01*
X101655433Y-82593562D01*
X101655428Y-82593560D01*
X101466685Y-82515379D01*
X101453115Y-82509758D01*
X101347357Y-82481421D01*
X101241598Y-82453083D01*
X101206419Y-82448451D01*
X101023282Y-82424340D01*
X100959386Y-82396073D01*
X100920915Y-82337748D01*
X100920084Y-82267884D01*
X100957156Y-82208660D01*
X100985664Y-82189682D01*
X101162997Y-82104284D01*
X101357048Y-81982353D01*
X110144441Y-81982353D01*
X110144441Y-82187057D01*
X110145667Y-82194795D01*
X110176463Y-82389239D01*
X110239722Y-82583928D01*
X110300418Y-82703049D01*
X110331947Y-82764928D01*
X110332656Y-82766318D01*
X110452969Y-82931918D01*
X110597727Y-83076676D01*
X110747816Y-83185720D01*
X110763331Y-83196992D01*
X110879548Y-83256208D01*
X110945717Y-83289923D01*
X110945719Y-83289923D01*
X110945722Y-83289925D01*
X110995310Y-83306037D01*
X111140406Y-83353182D01*
X111241498Y-83369193D01*
X111342589Y-83385205D01*
X111342590Y-83385205D01*
X111547292Y-83385205D01*
X111547293Y-83385205D01*
X111749475Y-83353182D01*
X111944160Y-83289925D01*
X112126551Y-83196992D01*
X112273104Y-83090516D01*
X112292154Y-83076676D01*
X112292156Y-83076673D01*
X112292160Y-83076671D01*
X112436907Y-82931924D01*
X112436909Y-82931920D01*
X112436912Y-82931918D01*
X112541854Y-82787475D01*
X112557228Y-82766315D01*
X112604457Y-82673622D01*
X112652430Y-82622828D01*
X112720251Y-82606033D01*
X112786386Y-82628570D01*
X112825424Y-82673622D01*
X112840419Y-82703050D01*
X112872656Y-82766319D01*
X112992969Y-82931918D01*
X113137727Y-83076676D01*
X113287816Y-83185720D01*
X113303331Y-83196992D01*
X113419548Y-83256208D01*
X113485717Y-83289923D01*
X113485719Y-83289923D01*
X113485722Y-83289925D01*
X113535310Y-83306037D01*
X113680406Y-83353182D01*
X113781498Y-83369193D01*
X113882589Y-83385205D01*
X113882590Y-83385205D01*
X114087292Y-83385205D01*
X114087293Y-83385205D01*
X114289475Y-83353182D01*
X114484160Y-83289925D01*
X114666551Y-83196992D01*
X114813104Y-83090516D01*
X114832154Y-83076676D01*
X114832156Y-83076673D01*
X114832160Y-83076671D01*
X114976907Y-82931924D01*
X114976909Y-82931920D01*
X114976912Y-82931918D01*
X115081854Y-82787475D01*
X115097228Y-82766315D01*
X115144457Y-82673622D01*
X115192430Y-82622828D01*
X115260251Y-82606033D01*
X115326386Y-82628570D01*
X115365424Y-82673622D01*
X115380419Y-82703050D01*
X115412656Y-82766319D01*
X115532969Y-82931918D01*
X115677727Y-83076676D01*
X115827816Y-83185720D01*
X115843331Y-83196992D01*
X115959548Y-83256208D01*
X116025717Y-83289923D01*
X116025719Y-83289923D01*
X116025722Y-83289925D01*
X116075310Y-83306037D01*
X116220406Y-83353182D01*
X116321498Y-83369193D01*
X116422589Y-83385205D01*
X116422590Y-83385205D01*
X116627292Y-83385205D01*
X116627293Y-83385205D01*
X116829475Y-83353182D01*
X117024160Y-83289925D01*
X117206551Y-83196992D01*
X117353104Y-83090516D01*
X117372154Y-83076676D01*
X117372156Y-83076673D01*
X117372160Y-83076671D01*
X117516907Y-82931924D01*
X117516909Y-82931920D01*
X117516912Y-82931918D01*
X117621854Y-82787475D01*
X117637228Y-82766315D01*
X117684457Y-82673622D01*
X117732430Y-82622828D01*
X117800251Y-82606033D01*
X117866386Y-82628570D01*
X117905424Y-82673622D01*
X117920419Y-82703050D01*
X117952656Y-82766319D01*
X118072969Y-82931918D01*
X118217727Y-83076676D01*
X118367816Y-83185720D01*
X118383331Y-83196992D01*
X118499548Y-83256208D01*
X118565717Y-83289923D01*
X118565719Y-83289923D01*
X118565722Y-83289925D01*
X118615310Y-83306037D01*
X118760406Y-83353182D01*
X118861498Y-83369193D01*
X118962589Y-83385205D01*
X118962590Y-83385205D01*
X119167292Y-83385205D01*
X119167293Y-83385205D01*
X119369475Y-83353182D01*
X119564160Y-83289925D01*
X119746551Y-83196992D01*
X119893104Y-83090516D01*
X119912154Y-83076676D01*
X119912156Y-83076673D01*
X119912160Y-83076671D01*
X120056907Y-82931924D01*
X120056909Y-82931920D01*
X120056912Y-82931918D01*
X120126341Y-82836355D01*
X120177228Y-82766315D01*
X120270161Y-82583924D01*
X120333418Y-82389239D01*
X120365441Y-82187057D01*
X120365441Y-81982353D01*
X120349314Y-81880534D01*
X120333418Y-81780170D01*
X120270159Y-81585481D01*
X120214777Y-81476789D01*
X120177228Y-81403095D01*
X120135509Y-81345673D01*
X120056912Y-81237491D01*
X119912154Y-81092733D01*
X119746554Y-80972420D01*
X119746553Y-80972419D01*
X119746551Y-80972418D01*
X119689594Y-80943396D01*
X119564164Y-80879486D01*
X119369475Y-80816227D01*
X119194936Y-80788583D01*
X119167293Y-80784205D01*
X118962589Y-80784205D01*
X118938270Y-80788056D01*
X118760406Y-80816227D01*
X118565717Y-80879486D01*
X118383327Y-80972420D01*
X118217727Y-81092733D01*
X118072969Y-81237491D01*
X117952656Y-81403091D01*
X117905426Y-81495785D01*
X117857451Y-81546581D01*
X117789630Y-81563376D01*
X117723495Y-81540839D01*
X117684456Y-81495785D01*
X117668487Y-81464444D01*
X117637228Y-81403095D01*
X117595509Y-81345673D01*
X117516912Y-81237491D01*
X117372154Y-81092733D01*
X117206554Y-80972420D01*
X117206553Y-80972419D01*
X117206551Y-80972418D01*
X117149594Y-80943396D01*
X117024164Y-80879486D01*
X116829475Y-80816227D01*
X116654936Y-80788583D01*
X116627293Y-80784205D01*
X116422589Y-80784205D01*
X116398270Y-80788056D01*
X116220406Y-80816227D01*
X116025717Y-80879486D01*
X115843327Y-80972420D01*
X115677727Y-81092733D01*
X115532969Y-81237491D01*
X115412656Y-81403091D01*
X115365426Y-81495785D01*
X115317451Y-81546581D01*
X115249630Y-81563376D01*
X115183495Y-81540839D01*
X115144456Y-81495785D01*
X115128487Y-81464444D01*
X115097228Y-81403095D01*
X115055509Y-81345673D01*
X114976912Y-81237491D01*
X114832154Y-81092733D01*
X114666554Y-80972420D01*
X114666553Y-80972419D01*
X114666551Y-80972418D01*
X114609594Y-80943396D01*
X114484164Y-80879486D01*
X114289475Y-80816227D01*
X114114936Y-80788583D01*
X114087293Y-80784205D01*
X113882589Y-80784205D01*
X113858270Y-80788056D01*
X113680406Y-80816227D01*
X113485717Y-80879486D01*
X113303327Y-80972420D01*
X113137727Y-81092733D01*
X112992969Y-81237491D01*
X112872656Y-81403091D01*
X112825426Y-81495785D01*
X112777451Y-81546581D01*
X112709630Y-81563376D01*
X112643495Y-81540839D01*
X112604456Y-81495785D01*
X112588487Y-81464444D01*
X112557228Y-81403095D01*
X112515509Y-81345673D01*
X112436912Y-81237491D01*
X112292154Y-81092733D01*
X112126554Y-80972420D01*
X112126553Y-80972419D01*
X112126551Y-80972418D01*
X112069594Y-80943396D01*
X111944164Y-80879486D01*
X111749475Y-80816227D01*
X111574936Y-80788583D01*
X111547293Y-80784205D01*
X111342589Y-80784205D01*
X111318270Y-80788056D01*
X111140406Y-80816227D01*
X110945717Y-80879486D01*
X110763327Y-80972420D01*
X110597727Y-81092733D01*
X110452969Y-81237491D01*
X110332656Y-81403091D01*
X110239722Y-81585481D01*
X110176463Y-81780170D01*
X110155445Y-81912876D01*
X110144441Y-81982353D01*
X101357048Y-81982353D01*
X101391289Y-81960838D01*
X101602085Y-81792734D01*
X101792734Y-81602085D01*
X101960838Y-81391289D01*
X102104284Y-81162997D01*
X102221267Y-80920079D01*
X102310316Y-80665591D01*
X102370312Y-80402732D01*
X102370313Y-80402721D01*
X102370314Y-80402718D01*
X102379957Y-80317135D01*
X123149500Y-80317135D01*
X123149500Y-81912870D01*
X123149501Y-81912876D01*
X123155908Y-81972483D01*
X123206202Y-82107328D01*
X123206206Y-82107335D01*
X123292452Y-82222544D01*
X123292455Y-82222547D01*
X123407664Y-82308793D01*
X123407671Y-82308797D01*
X123542517Y-82359091D01*
X123542516Y-82359091D01*
X123549444Y-82359835D01*
X123602127Y-82365500D01*
X124747872Y-82365499D01*
X124807483Y-82359091D01*
X124942331Y-82308796D01*
X124943430Y-82307972D01*
X124944717Y-82307492D01*
X124950112Y-82304547D01*
X124950535Y-82305322D01*
X125008887Y-82283552D01*
X125065198Y-82292673D01*
X125145873Y-82326091D01*
X125311777Y-82359091D01*
X125343992Y-82365499D01*
X125343996Y-82365500D01*
X125343997Y-82365500D01*
X125546004Y-82365500D01*
X125546005Y-82365499D01*
X125744127Y-82326091D01*
X125930756Y-82248786D01*
X126011562Y-82194792D01*
X126078234Y-82173917D01*
X126145614Y-82192401D01*
X126149340Y-82194795D01*
X126229479Y-82248343D01*
X126229486Y-82248347D01*
X126416016Y-82325609D01*
X126416025Y-82325612D01*
X126465000Y-82335353D01*
X126465000Y-81480865D01*
X126465067Y-81476789D01*
X126465400Y-81466638D01*
X126470500Y-81441003D01*
X126470500Y-81400830D01*
X126484745Y-81415075D01*
X126570255Y-81464444D01*
X126665630Y-81490000D01*
X126764370Y-81490000D01*
X126859745Y-81464444D01*
X126945255Y-81415075D01*
X126965000Y-81395330D01*
X126965000Y-82335352D01*
X127013974Y-82325612D01*
X127013983Y-82325609D01*
X127200513Y-82248347D01*
X127200526Y-82248340D01*
X127368399Y-82136170D01*
X127368403Y-82136167D01*
X127511167Y-81993403D01*
X127511170Y-81993399D01*
X127623340Y-81825526D01*
X127623347Y-81825513D01*
X127700609Y-81638983D01*
X127700612Y-81638974D01*
X127739999Y-81440958D01*
X127740000Y-81440955D01*
X127740000Y-81365000D01*
X126995330Y-81365000D01*
X127015075Y-81345255D01*
X127064444Y-81259745D01*
X127090000Y-81164370D01*
X127090000Y-81065630D01*
X127064444Y-80970255D01*
X127015075Y-80884745D01*
X126995330Y-80865000D01*
X127740000Y-80865000D01*
X127740000Y-80789045D01*
X127739999Y-80789041D01*
X127700612Y-80591025D01*
X127700609Y-80591016D01*
X127623347Y-80404486D01*
X127623340Y-80404473D01*
X127511170Y-80236600D01*
X127511167Y-80236596D01*
X127368403Y-80093832D01*
X127368399Y-80093829D01*
X127200526Y-79981659D01*
X127200513Y-79981652D01*
X127013984Y-79904390D01*
X127013977Y-79904388D01*
X126965000Y-79894645D01*
X126965000Y-80834670D01*
X126945255Y-80814925D01*
X126859745Y-80765556D01*
X126764370Y-80740000D01*
X126665630Y-80740000D01*
X126570255Y-80765556D01*
X126484745Y-80814925D01*
X126470500Y-80829170D01*
X126470500Y-80788997D01*
X126467383Y-80773326D01*
X126465000Y-80749134D01*
X126465000Y-79894646D01*
X126464999Y-79894645D01*
X126416022Y-79904388D01*
X126416015Y-79904390D01*
X126229481Y-79981654D01*
X126229479Y-79981655D01*
X126149337Y-80035204D01*
X126082660Y-80056081D01*
X126015280Y-80037596D01*
X126011558Y-80035204D01*
X125930754Y-79981212D01*
X125744127Y-79903909D01*
X125744119Y-79903907D01*
X125546007Y-79864500D01*
X125546003Y-79864500D01*
X125343997Y-79864500D01*
X125343992Y-79864500D01*
X125145880Y-79903907D01*
X125145868Y-79903910D01*
X125065198Y-79937325D01*
X124995729Y-79944794D01*
X124950342Y-79925036D01*
X124950114Y-79925454D01*
X124945447Y-79922905D01*
X124943432Y-79922028D01*
X124942331Y-79921204D01*
X124942330Y-79921203D01*
X124942328Y-79921202D01*
X124807482Y-79870908D01*
X124807483Y-79870908D01*
X124747883Y-79864501D01*
X124747881Y-79864500D01*
X124747873Y-79864500D01*
X124747864Y-79864500D01*
X123602129Y-79864500D01*
X123602123Y-79864501D01*
X123542516Y-79870908D01*
X123407671Y-79921202D01*
X123407664Y-79921206D01*
X123292455Y-80007452D01*
X123292452Y-80007455D01*
X123206206Y-80122664D01*
X123206202Y-80122671D01*
X123155908Y-80257517D01*
X123149501Y-80317116D01*
X123149500Y-80317135D01*
X102379957Y-80317135D01*
X102381896Y-80299923D01*
X102381896Y-80299922D01*
X102389031Y-80236596D01*
X102400500Y-80134809D01*
X102400500Y-79865191D01*
X102370312Y-79597268D01*
X102310316Y-79334409D01*
X102221267Y-79079921D01*
X102104284Y-78837003D01*
X102011898Y-78689972D01*
X101992898Y-78622735D01*
X102013266Y-78555900D01*
X102066534Y-78510686D01*
X102116892Y-78500000D01*
X105674626Y-78500000D01*
X105741665Y-78519685D01*
G37*
%TD.AperFunction*%
%TA.AperFunction,Conductor*%
G36*
X107439075Y-100337993D02*
G01*
X107504901Y-100452007D01*
X107597993Y-100545099D01*
X107712007Y-100610925D01*
X107775590Y-100627962D01*
X107143282Y-101260269D01*
X107143282Y-101260270D01*
X107164494Y-101275681D01*
X107207160Y-101331011D01*
X107213139Y-101400624D01*
X107180534Y-101462420D01*
X107119696Y-101496777D01*
X107091609Y-101500000D01*
X106709884Y-101500000D01*
X106642845Y-101480315D01*
X106597090Y-101427511D01*
X106587146Y-101358353D01*
X106610618Y-101301688D01*
X106658796Y-101237331D01*
X106709091Y-101102483D01*
X106715500Y-101042873D01*
X106715499Y-101032312D01*
X106735179Y-100965275D01*
X106751818Y-100944626D01*
X107422037Y-100274408D01*
X107439075Y-100337993D01*
G37*
%TD.AperFunction*%
%TA.AperFunction,Conductor*%
G36*
X109020270Y-100906717D02*
G01*
X109020270Y-100906716D01*
X109059622Y-100852555D01*
X109064232Y-100843507D01*
X109112205Y-100792709D01*
X109180025Y-100775912D01*
X109246161Y-100798447D01*
X109285204Y-100843504D01*
X109289949Y-100852817D01*
X109414890Y-101024786D01*
X109414896Y-101024792D01*
X109565208Y-101175104D01*
X109703642Y-101275682D01*
X109746308Y-101331011D01*
X109752287Y-101400625D01*
X109719682Y-101462420D01*
X109658843Y-101496777D01*
X109630757Y-101500000D01*
X108718392Y-101500000D01*
X108651353Y-101480315D01*
X108605598Y-101427511D01*
X108595654Y-101358353D01*
X108624679Y-101294797D01*
X108645506Y-101275683D01*
X108666716Y-101260272D01*
X108666717Y-101260270D01*
X108034408Y-100627962D01*
X108097993Y-100610925D01*
X108212007Y-100545099D01*
X108305099Y-100452007D01*
X108370925Y-100337993D01*
X108387962Y-100274409D01*
X109020270Y-100906717D01*
G37*
%TD.AperFunction*%
%TA.AperFunction,Conductor*%
G36*
X121629447Y-99247278D02*
G01*
X121632118Y-99246617D01*
X121662780Y-99257065D01*
X121693846Y-99266188D01*
X121695646Y-99268266D01*
X121698252Y-99269154D01*
X121718402Y-99294528D01*
X121739601Y-99318992D01*
X121739992Y-99321713D01*
X121741704Y-99323869D01*
X121744935Y-99356092D01*
X121749545Y-99388150D01*
X121748485Y-99391491D01*
X121748676Y-99393390D01*
X121737292Y-99426798D01*
X121699199Y-99501557D01*
X121626212Y-99726185D01*
X121589266Y-99959456D01*
X121589266Y-100195651D01*
X121626212Y-100428922D01*
X121699199Y-100653550D01*
X121773310Y-100798999D01*
X121806423Y-100863987D01*
X121945249Y-101055064D01*
X122112256Y-101222071D01*
X122133260Y-101237331D01*
X122186045Y-101275682D01*
X122228711Y-101331012D01*
X122234690Y-101400625D01*
X122202084Y-101462420D01*
X122141245Y-101496778D01*
X122113160Y-101500000D01*
X116339243Y-101500000D01*
X116272204Y-101480315D01*
X116226449Y-101427511D01*
X116216505Y-101358353D01*
X116245530Y-101294797D01*
X116266357Y-101275682D01*
X116404792Y-101175104D01*
X116555104Y-101024792D01*
X116555106Y-101024788D01*
X116555109Y-101024786D01*
X116680048Y-100852820D01*
X116680050Y-100852817D01*
X116680051Y-100852816D01*
X116776557Y-100663412D01*
X116842246Y-100461243D01*
X116875500Y-100251287D01*
X116875500Y-100038713D01*
X116861767Y-99952007D01*
X116842246Y-99828756D01*
X116816369Y-99749117D01*
X116814374Y-99679276D01*
X116846617Y-99623119D01*
X117186916Y-99282822D01*
X117248239Y-99249337D01*
X117274597Y-99246503D01*
X121626807Y-99246503D01*
X121629447Y-99247278D01*
G37*
%TD.AperFunction*%
%TA.AperFunction,Conductor*%
G36*
X138124650Y-91210154D02*
G01*
X138170405Y-91262958D01*
X138180349Y-91332116D01*
X138168096Y-91370763D01*
X138143630Y-91418778D01*
X138080370Y-91613470D01*
X138048348Y-91815653D01*
X138048348Y-92020356D01*
X138080370Y-92222539D01*
X138143629Y-92417228D01*
X138190777Y-92509759D01*
X138233478Y-92593565D01*
X138236563Y-92599618D01*
X138356876Y-92765218D01*
X138501634Y-92909976D01*
X138613432Y-92991200D01*
X138667238Y-93030292D01*
X138758688Y-93076888D01*
X138759928Y-93077520D01*
X138810724Y-93125495D01*
X138827519Y-93193316D01*
X138804982Y-93259451D01*
X138759928Y-93298490D01*
X138667234Y-93345720D01*
X138501634Y-93466033D01*
X138356876Y-93610791D01*
X138236563Y-93776391D01*
X138143629Y-93958781D01*
X138080370Y-94153470D01*
X138048348Y-94355653D01*
X138048348Y-94560356D01*
X138080370Y-94762539D01*
X138143629Y-94957228D01*
X138205194Y-95078054D01*
X138230584Y-95127885D01*
X138236563Y-95139618D01*
X138356876Y-95305218D01*
X138501634Y-95449976D01*
X138651085Y-95558556D01*
X138667238Y-95570292D01*
X138758688Y-95616888D01*
X138759928Y-95617520D01*
X138810724Y-95665495D01*
X138827519Y-95733316D01*
X138804982Y-95799451D01*
X138759928Y-95838490D01*
X138667234Y-95885720D01*
X138501634Y-96006033D01*
X138356876Y-96150791D01*
X138236563Y-96316391D01*
X138143629Y-96498781D01*
X138080370Y-96693470D01*
X138050206Y-96883920D01*
X138048348Y-96895653D01*
X138048348Y-97100357D01*
X138056591Y-97152399D01*
X138080371Y-97302540D01*
X138080371Y-97302543D01*
X138098125Y-97357182D01*
X138100120Y-97427023D01*
X138064040Y-97486856D01*
X138001339Y-97517684D01*
X137980194Y-97519500D01*
X135822149Y-97519500D01*
X135755110Y-97499815D01*
X135753258Y-97498602D01*
X135668659Y-97442074D01*
X135668650Y-97442069D01*
X135536620Y-97387381D01*
X135536614Y-97387379D01*
X135396457Y-97359500D01*
X135396455Y-97359500D01*
X135253545Y-97359500D01*
X135253543Y-97359500D01*
X135113385Y-97387379D01*
X135113379Y-97387381D01*
X134981349Y-97442069D01*
X134981340Y-97442074D01*
X134896742Y-97498602D01*
X134830065Y-97519480D01*
X134827851Y-97519500D01*
X133096977Y-97519500D01*
X133029938Y-97499815D01*
X132984183Y-97447011D01*
X132974239Y-97377853D01*
X132979046Y-97357182D01*
X132996837Y-97302426D01*
X132996837Y-97302423D01*
X133028848Y-97100322D01*
X133028848Y-96895687D01*
X132996838Y-96693587D01*
X132933603Y-96498973D01*
X132840707Y-96316655D01*
X132808322Y-96272082D01*
X132808322Y-96272081D01*
X132128848Y-96951556D01*
X132128848Y-96945344D01*
X132101589Y-96843611D01*
X132048928Y-96752399D01*
X131974454Y-96677925D01*
X131883242Y-96625264D01*
X131781509Y-96598005D01*
X131775294Y-96598005D01*
X132454770Y-95918529D01*
X132454769Y-95918528D01*
X132410207Y-95886152D01*
X132410198Y-95886146D01*
X132317217Y-95838770D01*
X132266421Y-95790795D01*
X132249626Y-95722974D01*
X132272163Y-95656840D01*
X132317218Y-95617800D01*
X132317768Y-95617520D01*
X132410458Y-95570292D01*
X132492205Y-95510900D01*
X132576061Y-95449976D01*
X132576063Y-95449973D01*
X132576067Y-95449971D01*
X132720814Y-95305224D01*
X132720816Y-95305220D01*
X132720819Y-95305218D01*
X132814500Y-95176275D01*
X132841135Y-95139615D01*
X132934068Y-94957224D01*
X132997325Y-94762539D01*
X133029348Y-94560357D01*
X133029348Y-94355653D01*
X133004218Y-94196992D01*
X132997325Y-94153470D01*
X132967145Y-94060586D01*
X132934068Y-93958786D01*
X132934066Y-93958783D01*
X132934066Y-93958781D01*
X132886366Y-93865166D01*
X132841135Y-93776395D01*
X132814675Y-93739975D01*
X132720819Y-93610791D01*
X132576061Y-93466033D01*
X132410462Y-93345720D01*
X132403854Y-93342353D01*
X132317765Y-93298488D01*
X132266971Y-93250516D01*
X132250176Y-93182695D01*
X132272713Y-93116560D01*
X132317765Y-93077521D01*
X132410458Y-93030292D01*
X132478569Y-92980807D01*
X132576061Y-92909976D01*
X132576063Y-92909973D01*
X132576067Y-92909971D01*
X132720814Y-92765224D01*
X132720816Y-92765220D01*
X132720819Y-92765218D01*
X132841132Y-92599619D01*
X132841133Y-92599618D01*
X132841135Y-92599615D01*
X132867207Y-92548444D01*
X132915179Y-92497650D01*
X132940776Y-92486362D01*
X132954748Y-92482005D01*
X132959964Y-92482005D01*
X133103407Y-92443570D01*
X133121309Y-92433234D01*
X133232015Y-92369318D01*
X133337024Y-92264309D01*
X133337024Y-92264307D01*
X133347228Y-92254104D01*
X133347231Y-92254099D01*
X134374545Y-91226788D01*
X134435868Y-91193303D01*
X134462226Y-91190469D01*
X138057611Y-91190469D01*
X138124650Y-91210154D01*
G37*
%TD.AperFunction*%
%TA.AperFunction,Conductor*%
G36*
X142637608Y-95471633D02*
G01*
X142667236Y-95471109D01*
X142673696Y-95474214D01*
X142677745Y-95474504D01*
X142699595Y-95485201D01*
X142703552Y-95487646D01*
X142801156Y-95558559D01*
X142898938Y-95608381D01*
X142903284Y-95611067D01*
X142923353Y-95633416D01*
X142945192Y-95654042D01*
X142946454Y-95659142D01*
X142949966Y-95663052D01*
X142954766Y-95692707D01*
X142961987Y-95721863D01*
X142960292Y-95726836D01*
X142961132Y-95732024D01*
X142949139Y-95759563D01*
X142939450Y-95787997D01*
X142935126Y-95791743D01*
X142933236Y-95796084D01*
X142919625Y-95805174D01*
X142894396Y-95827037D01*
X142801410Y-95874415D01*
X142756843Y-95906795D01*
X142756843Y-95906796D01*
X143436320Y-96586272D01*
X143430105Y-96586272D01*
X143328372Y-96613531D01*
X143237160Y-96666192D01*
X143162686Y-96740666D01*
X143110025Y-96831878D01*
X143082766Y-96933611D01*
X143082766Y-96939825D01*
X142403290Y-96260349D01*
X142403289Y-96260349D01*
X142370909Y-96304916D01*
X142299985Y-96444114D01*
X142252010Y-96494910D01*
X142184189Y-96511705D01*
X142118054Y-96489168D01*
X142074603Y-96434452D01*
X142065500Y-96387819D01*
X142065500Y-96035599D01*
X142085185Y-95968560D01*
X142101815Y-95947922D01*
X142546733Y-95503003D01*
X142572734Y-95488805D01*
X142597377Y-95472346D01*
X142603062Y-95472245D01*
X142608054Y-95469520D01*
X142637608Y-95471633D01*
G37*
%TD.AperFunction*%
%TA.AperFunction,Conductor*%
G36*
X138168452Y-87423190D02*
G01*
X138211898Y-87471211D01*
X138236561Y-87519616D01*
X138356876Y-87685218D01*
X138501634Y-87829976D01*
X138621108Y-87916777D01*
X138667238Y-87950292D01*
X138736901Y-87985787D01*
X138759928Y-87997520D01*
X138810724Y-88045495D01*
X138827519Y-88113316D01*
X138804982Y-88179451D01*
X138759928Y-88218490D01*
X138667234Y-88265720D01*
X138501634Y-88386033D01*
X138356876Y-88530791D01*
X138236563Y-88696391D01*
X138143629Y-88878781D01*
X138080370Y-89073470D01*
X138048348Y-89275653D01*
X138048348Y-89480356D01*
X138080370Y-89682539D01*
X138143629Y-89877228D01*
X138146150Y-89882174D01*
X138159046Y-89950843D01*
X138132770Y-90015584D01*
X138075663Y-90055841D01*
X138035665Y-90062469D01*
X134259112Y-90062469D01*
X134259096Y-90062468D01*
X134251500Y-90062468D01*
X134102995Y-90062468D01*
X133971310Y-90097753D01*
X133959547Y-90100905D01*
X133830946Y-90175153D01*
X133830940Y-90175158D01*
X132913738Y-91092360D01*
X132852415Y-91125845D01*
X132782723Y-91120861D01*
X132726790Y-91078989D01*
X132725740Y-91077566D01*
X132725033Y-91076594D01*
X132720814Y-91070786D01*
X132576067Y-90926039D01*
X132576061Y-90926033D01*
X132410462Y-90805720D01*
X132403854Y-90802353D01*
X132317765Y-90758488D01*
X132266971Y-90710516D01*
X132250176Y-90642695D01*
X132272713Y-90576560D01*
X132317765Y-90537521D01*
X132410458Y-90490292D01*
X132455242Y-90457755D01*
X132576061Y-90369976D01*
X132576063Y-90369973D01*
X132576067Y-90369971D01*
X132720814Y-90225224D01*
X132720816Y-90225220D01*
X132720819Y-90225218D01*
X132811137Y-90100904D01*
X132841135Y-90059615D01*
X132934068Y-89877224D01*
X132997325Y-89682539D01*
X133029348Y-89480357D01*
X133029348Y-89275653D01*
X133018444Y-89206806D01*
X132997325Y-89073470D01*
X132937670Y-88889873D01*
X132934068Y-88878786D01*
X132934066Y-88878783D01*
X132934066Y-88878781D01*
X132866306Y-88745795D01*
X132853410Y-88677126D01*
X132879686Y-88612385D01*
X132936793Y-88572128D01*
X132976791Y-88565500D01*
X136574447Y-88565500D01*
X136574450Y-88565500D01*
X136718275Y-88526962D01*
X136847225Y-88452513D01*
X137859914Y-87439824D01*
X137886841Y-87425120D01*
X137912660Y-87408528D01*
X137918860Y-87407636D01*
X137921237Y-87406339D01*
X137947595Y-87403505D01*
X138101413Y-87403505D01*
X138168452Y-87423190D01*
G37*
%TD.AperFunction*%
%TA.AperFunction,Conductor*%
G36*
X161359563Y-88266640D02*
G01*
X161366271Y-88266113D01*
X161434648Y-88280477D01*
X161484405Y-88329528D01*
X161500000Y-88389731D01*
X161500000Y-89094012D01*
X161480315Y-89161051D01*
X161427511Y-89206806D01*
X161358353Y-89216750D01*
X161294797Y-89187725D01*
X161275687Y-89166905D01*
X161274624Y-89165444D01*
X161274398Y-89165132D01*
X161124086Y-89014820D01*
X161124080Y-89014814D01*
X160952111Y-88889873D01*
X160942798Y-88885128D01*
X160892001Y-88837154D01*
X160875206Y-88769333D01*
X160897743Y-88703198D01*
X160942801Y-88664156D01*
X160951849Y-88659546D01*
X161006010Y-88620194D01*
X161006011Y-88620194D01*
X160373702Y-87987886D01*
X160437287Y-87970849D01*
X160551301Y-87905023D01*
X160644393Y-87811931D01*
X160710219Y-87697917D01*
X160727256Y-87634332D01*
X161359563Y-88266640D01*
G37*
%TD.AperFunction*%
%TA.AperFunction,Conductor*%
G36*
X161397802Y-86255537D02*
G01*
X161402358Y-86255212D01*
X161429284Y-86269915D01*
X161457203Y-86282665D01*
X161459673Y-86286508D01*
X161463681Y-86288697D01*
X161478384Y-86315624D01*
X161494977Y-86341443D01*
X161495868Y-86347643D01*
X161497166Y-86350020D01*
X161500000Y-86376378D01*
X161500000Y-86620116D01*
X161480315Y-86687155D01*
X161427511Y-86732910D01*
X161366271Y-86743734D01*
X161359563Y-86743206D01*
X160727256Y-87375514D01*
X160710219Y-87311931D01*
X160644393Y-87197917D01*
X160551301Y-87104825D01*
X160437287Y-87038999D01*
X160373703Y-87021961D01*
X161043921Y-86351742D01*
X161105244Y-86318257D01*
X161131601Y-86315423D01*
X161142166Y-86315423D01*
X161201777Y-86309015D01*
X161332667Y-86260195D01*
X161363275Y-86258007D01*
X161393647Y-86253640D01*
X161397802Y-86255537D01*
G37*
%TD.AperFunction*%
%TD*%
M02*
