%TF.GenerationSoftware,KiCad,Pcbnew,10.0.1*%
%TF.CreationDate,2026-05-17T15:29:23+02:00*%
%TF.ProjectId,Debugger,44656275-6767-4657-922e-6b696361645f,2*%
%TF.SameCoordinates,Original*%
%TF.FileFunction,Copper,L3,Inr*%
%TF.FilePolarity,Positive*%
%FSLAX46Y46*%
G04 Gerber Fmt 4.6, Leading zero omitted, Abs format (unit mm)*
G04 Created by KiCad (PCBNEW 10.0.1) date 2026-05-17 15:29:23*
%MOMM*%
%LPD*%
G01*
G04 APERTURE LIST*
G04 Aperture macros list*
%AMRoundRect*
0 Rectangle with rounded corners*
0 $1 Rounding radius*
0 $2 $3 $4 $5 $6 $7 $8 $9 X,Y pos of 4 corners*
0 Add a 4 corners polygon primitive as box body*
4,1,4,$2,$3,$4,$5,$6,$7,$8,$9,$2,$3,0*
0 Add four circle primitives for the rounded corners*
1,1,$1+$1,$2,$3*
1,1,$1+$1,$4,$5*
1,1,$1+$1,$6,$7*
1,1,$1+$1,$8,$9*
0 Add four rect primitives between the rounded corners*
20,1,$1+$1,$2,$3,$4,$5,0*
20,1,$1+$1,$4,$5,$6,$7,0*
20,1,$1+$1,$6,$7,$8,$9,0*
20,1,$1+$1,$8,$9,$2,$3,0*%
G04 Aperture macros list end*
%TA.AperFunction,ComponentPad*%
%ADD10C,3.800000*%
%TD*%
%TA.AperFunction,ComponentPad*%
%ADD11R,1.700000X1.700000*%
%TD*%
%TA.AperFunction,ComponentPad*%
%ADD12C,1.700000*%
%TD*%
%TA.AperFunction,ComponentPad*%
%ADD13R,1.050000X1.500000*%
%TD*%
%TA.AperFunction,ComponentPad*%
%ADD14O,1.050000X1.500000*%
%TD*%
%TA.AperFunction,ComponentPad*%
%ADD15RoundRect,0.250000X-0.550000X-0.550000X0.550000X-0.550000X0.550000X0.550000X-0.550000X0.550000X0*%
%TD*%
%TA.AperFunction,ComponentPad*%
%ADD16C,1.600000*%
%TD*%
%TA.AperFunction,ComponentPad*%
%ADD17RoundRect,0.250000X0.550000X-0.550000X0.550000X0.550000X-0.550000X0.550000X-0.550000X-0.550000X0*%
%TD*%
%TA.AperFunction,ComponentPad*%
%ADD18C,2.000000*%
%TD*%
%TA.AperFunction,ComponentPad*%
%ADD19RoundRect,0.250000X-0.350000X-0.350000X0.350000X-0.350000X0.350000X0.350000X-0.350000X0.350000X0*%
%TD*%
%TA.AperFunction,ComponentPad*%
%ADD20C,1.200000*%
%TD*%
%TA.AperFunction,ComponentPad*%
%ADD21C,2.340000*%
%TD*%
%TA.AperFunction,ViaPad*%
%ADD22C,0.450000*%
%TD*%
%TA.AperFunction,Conductor*%
%ADD23C,0.230000*%
%TD*%
%TA.AperFunction,Conductor*%
%ADD24C,0.130000*%
%TD*%
G04 APERTURE END LIST*
D10*
%TO.N,N/C*%
%TO.C,H2*%
X160000000Y-100000000D03*
%TD*%
D11*
%TO.N,Net-(J1-Pin_1)*%
%TO.C,J1*%
X116670102Y-94572982D03*
D12*
%TO.N,/CLK*%
X119210102Y-94572982D03*
%TD*%
D10*
%TO.N,N/C*%
%TO.C,H4*%
X100000000Y-80000000D03*
%TD*%
D13*
%TO.N,/{slash}HALT*%
%TO.C,Q1*%
X124175000Y-81115000D03*
D14*
%TO.N,Net-(Q1-B)*%
X125445000Y-81115000D03*
%TO.N,GND*%
X126715000Y-81115000D03*
%TD*%
D15*
%TO.N,+5V*%
%TO.C,U3*%
X131728848Y-81758005D03*
D16*
%TO.N,Net-(U3A-D)*%
X131728848Y-84298005D03*
%TO.N,/CLK*%
X131728848Y-86838005D03*
%TO.N,+5V*%
X131728848Y-89378005D03*
%TO.N,Net-(U3A-Q)*%
X131728848Y-91918005D03*
%TO.N,unconnected-(U3A-~{Q}-Pad6)*%
X131728848Y-94458005D03*
%TO.N,GND*%
X131728848Y-96998005D03*
%TO.N,Net-(U3A-D)*%
X139348848Y-96998005D03*
%TO.N,Net-(U3B-Q)*%
X139348848Y-94458005D03*
%TO.N,+5V*%
X139348848Y-91918005D03*
%TO.N,/CLK*%
X139348848Y-89378005D03*
%TO.N,/STEP*%
X139348848Y-86838005D03*
%TO.N,+5V*%
X139348848Y-84298005D03*
X139348848Y-81758005D03*
%TD*%
D17*
%TO.N,GND*%
%TO.C,U2*%
X111444941Y-89704705D03*
D16*
%TO.N,Net-(U2-THRES)*%
X113984941Y-89704705D03*
%TO.N,Net-(J1-Pin_1)*%
X116524941Y-89704705D03*
%TO.N,+5V*%
X119064941Y-89704705D03*
%TO.N,Net-(U2-CONT)*%
X119064941Y-82084705D03*
%TO.N,Net-(U2-THRES)*%
X116524941Y-82084705D03*
%TO.N,Net-(U2-DISCH)*%
X113984941Y-82084705D03*
%TO.N,+5V*%
X111444941Y-82084705D03*
%TD*%
D11*
%TO.N,+5V*%
%TO.C,J4*%
X155571024Y-84957573D03*
D12*
%TO.N,GND*%
X155571024Y-87497573D03*
%TO.N,Net-(J4-Pin_3)*%
X155571024Y-90037573D03*
%TO.N,Net-(J4-Pin_4)*%
X155571024Y-92577573D03*
%TO.N,Net-(J4-Pin_5)*%
X155571024Y-95117573D03*
%TD*%
D11*
%TO.N,+5V*%
%TO.C,J2*%
X105365000Y-100145000D03*
D12*
%TO.N,GND*%
X107905000Y-100145000D03*
%TO.N,/OSC*%
X110445000Y-100145000D03*
%TO.N,/CLK*%
X112985000Y-100145000D03*
%TO.N,/{slash}HALT*%
X115525000Y-100145000D03*
%TD*%
D18*
%TO.N,+5V*%
%TO.C,SW1*%
X123089766Y-100077554D03*
X123089766Y-93577554D03*
%TO.N,/STEP*%
X127589766Y-100077554D03*
X127589766Y-93577554D03*
%TD*%
D19*
%TO.N,GND*%
%TO.C,C3*%
X110854801Y-94900000D03*
D20*
%TO.N,Net-(U2-THRES)*%
X112854801Y-94900000D03*
%TD*%
D15*
%TO.N,Net-(U3B-Q)*%
%TO.C,U1*%
X143482766Y-81746272D03*
D16*
%TO.N,Net-(U3A-Q)*%
X143482766Y-84286272D03*
%TO.N,Net-(R6-Pad1)*%
X143482766Y-86826272D03*
%TO.N,Net-(J1-Pin_1)*%
X143482766Y-89366272D03*
X143482766Y-91906272D03*
%TO.N,/OSC*%
X143482766Y-94446272D03*
%TO.N,GND*%
X143482766Y-96986272D03*
%TO.N,Net-(J3-Pin_5)*%
X151102766Y-96986272D03*
%TO.N,Net-(J3-Pin_4)*%
X151102766Y-94446272D03*
%TO.N,Net-(J3-Pin_3)*%
X151102766Y-91906272D03*
%TO.N,Net-(J4-Pin_5)*%
X151102766Y-89366272D03*
%TO.N,Net-(J4-Pin_4)*%
X151102766Y-86826272D03*
%TO.N,Net-(J4-Pin_3)*%
X151102766Y-84286272D03*
%TO.N,+5V*%
X151102766Y-81746272D03*
%TD*%
D11*
%TO.N,+5V*%
%TO.C,J3*%
X160244294Y-84964924D03*
D12*
%TO.N,GND*%
X160244294Y-87504924D03*
%TO.N,Net-(J3-Pin_3)*%
X160244294Y-90044924D03*
%TO.N,Net-(J3-Pin_4)*%
X160244294Y-92584924D03*
%TO.N,Net-(J3-Pin_5)*%
X160244294Y-95124924D03*
%TD*%
D10*
%TO.N,N/C*%
%TO.C,H1*%
X100000000Y-100000000D03*
%TD*%
%TO.N,N/C*%
%TO.C,H3*%
X160000000Y-80000000D03*
%TD*%
D21*
%TO.N,Net-(U2-DISCH)*%
%TO.C,RV1*%
X100915000Y-84095000D03*
%TO.N,Net-(R5-Pad1)*%
X103415000Y-94095000D03*
%TO.N,unconnected-(RV1-Pad3)*%
X105915000Y-84095000D03*
%TD*%
D22*
%TO.N,/{slash}HALT*%
X121888970Y-85399249D03*
X146000000Y-99750000D03*
%TO.N,Net-(J1-Pin_1)*%
X135325000Y-98085000D03*
%TO.N,+5V*%
X106250000Y-79250000D03*
X149000000Y-98500000D03*
%TO.N,GND*%
X102087208Y-81974307D03*
X107250000Y-90000000D03*
X107250000Y-88000000D03*
X106740829Y-80490644D03*
X107250000Y-92000000D03*
X135586530Y-80878076D03*
X99250000Y-90000000D03*
X147289115Y-80813899D03*
X117748116Y-80748899D03*
X153323596Y-82169756D03*
X99250000Y-92000000D03*
X111500000Y-84000000D03*
X128381477Y-81152977D03*
X116386627Y-80246602D03*
X99250000Y-88000000D03*
X103126731Y-79227539D03*
X106503396Y-81217785D03*
X155887642Y-79946500D03*
X118750000Y-86500000D03*
X126765111Y-83308132D03*
X109442795Y-82127224D03*
X117409124Y-100785153D03*
%TO.N,Net-(Q1-B)*%
X126053992Y-90374706D03*
%TO.N,/STEP*%
X128500000Y-87250000D03*
%TD*%
%TO.N,/{slash}HALT*%
D23*
X119605000Y-100145000D02*
X121250000Y-98500000D01*
X121250000Y-98500000D02*
X121250000Y-86038219D01*
X121250000Y-86038219D02*
X121888970Y-85399249D01*
X115525000Y-100145000D02*
X119605000Y-100145000D01*
%TO.N,/CLK*%
D24*
X114038799Y-98711201D02*
X112985000Y-99765000D01*
X112985000Y-99765000D02*
X112985000Y-100145000D01*
X119250000Y-96750000D02*
X117288799Y-98711201D01*
X119210102Y-94572982D02*
X119210102Y-96710102D01*
X117288799Y-98711201D02*
X114038799Y-98711201D01*
X119210102Y-96710102D02*
X119250000Y-96750000D01*
%TO.N,Net-(Q1-B)*%
D23*
X125445000Y-89765714D02*
X126053992Y-90374706D01*
X125445000Y-81115000D02*
X125445000Y-89765714D01*
%TO.N,Net-(U3A-D)*%
D24*
X134548005Y-84298005D02*
X135500000Y-85250000D01*
X136748005Y-96998005D02*
X139348848Y-96998005D01*
X135500000Y-85250000D02*
X135500000Y-95750000D01*
X131728848Y-84298005D02*
X134548005Y-84298005D01*
X135500000Y-95750000D02*
X136748005Y-96998005D01*
%TO.N,/STEP*%
X128750000Y-87500000D02*
X128500000Y-87250000D01*
X127589766Y-100077554D02*
X127589766Y-93577554D01*
X127589766Y-93577554D02*
X128750000Y-92417320D01*
X128750000Y-92417320D02*
X128750000Y-87500000D01*
%TO.N,Net-(J4-Pin_3)*%
X151102766Y-84286272D02*
X152786272Y-84286272D01*
X153750000Y-85250000D02*
X153750000Y-89250000D01*
X154537573Y-90037573D02*
X155571024Y-90037573D01*
X152786272Y-84286272D02*
X153750000Y-85250000D01*
X153750000Y-89250000D02*
X154537573Y-90037573D01*
%TO.N,Net-(J4-Pin_4)*%
X151102766Y-86826272D02*
X152826272Y-86826272D01*
X154077573Y-92577573D02*
X155571024Y-92577573D01*
X153250000Y-91750000D02*
X154077573Y-92577573D01*
X152826272Y-86826272D02*
X153250000Y-87250000D01*
X153250000Y-87250000D02*
X153250000Y-91750000D01*
%TO.N,Net-(J4-Pin_5)*%
X152750000Y-94250000D02*
X153617573Y-95117573D01*
X153617573Y-95117573D02*
X155571024Y-95117573D01*
X152366272Y-89366272D02*
X152750000Y-89750000D01*
X151102766Y-89366272D02*
X152366272Y-89366272D01*
X152750000Y-89750000D02*
X152750000Y-94250000D01*
%TD*%
%TA.AperFunction,Conductor*%
%TO.N,GND*%
G36*
X155105099Y-87690566D02*
G01*
X155170925Y-87804580D01*
X155264017Y-87897672D01*
X155378031Y-87963498D01*
X155441614Y-87980535D01*
X154809306Y-88612842D01*
X154809306Y-88612843D01*
X154863476Y-88652199D01*
X154863475Y-88652199D01*
X154872519Y-88656807D01*
X154923316Y-88704781D01*
X154940111Y-88772602D01*
X154917574Y-88838737D01*
X154872523Y-88877775D01*
X154863206Y-88882522D01*
X154691239Y-89007462D01*
X154586900Y-89111801D01*
X154578953Y-89116140D01*
X154573529Y-89123386D01*
X154548771Y-89132620D01*
X154525577Y-89145285D01*
X154516547Y-89144639D01*
X154508065Y-89147803D01*
X154482244Y-89142186D01*
X154455885Y-89140301D01*
X154446831Y-89134482D01*
X154439792Y-89132951D01*
X154411538Y-89111800D01*
X154351819Y-89052081D01*
X154318334Y-88990758D01*
X154315500Y-88964400D01*
X154315500Y-88382394D01*
X154335185Y-88315355D01*
X154387989Y-88269600D01*
X154449230Y-88258776D01*
X154455752Y-88259289D01*
X155088060Y-87626980D01*
X155105099Y-87690566D01*
G37*
%TD.AperFunction*%
%TA.AperFunction,Conductor*%
G36*
X154482831Y-86252912D02*
G01*
X154613541Y-86301664D01*
X154673151Y-86308073D01*
X154683709Y-86308072D01*
X154750747Y-86327752D01*
X154771396Y-86344391D01*
X155441615Y-87014610D01*
X155378031Y-87031648D01*
X155264017Y-87097474D01*
X155170925Y-87190566D01*
X155105099Y-87304580D01*
X155088061Y-87368164D01*
X154455751Y-86735854D01*
X154449228Y-86736368D01*
X154435618Y-86733508D01*
X154421853Y-86735488D01*
X154402099Y-86726467D01*
X154380851Y-86722003D01*
X154370947Y-86712240D01*
X154358297Y-86706463D01*
X154346557Y-86688196D01*
X154331094Y-86672952D01*
X154327267Y-86658179D01*
X154320523Y-86647685D01*
X154315500Y-86612750D01*
X154315500Y-86369095D01*
X154335185Y-86302056D01*
X154387989Y-86256301D01*
X154457147Y-86246357D01*
X154482831Y-86252912D01*
G37*
%TD.AperFunction*%
%TA.AperFunction,Conductor*%
G36*
X105741665Y-78519685D02*
G01*
X105787420Y-78572489D01*
X105797364Y-78641647D01*
X105768339Y-78705203D01*
X105762307Y-78711681D01*
X105686470Y-78787517D01*
X105686467Y-78787521D01*
X105607074Y-78906340D01*
X105607069Y-78906349D01*
X105552381Y-79038379D01*
X105552379Y-79038385D01*
X105524500Y-79178542D01*
X105524500Y-79178545D01*
X105524500Y-79321455D01*
X105524500Y-79321457D01*
X105524499Y-79321457D01*
X105552379Y-79461614D01*
X105552381Y-79461620D01*
X105607069Y-79593650D01*
X105607074Y-79593659D01*
X105686467Y-79712478D01*
X105686470Y-79712482D01*
X105787517Y-79813529D01*
X105787521Y-79813532D01*
X105906340Y-79892925D01*
X105906349Y-79892930D01*
X105910492Y-79894646D01*
X106038380Y-79947619D01*
X106038384Y-79947619D01*
X106038385Y-79947620D01*
X106178542Y-79975500D01*
X106178545Y-79975500D01*
X106321457Y-79975500D01*
X106415751Y-79956742D01*
X106461620Y-79947619D01*
X106593653Y-79892929D01*
X106712479Y-79813532D01*
X106813532Y-79712479D01*
X106892929Y-79593653D01*
X106947619Y-79461620D01*
X106956742Y-79415751D01*
X106975500Y-79321457D01*
X106975500Y-79178542D01*
X106947620Y-79038385D01*
X106947619Y-79038384D01*
X106947619Y-79038380D01*
X106892929Y-78906347D01*
X106892928Y-78906346D01*
X106892925Y-78906340D01*
X106813532Y-78787521D01*
X106813529Y-78787517D01*
X106737693Y-78711681D01*
X106704208Y-78650358D01*
X106709192Y-78580666D01*
X106751064Y-78524733D01*
X106816528Y-78500316D01*
X106825374Y-78500000D01*
X157883108Y-78500000D01*
X157950147Y-78519685D01*
X157995902Y-78572489D01*
X158005846Y-78641647D01*
X157988102Y-78689972D01*
X157895714Y-78837005D01*
X157778734Y-79079917D01*
X157689687Y-79334397D01*
X157689684Y-79334405D01*
X157629688Y-79597268D01*
X157629686Y-79597280D01*
X157599500Y-79865186D01*
X157599500Y-80134813D01*
X157629686Y-80402719D01*
X157629687Y-80402728D01*
X157629688Y-80402732D01*
X157639512Y-80445772D01*
X157689684Y-80665594D01*
X157689687Y-80665602D01*
X157778734Y-80920082D01*
X157895714Y-81162994D01*
X157895716Y-81162997D01*
X158039162Y-81391289D01*
X158207266Y-81602085D01*
X158397915Y-81792734D01*
X158608711Y-81960838D01*
X158837003Y-82104284D01*
X159079921Y-82221267D01*
X159271049Y-82288145D01*
X159334397Y-82310312D01*
X159334405Y-82310315D01*
X159334408Y-82310315D01*
X159334409Y-82310316D01*
X159597268Y-82370312D01*
X159865187Y-82400499D01*
X159865188Y-82400500D01*
X159865191Y-82400500D01*
X160134812Y-82400500D01*
X160134812Y-82400499D01*
X160402732Y-82370312D01*
X160665591Y-82310316D01*
X160920079Y-82221267D01*
X161162997Y-82104284D01*
X161310028Y-82011897D01*
X161377264Y-81992897D01*
X161444099Y-82013264D01*
X161489314Y-82066532D01*
X161500000Y-82116891D01*
X161500000Y-83553469D01*
X161480315Y-83620508D01*
X161427511Y-83666263D01*
X161358353Y-83676207D01*
X161332667Y-83669651D01*
X161201776Y-83620832D01*
X161201777Y-83620832D01*
X161142177Y-83614425D01*
X161142175Y-83614424D01*
X161142167Y-83614424D01*
X161142158Y-83614424D01*
X159346423Y-83614424D01*
X159346417Y-83614425D01*
X159286810Y-83620832D01*
X159151965Y-83671126D01*
X159151958Y-83671130D01*
X159036749Y-83757376D01*
X159036746Y-83757379D01*
X158950500Y-83872588D01*
X158950496Y-83872595D01*
X158900202Y-84007441D01*
X158893795Y-84067040D01*
X158893794Y-84067059D01*
X158893794Y-85862794D01*
X158893795Y-85862800D01*
X158900202Y-85922407D01*
X158950496Y-86057252D01*
X158950500Y-86057259D01*
X159036746Y-86172468D01*
X159036749Y-86172471D01*
X159151958Y-86258717D01*
X159151965Y-86258721D01*
X159181978Y-86269915D01*
X159286811Y-86309015D01*
X159346421Y-86315424D01*
X159356979Y-86315423D01*
X159424017Y-86335103D01*
X159444666Y-86351742D01*
X160114885Y-87021961D01*
X160051301Y-87038999D01*
X159937287Y-87104825D01*
X159844195Y-87197917D01*
X159778369Y-87311931D01*
X159761331Y-87375515D01*
X159129022Y-86743206D01*
X159129021Y-86743206D01*
X159089674Y-86797363D01*
X158993198Y-86986706D01*
X158927536Y-87188793D01*
X158927536Y-87188796D01*
X158894294Y-87398677D01*
X158894294Y-87611170D01*
X158927536Y-87821051D01*
X158927536Y-87821054D01*
X158993198Y-88023141D01*
X159089669Y-88212474D01*
X159129022Y-88266640D01*
X159761330Y-87634331D01*
X159778369Y-87697917D01*
X159844195Y-87811931D01*
X159937287Y-87905023D01*
X160051301Y-87970849D01*
X160114884Y-87987886D01*
X159482576Y-88620193D01*
X159482576Y-88620194D01*
X159536746Y-88659550D01*
X159536745Y-88659550D01*
X159545789Y-88664158D01*
X159596586Y-88712132D01*
X159613381Y-88779953D01*
X159590844Y-88846088D01*
X159545793Y-88885126D01*
X159536476Y-88889873D01*
X159364507Y-89014814D01*
X159214184Y-89165137D01*
X159089245Y-89337103D01*
X158992738Y-89526509D01*
X158927047Y-89728684D01*
X158893794Y-89938637D01*
X158893794Y-90151210D01*
X158925883Y-90353816D01*
X158927048Y-90361167D01*
X158990349Y-90555987D01*
X158992738Y-90563338D01*
X159089245Y-90752744D01*
X159214184Y-90924710D01*
X159364507Y-91075033D01*
X159536476Y-91199974D01*
X159545240Y-91204440D01*
X159596036Y-91252415D01*
X159612830Y-91320236D01*
X159590292Y-91386371D01*
X159545240Y-91425408D01*
X159536476Y-91429873D01*
X159364507Y-91554814D01*
X159214184Y-91705137D01*
X159089245Y-91877103D01*
X158992738Y-92066509D01*
X158927047Y-92268684D01*
X158897841Y-92453083D01*
X158893794Y-92478637D01*
X158893794Y-92691211D01*
X158903657Y-92753485D01*
X158925883Y-92893816D01*
X158927048Y-92901167D01*
X158990349Y-93095987D01*
X158992738Y-93103338D01*
X159089245Y-93292744D01*
X159214184Y-93464710D01*
X159364507Y-93615033D01*
X159536476Y-93739974D01*
X159545240Y-93744440D01*
X159596036Y-93792415D01*
X159612830Y-93860236D01*
X159590292Y-93926371D01*
X159545240Y-93965408D01*
X159536476Y-93969873D01*
X159364507Y-94094814D01*
X159214184Y-94245137D01*
X159089245Y-94417103D01*
X158992738Y-94606509D01*
X158927047Y-94808684D01*
X158903521Y-94957224D01*
X158893794Y-95018637D01*
X158893794Y-95231211D01*
X158903657Y-95293485D01*
X158925883Y-95433816D01*
X158927048Y-95441167D01*
X158990349Y-95635987D01*
X158992738Y-95643338D01*
X159089245Y-95832744D01*
X159214184Y-96004710D01*
X159364507Y-96155033D01*
X159536473Y-96279972D01*
X159536475Y-96279973D01*
X159536478Y-96279975D01*
X159725882Y-96376481D01*
X159928051Y-96442170D01*
X160138007Y-96475424D01*
X160138008Y-96475424D01*
X160350580Y-96475424D01*
X160350581Y-96475424D01*
X160560537Y-96442170D01*
X160762706Y-96376481D01*
X160952110Y-96279975D01*
X160979124Y-96260348D01*
X161124080Y-96155033D01*
X161124082Y-96155030D01*
X161124086Y-96155028D01*
X161274398Y-96004716D01*
X161274402Y-96004710D01*
X161275681Y-96002951D01*
X161276340Y-96002442D01*
X161277570Y-96001003D01*
X161277872Y-96001261D01*
X161331010Y-95960284D01*
X161400624Y-95954304D01*
X161462419Y-95986910D01*
X161496777Y-96047748D01*
X161500000Y-96075835D01*
X161500000Y-97883108D01*
X161480315Y-97950147D01*
X161427511Y-97995902D01*
X161358353Y-98005846D01*
X161310028Y-97988102D01*
X161162994Y-97895714D01*
X160920082Y-97778734D01*
X160665602Y-97689687D01*
X160665594Y-97689684D01*
X160468446Y-97644687D01*
X160402732Y-97629688D01*
X160402728Y-97629687D01*
X160402719Y-97629686D01*
X160134813Y-97599500D01*
X160134809Y-97599500D01*
X159865191Y-97599500D01*
X159865186Y-97599500D01*
X159597280Y-97629686D01*
X159597268Y-97629688D01*
X159334405Y-97689684D01*
X159334397Y-97689687D01*
X159079917Y-97778734D01*
X158837005Y-97895714D01*
X158608712Y-98039161D01*
X158397915Y-98207265D01*
X158207265Y-98397915D01*
X158039163Y-98608710D01*
X157895714Y-98837005D01*
X157778734Y-99079917D01*
X157689687Y-99334397D01*
X157689684Y-99334405D01*
X157629688Y-99597268D01*
X157629686Y-99597280D01*
X157599500Y-99865186D01*
X157599500Y-100134813D01*
X157629686Y-100402719D01*
X157629688Y-100402731D01*
X157689684Y-100665594D01*
X157689687Y-100665602D01*
X157778734Y-100920082D01*
X157895714Y-101162994D01*
X157988102Y-101310028D01*
X158007102Y-101377265D01*
X157986734Y-101444100D01*
X157933466Y-101489314D01*
X157883108Y-101500000D01*
X128566372Y-101500000D01*
X128499333Y-101480315D01*
X128453578Y-101427511D01*
X128443634Y-101358353D01*
X128472659Y-101294797D01*
X128493487Y-101275682D01*
X128514697Y-101260272D01*
X128567276Y-101222071D01*
X128734283Y-101055064D01*
X128873109Y-100863987D01*
X128980334Y-100653546D01*
X129053319Y-100428922D01*
X129071595Y-100313532D01*
X129090266Y-100195651D01*
X129090266Y-99959456D01*
X129068409Y-99821457D01*
X145274499Y-99821457D01*
X145302379Y-99961614D01*
X145302381Y-99961620D01*
X145357069Y-100093650D01*
X145357074Y-100093659D01*
X145436467Y-100212478D01*
X145436470Y-100212482D01*
X145537517Y-100313529D01*
X145537521Y-100313532D01*
X145656340Y-100392925D01*
X145656346Y-100392928D01*
X145656347Y-100392929D01*
X145788380Y-100447619D01*
X145788384Y-100447619D01*
X145788385Y-100447620D01*
X145928542Y-100475500D01*
X145928545Y-100475500D01*
X146071457Y-100475500D01*
X146189560Y-100452007D01*
X146211620Y-100447619D01*
X146343653Y-100392929D01*
X146462479Y-100313532D01*
X146563532Y-100212479D01*
X146642929Y-100093653D01*
X146697619Y-99961620D01*
X146716801Y-99865186D01*
X146725500Y-99821457D01*
X146725500Y-99678542D01*
X146697620Y-99538385D01*
X146697619Y-99538384D01*
X146697619Y-99538380D01*
X146642929Y-99406347D01*
X146642928Y-99406346D01*
X146642925Y-99406340D01*
X146563532Y-99287521D01*
X146563529Y-99287517D01*
X146462482Y-99186470D01*
X146462478Y-99186467D01*
X146343659Y-99107074D01*
X146343650Y-99107069D01*
X146211620Y-99052381D01*
X146211614Y-99052379D01*
X146071457Y-99024500D01*
X146071455Y-99024500D01*
X145928545Y-99024500D01*
X145928543Y-99024500D01*
X145788385Y-99052379D01*
X145788379Y-99052381D01*
X145656349Y-99107069D01*
X145656340Y-99107074D01*
X145537521Y-99186467D01*
X145537517Y-99186470D01*
X145436470Y-99287517D01*
X145436467Y-99287521D01*
X145357074Y-99406340D01*
X145357069Y-99406349D01*
X145302381Y-99538379D01*
X145302379Y-99538385D01*
X145274500Y-99678542D01*
X145274500Y-99678545D01*
X145274500Y-99821455D01*
X145274500Y-99821457D01*
X145274499Y-99821457D01*
X129068409Y-99821457D01*
X129056283Y-99744901D01*
X129053319Y-99726186D01*
X129053318Y-99726182D01*
X129053318Y-99726181D01*
X129048311Y-99710771D01*
X129005135Y-99577892D01*
X128980334Y-99501562D01*
X128980332Y-99501559D01*
X128980332Y-99501557D01*
X128873108Y-99291120D01*
X128870493Y-99287521D01*
X128734283Y-99100044D01*
X128567276Y-98933037D01*
X128376199Y-98794211D01*
X128222969Y-98716136D01*
X128172175Y-98668164D01*
X128155266Y-98605653D01*
X128155266Y-95049455D01*
X128174951Y-94982416D01*
X128222969Y-94938971D01*
X128376199Y-94860897D01*
X128567276Y-94722071D01*
X128734283Y-94555064D01*
X128873109Y-94363987D01*
X128980334Y-94153546D01*
X129053319Y-93928922D01*
X129055138Y-93917436D01*
X129090266Y-93695651D01*
X129090266Y-93459456D01*
X129053319Y-93226185D01*
X129016790Y-93113762D01*
X129000175Y-93062629D01*
X128998181Y-92992788D01*
X129030422Y-92936634D01*
X129202513Y-92764545D01*
X129267477Y-92652023D01*
X129276962Y-92635595D01*
X129315500Y-92491770D01*
X129315500Y-87425550D01*
X129276962Y-87281725D01*
X129239997Y-87217699D01*
X129225768Y-87179892D01*
X129197620Y-87038387D01*
X129197620Y-87038385D01*
X129197619Y-87038380D01*
X129155318Y-86936258D01*
X129142930Y-86906349D01*
X129142925Y-86906340D01*
X129063532Y-86787521D01*
X129063529Y-86787517D01*
X128962482Y-86686470D01*
X128962478Y-86686467D01*
X128843659Y-86607074D01*
X128843650Y-86607069D01*
X128711620Y-86552381D01*
X128711614Y-86552379D01*
X128571457Y-86524500D01*
X128571455Y-86524500D01*
X128428545Y-86524500D01*
X128428543Y-86524500D01*
X128288385Y-86552379D01*
X128288379Y-86552381D01*
X128156349Y-86607069D01*
X128156340Y-86607074D01*
X128037521Y-86686467D01*
X128037517Y-86686470D01*
X127936470Y-86787517D01*
X127936467Y-86787521D01*
X127857074Y-86906340D01*
X127857069Y-86906349D01*
X127802381Y-87038379D01*
X127802379Y-87038385D01*
X127774500Y-87178542D01*
X127774500Y-87178545D01*
X127774500Y-87321455D01*
X127774500Y-87321457D01*
X127774499Y-87321457D01*
X127802379Y-87461614D01*
X127802381Y-87461620D01*
X127857069Y-87593650D01*
X127857074Y-87593659D01*
X127936467Y-87712478D01*
X127936470Y-87712482D01*
X128037518Y-87813530D01*
X128037521Y-87813532D01*
X128129391Y-87874918D01*
X128174196Y-87928528D01*
X128184500Y-87978019D01*
X128184500Y-92022403D01*
X128164815Y-92089442D01*
X128112011Y-92135197D01*
X128042853Y-92145141D01*
X128022182Y-92140334D01*
X127941137Y-92114001D01*
X127707863Y-92077054D01*
X127707858Y-92077054D01*
X127471674Y-92077054D01*
X127471669Y-92077054D01*
X127238397Y-92114000D01*
X127013769Y-92186987D01*
X126803332Y-92294211D01*
X126694316Y-92373416D01*
X126612256Y-92433037D01*
X126612254Y-92433039D01*
X126612253Y-92433039D01*
X126445251Y-92600041D01*
X126445251Y-92600042D01*
X126445249Y-92600044D01*
X126434210Y-92615238D01*
X126306423Y-92791120D01*
X126199199Y-93001557D01*
X126126212Y-93226185D01*
X126089266Y-93459456D01*
X126089266Y-93695651D01*
X126126212Y-93928922D01*
X126199199Y-94153550D01*
X126285647Y-94323212D01*
X126306423Y-94363987D01*
X126445249Y-94555064D01*
X126612256Y-94722071D01*
X126803333Y-94860897D01*
X126956562Y-94938971D01*
X127007357Y-94986944D01*
X127024266Y-95049455D01*
X127024266Y-98605653D01*
X127004581Y-98672692D01*
X126956562Y-98716136D01*
X126878241Y-98756043D01*
X126803332Y-98794211D01*
X126757165Y-98827754D01*
X126612256Y-98933037D01*
X126612254Y-98933039D01*
X126612253Y-98933039D01*
X126445251Y-99100041D01*
X126445251Y-99100042D01*
X126445249Y-99100044D01*
X126385628Y-99182104D01*
X126306423Y-99291120D01*
X126199199Y-99501557D01*
X126126212Y-99726185D01*
X126089266Y-99959456D01*
X126089266Y-100195651D01*
X126126212Y-100428922D01*
X126199199Y-100653550D01*
X126273310Y-100798999D01*
X126306423Y-100863987D01*
X126445249Y-101055064D01*
X126612256Y-101222071D01*
X126633260Y-101237331D01*
X126686045Y-101275682D01*
X126728711Y-101331012D01*
X126734690Y-101400625D01*
X126702084Y-101462420D01*
X126641245Y-101496778D01*
X126613160Y-101500000D01*
X124066372Y-101500000D01*
X123999333Y-101480315D01*
X123953578Y-101427511D01*
X123943634Y-101358353D01*
X123972659Y-101294797D01*
X123993487Y-101275682D01*
X124014697Y-101260272D01*
X124067276Y-101222071D01*
X124234283Y-101055064D01*
X124373109Y-100863987D01*
X124480334Y-100653546D01*
X124553319Y-100428922D01*
X124571595Y-100313532D01*
X124590266Y-100195651D01*
X124590266Y-99959456D01*
X124553319Y-99726185D01*
X124511431Y-99597268D01*
X124480334Y-99501562D01*
X124480332Y-99501559D01*
X124480332Y-99501557D01*
X124373108Y-99291120D01*
X124370493Y-99287521D01*
X124234283Y-99100044D01*
X124067276Y-98933037D01*
X123876199Y-98794211D01*
X123870969Y-98791546D01*
X123665762Y-98686987D01*
X123441134Y-98614000D01*
X123207863Y-98577054D01*
X123207858Y-98577054D01*
X122971674Y-98577054D01*
X122971669Y-98577054D01*
X122738397Y-98614000D01*
X122513769Y-98686987D01*
X122303332Y-98794211D01*
X122257165Y-98827754D01*
X122112256Y-98933037D01*
X122112254Y-98933039D01*
X122112253Y-98933039D01*
X121945251Y-99100041D01*
X121945251Y-99100042D01*
X121945249Y-99100044D01*
X121885628Y-99182104D01*
X121806423Y-99291120D01*
X121699199Y-99501557D01*
X121626212Y-99726185D01*
X121589266Y-99959456D01*
X121589266Y-100195651D01*
X121626212Y-100428922D01*
X121699199Y-100653550D01*
X121773310Y-100798999D01*
X121806423Y-100863987D01*
X121945249Y-101055064D01*
X122112256Y-101222071D01*
X122133260Y-101237331D01*
X122186045Y-101275682D01*
X122228711Y-101331012D01*
X122234690Y-101400625D01*
X122202084Y-101462420D01*
X122141245Y-101496778D01*
X122113160Y-101500000D01*
X116339243Y-101500000D01*
X116272204Y-101480315D01*
X116226449Y-101427511D01*
X116216505Y-101358353D01*
X116245530Y-101294797D01*
X116266357Y-101275682D01*
X116404792Y-101175104D01*
X116555104Y-101024792D01*
X116555106Y-101024788D01*
X116555109Y-101024786D01*
X116640890Y-100906717D01*
X116680051Y-100852816D01*
X116692590Y-100828205D01*
X116740564Y-100777410D01*
X116803075Y-100760500D01*
X119665623Y-100760500D01*
X119665623Y-100760499D01*
X119732441Y-100747209D01*
X119784535Y-100736847D01*
X119896549Y-100690449D01*
X119896549Y-100690448D01*
X119896551Y-100690448D01*
X119924218Y-100671962D01*
X119972646Y-100639602D01*
X119997359Y-100623090D01*
X121728090Y-98892359D01*
X121795449Y-98791549D01*
X121841847Y-98679535D01*
X121854882Y-98614001D01*
X121855934Y-98608714D01*
X121855934Y-98608710D01*
X121865500Y-98560621D01*
X121865500Y-94774677D01*
X121885185Y-94707638D01*
X121937989Y-94661883D01*
X122007147Y-94651939D01*
X122070703Y-94680964D01*
X122077181Y-94686996D01*
X122112256Y-94722071D01*
X122303333Y-94860897D01*
X122358930Y-94889225D01*
X122513769Y-94968120D01*
X122513771Y-94968120D01*
X122513774Y-94968122D01*
X122634178Y-95007243D01*
X122738397Y-95041107D01*
X122971669Y-95078054D01*
X122971674Y-95078054D01*
X123207863Y-95078054D01*
X123441134Y-95041107D01*
X123665758Y-94968122D01*
X123876199Y-94860897D01*
X124067276Y-94722071D01*
X124234283Y-94555064D01*
X124373109Y-94363987D01*
X124480334Y-94153546D01*
X124553319Y-93928922D01*
X124555138Y-93917436D01*
X124590266Y-93695651D01*
X124590266Y-93459456D01*
X124553319Y-93226185D01*
X124489668Y-93030289D01*
X124480334Y-93001562D01*
X124480332Y-93001559D01*
X124480332Y-93001557D01*
X124416053Y-92875404D01*
X124373109Y-92791121D01*
X124234283Y-92600044D01*
X124067276Y-92433037D01*
X123876199Y-92294211D01*
X123665762Y-92186987D01*
X123441134Y-92114000D01*
X123207863Y-92077054D01*
X123207858Y-92077054D01*
X122971674Y-92077054D01*
X122971669Y-92077054D01*
X122738397Y-92114000D01*
X122513769Y-92186987D01*
X122303332Y-92294211D01*
X122194316Y-92373416D01*
X122112256Y-92433037D01*
X122112254Y-92433039D01*
X122112253Y-92433039D01*
X122077181Y-92468112D01*
X122015858Y-92501597D01*
X121946166Y-92496613D01*
X121890233Y-92454741D01*
X121865816Y-92389277D01*
X121865500Y-92380431D01*
X121865500Y-86344529D01*
X121874145Y-86315085D01*
X121880668Y-86285103D01*
X121884422Y-86280087D01*
X121885185Y-86277490D01*
X121901810Y-86256857D01*
X122025572Y-86133094D01*
X122086891Y-86099612D01*
X122088928Y-86099187D01*
X122100590Y-86096868D01*
X122232623Y-86042178D01*
X122351449Y-85962781D01*
X122452502Y-85861728D01*
X122531899Y-85742902D01*
X122586589Y-85610869D01*
X122609327Y-85496560D01*
X122614470Y-85470706D01*
X122614470Y-85327791D01*
X122586590Y-85187634D01*
X122586589Y-85187633D01*
X122586589Y-85187629D01*
X122531899Y-85055596D01*
X122531898Y-85055595D01*
X122531895Y-85055589D01*
X122452502Y-84936770D01*
X122452499Y-84936766D01*
X122351452Y-84835719D01*
X122351448Y-84835716D01*
X122232629Y-84756323D01*
X122232620Y-84756318D01*
X122100590Y-84701630D01*
X122100584Y-84701628D01*
X121960427Y-84673749D01*
X121960425Y-84673749D01*
X121817515Y-84673749D01*
X121817513Y-84673749D01*
X121677355Y-84701628D01*
X121677349Y-84701630D01*
X121545319Y-84756318D01*
X121545310Y-84756323D01*
X121426491Y-84835716D01*
X121426487Y-84835719D01*
X121325440Y-84936766D01*
X121325437Y-84936770D01*
X121246044Y-85055589D01*
X121246039Y-85055598D01*
X121191350Y-85187630D01*
X121191349Y-85187632D01*
X121189057Y-85199159D01*
X121156671Y-85261069D01*
X121155121Y-85262647D01*
X120771912Y-85645856D01*
X120771909Y-85645860D01*
X120718551Y-85725717D01*
X120704551Y-85746669D01*
X120704550Y-85746671D01*
X120659499Y-85855435D01*
X120658153Y-85858682D01*
X120636923Y-85965419D01*
X120636922Y-85965420D01*
X120634500Y-85977596D01*
X120634500Y-93877291D01*
X120614815Y-93944330D01*
X120562011Y-93990085D01*
X120492853Y-94000029D01*
X120429297Y-93971004D01*
X120400015Y-93933586D01*
X120388040Y-93910085D01*
X120365153Y-93865166D01*
X120344312Y-93836481D01*
X120240211Y-93693195D01*
X120089888Y-93542872D01*
X119917922Y-93417933D01*
X119728516Y-93321426D01*
X119728515Y-93321425D01*
X119728514Y-93321425D01*
X119526345Y-93255736D01*
X119526343Y-93255735D01*
X119526342Y-93255735D01*
X119365059Y-93230190D01*
X119316389Y-93222482D01*
X119103815Y-93222482D01*
X119055144Y-93230190D01*
X118893862Y-93255735D01*
X118691687Y-93321426D01*
X118502281Y-93417933D01*
X118330317Y-93542871D01*
X118216775Y-93656413D01*
X118155452Y-93689897D01*
X118085760Y-93684913D01*
X118029827Y-93643041D01*
X118012912Y-93612064D01*
X117963899Y-93480653D01*
X117963895Y-93480646D01*
X117877649Y-93365437D01*
X117877646Y-93365434D01*
X117762437Y-93279188D01*
X117762430Y-93279184D01*
X117627584Y-93228890D01*
X117627585Y-93228890D01*
X117567985Y-93222483D01*
X117567983Y-93222482D01*
X117567975Y-93222482D01*
X117567966Y-93222482D01*
X115772231Y-93222482D01*
X115772225Y-93222483D01*
X115712618Y-93228890D01*
X115577773Y-93279184D01*
X115577766Y-93279188D01*
X115462557Y-93365434D01*
X115462554Y-93365437D01*
X115376308Y-93480646D01*
X115376304Y-93480653D01*
X115326010Y-93615499D01*
X115319603Y-93675098D01*
X115319602Y-93675117D01*
X115319602Y-95470852D01*
X115319603Y-95470858D01*
X115326010Y-95530465D01*
X115376304Y-95665310D01*
X115376308Y-95665317D01*
X115462554Y-95780526D01*
X115462557Y-95780529D01*
X115577766Y-95866775D01*
X115577773Y-95866779D01*
X115712619Y-95917073D01*
X115712618Y-95917073D01*
X115719546Y-95917817D01*
X115772229Y-95923482D01*
X117567974Y-95923481D01*
X117627585Y-95917073D01*
X117762433Y-95866778D01*
X117877648Y-95780528D01*
X117963898Y-95665313D01*
X118012912Y-95533898D01*
X118054783Y-95477966D01*
X118120247Y-95453548D01*
X118188520Y-95468399D01*
X118216775Y-95489551D01*
X118330315Y-95603091D01*
X118493408Y-95721583D01*
X118502286Y-95728033D01*
X118576896Y-95766048D01*
X118627692Y-95814022D01*
X118644602Y-95876533D01*
X118644602Y-96504298D01*
X118624917Y-96571337D01*
X118608283Y-96591979D01*
X117090880Y-98109382D01*
X117029557Y-98142867D01*
X117003199Y-98145701D01*
X114113249Y-98145701D01*
X113964349Y-98145701D01*
X113878054Y-98168823D01*
X113820522Y-98184239D01*
X113820521Y-98184240D01*
X113691577Y-98258685D01*
X113691572Y-98258689D01*
X113191479Y-98758781D01*
X113130156Y-98792266D01*
X113094088Y-98794719D01*
X113091300Y-98794500D01*
X113091287Y-98794500D01*
X112878713Y-98794500D01*
X112830042Y-98802208D01*
X112668760Y-98827753D01*
X112466585Y-98893444D01*
X112277179Y-98989951D01*
X112105213Y-99114890D01*
X111954890Y-99265213D01*
X111829949Y-99437182D01*
X111825484Y-99445946D01*
X111777509Y-99496742D01*
X111709688Y-99513536D01*
X111643553Y-99490998D01*
X111604516Y-99445946D01*
X111600050Y-99437182D01*
X111475109Y-99265213D01*
X111324786Y-99114890D01*
X111152820Y-98989951D01*
X110963414Y-98893444D01*
X110963413Y-98893443D01*
X110963412Y-98893443D01*
X110761243Y-98827754D01*
X110761241Y-98827753D01*
X110761240Y-98827753D01*
X110599957Y-98802208D01*
X110551287Y-98794500D01*
X110338713Y-98794500D01*
X110290042Y-98802208D01*
X110128760Y-98827753D01*
X109926585Y-98893444D01*
X109737179Y-98989951D01*
X109565213Y-99114890D01*
X109414890Y-99265213D01*
X109289949Y-99437182D01*
X109285202Y-99446499D01*
X109237227Y-99497293D01*
X109169405Y-99514087D01*
X109103271Y-99491548D01*
X109064234Y-99446495D01*
X109059626Y-99437452D01*
X109020270Y-99383282D01*
X109020269Y-99383282D01*
X108387962Y-100015590D01*
X108370925Y-99952007D01*
X108305099Y-99837993D01*
X108212007Y-99744901D01*
X108097993Y-99679075D01*
X108034409Y-99662037D01*
X108666716Y-99029728D01*
X108612550Y-98990375D01*
X108423217Y-98893904D01*
X108221129Y-98828242D01*
X108011246Y-98795000D01*
X107798754Y-98795000D01*
X107588872Y-98828242D01*
X107588869Y-98828242D01*
X107386782Y-98893904D01*
X107197439Y-98990380D01*
X107143282Y-99029727D01*
X107143282Y-99029728D01*
X107775591Y-99662037D01*
X107712007Y-99679075D01*
X107597993Y-99744901D01*
X107504901Y-99837993D01*
X107439075Y-99952007D01*
X107422037Y-100015591D01*
X106751818Y-99345372D01*
X106718333Y-99284049D01*
X106718330Y-99284036D01*
X106715499Y-99271015D01*
X106715499Y-99247128D01*
X106709091Y-99187517D01*
X106676465Y-99100041D01*
X106658798Y-99052673D01*
X106658793Y-99052664D01*
X106572547Y-98937455D01*
X106572544Y-98937452D01*
X106457335Y-98851206D01*
X106457328Y-98851202D01*
X106322482Y-98800908D01*
X106322483Y-98800908D01*
X106262883Y-98794501D01*
X106262881Y-98794500D01*
X106262873Y-98794500D01*
X106262864Y-98794500D01*
X104467129Y-98794500D01*
X104467123Y-98794501D01*
X104407516Y-98800908D01*
X104272671Y-98851202D01*
X104272664Y-98851206D01*
X104157455Y-98937452D01*
X104157452Y-98937455D01*
X104071206Y-99052664D01*
X104071202Y-99052671D01*
X104020908Y-99187517D01*
X104014501Y-99247116D01*
X104014500Y-99247135D01*
X104014500Y-101042870D01*
X104014501Y-101042876D01*
X104020908Y-101102483D01*
X104071202Y-101237328D01*
X104071204Y-101237331D01*
X104118156Y-101300051D01*
X104119382Y-101301688D01*
X104143800Y-101367153D01*
X104128949Y-101435426D01*
X104079544Y-101484832D01*
X104020116Y-101500000D01*
X102116891Y-101500000D01*
X102049852Y-101480315D01*
X102004097Y-101427511D01*
X101994153Y-101358353D01*
X102011898Y-101310028D01*
X102104284Y-101162997D01*
X102221267Y-100920079D01*
X102310316Y-100665591D01*
X102370312Y-100402732D01*
X102400500Y-100134809D01*
X102400500Y-99865191D01*
X102370312Y-99597268D01*
X102310316Y-99334409D01*
X102221267Y-99079921D01*
X102107489Y-98843659D01*
X102104285Y-98837005D01*
X102083116Y-98803315D01*
X101960838Y-98608711D01*
X101792734Y-98397915D01*
X101602085Y-98207266D01*
X101582302Y-98191490D01*
X101538237Y-98156349D01*
X101391289Y-98039162D01*
X101162997Y-97895716D01*
X101162994Y-97895714D01*
X100920082Y-97778734D01*
X100665602Y-97689687D01*
X100665594Y-97689684D01*
X100468446Y-97644687D01*
X100402732Y-97629688D01*
X100402728Y-97629687D01*
X100402719Y-97629686D01*
X100134813Y-97599500D01*
X100134809Y-97599500D01*
X99865191Y-97599500D01*
X99865186Y-97599500D01*
X99597280Y-97629686D01*
X99597268Y-97629688D01*
X99334405Y-97689684D01*
X99334397Y-97689687D01*
X99079917Y-97778734D01*
X98837007Y-97895713D01*
X98797034Y-97920830D01*
X98766097Y-97929571D01*
X98735641Y-97939750D01*
X98732710Y-97939005D01*
X98729797Y-97939829D01*
X98699052Y-97930459D01*
X98667921Y-97922554D01*
X98664749Y-97920004D01*
X98662962Y-97919460D01*
X98640414Y-97900444D01*
X98533349Y-97785731D01*
X98501997Y-97723290D01*
X98500000Y-97701124D01*
X98500000Y-93985502D01*
X101744500Y-93985502D01*
X101744500Y-94204497D01*
X101752825Y-94267725D01*
X101773083Y-94421598D01*
X101773084Y-94421600D01*
X101829758Y-94633115D01*
X101836752Y-94650000D01*
X101913560Y-94835428D01*
X101913562Y-94835433D01*
X101913565Y-94835438D01*
X102023049Y-95025070D01*
X102156355Y-95198798D01*
X102156361Y-95198805D01*
X102311194Y-95353638D01*
X102311201Y-95353644D01*
X102484929Y-95486950D01*
X102674561Y-95596434D01*
X102674563Y-95596434D01*
X102674572Y-95596440D01*
X102876883Y-95680241D01*
X103088402Y-95736917D01*
X103305510Y-95765500D01*
X103305517Y-95765500D01*
X103524483Y-95765500D01*
X103524490Y-95765500D01*
X103741598Y-95736917D01*
X103953117Y-95680241D01*
X104155428Y-95596440D01*
X104345071Y-95486950D01*
X104518800Y-95353643D01*
X104572457Y-95299986D01*
X109754802Y-95299986D01*
X109765295Y-95402697D01*
X109820442Y-95569119D01*
X109820444Y-95569124D01*
X109912485Y-95718345D01*
X110036455Y-95842315D01*
X110185676Y-95934356D01*
X110185681Y-95934358D01*
X110352103Y-95989505D01*
X110352110Y-95989506D01*
X110454820Y-95999999D01*
X110604800Y-95999999D01*
X110604801Y-95999998D01*
X110604801Y-95150000D01*
X109754802Y-95150000D01*
X109754802Y-95299986D01*
X104572457Y-95299986D01*
X104673643Y-95198800D01*
X104806950Y-95025071D01*
X104901962Y-94860504D01*
X110554801Y-94860504D01*
X110554801Y-94939496D01*
X110575245Y-95015796D01*
X110614741Y-95084205D01*
X110670596Y-95140060D01*
X110739005Y-95179556D01*
X110815305Y-95200000D01*
X110894297Y-95200000D01*
X110970597Y-95179556D01*
X111039006Y-95140060D01*
X111094861Y-95084205D01*
X111104801Y-95066988D01*
X111104801Y-95999999D01*
X111254773Y-95999999D01*
X111254787Y-95999998D01*
X111357498Y-95989505D01*
X111523920Y-95934358D01*
X111523925Y-95934356D01*
X111673146Y-95842315D01*
X111797116Y-95718345D01*
X111836746Y-95654094D01*
X111888694Y-95607368D01*
X111957656Y-95596145D01*
X112021738Y-95623988D01*
X112029967Y-95631508D01*
X112137873Y-95739414D01*
X112278013Y-95841232D01*
X112432356Y-95919873D01*
X112597100Y-95973402D01*
X112768190Y-96000500D01*
X112768191Y-96000500D01*
X112941411Y-96000500D01*
X112941412Y-96000500D01*
X113112502Y-95973402D01*
X113277246Y-95919873D01*
X113431589Y-95841232D01*
X113571729Y-95739414D01*
X113694215Y-95616928D01*
X113796033Y-95476788D01*
X113874674Y-95322445D01*
X113928203Y-95157701D01*
X113955301Y-94986611D01*
X113955301Y-94813389D01*
X113928203Y-94642299D01*
X113874674Y-94477555D01*
X113796033Y-94323212D01*
X113694215Y-94183072D01*
X113571729Y-94060586D01*
X113431589Y-93958768D01*
X113277246Y-93880127D01*
X113112502Y-93826598D01*
X113112500Y-93826597D01*
X113112499Y-93826597D01*
X112981072Y-93805781D01*
X112941412Y-93799500D01*
X112768190Y-93799500D01*
X112728529Y-93805781D01*
X112597103Y-93826597D01*
X112432353Y-93880128D01*
X112278012Y-93958768D01*
X112137874Y-94060585D01*
X112029967Y-94168492D01*
X111968644Y-94201976D01*
X111898952Y-94196992D01*
X111843019Y-94155120D01*
X111836747Y-94145906D01*
X111797118Y-94081656D01*
X111673146Y-93957684D01*
X111523925Y-93865643D01*
X111523920Y-93865641D01*
X111357498Y-93810494D01*
X111357491Y-93810493D01*
X111254787Y-93800000D01*
X111104801Y-93800000D01*
X111104801Y-94733011D01*
X111094861Y-94715795D01*
X111039006Y-94659940D01*
X110970597Y-94620444D01*
X110894297Y-94600000D01*
X110815305Y-94600000D01*
X110739005Y-94620444D01*
X110670596Y-94659940D01*
X110614741Y-94715795D01*
X110575245Y-94784204D01*
X110554801Y-94860504D01*
X104901962Y-94860504D01*
X104916440Y-94835428D01*
X105000241Y-94633117D01*
X105035906Y-94500013D01*
X109754801Y-94500013D01*
X109754801Y-94650000D01*
X110604801Y-94650000D01*
X110604801Y-93800000D01*
X110454828Y-93800000D01*
X110454813Y-93800001D01*
X110352103Y-93810494D01*
X110185681Y-93865641D01*
X110185676Y-93865643D01*
X110036455Y-93957684D01*
X109912485Y-94081654D01*
X109820444Y-94230875D01*
X109820442Y-94230880D01*
X109765295Y-94397302D01*
X109765294Y-94397309D01*
X109754801Y-94500013D01*
X105035906Y-94500013D01*
X105056917Y-94421598D01*
X105085500Y-94204490D01*
X105085500Y-93985510D01*
X105056917Y-93768402D01*
X105000241Y-93556883D01*
X104916440Y-93354572D01*
X104911329Y-93345720D01*
X104806950Y-93164929D01*
X104673644Y-92991201D01*
X104673638Y-92991194D01*
X104518805Y-92836361D01*
X104518798Y-92836355D01*
X104345070Y-92703049D01*
X104155438Y-92593565D01*
X104155433Y-92593562D01*
X104155428Y-92593560D01*
X103953117Y-92509759D01*
X103953118Y-92509759D01*
X103953115Y-92509758D01*
X103836967Y-92478637D01*
X103741598Y-92453083D01*
X103705314Y-92448306D01*
X103524497Y-92424500D01*
X103524490Y-92424500D01*
X103305510Y-92424500D01*
X103305502Y-92424500D01*
X103098853Y-92451707D01*
X103088402Y-92453083D01*
X103043699Y-92465060D01*
X102876884Y-92509758D01*
X102758374Y-92558847D01*
X102674572Y-92593560D01*
X102674569Y-92593561D01*
X102674561Y-92593565D01*
X102484929Y-92703049D01*
X102311201Y-92836355D01*
X102311194Y-92836361D01*
X102156361Y-92991194D01*
X102156355Y-92991201D01*
X102023049Y-93164929D01*
X101913565Y-93354561D01*
X101913560Y-93354573D01*
X101829758Y-93556884D01*
X101773084Y-93768399D01*
X101773082Y-93768410D01*
X101744500Y-93985502D01*
X98500000Y-93985502D01*
X98500000Y-89104718D01*
X110144941Y-89104718D01*
X110144941Y-89454705D01*
X111129255Y-89454705D01*
X111124861Y-89459099D01*
X111072200Y-89550311D01*
X111044941Y-89652044D01*
X111044941Y-89757366D01*
X111072200Y-89859099D01*
X111124861Y-89950311D01*
X111129255Y-89954705D01*
X110144942Y-89954705D01*
X110144942Y-90304691D01*
X110155435Y-90407402D01*
X110210582Y-90573824D01*
X110210584Y-90573829D01*
X110302625Y-90723050D01*
X110426595Y-90847020D01*
X110575816Y-90939061D01*
X110575821Y-90939063D01*
X110742243Y-90994210D01*
X110742250Y-90994211D01*
X110844960Y-91004704D01*
X111194940Y-91004704D01*
X111194941Y-91004703D01*
X111194941Y-90020391D01*
X111199335Y-90024785D01*
X111290547Y-90077446D01*
X111392280Y-90104705D01*
X111497602Y-90104705D01*
X111599335Y-90077446D01*
X111690547Y-90024785D01*
X111694941Y-90020391D01*
X111694941Y-91004704D01*
X112044913Y-91004704D01*
X112044927Y-91004703D01*
X112147638Y-90994210D01*
X112314060Y-90939063D01*
X112314065Y-90939061D01*
X112463286Y-90847020D01*
X112587256Y-90723050D01*
X112679297Y-90573829D01*
X112679300Y-90573822D01*
X112706533Y-90491637D01*
X112746305Y-90434192D01*
X112810820Y-90407368D01*
X112879596Y-90419682D01*
X112924557Y-90457754D01*
X112948195Y-90490289D01*
X112992975Y-90551924D01*
X113137727Y-90696676D01*
X113287816Y-90805720D01*
X113303331Y-90816992D01*
X113415812Y-90874304D01*
X113485717Y-90909923D01*
X113485719Y-90909923D01*
X113485722Y-90909925D01*
X113575400Y-90939063D01*
X113680406Y-90973182D01*
X113781498Y-90989193D01*
X113882589Y-91005205D01*
X113882590Y-91005205D01*
X114087292Y-91005205D01*
X114087293Y-91005205D01*
X114289475Y-90973182D01*
X114484160Y-90909925D01*
X114666551Y-90816992D01*
X114765105Y-90745389D01*
X114832154Y-90696676D01*
X114832156Y-90696673D01*
X114832160Y-90696671D01*
X114976907Y-90551924D01*
X114976909Y-90551920D01*
X114976912Y-90551918D01*
X115097225Y-90386319D01*
X115097226Y-90386318D01*
X115097228Y-90386315D01*
X115144457Y-90293622D01*
X115192430Y-90242828D01*
X115260251Y-90226033D01*
X115326386Y-90248570D01*
X115365424Y-90293622D01*
X115404326Y-90369971D01*
X115412656Y-90386319D01*
X115532969Y-90551918D01*
X115677727Y-90696676D01*
X115827816Y-90805720D01*
X115843331Y-90816992D01*
X115955812Y-90874304D01*
X116025717Y-90909923D01*
X116025719Y-90909923D01*
X116025722Y-90909925D01*
X116115400Y-90939063D01*
X116220406Y-90973182D01*
X116321498Y-90989193D01*
X116422589Y-91005205D01*
X116422590Y-91005205D01*
X116627292Y-91005205D01*
X116627293Y-91005205D01*
X116829475Y-90973182D01*
X117024160Y-90909925D01*
X117206551Y-90816992D01*
X117305105Y-90745389D01*
X117372154Y-90696676D01*
X117372156Y-90696673D01*
X117372160Y-90696671D01*
X117516907Y-90551924D01*
X117516909Y-90551920D01*
X117516912Y-90551918D01*
X117637225Y-90386319D01*
X117637226Y-90386318D01*
X117637228Y-90386315D01*
X117684457Y-90293622D01*
X117732430Y-90242828D01*
X117800251Y-90226033D01*
X117866386Y-90248570D01*
X117905424Y-90293622D01*
X117944326Y-90369971D01*
X117952656Y-90386319D01*
X118072969Y-90551918D01*
X118217727Y-90696676D01*
X118367816Y-90805720D01*
X118383331Y-90816992D01*
X118495812Y-90874304D01*
X118565717Y-90909923D01*
X118565719Y-90909923D01*
X118565722Y-90909925D01*
X118655400Y-90939063D01*
X118760406Y-90973182D01*
X118861498Y-90989193D01*
X118962589Y-91005205D01*
X118962590Y-91005205D01*
X119167292Y-91005205D01*
X119167293Y-91005205D01*
X119369475Y-90973182D01*
X119564160Y-90909925D01*
X119746551Y-90816992D01*
X119845105Y-90745389D01*
X119912154Y-90696676D01*
X119912156Y-90696673D01*
X119912160Y-90696671D01*
X120056907Y-90551924D01*
X120056909Y-90551920D01*
X120056912Y-90551918D01*
X120133746Y-90446163D01*
X120177228Y-90386315D01*
X120270161Y-90203924D01*
X120333418Y-90009239D01*
X120365441Y-89807057D01*
X120365441Y-89602353D01*
X120353428Y-89526509D01*
X120333418Y-89400170D01*
X120270159Y-89205481D01*
X120233983Y-89134482D01*
X120177228Y-89023095D01*
X120134584Y-88964400D01*
X120056912Y-88857491D01*
X119912154Y-88712733D01*
X119746554Y-88592420D01*
X119746553Y-88592419D01*
X119746551Y-88592418D01*
X119687616Y-88562389D01*
X119564164Y-88499486D01*
X119369475Y-88436227D01*
X119194936Y-88408583D01*
X119167293Y-88404205D01*
X118962589Y-88404205D01*
X118938270Y-88408056D01*
X118760406Y-88436227D01*
X118565717Y-88499486D01*
X118383327Y-88592420D01*
X118217727Y-88712733D01*
X118072969Y-88857491D01*
X117952656Y-89023091D01*
X117905426Y-89115785D01*
X117857451Y-89166581D01*
X117789630Y-89183376D01*
X117723495Y-89160839D01*
X117684456Y-89115785D01*
X117682426Y-89111801D01*
X117637228Y-89023095D01*
X117594584Y-88964400D01*
X117516912Y-88857491D01*
X117372154Y-88712733D01*
X117206554Y-88592420D01*
X117206553Y-88592419D01*
X117206551Y-88592418D01*
X117147616Y-88562389D01*
X117024164Y-88499486D01*
X116829475Y-88436227D01*
X116654936Y-88408583D01*
X116627293Y-88404205D01*
X116422589Y-88404205D01*
X116398270Y-88408056D01*
X116220406Y-88436227D01*
X116025717Y-88499486D01*
X115843327Y-88592420D01*
X115677727Y-88712733D01*
X115532969Y-88857491D01*
X115412656Y-89023091D01*
X115365426Y-89115785D01*
X115317451Y-89166581D01*
X115249630Y-89183376D01*
X115183495Y-89160839D01*
X115144456Y-89115785D01*
X115142426Y-89111801D01*
X115097228Y-89023095D01*
X115054584Y-88964400D01*
X114976912Y-88857491D01*
X114832154Y-88712733D01*
X114666554Y-88592420D01*
X114666553Y-88592419D01*
X114666551Y-88592418D01*
X114607616Y-88562389D01*
X114484164Y-88499486D01*
X114289475Y-88436227D01*
X114114936Y-88408583D01*
X114087293Y-88404205D01*
X113882589Y-88404205D01*
X113858270Y-88408056D01*
X113680406Y-88436227D01*
X113485717Y-88499486D01*
X113303327Y-88592420D01*
X113137727Y-88712733D01*
X112992973Y-88857487D01*
X112924557Y-88951654D01*
X112869227Y-88994319D01*
X112799613Y-89000298D01*
X112737818Y-88967692D01*
X112706533Y-88917772D01*
X112679299Y-88835585D01*
X112679297Y-88835580D01*
X112587256Y-88686359D01*
X112463286Y-88562389D01*
X112314065Y-88470348D01*
X112314060Y-88470346D01*
X112147638Y-88415199D01*
X112147631Y-88415198D01*
X112044927Y-88404705D01*
X111694941Y-88404705D01*
X111694941Y-89389019D01*
X111690547Y-89384625D01*
X111599335Y-89331964D01*
X111497602Y-89304705D01*
X111392280Y-89304705D01*
X111290547Y-89331964D01*
X111199335Y-89384625D01*
X111194941Y-89389019D01*
X111194941Y-88404705D01*
X110844969Y-88404705D01*
X110844953Y-88404706D01*
X110742243Y-88415199D01*
X110575821Y-88470346D01*
X110575816Y-88470348D01*
X110426595Y-88562389D01*
X110302625Y-88686359D01*
X110210584Y-88835580D01*
X110210582Y-88835585D01*
X110155435Y-89002007D01*
X110155434Y-89002014D01*
X110144941Y-89104718D01*
X98500000Y-89104718D01*
X98500000Y-82116891D01*
X98519685Y-82049852D01*
X98572489Y-82004097D01*
X98641647Y-81994153D01*
X98689970Y-82011897D01*
X98750375Y-82049852D01*
X98837002Y-82104284D01*
X99008881Y-82187056D01*
X99079921Y-82221267D01*
X99271049Y-82288145D01*
X99334397Y-82310312D01*
X99334405Y-82310315D01*
X99334408Y-82310315D01*
X99334409Y-82310316D01*
X99597268Y-82370312D01*
X99865187Y-82400499D01*
X99865188Y-82400500D01*
X100046187Y-82400500D01*
X100113226Y-82420185D01*
X100158981Y-82472989D01*
X100168925Y-82542147D01*
X100139900Y-82605703D01*
X100108187Y-82631887D01*
X99984929Y-82703049D01*
X99811201Y-82836355D01*
X99811194Y-82836361D01*
X99656361Y-82991194D01*
X99656355Y-82991201D01*
X99523049Y-83164929D01*
X99413565Y-83354561D01*
X99413561Y-83354569D01*
X99413560Y-83354572D01*
X99378847Y-83438374D01*
X99329758Y-83556884D01*
X99301117Y-83663777D01*
X99276038Y-83757376D01*
X99273084Y-83768399D01*
X99273082Y-83768410D01*
X99244500Y-83985502D01*
X99244500Y-84204497D01*
X99268306Y-84385314D01*
X99273083Y-84421598D01*
X99273084Y-84421600D01*
X99326625Y-84621424D01*
X99329759Y-84633117D01*
X99413560Y-84835428D01*
X99413562Y-84835433D01*
X99413565Y-84835438D01*
X99523049Y-85025070D01*
X99656355Y-85198798D01*
X99656361Y-85198805D01*
X99811194Y-85353638D01*
X99811201Y-85353644D01*
X99984929Y-85486950D01*
X100174561Y-85596434D01*
X100174563Y-85596434D01*
X100174572Y-85596440D01*
X100376883Y-85680241D01*
X100588402Y-85736917D01*
X100805510Y-85765500D01*
X100805517Y-85765500D01*
X101024483Y-85765500D01*
X101024490Y-85765500D01*
X101241598Y-85736917D01*
X101453117Y-85680241D01*
X101655428Y-85596440D01*
X101845071Y-85486950D01*
X102018800Y-85353643D01*
X102173643Y-85198800D01*
X102306950Y-85025071D01*
X102416440Y-84835428D01*
X102500241Y-84633117D01*
X102556917Y-84421598D01*
X102585500Y-84204490D01*
X102585500Y-83985510D01*
X102585499Y-83985502D01*
X104244500Y-83985502D01*
X104244500Y-84204497D01*
X104268306Y-84385314D01*
X104273083Y-84421598D01*
X104273084Y-84421600D01*
X104326625Y-84621424D01*
X104329759Y-84633117D01*
X104413560Y-84835428D01*
X104413562Y-84835433D01*
X104413565Y-84835438D01*
X104523049Y-85025070D01*
X104656355Y-85198798D01*
X104656361Y-85198805D01*
X104811194Y-85353638D01*
X104811201Y-85353644D01*
X104984929Y-85486950D01*
X105174561Y-85596434D01*
X105174563Y-85596434D01*
X105174572Y-85596440D01*
X105376883Y-85680241D01*
X105588402Y-85736917D01*
X105805510Y-85765500D01*
X105805517Y-85765500D01*
X106024483Y-85765500D01*
X106024490Y-85765500D01*
X106241598Y-85736917D01*
X106453117Y-85680241D01*
X106655428Y-85596440D01*
X106845071Y-85486950D01*
X107018800Y-85353643D01*
X107173643Y-85198800D01*
X107306950Y-85025071D01*
X107416440Y-84835428D01*
X107500241Y-84633117D01*
X107556917Y-84421598D01*
X107585500Y-84204490D01*
X107585500Y-83985510D01*
X107556917Y-83768402D01*
X107500241Y-83556883D01*
X107416440Y-83354572D01*
X107415637Y-83353182D01*
X107306950Y-83164929D01*
X107173644Y-82991201D01*
X107173638Y-82991194D01*
X107018805Y-82836361D01*
X107018798Y-82836355D01*
X106845070Y-82703049D01*
X106655438Y-82593565D01*
X106655433Y-82593562D01*
X106655428Y-82593560D01*
X106453117Y-82509759D01*
X106453118Y-82509759D01*
X106453115Y-82509758D01*
X106347357Y-82481421D01*
X106241598Y-82453083D01*
X106205314Y-82448306D01*
X106024497Y-82424500D01*
X106024490Y-82424500D01*
X105805510Y-82424500D01*
X105805502Y-82424500D01*
X105598853Y-82451707D01*
X105588402Y-82453083D01*
X105559602Y-82460800D01*
X105376884Y-82509758D01*
X105298692Y-82542147D01*
X105174572Y-82593560D01*
X105174569Y-82593561D01*
X105174561Y-82593565D01*
X104984929Y-82703049D01*
X104811201Y-82836355D01*
X104811194Y-82836361D01*
X104656361Y-82991194D01*
X104656355Y-82991201D01*
X104523049Y-83164929D01*
X104413565Y-83354561D01*
X104413561Y-83354569D01*
X104413560Y-83354572D01*
X104378847Y-83438374D01*
X104329758Y-83556884D01*
X104301117Y-83663777D01*
X104276038Y-83757376D01*
X104273084Y-83768399D01*
X104273082Y-83768410D01*
X104244500Y-83985502D01*
X102585499Y-83985502D01*
X102556917Y-83768402D01*
X102500241Y-83556883D01*
X102416440Y-83354572D01*
X102415637Y-83353182D01*
X102306950Y-83164929D01*
X102173644Y-82991201D01*
X102173638Y-82991194D01*
X102018805Y-82836361D01*
X102018798Y-82836355D01*
X101845070Y-82703049D01*
X101655438Y-82593565D01*
X101655433Y-82593562D01*
X101655428Y-82593560D01*
X101453117Y-82509759D01*
X101453118Y-82509759D01*
X101453115Y-82509758D01*
X101347357Y-82481421D01*
X101241598Y-82453083D01*
X101206419Y-82448451D01*
X101023282Y-82424340D01*
X100959386Y-82396073D01*
X100920915Y-82337748D01*
X100920084Y-82267884D01*
X100957156Y-82208660D01*
X100985664Y-82189682D01*
X101162997Y-82104284D01*
X101357048Y-81982353D01*
X110144441Y-81982353D01*
X110144441Y-82187056D01*
X110176463Y-82389239D01*
X110239722Y-82583928D01*
X110300418Y-82703049D01*
X110331947Y-82764928D01*
X110332656Y-82766318D01*
X110452969Y-82931918D01*
X110597727Y-83076676D01*
X110747816Y-83185720D01*
X110763331Y-83196992D01*
X110879548Y-83256208D01*
X110945717Y-83289923D01*
X110945719Y-83289923D01*
X110945722Y-83289925D01*
X110995310Y-83306037D01*
X111140406Y-83353182D01*
X111241498Y-83369193D01*
X111342589Y-83385205D01*
X111342590Y-83385205D01*
X111547292Y-83385205D01*
X111547293Y-83385205D01*
X111749475Y-83353182D01*
X111944160Y-83289925D01*
X112126551Y-83196992D01*
X112273104Y-83090516D01*
X112292154Y-83076676D01*
X112292156Y-83076673D01*
X112292160Y-83076671D01*
X112436907Y-82931924D01*
X112436909Y-82931920D01*
X112436912Y-82931918D01*
X112541854Y-82787475D01*
X112557228Y-82766315D01*
X112604457Y-82673622D01*
X112652430Y-82622828D01*
X112720251Y-82606033D01*
X112786386Y-82628570D01*
X112825424Y-82673622D01*
X112840419Y-82703050D01*
X112872656Y-82766319D01*
X112992969Y-82931918D01*
X113137727Y-83076676D01*
X113287816Y-83185720D01*
X113303331Y-83196992D01*
X113419548Y-83256208D01*
X113485717Y-83289923D01*
X113485719Y-83289923D01*
X113485722Y-83289925D01*
X113535310Y-83306037D01*
X113680406Y-83353182D01*
X113781498Y-83369193D01*
X113882589Y-83385205D01*
X113882590Y-83385205D01*
X114087292Y-83385205D01*
X114087293Y-83385205D01*
X114289475Y-83353182D01*
X114484160Y-83289925D01*
X114666551Y-83196992D01*
X114813104Y-83090516D01*
X114832154Y-83076676D01*
X114832156Y-83076673D01*
X114832160Y-83076671D01*
X114976907Y-82931924D01*
X114976909Y-82931920D01*
X114976912Y-82931918D01*
X115081854Y-82787475D01*
X115097228Y-82766315D01*
X115144457Y-82673622D01*
X115192430Y-82622828D01*
X115260251Y-82606033D01*
X115326386Y-82628570D01*
X115365424Y-82673622D01*
X115380419Y-82703050D01*
X115412656Y-82766319D01*
X115532969Y-82931918D01*
X115677727Y-83076676D01*
X115827816Y-83185720D01*
X115843331Y-83196992D01*
X115959548Y-83256208D01*
X116025717Y-83289923D01*
X116025719Y-83289923D01*
X116025722Y-83289925D01*
X116075310Y-83306037D01*
X116220406Y-83353182D01*
X116321498Y-83369193D01*
X116422589Y-83385205D01*
X116422590Y-83385205D01*
X116627292Y-83385205D01*
X116627293Y-83385205D01*
X116829475Y-83353182D01*
X117024160Y-83289925D01*
X117206551Y-83196992D01*
X117353104Y-83090516D01*
X117372154Y-83076676D01*
X117372156Y-83076673D01*
X117372160Y-83076671D01*
X117516907Y-82931924D01*
X117516909Y-82931920D01*
X117516912Y-82931918D01*
X117621854Y-82787475D01*
X117637228Y-82766315D01*
X117684457Y-82673622D01*
X117732430Y-82622828D01*
X117800251Y-82606033D01*
X117866386Y-82628570D01*
X117905424Y-82673622D01*
X117920419Y-82703050D01*
X117952656Y-82766319D01*
X118072969Y-82931918D01*
X118217727Y-83076676D01*
X118367816Y-83185720D01*
X118383331Y-83196992D01*
X118499548Y-83256208D01*
X118565717Y-83289923D01*
X118565719Y-83289923D01*
X118565722Y-83289925D01*
X118615310Y-83306037D01*
X118760406Y-83353182D01*
X118861498Y-83369193D01*
X118962589Y-83385205D01*
X118962590Y-83385205D01*
X119167292Y-83385205D01*
X119167293Y-83385205D01*
X119369475Y-83353182D01*
X119564160Y-83289925D01*
X119746551Y-83196992D01*
X119893104Y-83090516D01*
X119912154Y-83076676D01*
X119912156Y-83076673D01*
X119912160Y-83076671D01*
X120056907Y-82931924D01*
X120056909Y-82931920D01*
X120056912Y-82931918D01*
X120126341Y-82836355D01*
X120177228Y-82766315D01*
X120270161Y-82583924D01*
X120333418Y-82389239D01*
X120365441Y-82187057D01*
X120365441Y-81982353D01*
X120349314Y-81880534D01*
X120333418Y-81780170D01*
X120270159Y-81585481D01*
X120214777Y-81476789D01*
X120177228Y-81403095D01*
X120135509Y-81345673D01*
X120056912Y-81237491D01*
X119912154Y-81092733D01*
X119746554Y-80972420D01*
X119746553Y-80972419D01*
X119746551Y-80972418D01*
X119689594Y-80943396D01*
X119564164Y-80879486D01*
X119369475Y-80816227D01*
X119194936Y-80788583D01*
X119167293Y-80784205D01*
X118962589Y-80784205D01*
X118938270Y-80788056D01*
X118760406Y-80816227D01*
X118565717Y-80879486D01*
X118383327Y-80972420D01*
X118217727Y-81092733D01*
X118072969Y-81237491D01*
X117952656Y-81403091D01*
X117905426Y-81495785D01*
X117857451Y-81546581D01*
X117789630Y-81563376D01*
X117723495Y-81540839D01*
X117684456Y-81495785D01*
X117668487Y-81464444D01*
X117637228Y-81403095D01*
X117595509Y-81345673D01*
X117516912Y-81237491D01*
X117372154Y-81092733D01*
X117206554Y-80972420D01*
X117206553Y-80972419D01*
X117206551Y-80972418D01*
X117149594Y-80943396D01*
X117024164Y-80879486D01*
X116829475Y-80816227D01*
X116654936Y-80788583D01*
X116627293Y-80784205D01*
X116422589Y-80784205D01*
X116398270Y-80788056D01*
X116220406Y-80816227D01*
X116025717Y-80879486D01*
X115843327Y-80972420D01*
X115677727Y-81092733D01*
X115532969Y-81237491D01*
X115412656Y-81403091D01*
X115365426Y-81495785D01*
X115317451Y-81546581D01*
X115249630Y-81563376D01*
X115183495Y-81540839D01*
X115144456Y-81495785D01*
X115128487Y-81464444D01*
X115097228Y-81403095D01*
X115055509Y-81345673D01*
X114976912Y-81237491D01*
X114832154Y-81092733D01*
X114666554Y-80972420D01*
X114666553Y-80972419D01*
X114666551Y-80972418D01*
X114609594Y-80943396D01*
X114484164Y-80879486D01*
X114289475Y-80816227D01*
X114114936Y-80788583D01*
X114087293Y-80784205D01*
X113882589Y-80784205D01*
X113858270Y-80788056D01*
X113680406Y-80816227D01*
X113485717Y-80879486D01*
X113303327Y-80972420D01*
X113137727Y-81092733D01*
X112992969Y-81237491D01*
X112872656Y-81403091D01*
X112825426Y-81495785D01*
X112777451Y-81546581D01*
X112709630Y-81563376D01*
X112643495Y-81540839D01*
X112604456Y-81495785D01*
X112588487Y-81464444D01*
X112557228Y-81403095D01*
X112515509Y-81345673D01*
X112436912Y-81237491D01*
X112292154Y-81092733D01*
X112126554Y-80972420D01*
X112126553Y-80972419D01*
X112126551Y-80972418D01*
X112069594Y-80943396D01*
X111944164Y-80879486D01*
X111749475Y-80816227D01*
X111574936Y-80788583D01*
X111547293Y-80784205D01*
X111342589Y-80784205D01*
X111318270Y-80788056D01*
X111140406Y-80816227D01*
X110945717Y-80879486D01*
X110763327Y-80972420D01*
X110597727Y-81092733D01*
X110452969Y-81237491D01*
X110332656Y-81403091D01*
X110239722Y-81585481D01*
X110176463Y-81780170D01*
X110144441Y-81982353D01*
X101357048Y-81982353D01*
X101391289Y-81960838D01*
X101602085Y-81792734D01*
X101792734Y-81602085D01*
X101960838Y-81391289D01*
X102104284Y-81162997D01*
X102221267Y-80920079D01*
X102310316Y-80665591D01*
X102370312Y-80402732D01*
X102370313Y-80402721D01*
X102370314Y-80402718D01*
X102379957Y-80317135D01*
X123149500Y-80317135D01*
X123149500Y-81912870D01*
X123149501Y-81912876D01*
X123155908Y-81972483D01*
X123206202Y-82107328D01*
X123206206Y-82107335D01*
X123292452Y-82222544D01*
X123292455Y-82222547D01*
X123407664Y-82308793D01*
X123407671Y-82308797D01*
X123542517Y-82359091D01*
X123542516Y-82359091D01*
X123549444Y-82359835D01*
X123602127Y-82365500D01*
X124705500Y-82365499D01*
X124772539Y-82385184D01*
X124818294Y-82437987D01*
X124829500Y-82489499D01*
X124829500Y-89826339D01*
X124853151Y-89945242D01*
X124853154Y-89945252D01*
X124868520Y-89982348D01*
X124899547Y-90057256D01*
X124899554Y-90057269D01*
X124966909Y-90158072D01*
X124966912Y-90158076D01*
X125320143Y-90511306D01*
X125353628Y-90572629D01*
X125354079Y-90574796D01*
X125356371Y-90586318D01*
X125356373Y-90586326D01*
X125411061Y-90718356D01*
X125411066Y-90718365D01*
X125490459Y-90837184D01*
X125490462Y-90837188D01*
X125591509Y-90938235D01*
X125591513Y-90938238D01*
X125710332Y-91017631D01*
X125710338Y-91017634D01*
X125710339Y-91017635D01*
X125842372Y-91072325D01*
X125842376Y-91072325D01*
X125842377Y-91072326D01*
X125982534Y-91100206D01*
X125982537Y-91100206D01*
X126125449Y-91100206D01*
X126219743Y-91081448D01*
X126265612Y-91072325D01*
X126397645Y-91017635D01*
X126516471Y-90938238D01*
X126617524Y-90837185D01*
X126696921Y-90718359D01*
X126751611Y-90586326D01*
X126779492Y-90446161D01*
X126779492Y-90303251D01*
X126779492Y-90303248D01*
X126751612Y-90163091D01*
X126751611Y-90163090D01*
X126751611Y-90163086D01*
X126696921Y-90031053D01*
X126696920Y-90031052D01*
X126696917Y-90031046D01*
X126617524Y-89912227D01*
X126617521Y-89912223D01*
X126516474Y-89811176D01*
X126516470Y-89811173D01*
X126397651Y-89731780D01*
X126397642Y-89731775D01*
X126265612Y-89677087D01*
X126265604Y-89677085D01*
X126254082Y-89674793D01*
X126237325Y-89666028D01*
X126218846Y-89662008D01*
X126193807Y-89643263D01*
X126192171Y-89642408D01*
X126190592Y-89640857D01*
X126096819Y-89547084D01*
X126063334Y-89485761D01*
X126060500Y-89459403D01*
X126060500Y-82363929D01*
X126080185Y-82296890D01*
X126132989Y-82251135D01*
X126202147Y-82241191D01*
X126231952Y-82249368D01*
X126416016Y-82325609D01*
X126416025Y-82325612D01*
X126465000Y-82335353D01*
X126465000Y-81480865D01*
X126465067Y-81476789D01*
X126465400Y-81466638D01*
X126470500Y-81441003D01*
X126470500Y-81400830D01*
X126484745Y-81415075D01*
X126570255Y-81464444D01*
X126665630Y-81490000D01*
X126764370Y-81490000D01*
X126859745Y-81464444D01*
X126945255Y-81415075D01*
X126965000Y-81395330D01*
X126965000Y-82335352D01*
X127013974Y-82325612D01*
X127013983Y-82325609D01*
X127200513Y-82248347D01*
X127200526Y-82248340D01*
X127368399Y-82136170D01*
X127368403Y-82136167D01*
X127511167Y-81993403D01*
X127511170Y-81993399D01*
X127623340Y-81825526D01*
X127623347Y-81825513D01*
X127700609Y-81638983D01*
X127700612Y-81638974D01*
X127739999Y-81440958D01*
X127740000Y-81440955D01*
X127740000Y-81365000D01*
X126995330Y-81365000D01*
X127015075Y-81345255D01*
X127064444Y-81259745D01*
X127090000Y-81164370D01*
X127090000Y-81157988D01*
X130428348Y-81157988D01*
X130428348Y-82358006D01*
X130428349Y-82358023D01*
X130438848Y-82460801D01*
X130438849Y-82460804D01*
X130486974Y-82606033D01*
X130494034Y-82627339D01*
X130586136Y-82776661D01*
X130710192Y-82900717D01*
X130859514Y-82992819D01*
X130941418Y-83019959D01*
X130998863Y-83059732D01*
X131025686Y-83124248D01*
X131013371Y-83193023D01*
X130975299Y-83237983D01*
X130881635Y-83306033D01*
X130881630Y-83306037D01*
X130736876Y-83450791D01*
X130616563Y-83616391D01*
X130523629Y-83798781D01*
X130460370Y-83993470D01*
X130428348Y-84195653D01*
X130428348Y-84400356D01*
X130460370Y-84602539D01*
X130523629Y-84797228D01*
X130580282Y-84908414D01*
X130610584Y-84967885D01*
X130616563Y-84979618D01*
X130736876Y-85145218D01*
X130881634Y-85289976D01*
X131031085Y-85398556D01*
X131047238Y-85410292D01*
X131116901Y-85445787D01*
X131139928Y-85457520D01*
X131190724Y-85505495D01*
X131207519Y-85573316D01*
X131184982Y-85639451D01*
X131139928Y-85678490D01*
X131047234Y-85725720D01*
X130881634Y-85846033D01*
X130736876Y-85990791D01*
X130616563Y-86156391D01*
X130523629Y-86338781D01*
X130460370Y-86533470D01*
X130428348Y-86735653D01*
X130428348Y-86940356D01*
X130460370Y-87142539D01*
X130523629Y-87337228D01*
X130568632Y-87425550D01*
X130610584Y-87507885D01*
X130616563Y-87519618D01*
X130736876Y-87685218D01*
X130881634Y-87829976D01*
X131017282Y-87928528D01*
X131047238Y-87950292D01*
X131116901Y-87985787D01*
X131139928Y-87997520D01*
X131190724Y-88045495D01*
X131207519Y-88113316D01*
X131184982Y-88179451D01*
X131139928Y-88218490D01*
X131047234Y-88265720D01*
X130881634Y-88386033D01*
X130736876Y-88530791D01*
X130616563Y-88696391D01*
X130523629Y-88878781D01*
X130460370Y-89073470D01*
X130428348Y-89275653D01*
X130428348Y-89480356D01*
X130460370Y-89682539D01*
X130523629Y-89877228D01*
X130587539Y-90002658D01*
X130610584Y-90047885D01*
X130616563Y-90059618D01*
X130736876Y-90225218D01*
X130881634Y-90369976D01*
X130970022Y-90434192D01*
X131047238Y-90490292D01*
X131116901Y-90525787D01*
X131139928Y-90537520D01*
X131190724Y-90585495D01*
X131207519Y-90653316D01*
X131184982Y-90719451D01*
X131139928Y-90758490D01*
X131047234Y-90805720D01*
X130881634Y-90926033D01*
X130736876Y-91070791D01*
X130616563Y-91236391D01*
X130523629Y-91418781D01*
X130460370Y-91613470D01*
X130428348Y-91815653D01*
X130428348Y-92020356D01*
X130460370Y-92222539D01*
X130523629Y-92417228D01*
X130570777Y-92509759D01*
X130613478Y-92593565D01*
X130616563Y-92599618D01*
X130736876Y-92765218D01*
X130881634Y-92909976D01*
X131007687Y-93001557D01*
X131047238Y-93030292D01*
X131110705Y-93062630D01*
X131139928Y-93077520D01*
X131190724Y-93125495D01*
X131207519Y-93193316D01*
X131184982Y-93259451D01*
X131139928Y-93298490D01*
X131047234Y-93345720D01*
X130881634Y-93466033D01*
X130736876Y-93610791D01*
X130616563Y-93776391D01*
X130523629Y-93958781D01*
X130460370Y-94153470D01*
X130428348Y-94355653D01*
X130428348Y-94560356D01*
X130460370Y-94762539D01*
X130523629Y-94957228D01*
X130570622Y-95049455D01*
X130610584Y-95127885D01*
X130616563Y-95139618D01*
X130736876Y-95305218D01*
X130881634Y-95449976D01*
X131047233Y-95570289D01*
X131047235Y-95570290D01*
X131047238Y-95570292D01*
X131139928Y-95617520D01*
X131140478Y-95617800D01*
X131191274Y-95665775D01*
X131208069Y-95733596D01*
X131185532Y-95799730D01*
X131140478Y-95838770D01*
X131047492Y-95886148D01*
X131002925Y-95918528D01*
X131002925Y-95918529D01*
X131682402Y-96598005D01*
X131676187Y-96598005D01*
X131574454Y-96625264D01*
X131483242Y-96677925D01*
X131408768Y-96752399D01*
X131356107Y-96843611D01*
X131328848Y-96945344D01*
X131328848Y-96951558D01*
X130649372Y-96272082D01*
X130649371Y-96272082D01*
X130616991Y-96316649D01*
X130524092Y-96498973D01*
X130460857Y-96693587D01*
X130428848Y-96895687D01*
X130428848Y-97100322D01*
X130460857Y-97302422D01*
X130524092Y-97497036D01*
X130616989Y-97679355D01*
X130616995Y-97679364D01*
X130649371Y-97723926D01*
X130649372Y-97723927D01*
X131328848Y-97044451D01*
X131328848Y-97050666D01*
X131356107Y-97152399D01*
X131408768Y-97243611D01*
X131483242Y-97318085D01*
X131574454Y-97370746D01*
X131676187Y-97398005D01*
X131682401Y-97398005D01*
X131002924Y-98077479D01*
X131047498Y-98109864D01*
X131229816Y-98202760D01*
X131424430Y-98265995D01*
X131626531Y-98298005D01*
X131831165Y-98298005D01*
X132033265Y-98265995D01*
X132227879Y-98202760D01*
X132318753Y-98156457D01*
X134599499Y-98156457D01*
X134627379Y-98296614D01*
X134627381Y-98296620D01*
X134682069Y-98428650D01*
X134682074Y-98428659D01*
X134761467Y-98547478D01*
X134761470Y-98547482D01*
X134862517Y-98648529D01*
X134862521Y-98648532D01*
X134981340Y-98727925D01*
X134981346Y-98727928D01*
X134981347Y-98727929D01*
X135113380Y-98782619D01*
X135113384Y-98782619D01*
X135113385Y-98782620D01*
X135253542Y-98810500D01*
X135253545Y-98810500D01*
X135396457Y-98810500D01*
X135491742Y-98791546D01*
X135536620Y-98782619D01*
X135668653Y-98727929D01*
X135787479Y-98648532D01*
X135864554Y-98571457D01*
X148274499Y-98571457D01*
X148302379Y-98711614D01*
X148302381Y-98711620D01*
X148357069Y-98843650D01*
X148357074Y-98843659D01*
X148436467Y-98962478D01*
X148436470Y-98962482D01*
X148537517Y-99063529D01*
X148537521Y-99063532D01*
X148656340Y-99142925D01*
X148656346Y-99142928D01*
X148656347Y-99142929D01*
X148788380Y-99197619D01*
X148788384Y-99197619D01*
X148788385Y-99197620D01*
X148928542Y-99225500D01*
X148928545Y-99225500D01*
X149071457Y-99225500D01*
X149165751Y-99206742D01*
X149211620Y-99197619D01*
X149343653Y-99142929D01*
X149462479Y-99063532D01*
X149563532Y-98962479D01*
X149642929Y-98843653D01*
X149697619Y-98711620D01*
X149718089Y-98608711D01*
X149725500Y-98571457D01*
X149725500Y-98428542D01*
X149697620Y-98288385D01*
X149697619Y-98288384D01*
X149697619Y-98288380D01*
X149642929Y-98156347D01*
X149642928Y-98156346D01*
X149642925Y-98156340D01*
X149563532Y-98037521D01*
X149563529Y-98037517D01*
X149462482Y-97936470D01*
X149462478Y-97936467D01*
X149343659Y-97857074D01*
X149343650Y-97857069D01*
X149211620Y-97802381D01*
X149211614Y-97802379D01*
X149071457Y-97774500D01*
X149071455Y-97774500D01*
X148928545Y-97774500D01*
X148928543Y-97774500D01*
X148788385Y-97802379D01*
X148788379Y-97802381D01*
X148656349Y-97857069D01*
X148656340Y-97857074D01*
X148537521Y-97936467D01*
X148537517Y-97936470D01*
X148436470Y-98037517D01*
X148436467Y-98037521D01*
X148357074Y-98156340D01*
X148357069Y-98156349D01*
X148302381Y-98288379D01*
X148302379Y-98288385D01*
X148274500Y-98428542D01*
X148274500Y-98428545D01*
X148274500Y-98571455D01*
X148274500Y-98571457D01*
X148274499Y-98571457D01*
X135864554Y-98571457D01*
X135888532Y-98547479D01*
X135967929Y-98428653D01*
X136022619Y-98296620D01*
X136044973Y-98184240D01*
X136050500Y-98156457D01*
X136050500Y-98013542D01*
X136022620Y-97873385D01*
X136022619Y-97873384D01*
X136022619Y-97873380D01*
X135967929Y-97741347D01*
X135967928Y-97741346D01*
X135967925Y-97741340D01*
X135888532Y-97622521D01*
X135888529Y-97622517D01*
X135787482Y-97521470D01*
X135787478Y-97521467D01*
X135668659Y-97442074D01*
X135668650Y-97442069D01*
X135536620Y-97387381D01*
X135536614Y-97387379D01*
X135396457Y-97359500D01*
X135396455Y-97359500D01*
X135253545Y-97359500D01*
X135253543Y-97359500D01*
X135113385Y-97387379D01*
X135113379Y-97387381D01*
X134981349Y-97442069D01*
X134981340Y-97442074D01*
X134862521Y-97521467D01*
X134862517Y-97521470D01*
X134761470Y-97622517D01*
X134761467Y-97622521D01*
X134682074Y-97741340D01*
X134682069Y-97741349D01*
X134627381Y-97873379D01*
X134627379Y-97873385D01*
X134599500Y-98013542D01*
X134599500Y-98013545D01*
X134599500Y-98156455D01*
X134599500Y-98156457D01*
X134599499Y-98156457D01*
X132318753Y-98156457D01*
X132410197Y-98109864D01*
X132454769Y-98077479D01*
X131775295Y-97398005D01*
X131781509Y-97398005D01*
X131883242Y-97370746D01*
X131974454Y-97318085D01*
X132048928Y-97243611D01*
X132101589Y-97152399D01*
X132128848Y-97050666D01*
X132128848Y-97044452D01*
X132808322Y-97723926D01*
X132840707Y-97679354D01*
X132933603Y-97497036D01*
X132996838Y-97302422D01*
X133028848Y-97100322D01*
X133028848Y-96895687D01*
X132996838Y-96693587D01*
X132933603Y-96498973D01*
X132840707Y-96316655D01*
X132808322Y-96272082D01*
X132808322Y-96272081D01*
X132128848Y-96951556D01*
X132128848Y-96945344D01*
X132101589Y-96843611D01*
X132048928Y-96752399D01*
X131974454Y-96677925D01*
X131883242Y-96625264D01*
X131781509Y-96598005D01*
X131775294Y-96598005D01*
X132454770Y-95918529D01*
X132454769Y-95918528D01*
X132410207Y-95886152D01*
X132410198Y-95886146D01*
X132317217Y-95838770D01*
X132266421Y-95790795D01*
X132249626Y-95722974D01*
X132272163Y-95656840D01*
X132317218Y-95617800D01*
X132317768Y-95617520D01*
X132410458Y-95570292D01*
X132485513Y-95515762D01*
X132576061Y-95449976D01*
X132576063Y-95449973D01*
X132576067Y-95449971D01*
X132720814Y-95305224D01*
X132720816Y-95305220D01*
X132720819Y-95305218D01*
X132821004Y-95167323D01*
X132841135Y-95139615D01*
X132934068Y-94957224D01*
X132997325Y-94762539D01*
X133029348Y-94560357D01*
X133029348Y-94355653D01*
X133004218Y-94196992D01*
X132997325Y-94153470D01*
X132967145Y-94060586D01*
X132934068Y-93958786D01*
X132934066Y-93958783D01*
X132934066Y-93958781D01*
X132883854Y-93860236D01*
X132841135Y-93776395D01*
X132814674Y-93739974D01*
X132720819Y-93610791D01*
X132576061Y-93466033D01*
X132410462Y-93345720D01*
X132403854Y-93342353D01*
X132317765Y-93298488D01*
X132266971Y-93250516D01*
X132250176Y-93182695D01*
X132272713Y-93116560D01*
X132317765Y-93077521D01*
X132410458Y-93030292D01*
X132464272Y-92991194D01*
X132576061Y-92909976D01*
X132576063Y-92909973D01*
X132576067Y-92909971D01*
X132720814Y-92765224D01*
X132720816Y-92765220D01*
X132720819Y-92765218D01*
X132803058Y-92652024D01*
X132841135Y-92599615D01*
X132934068Y-92417224D01*
X132997325Y-92222539D01*
X133029348Y-92020357D01*
X133029348Y-91815653D01*
X133010679Y-91697781D01*
X132997325Y-91613470D01*
X132936220Y-91425410D01*
X132934068Y-91418786D01*
X132934066Y-91418783D01*
X132934066Y-91418781D01*
X132883854Y-91320236D01*
X132841135Y-91236395D01*
X132814674Y-91199974D01*
X132720819Y-91070791D01*
X132576061Y-90926033D01*
X132410462Y-90805720D01*
X132403854Y-90802353D01*
X132317765Y-90758488D01*
X132266971Y-90710516D01*
X132250176Y-90642695D01*
X132272713Y-90576560D01*
X132317765Y-90537521D01*
X132410458Y-90490292D01*
X132487674Y-90434192D01*
X132576061Y-90369976D01*
X132576063Y-90369973D01*
X132576067Y-90369971D01*
X132720814Y-90225224D01*
X132720816Y-90225220D01*
X132720819Y-90225218D01*
X132819107Y-90089934D01*
X132841135Y-90059615D01*
X132934068Y-89877224D01*
X132997325Y-89682539D01*
X133029348Y-89480357D01*
X133029348Y-89275653D01*
X133018444Y-89206806D01*
X132997325Y-89073470D01*
X132946735Y-88917772D01*
X132934068Y-88878786D01*
X132934066Y-88878783D01*
X132934066Y-88878781D01*
X132886799Y-88786016D01*
X132841135Y-88696395D01*
X132812373Y-88656807D01*
X132720819Y-88530791D01*
X132576061Y-88386033D01*
X132410462Y-88265720D01*
X132397840Y-88259289D01*
X132317765Y-88218488D01*
X132266971Y-88170516D01*
X132250176Y-88102695D01*
X132272713Y-88036560D01*
X132317765Y-87997521D01*
X132410458Y-87950292D01*
X132489412Y-87892929D01*
X132576061Y-87829976D01*
X132576063Y-87829973D01*
X132576067Y-87829971D01*
X132720814Y-87685224D01*
X132720816Y-87685220D01*
X132720819Y-87685218D01*
X132787346Y-87593650D01*
X132841135Y-87519615D01*
X132934068Y-87337224D01*
X132997325Y-87142539D01*
X133029348Y-86940357D01*
X133029348Y-86735653D01*
X133015415Y-86647685D01*
X132997325Y-86533470D01*
X132967975Y-86443142D01*
X132934068Y-86338786D01*
X132934066Y-86338783D01*
X132934066Y-86338781D01*
X132884288Y-86241087D01*
X132841135Y-86156395D01*
X132799551Y-86099159D01*
X132720819Y-85990791D01*
X132576061Y-85846033D01*
X132410462Y-85725720D01*
X132403854Y-85722353D01*
X132317765Y-85678488D01*
X132266971Y-85630516D01*
X132250176Y-85562695D01*
X132272713Y-85496560D01*
X132317765Y-85457521D01*
X132410458Y-85410292D01*
X132488428Y-85353644D01*
X132576061Y-85289976D01*
X132576063Y-85289973D01*
X132576067Y-85289971D01*
X132720814Y-85145224D01*
X132720816Y-85145220D01*
X132720819Y-85145218D01*
X132841134Y-84979616D01*
X132847112Y-84967885D01*
X132865798Y-84931210D01*
X132913772Y-84880415D01*
X132976283Y-84863505D01*
X134262405Y-84863505D01*
X134329444Y-84883190D01*
X134350086Y-84899824D01*
X134898181Y-85447919D01*
X134931666Y-85509242D01*
X134934500Y-85535600D01*
X134934500Y-95675550D01*
X134934500Y-95824450D01*
X134959708Y-95918528D01*
X134973038Y-95968276D01*
X134973039Y-95968277D01*
X135047484Y-96097221D01*
X135047488Y-96097226D01*
X136291151Y-97340888D01*
X136291161Y-97340899D01*
X136295491Y-97345229D01*
X136295492Y-97345230D01*
X136400780Y-97450518D01*
X136529730Y-97524967D01*
X136673555Y-97563505D01*
X136822455Y-97563505D01*
X138101413Y-97563505D01*
X138168452Y-97583190D01*
X138211898Y-97631211D01*
X138236561Y-97679616D01*
X138356876Y-97845218D01*
X138501634Y-97989976D01*
X138605925Y-98065746D01*
X138667238Y-98110292D01*
X138757626Y-98156347D01*
X138849624Y-98203223D01*
X138849626Y-98203223D01*
X138849629Y-98203225D01*
X138953985Y-98237132D01*
X139044313Y-98266482D01*
X139138312Y-98281370D01*
X139246496Y-98298505D01*
X139246497Y-98298505D01*
X139451199Y-98298505D01*
X139451200Y-98298505D01*
X139653382Y-98266482D01*
X139848067Y-98203225D01*
X140030458Y-98110292D01*
X140163620Y-98013545D01*
X140196061Y-97989976D01*
X140196063Y-97989973D01*
X140196067Y-97989971D01*
X140340814Y-97845224D01*
X140340816Y-97845220D01*
X140340819Y-97845218D01*
X140416284Y-97741347D01*
X140461135Y-97679615D01*
X140554068Y-97497224D01*
X140617325Y-97302539D01*
X140649348Y-97100357D01*
X140649348Y-96895653D01*
X140624800Y-96740666D01*
X140617325Y-96693470D01*
X140568244Y-96542416D01*
X140554068Y-96498786D01*
X140554066Y-96498783D01*
X140554066Y-96498781D01*
X140510266Y-96412820D01*
X140461135Y-96316395D01*
X140434675Y-96279975D01*
X140340819Y-96150791D01*
X140196061Y-96006033D01*
X140030462Y-95885720D01*
X140008282Y-95874419D01*
X139937765Y-95838488D01*
X139886971Y-95790516D01*
X139870176Y-95722695D01*
X139892713Y-95656560D01*
X139937765Y-95617521D01*
X140030458Y-95570292D01*
X140051618Y-95554918D01*
X140196061Y-95449976D01*
X140196063Y-95449973D01*
X140196067Y-95449971D01*
X140340814Y-95305224D01*
X140340816Y-95305220D01*
X140340819Y-95305218D01*
X140441004Y-95167323D01*
X140461135Y-95139615D01*
X140554068Y-94957224D01*
X140617325Y-94762539D01*
X140649348Y-94560357D01*
X140649348Y-94355653D01*
X140624218Y-94196992D01*
X140617325Y-94153470D01*
X140587145Y-94060586D01*
X140554068Y-93958786D01*
X140554066Y-93958783D01*
X140554066Y-93958781D01*
X140503854Y-93860236D01*
X140461135Y-93776395D01*
X140434674Y-93739974D01*
X140340819Y-93610791D01*
X140196061Y-93466033D01*
X140030462Y-93345720D01*
X140023854Y-93342353D01*
X139937765Y-93298488D01*
X139886971Y-93250516D01*
X139870176Y-93182695D01*
X139892713Y-93116560D01*
X139937765Y-93077521D01*
X140030458Y-93030292D01*
X140084272Y-92991194D01*
X140196061Y-92909976D01*
X140196063Y-92909973D01*
X140196067Y-92909971D01*
X140340814Y-92765224D01*
X140340816Y-92765220D01*
X140340819Y-92765218D01*
X140423058Y-92652024D01*
X140461135Y-92599615D01*
X140554068Y-92417224D01*
X140617325Y-92222539D01*
X140649348Y-92020357D01*
X140649348Y-91815653D01*
X140630679Y-91697781D01*
X140617325Y-91613470D01*
X140556220Y-91425410D01*
X140554068Y-91418786D01*
X140554066Y-91418783D01*
X140554066Y-91418781D01*
X140503854Y-91320236D01*
X140461135Y-91236395D01*
X140434674Y-91199974D01*
X140340819Y-91070791D01*
X140196061Y-90926033D01*
X140030462Y-90805720D01*
X140023854Y-90802353D01*
X139937765Y-90758488D01*
X139886971Y-90710516D01*
X139870176Y-90642695D01*
X139892713Y-90576560D01*
X139937765Y-90537521D01*
X140030458Y-90490292D01*
X140107674Y-90434192D01*
X140196061Y-90369976D01*
X140196063Y-90369973D01*
X140196067Y-90369971D01*
X140340814Y-90225224D01*
X140340816Y-90225220D01*
X140340819Y-90225218D01*
X140439107Y-90089934D01*
X140461135Y-90059615D01*
X140554068Y-89877224D01*
X140617325Y-89682539D01*
X140649348Y-89480357D01*
X140649348Y-89275653D01*
X140638444Y-89206806D01*
X140617325Y-89073470D01*
X140566735Y-88917772D01*
X140554068Y-88878786D01*
X140554066Y-88878783D01*
X140554066Y-88878781D01*
X140506799Y-88786016D01*
X140461135Y-88696395D01*
X140432373Y-88656807D01*
X140340819Y-88530791D01*
X140196061Y-88386033D01*
X140030462Y-88265720D01*
X140017840Y-88259289D01*
X139937765Y-88218488D01*
X139886971Y-88170516D01*
X139870176Y-88102695D01*
X139892713Y-88036560D01*
X139937765Y-87997521D01*
X140030458Y-87950292D01*
X140109412Y-87892929D01*
X140196061Y-87829976D01*
X140196063Y-87829973D01*
X140196067Y-87829971D01*
X140340814Y-87685224D01*
X140340816Y-87685220D01*
X140340819Y-87685218D01*
X140407346Y-87593650D01*
X140461135Y-87519615D01*
X140554068Y-87337224D01*
X140617325Y-87142539D01*
X140649348Y-86940357D01*
X140649348Y-86735653D01*
X140635415Y-86647685D01*
X140617325Y-86533470D01*
X140587975Y-86443142D01*
X140554068Y-86338786D01*
X140554066Y-86338783D01*
X140554066Y-86338781D01*
X140504288Y-86241087D01*
X140461135Y-86156395D01*
X140419551Y-86099159D01*
X140340819Y-85990791D01*
X140196061Y-85846033D01*
X140030462Y-85725720D01*
X140023854Y-85722353D01*
X139937765Y-85678488D01*
X139886971Y-85630516D01*
X139870176Y-85562695D01*
X139892713Y-85496560D01*
X139937765Y-85457521D01*
X140030458Y-85410292D01*
X140108428Y-85353644D01*
X140196061Y-85289976D01*
X140196063Y-85289973D01*
X140196067Y-85289971D01*
X140340814Y-85145224D01*
X140340816Y-85145220D01*
X140340819Y-85145218D01*
X140393580Y-85072595D01*
X140461135Y-84979615D01*
X140554068Y-84797224D01*
X140617325Y-84602539D01*
X140649348Y-84400357D01*
X140649348Y-84195653D01*
X140619538Y-84007441D01*
X140617325Y-83993470D01*
X140578048Y-83872588D01*
X140554068Y-83798786D01*
X140554066Y-83798783D01*
X140554066Y-83798781D01*
X140504288Y-83701087D01*
X140461135Y-83616395D01*
X140452608Y-83604658D01*
X140340819Y-83450791D01*
X140196061Y-83306033D01*
X140030462Y-83185720D01*
X140021768Y-83181290D01*
X139937765Y-83138488D01*
X139886971Y-83090516D01*
X139870176Y-83022695D01*
X139892713Y-82956560D01*
X139937765Y-82917521D01*
X140030458Y-82870292D01*
X140051618Y-82854918D01*
X140196061Y-82749976D01*
X140196063Y-82749973D01*
X140196067Y-82749971D01*
X140340814Y-82605224D01*
X140340816Y-82605220D01*
X140340819Y-82605218D01*
X140410173Y-82509759D01*
X140461135Y-82439615D01*
X140554068Y-82257224D01*
X140617325Y-82062539D01*
X140649348Y-81860357D01*
X140649348Y-81655653D01*
X140647490Y-81643920D01*
X140617325Y-81453470D01*
X140571228Y-81311599D01*
X140554068Y-81258786D01*
X140554066Y-81258783D01*
X140554066Y-81258781D01*
X140523810Y-81199401D01*
X140512332Y-81176876D01*
X140496730Y-81146255D01*
X142182266Y-81146255D01*
X142182266Y-82346273D01*
X142182267Y-82346290D01*
X142192766Y-82449068D01*
X142192767Y-82449071D01*
X142247951Y-82615603D01*
X142247953Y-82615608D01*
X142255187Y-82627336D01*
X142340054Y-82764928D01*
X142464110Y-82888984D01*
X142613432Y-82981086D01*
X142695336Y-83008226D01*
X142752781Y-83047999D01*
X142779604Y-83112515D01*
X142767289Y-83181290D01*
X142729217Y-83226250D01*
X142635553Y-83294300D01*
X142635548Y-83294304D01*
X142490794Y-83439058D01*
X142370481Y-83604658D01*
X142277547Y-83787048D01*
X142214288Y-83981737D01*
X142182266Y-84183920D01*
X142182266Y-84388623D01*
X142214288Y-84590806D01*
X142277547Y-84785495D01*
X142319934Y-84868682D01*
X142353200Y-84933971D01*
X142370481Y-84967885D01*
X142490794Y-85133485D01*
X142635552Y-85278243D01*
X142739335Y-85353644D01*
X142801156Y-85398559D01*
X142892606Y-85445155D01*
X142893846Y-85445787D01*
X142944642Y-85493762D01*
X142961437Y-85561583D01*
X142938900Y-85627718D01*
X142893846Y-85666757D01*
X142801152Y-85713987D01*
X142635552Y-85834300D01*
X142490794Y-85979058D01*
X142370481Y-86144658D01*
X142277547Y-86327048D01*
X142214288Y-86521737D01*
X142182266Y-86723920D01*
X142182266Y-86928623D01*
X142214288Y-87130806D01*
X142277547Y-87325495D01*
X142329823Y-87428091D01*
X142368971Y-87504923D01*
X142370481Y-87507885D01*
X142490794Y-87673485D01*
X142635552Y-87818243D01*
X142738351Y-87892929D01*
X142801156Y-87938559D01*
X142892606Y-87985155D01*
X142893846Y-87985787D01*
X142944642Y-88033762D01*
X142961437Y-88101583D01*
X142938900Y-88167718D01*
X142893846Y-88206757D01*
X142801152Y-88253987D01*
X142635552Y-88374300D01*
X142490794Y-88519058D01*
X142370481Y-88684658D01*
X142277547Y-88867048D01*
X142214288Y-89061737D01*
X142182266Y-89263920D01*
X142182266Y-89468623D01*
X142214288Y-89670806D01*
X142277547Y-89865495D01*
X142318186Y-89945252D01*
X142361905Y-90031055D01*
X142370481Y-90047885D01*
X142490794Y-90213485D01*
X142635552Y-90358243D01*
X142790515Y-90470828D01*
X142801156Y-90478559D01*
X142865426Y-90511306D01*
X142893846Y-90525787D01*
X142944642Y-90573762D01*
X142961437Y-90641583D01*
X142938900Y-90707718D01*
X142893846Y-90746757D01*
X142801152Y-90793987D01*
X142635552Y-90914300D01*
X142490794Y-91059058D01*
X142370481Y-91224658D01*
X142277547Y-91407048D01*
X142214288Y-91601737D01*
X142182266Y-91803920D01*
X142182266Y-92008623D01*
X142214288Y-92210806D01*
X142277547Y-92405495D01*
X142370481Y-92587885D01*
X142490794Y-92753485D01*
X142635552Y-92898243D01*
X142777761Y-93001562D01*
X142801156Y-93018559D01*
X142887650Y-93062630D01*
X142893846Y-93065787D01*
X142944642Y-93113762D01*
X142961437Y-93181583D01*
X142938900Y-93247718D01*
X142893846Y-93286757D01*
X142801152Y-93333987D01*
X142635552Y-93454300D01*
X142490794Y-93599058D01*
X142370481Y-93764658D01*
X142277547Y-93947048D01*
X142214288Y-94141737D01*
X142182266Y-94343920D01*
X142182266Y-94548623D01*
X142214288Y-94750806D01*
X142277547Y-94945495D01*
X142318094Y-95025071D01*
X142351887Y-95091394D01*
X142370481Y-95127885D01*
X142490794Y-95293485D01*
X142635552Y-95438243D01*
X142801151Y-95558556D01*
X142801153Y-95558557D01*
X142801156Y-95558559D01*
X142874923Y-95596145D01*
X142894396Y-95606067D01*
X142945192Y-95654042D01*
X142961987Y-95721863D01*
X142939450Y-95787997D01*
X142894396Y-95827037D01*
X142801410Y-95874415D01*
X142756843Y-95906795D01*
X142756843Y-95906796D01*
X143436320Y-96586272D01*
X143430105Y-96586272D01*
X143328372Y-96613531D01*
X143237160Y-96666192D01*
X143162686Y-96740666D01*
X143110025Y-96831878D01*
X143082766Y-96933611D01*
X143082766Y-96939825D01*
X142403290Y-96260349D01*
X142403289Y-96260349D01*
X142370909Y-96304916D01*
X142278010Y-96487240D01*
X142214775Y-96681854D01*
X142182766Y-96883954D01*
X142182766Y-97088589D01*
X142214775Y-97290689D01*
X142278010Y-97485303D01*
X142370907Y-97667622D01*
X142370913Y-97667631D01*
X142403289Y-97712193D01*
X142403290Y-97712194D01*
X143082766Y-97032718D01*
X143082766Y-97038933D01*
X143110025Y-97140666D01*
X143162686Y-97231878D01*
X143237160Y-97306352D01*
X143328372Y-97359013D01*
X143430105Y-97386272D01*
X143436319Y-97386272D01*
X142756842Y-98065746D01*
X142801416Y-98098131D01*
X142983734Y-98191027D01*
X143178348Y-98254262D01*
X143380449Y-98286272D01*
X143585083Y-98286272D01*
X143787183Y-98254262D01*
X143981797Y-98191027D01*
X144164115Y-98098131D01*
X144208687Y-98065746D01*
X143529213Y-97386272D01*
X143535427Y-97386272D01*
X143637160Y-97359013D01*
X143728372Y-97306352D01*
X143802846Y-97231878D01*
X143855507Y-97140666D01*
X143882766Y-97038933D01*
X143882766Y-97032719D01*
X144562240Y-97712193D01*
X144594625Y-97667621D01*
X144687521Y-97485303D01*
X144750756Y-97290689D01*
X144782766Y-97088589D01*
X144782766Y-96883954D01*
X144750756Y-96681854D01*
X144687521Y-96487240D01*
X144594625Y-96304922D01*
X144562240Y-96260349D01*
X144562240Y-96260348D01*
X143882766Y-96939823D01*
X143882766Y-96933611D01*
X143855507Y-96831878D01*
X143802846Y-96740666D01*
X143728372Y-96666192D01*
X143637160Y-96613531D01*
X143535427Y-96586272D01*
X143529212Y-96586272D01*
X144208688Y-95906796D01*
X144208687Y-95906795D01*
X144164125Y-95874419D01*
X144164116Y-95874413D01*
X144071135Y-95827037D01*
X144020339Y-95779062D01*
X144003544Y-95711241D01*
X144026081Y-95645107D01*
X144071136Y-95606067D01*
X144090609Y-95596145D01*
X144164376Y-95558559D01*
X144213910Y-95522570D01*
X144329979Y-95438243D01*
X144329981Y-95438240D01*
X144329985Y-95438238D01*
X144474732Y-95293491D01*
X144474734Y-95293487D01*
X144474737Y-95293485D01*
X144533664Y-95212377D01*
X144595053Y-95127882D01*
X144687986Y-94945491D01*
X144751243Y-94750806D01*
X144783266Y-94548624D01*
X144783266Y-94343920D01*
X144767620Y-94245135D01*
X144751243Y-94141737D01*
X144705199Y-94000029D01*
X144687986Y-93947053D01*
X144687984Y-93947050D01*
X144687984Y-93947048D01*
X144650441Y-93873367D01*
X144595053Y-93764662D01*
X144571776Y-93732624D01*
X144474737Y-93599058D01*
X144329979Y-93454300D01*
X144164380Y-93333987D01*
X144157772Y-93330620D01*
X144071683Y-93286755D01*
X144020889Y-93238783D01*
X144004094Y-93170962D01*
X144026631Y-93104827D01*
X144071683Y-93065788D01*
X144164376Y-93018559D01*
X144199847Y-92992788D01*
X144329979Y-92898243D01*
X144329981Y-92898240D01*
X144329985Y-92898238D01*
X144474732Y-92753491D01*
X144474734Y-92753487D01*
X144474737Y-92753485D01*
X144548458Y-92652015D01*
X144595053Y-92587882D01*
X144687986Y-92405491D01*
X144751243Y-92210806D01*
X144783266Y-92008624D01*
X144783266Y-91803920D01*
X144767620Y-91705135D01*
X144751243Y-91601737D01*
X144695401Y-91429875D01*
X144687986Y-91407053D01*
X144687984Y-91407050D01*
X144687984Y-91407048D01*
X144650441Y-91333367D01*
X144595053Y-91224662D01*
X144571776Y-91192624D01*
X144474737Y-91059058D01*
X144329979Y-90914300D01*
X144164380Y-90793987D01*
X144094713Y-90758490D01*
X144071683Y-90746755D01*
X144020889Y-90698783D01*
X144004094Y-90630962D01*
X144026631Y-90564827D01*
X144071683Y-90525788D01*
X144164376Y-90478559D01*
X144185536Y-90463185D01*
X144329979Y-90358243D01*
X144329981Y-90358240D01*
X144329985Y-90358238D01*
X144474732Y-90213491D01*
X144474734Y-90213487D01*
X144474737Y-90213485D01*
X144553769Y-90104705D01*
X144595053Y-90047882D01*
X144687986Y-89865491D01*
X144751243Y-89670806D01*
X144783266Y-89468624D01*
X144783266Y-89263920D01*
X144767620Y-89165135D01*
X144751243Y-89061737D01*
X144719616Y-88964400D01*
X144687986Y-88867053D01*
X144687984Y-88867050D01*
X144687984Y-88867048D01*
X144648077Y-88788728D01*
X144595053Y-88684662D01*
X144574814Y-88656805D01*
X144474737Y-88519058D01*
X144329979Y-88374300D01*
X144164380Y-88253987D01*
X144094713Y-88218490D01*
X144071683Y-88206755D01*
X144020889Y-88158783D01*
X144004094Y-88090962D01*
X144026631Y-88024827D01*
X144071683Y-87985788D01*
X144164376Y-87938559D01*
X144284717Y-87851127D01*
X144329979Y-87818243D01*
X144329981Y-87818240D01*
X144329985Y-87818238D01*
X144474732Y-87673491D01*
X144474734Y-87673487D01*
X144474737Y-87673485D01*
X144554718Y-87563399D01*
X144595053Y-87507882D01*
X144687986Y-87325491D01*
X144751243Y-87130806D01*
X144783266Y-86928624D01*
X144783266Y-86723920D01*
X144775193Y-86672952D01*
X144751243Y-86521737D01*
X144706737Y-86384762D01*
X144687986Y-86327053D01*
X144687984Y-86327050D01*
X144687984Y-86327048D01*
X144650210Y-86252913D01*
X144595053Y-86144662D01*
X144567326Y-86106499D01*
X144474737Y-85979058D01*
X144329979Y-85834300D01*
X144164380Y-85713987D01*
X144157772Y-85710620D01*
X144071683Y-85666755D01*
X144020889Y-85618783D01*
X144004094Y-85550962D01*
X144026631Y-85484827D01*
X144071683Y-85445788D01*
X144164376Y-85398559D01*
X144226205Y-85353638D01*
X144329979Y-85278243D01*
X144329981Y-85278240D01*
X144329985Y-85278238D01*
X144474732Y-85133491D01*
X144474734Y-85133487D01*
X144474737Y-85133485D01*
X144531331Y-85055589D01*
X144595053Y-84967882D01*
X144687986Y-84785491D01*
X144751243Y-84590806D01*
X144783266Y-84388624D01*
X144783266Y-84183920D01*
X144764756Y-84067052D01*
X144751243Y-83981737D01*
X144713391Y-83865242D01*
X144687986Y-83787053D01*
X144687984Y-83787050D01*
X144687984Y-83787048D01*
X144628918Y-83671126D01*
X144595053Y-83604662D01*
X144560340Y-83556883D01*
X144474737Y-83439058D01*
X144329985Y-83294306D01*
X144323952Y-83289923D01*
X144236313Y-83226250D01*
X144193648Y-83170921D01*
X144187669Y-83101308D01*
X144220274Y-83039512D01*
X144270192Y-83008227D01*
X144352100Y-82981086D01*
X144501422Y-82888984D01*
X144625478Y-82764928D01*
X144717580Y-82615606D01*
X144772765Y-82449069D01*
X144783266Y-82346281D01*
X144783265Y-81643920D01*
X149802266Y-81643920D01*
X149802266Y-81848623D01*
X149834288Y-82050806D01*
X149897547Y-82245495D01*
X149948901Y-82346281D01*
X149988674Y-82424340D01*
X149990481Y-82427885D01*
X150110794Y-82593485D01*
X150255552Y-82738243D01*
X150390597Y-82836357D01*
X150421156Y-82858559D01*
X150503892Y-82900715D01*
X150513846Y-82905787D01*
X150564642Y-82953762D01*
X150581437Y-83021583D01*
X150558900Y-83087718D01*
X150513846Y-83126757D01*
X150421152Y-83173987D01*
X150255552Y-83294300D01*
X150110794Y-83439058D01*
X149990481Y-83604658D01*
X149897547Y-83787048D01*
X149834288Y-83981737D01*
X149802266Y-84183920D01*
X149802266Y-84388623D01*
X149834288Y-84590806D01*
X149897547Y-84785495D01*
X149939934Y-84868682D01*
X149973200Y-84933971D01*
X149990481Y-84967885D01*
X150110794Y-85133485D01*
X150255552Y-85278243D01*
X150359335Y-85353644D01*
X150421156Y-85398559D01*
X150512606Y-85445155D01*
X150513846Y-85445787D01*
X150564642Y-85493762D01*
X150581437Y-85561583D01*
X150558900Y-85627718D01*
X150513846Y-85666757D01*
X150421152Y-85713987D01*
X150255552Y-85834300D01*
X150110794Y-85979058D01*
X149990481Y-86144658D01*
X149897547Y-86327048D01*
X149834288Y-86521737D01*
X149802266Y-86723920D01*
X149802266Y-86928623D01*
X149834288Y-87130806D01*
X149897547Y-87325495D01*
X149949823Y-87428091D01*
X149988971Y-87504923D01*
X149990481Y-87507885D01*
X150110794Y-87673485D01*
X150255552Y-87818243D01*
X150358351Y-87892929D01*
X150421156Y-87938559D01*
X150512606Y-87985155D01*
X150513846Y-87985787D01*
X150564642Y-88033762D01*
X150581437Y-88101583D01*
X150558900Y-88167718D01*
X150513846Y-88206757D01*
X150421152Y-88253987D01*
X150255552Y-88374300D01*
X150110794Y-88519058D01*
X149990481Y-88684658D01*
X149897547Y-88867048D01*
X149834288Y-89061737D01*
X149802266Y-89263920D01*
X149802266Y-89468623D01*
X149834288Y-89670806D01*
X149897547Y-89865495D01*
X149938186Y-89945252D01*
X149981905Y-90031055D01*
X149990481Y-90047885D01*
X150110794Y-90213485D01*
X150255552Y-90358243D01*
X150410515Y-90470828D01*
X150421156Y-90478559D01*
X150485426Y-90511306D01*
X150513846Y-90525787D01*
X150564642Y-90573762D01*
X150581437Y-90641583D01*
X150558900Y-90707718D01*
X150513846Y-90746757D01*
X150421152Y-90793987D01*
X150255552Y-90914300D01*
X150110794Y-91059058D01*
X149990481Y-91224658D01*
X149897547Y-91407048D01*
X149834288Y-91601737D01*
X149802266Y-91803920D01*
X149802266Y-92008623D01*
X149834288Y-92210806D01*
X149897547Y-92405495D01*
X149990481Y-92587885D01*
X150110794Y-92753485D01*
X150255552Y-92898243D01*
X150397761Y-93001562D01*
X150421156Y-93018559D01*
X150507650Y-93062630D01*
X150513846Y-93065787D01*
X150564642Y-93113762D01*
X150581437Y-93181583D01*
X150558900Y-93247718D01*
X150513846Y-93286757D01*
X150421152Y-93333987D01*
X150255552Y-93454300D01*
X150110794Y-93599058D01*
X149990481Y-93764658D01*
X149897547Y-93947048D01*
X149834288Y-94141737D01*
X149802266Y-94343920D01*
X149802266Y-94548623D01*
X149834288Y-94750806D01*
X149897547Y-94945495D01*
X149938094Y-95025071D01*
X149971887Y-95091394D01*
X149990481Y-95127885D01*
X150110794Y-95293485D01*
X150255552Y-95438243D01*
X150387214Y-95533899D01*
X150421156Y-95558559D01*
X150494923Y-95596145D01*
X150513846Y-95605787D01*
X150564642Y-95653762D01*
X150581437Y-95721583D01*
X150558900Y-95787718D01*
X150513846Y-95826757D01*
X150421152Y-95873987D01*
X150255552Y-95994300D01*
X150110794Y-96139058D01*
X149990481Y-96304658D01*
X149897547Y-96487048D01*
X149834288Y-96681737D01*
X149808650Y-96843611D01*
X149802266Y-96883920D01*
X149802266Y-97088624D01*
X149804119Y-97100322D01*
X149834288Y-97290806D01*
X149897547Y-97485495D01*
X149961457Y-97610925D01*
X149990351Y-97667631D01*
X149990481Y-97667885D01*
X150110794Y-97833485D01*
X150255552Y-97978243D01*
X150410515Y-98090828D01*
X150421156Y-98098559D01*
X150534557Y-98156340D01*
X150603542Y-98191490D01*
X150603544Y-98191490D01*
X150603547Y-98191492D01*
X150707903Y-98225399D01*
X150798231Y-98254749D01*
X150835981Y-98260728D01*
X151000414Y-98286772D01*
X151000415Y-98286772D01*
X151205117Y-98286772D01*
X151205118Y-98286772D01*
X151407300Y-98254749D01*
X151601985Y-98191492D01*
X151784376Y-98098559D01*
X151911986Y-98005846D01*
X151949979Y-97978243D01*
X151949981Y-97978240D01*
X151949985Y-97978238D01*
X152094732Y-97833491D01*
X152094734Y-97833487D01*
X152094737Y-97833485D01*
X152147498Y-97760862D01*
X152215053Y-97667882D01*
X152307986Y-97485491D01*
X152371243Y-97290806D01*
X152403266Y-97088624D01*
X152403266Y-96883920D01*
X152382435Y-96752399D01*
X152371243Y-96681737D01*
X152340224Y-96586272D01*
X152307986Y-96487053D01*
X152307984Y-96487050D01*
X152307984Y-96487048D01*
X152261687Y-96396186D01*
X152215053Y-96304662D01*
X152191774Y-96272621D01*
X152094737Y-96139058D01*
X151949979Y-95994300D01*
X151784380Y-95873987D01*
X151722220Y-95842315D01*
X151691683Y-95826755D01*
X151640889Y-95778783D01*
X151624094Y-95710962D01*
X151646631Y-95644827D01*
X151691683Y-95605788D01*
X151784376Y-95558559D01*
X151823044Y-95530465D01*
X151949979Y-95438243D01*
X151949981Y-95438240D01*
X151949985Y-95438238D01*
X152094732Y-95293491D01*
X152094734Y-95293487D01*
X152094737Y-95293485D01*
X152153664Y-95212377D01*
X152215053Y-95127882D01*
X152307986Y-94945491D01*
X152328290Y-94883001D01*
X152367726Y-94825327D01*
X152432084Y-94798128D01*
X152500931Y-94810042D01*
X152533901Y-94833639D01*
X153160719Y-95460456D01*
X153160729Y-95460467D01*
X153165059Y-95464797D01*
X153165060Y-95464798D01*
X153270348Y-95570086D01*
X153270350Y-95570087D01*
X153270351Y-95570088D01*
X153315484Y-95596145D01*
X153399298Y-95644535D01*
X153425262Y-95651492D01*
X153543123Y-95683074D01*
X153543124Y-95683074D01*
X153699619Y-95683074D01*
X153699635Y-95683073D01*
X154267472Y-95683073D01*
X154334511Y-95702758D01*
X154377956Y-95750776D01*
X154399360Y-95792785D01*
X154415975Y-95825393D01*
X154540914Y-95997359D01*
X154691237Y-96147682D01*
X154863203Y-96272621D01*
X154863205Y-96272622D01*
X154863208Y-96272624D01*
X155052612Y-96369130D01*
X155254781Y-96434819D01*
X155464737Y-96468073D01*
X155464738Y-96468073D01*
X155677310Y-96468073D01*
X155677311Y-96468073D01*
X155887267Y-96434819D01*
X156089436Y-96369130D01*
X156278840Y-96272624D01*
X156300813Y-96256659D01*
X156450810Y-96147682D01*
X156450812Y-96147679D01*
X156450816Y-96147677D01*
X156601128Y-95997365D01*
X156601130Y-95997361D01*
X156601133Y-95997359D01*
X156726072Y-95825393D01*
X156726071Y-95825393D01*
X156726075Y-95825389D01*
X156822581Y-95635985D01*
X156888270Y-95433816D01*
X156921524Y-95223860D01*
X156921524Y-95011286D01*
X156888270Y-94801330D01*
X156822581Y-94599161D01*
X156726075Y-94409757D01*
X156726073Y-94409754D01*
X156726072Y-94409752D01*
X156601133Y-94237786D01*
X156450810Y-94087463D01*
X156278844Y-93962524D01*
X156278139Y-93962164D01*
X156270078Y-93958058D01*
X156219283Y-93910085D01*
X156202487Y-93842265D01*
X156225023Y-93776129D01*
X156270078Y-93737088D01*
X156278840Y-93732624D01*
X156358003Y-93675109D01*
X156450810Y-93607682D01*
X156450812Y-93607679D01*
X156450816Y-93607677D01*
X156601128Y-93457365D01*
X156601130Y-93457361D01*
X156601133Y-93457359D01*
X156726072Y-93285393D01*
X156726071Y-93285393D01*
X156726075Y-93285389D01*
X156822581Y-93095985D01*
X156888270Y-92893816D01*
X156921524Y-92683860D01*
X156921524Y-92471286D01*
X156888270Y-92261330D01*
X156822581Y-92059161D01*
X156726075Y-91869757D01*
X156726073Y-91869754D01*
X156726072Y-91869752D01*
X156601133Y-91697786D01*
X156450810Y-91547463D01*
X156278844Y-91422524D01*
X156278139Y-91422164D01*
X156270078Y-91418058D01*
X156219283Y-91370085D01*
X156202487Y-91302265D01*
X156225023Y-91236129D01*
X156270078Y-91197088D01*
X156278840Y-91192624D01*
X156300813Y-91176659D01*
X156450810Y-91067682D01*
X156450812Y-91067679D01*
X156450816Y-91067677D01*
X156601128Y-90917365D01*
X156601130Y-90917361D01*
X156601133Y-90917359D01*
X156726072Y-90745393D01*
X156726073Y-90745392D01*
X156726075Y-90745389D01*
X156822581Y-90555985D01*
X156888270Y-90353816D01*
X156921524Y-90143860D01*
X156921524Y-89931286D01*
X156888270Y-89721330D01*
X156822581Y-89519161D01*
X156726075Y-89329757D01*
X156726073Y-89329754D01*
X156726072Y-89329752D01*
X156601133Y-89157786D01*
X156450810Y-89007463D01*
X156278841Y-88882522D01*
X156269528Y-88877777D01*
X156218731Y-88829803D01*
X156201936Y-88761982D01*
X156224473Y-88695847D01*
X156269531Y-88656805D01*
X156278579Y-88652195D01*
X156332740Y-88612843D01*
X156332741Y-88612843D01*
X155700432Y-87980535D01*
X155764017Y-87963498D01*
X155878031Y-87897672D01*
X155971123Y-87804580D01*
X156036949Y-87690566D01*
X156053986Y-87626981D01*
X156686294Y-88259290D01*
X156686294Y-88259289D01*
X156725646Y-88205127D01*
X156822119Y-88015790D01*
X156887781Y-87813703D01*
X156887781Y-87813700D01*
X156921024Y-87603819D01*
X156921024Y-87391326D01*
X156887781Y-87181445D01*
X156887781Y-87181442D01*
X156822119Y-86979355D01*
X156725648Y-86790022D01*
X156686294Y-86735855D01*
X156686293Y-86735855D01*
X156053986Y-87368163D01*
X156036949Y-87304580D01*
X155971123Y-87190566D01*
X155878031Y-87097474D01*
X155764017Y-87031648D01*
X155700433Y-87014610D01*
X156370651Y-86344391D01*
X156431974Y-86310906D01*
X156458331Y-86308072D01*
X156468896Y-86308072D01*
X156528507Y-86301664D01*
X156663355Y-86251369D01*
X156778570Y-86165119D01*
X156864820Y-86049904D01*
X156915115Y-85915056D01*
X156921524Y-85855446D01*
X156921523Y-84059701D01*
X156915115Y-84000090D01*
X156912646Y-83993471D01*
X156864821Y-83865244D01*
X156864817Y-83865237D01*
X156778571Y-83750028D01*
X156778568Y-83750025D01*
X156663359Y-83663779D01*
X156663352Y-83663775D01*
X156528506Y-83613481D01*
X156528507Y-83613481D01*
X156468907Y-83607074D01*
X156468905Y-83607073D01*
X156468897Y-83607073D01*
X156468888Y-83607073D01*
X154673153Y-83607073D01*
X154673147Y-83607074D01*
X154613540Y-83613481D01*
X154478695Y-83663775D01*
X154478688Y-83663779D01*
X154363479Y-83750025D01*
X154363476Y-83750028D01*
X154277230Y-83865237D01*
X154277226Y-83865244D01*
X154226932Y-84000090D01*
X154220525Y-84059689D01*
X154220525Y-84059696D01*
X154220524Y-84059708D01*
X154220524Y-84621424D01*
X154200839Y-84688463D01*
X154148035Y-84734218D01*
X154078877Y-84744162D01*
X154015321Y-84715137D01*
X154008843Y-84709105D01*
X153133498Y-83833760D01*
X153133493Y-83833756D01*
X153004549Y-83759311D01*
X153004548Y-83759310D01*
X152968590Y-83749675D01*
X152860722Y-83720772D01*
X152860719Y-83720772D01*
X152350201Y-83720772D01*
X152283162Y-83701087D01*
X152239716Y-83653066D01*
X152215052Y-83604660D01*
X152094737Y-83439058D01*
X151949979Y-83294300D01*
X151784380Y-83173987D01*
X151714713Y-83138490D01*
X151691683Y-83126755D01*
X151640889Y-83078783D01*
X151624094Y-83010962D01*
X151646631Y-82944827D01*
X151691683Y-82905788D01*
X151784376Y-82858559D01*
X151814937Y-82836355D01*
X151949979Y-82738243D01*
X151949981Y-82738240D01*
X151949985Y-82738238D01*
X152094732Y-82593491D01*
X152094734Y-82593487D01*
X152094737Y-82593485D01*
X152182281Y-82472989D01*
X152215053Y-82427882D01*
X152307986Y-82245491D01*
X152371243Y-82050806D01*
X152403266Y-81848624D01*
X152403266Y-81643920D01*
X152374839Y-81464444D01*
X152371243Y-81441737D01*
X152311798Y-81258786D01*
X152307986Y-81247053D01*
X152307984Y-81247050D01*
X152307984Y-81247048D01*
X152265156Y-81162994D01*
X152215053Y-81064662D01*
X152199658Y-81043472D01*
X152094737Y-80899058D01*
X151949979Y-80754300D01*
X151784379Y-80633987D01*
X151784378Y-80633986D01*
X151784376Y-80633985D01*
X151724664Y-80603560D01*
X151601989Y-80541053D01*
X151407300Y-80477794D01*
X151232761Y-80450150D01*
X151205118Y-80445772D01*
X151000414Y-80445772D01*
X150976095Y-80449623D01*
X150798231Y-80477794D01*
X150603542Y-80541053D01*
X150421152Y-80633987D01*
X150255552Y-80754300D01*
X150110794Y-80899058D01*
X149990481Y-81064658D01*
X149897547Y-81247048D01*
X149834288Y-81441737D01*
X149802266Y-81643920D01*
X144783265Y-81643920D01*
X144783265Y-81146264D01*
X144772765Y-81043475D01*
X144717580Y-80876938D01*
X144625478Y-80727616D01*
X144501422Y-80603560D01*
X144371124Y-80523192D01*
X144352102Y-80511459D01*
X144352097Y-80511457D01*
X144350628Y-80510970D01*
X144185563Y-80456273D01*
X144185561Y-80456272D01*
X144082776Y-80445772D01*
X142882764Y-80445772D01*
X142882747Y-80445773D01*
X142779969Y-80456272D01*
X142779966Y-80456273D01*
X142613434Y-80511457D01*
X142613429Y-80511459D01*
X142464108Y-80603561D01*
X142340055Y-80727614D01*
X142247953Y-80876935D01*
X142247951Y-80876940D01*
X142245365Y-80884745D01*
X142192767Y-81043475D01*
X142192767Y-81043476D01*
X142192766Y-81043476D01*
X142182266Y-81146255D01*
X140496730Y-81146255D01*
X140461135Y-81076395D01*
X140437218Y-81043476D01*
X140340819Y-80910791D01*
X140196061Y-80766033D01*
X140030461Y-80645720D01*
X140030460Y-80645719D01*
X140030458Y-80645718D01*
X139970746Y-80615293D01*
X139848071Y-80552786D01*
X139653382Y-80489527D01*
X139478843Y-80461883D01*
X139451200Y-80457505D01*
X139246496Y-80457505D01*
X139222177Y-80461356D01*
X139044313Y-80489527D01*
X138849624Y-80552786D01*
X138667234Y-80645720D01*
X138501634Y-80766033D01*
X138356876Y-80910791D01*
X138236563Y-81076391D01*
X138143629Y-81258781D01*
X138080370Y-81453470D01*
X138048348Y-81655653D01*
X138048348Y-81860356D01*
X138080370Y-82062539D01*
X138143629Y-82257228D01*
X138207539Y-82382658D01*
X138235731Y-82437987D01*
X138236563Y-82439618D01*
X138356876Y-82605218D01*
X138501634Y-82749976D01*
X138651085Y-82858556D01*
X138667238Y-82870292D01*
X138736901Y-82905787D01*
X138759928Y-82917520D01*
X138810724Y-82965495D01*
X138827519Y-83033316D01*
X138804982Y-83099451D01*
X138759928Y-83138490D01*
X138667234Y-83185720D01*
X138501634Y-83306033D01*
X138356876Y-83450791D01*
X138236563Y-83616391D01*
X138143629Y-83798781D01*
X138080370Y-83993470D01*
X138048348Y-84195653D01*
X138048348Y-84400356D01*
X138080370Y-84602539D01*
X138143629Y-84797228D01*
X138200282Y-84908414D01*
X138230584Y-84967885D01*
X138236563Y-84979618D01*
X138356876Y-85145218D01*
X138501634Y-85289976D01*
X138651085Y-85398556D01*
X138667238Y-85410292D01*
X138736901Y-85445787D01*
X138759928Y-85457520D01*
X138810724Y-85505495D01*
X138827519Y-85573316D01*
X138804982Y-85639451D01*
X138759928Y-85678490D01*
X138667234Y-85725720D01*
X138501634Y-85846033D01*
X138356876Y-85990791D01*
X138236563Y-86156391D01*
X138143629Y-86338781D01*
X138080370Y-86533470D01*
X138048348Y-86735653D01*
X138048348Y-86940356D01*
X138080370Y-87142539D01*
X138143629Y-87337228D01*
X138188632Y-87425550D01*
X138230584Y-87507885D01*
X138236563Y-87519618D01*
X138356876Y-87685218D01*
X138501634Y-87829976D01*
X138637282Y-87928528D01*
X138667238Y-87950292D01*
X138736901Y-87985787D01*
X138759928Y-87997520D01*
X138810724Y-88045495D01*
X138827519Y-88113316D01*
X138804982Y-88179451D01*
X138759928Y-88218490D01*
X138667234Y-88265720D01*
X138501634Y-88386033D01*
X138356876Y-88530791D01*
X138236563Y-88696391D01*
X138143629Y-88878781D01*
X138080370Y-89073470D01*
X138048348Y-89275653D01*
X138048348Y-89480356D01*
X138080370Y-89682539D01*
X138143629Y-89877228D01*
X138207539Y-90002658D01*
X138230584Y-90047885D01*
X138236563Y-90059618D01*
X138356876Y-90225218D01*
X138501634Y-90369976D01*
X138590022Y-90434192D01*
X138667238Y-90490292D01*
X138736901Y-90525787D01*
X138759928Y-90537520D01*
X138810724Y-90585495D01*
X138827519Y-90653316D01*
X138804982Y-90719451D01*
X138759928Y-90758490D01*
X138667234Y-90805720D01*
X138501634Y-90926033D01*
X138356876Y-91070791D01*
X138236563Y-91236391D01*
X138143629Y-91418781D01*
X138080370Y-91613470D01*
X138048348Y-91815653D01*
X138048348Y-92020356D01*
X138080370Y-92222539D01*
X138143629Y-92417228D01*
X138190777Y-92509759D01*
X138233478Y-92593565D01*
X138236563Y-92599618D01*
X138356876Y-92765218D01*
X138501634Y-92909976D01*
X138627687Y-93001557D01*
X138667238Y-93030292D01*
X138730705Y-93062630D01*
X138759928Y-93077520D01*
X138810724Y-93125495D01*
X138827519Y-93193316D01*
X138804982Y-93259451D01*
X138759928Y-93298490D01*
X138667234Y-93345720D01*
X138501634Y-93466033D01*
X138356876Y-93610791D01*
X138236563Y-93776391D01*
X138143629Y-93958781D01*
X138080370Y-94153470D01*
X138048348Y-94355653D01*
X138048348Y-94560356D01*
X138080370Y-94762539D01*
X138143629Y-94957228D01*
X138190622Y-95049455D01*
X138230584Y-95127885D01*
X138236563Y-95139618D01*
X138356876Y-95305218D01*
X138501634Y-95449976D01*
X138651085Y-95558556D01*
X138667238Y-95570292D01*
X138740004Y-95607368D01*
X138759928Y-95617520D01*
X138810724Y-95665495D01*
X138827519Y-95733316D01*
X138804982Y-95799451D01*
X138759928Y-95838490D01*
X138667234Y-95885720D01*
X138501634Y-96006033D01*
X138356876Y-96150791D01*
X138236561Y-96316393D01*
X138211898Y-96364799D01*
X138163924Y-96415595D01*
X138101413Y-96432505D01*
X137033604Y-96432505D01*
X136966565Y-96412820D01*
X136945923Y-96396186D01*
X136101819Y-95552081D01*
X136068334Y-95490758D01*
X136065500Y-95464400D01*
X136065500Y-85175552D01*
X136065500Y-85175550D01*
X136026962Y-85031725D01*
X135970524Y-84933971D01*
X135952515Y-84902778D01*
X135952511Y-84902773D01*
X134895231Y-83845493D01*
X134895226Y-83845489D01*
X134766282Y-83771044D01*
X134766281Y-83771043D01*
X134722492Y-83759310D01*
X134622455Y-83732505D01*
X134622452Y-83732505D01*
X132976283Y-83732505D01*
X132909244Y-83712820D01*
X132865798Y-83664799D01*
X132841134Y-83616393D01*
X132720819Y-83450791D01*
X132576067Y-83306039D01*
X132559915Y-83294304D01*
X132482395Y-83237983D01*
X132439730Y-83182654D01*
X132433751Y-83113041D01*
X132466356Y-83051245D01*
X132516274Y-83019960D01*
X132598182Y-82992819D01*
X132747504Y-82900717D01*
X132871560Y-82776661D01*
X132963662Y-82627339D01*
X133018847Y-82460802D01*
X133029348Y-82358014D01*
X133029347Y-81157997D01*
X133028148Y-81146264D01*
X133018847Y-81055208D01*
X133018846Y-81055205D01*
X133014958Y-81043472D01*
X132963662Y-80888671D01*
X132871560Y-80739349D01*
X132747504Y-80615293D01*
X132627141Y-80541053D01*
X132598184Y-80523192D01*
X132598179Y-80523190D01*
X132562771Y-80511457D01*
X132431645Y-80468006D01*
X132431643Y-80468005D01*
X132328858Y-80457505D01*
X131128846Y-80457505D01*
X131128829Y-80457506D01*
X131026051Y-80468005D01*
X131026048Y-80468006D01*
X130859516Y-80523190D01*
X130859511Y-80523192D01*
X130710190Y-80615294D01*
X130586137Y-80739347D01*
X130494035Y-80888668D01*
X130494033Y-80888673D01*
X130490592Y-80899058D01*
X130438849Y-81055208D01*
X130438849Y-81055209D01*
X130438848Y-81055209D01*
X130428348Y-81157988D01*
X127090000Y-81157988D01*
X127090000Y-81065630D01*
X127064444Y-80970255D01*
X127015075Y-80884745D01*
X126995330Y-80865000D01*
X127740000Y-80865000D01*
X127740000Y-80789045D01*
X127739999Y-80789041D01*
X127700612Y-80591025D01*
X127700609Y-80591016D01*
X127623347Y-80404486D01*
X127623340Y-80404473D01*
X127511170Y-80236600D01*
X127511167Y-80236596D01*
X127368403Y-80093832D01*
X127368399Y-80093829D01*
X127200526Y-79981659D01*
X127200513Y-79981652D01*
X127013984Y-79904390D01*
X127013977Y-79904388D01*
X126965000Y-79894645D01*
X126965000Y-80834670D01*
X126945255Y-80814925D01*
X126859745Y-80765556D01*
X126764370Y-80740000D01*
X126665630Y-80740000D01*
X126570255Y-80765556D01*
X126484745Y-80814925D01*
X126470500Y-80829170D01*
X126470500Y-80788997D01*
X126467383Y-80773326D01*
X126465000Y-80749134D01*
X126465000Y-79894646D01*
X126464999Y-79894645D01*
X126416022Y-79904388D01*
X126416015Y-79904390D01*
X126229481Y-79981654D01*
X126229479Y-79981655D01*
X126149337Y-80035204D01*
X126082660Y-80056081D01*
X126015280Y-80037596D01*
X126011558Y-80035204D01*
X125930754Y-79981212D01*
X125744127Y-79903909D01*
X125744119Y-79903907D01*
X125546007Y-79864500D01*
X125546003Y-79864500D01*
X125343997Y-79864500D01*
X125343992Y-79864500D01*
X125145880Y-79903907D01*
X125145868Y-79903910D01*
X125065198Y-79937325D01*
X124995729Y-79944794D01*
X124950342Y-79925036D01*
X124950114Y-79925454D01*
X124945447Y-79922905D01*
X124943432Y-79922028D01*
X124942331Y-79921204D01*
X124942330Y-79921203D01*
X124942328Y-79921202D01*
X124807482Y-79870908D01*
X124807483Y-79870908D01*
X124747883Y-79864501D01*
X124747881Y-79864500D01*
X124747873Y-79864500D01*
X124747864Y-79864500D01*
X123602129Y-79864500D01*
X123602123Y-79864501D01*
X123542516Y-79870908D01*
X123407671Y-79921202D01*
X123407664Y-79921206D01*
X123292455Y-80007452D01*
X123292452Y-80007455D01*
X123206206Y-80122664D01*
X123206202Y-80122671D01*
X123155908Y-80257517D01*
X123149501Y-80317116D01*
X123149500Y-80317135D01*
X102379957Y-80317135D01*
X102381896Y-80299923D01*
X102381896Y-80299922D01*
X102389031Y-80236596D01*
X102400500Y-80134809D01*
X102400500Y-79865191D01*
X102370312Y-79597268D01*
X102310316Y-79334409D01*
X102221267Y-79079921D01*
X102104284Y-78837003D01*
X102011898Y-78689972D01*
X101992898Y-78622735D01*
X102013266Y-78555900D01*
X102066534Y-78510686D01*
X102116892Y-78500000D01*
X105674626Y-78500000D01*
X105741665Y-78519685D01*
G37*
%TD.AperFunction*%
%TA.AperFunction,Conductor*%
G36*
X107439075Y-100337993D02*
G01*
X107504901Y-100452007D01*
X107597993Y-100545099D01*
X107712007Y-100610925D01*
X107775590Y-100627962D01*
X107143282Y-101260269D01*
X107143282Y-101260270D01*
X107164494Y-101275681D01*
X107207160Y-101331011D01*
X107213139Y-101400624D01*
X107180534Y-101462420D01*
X107119696Y-101496777D01*
X107091609Y-101500000D01*
X106709884Y-101500000D01*
X106642845Y-101480315D01*
X106597090Y-101427511D01*
X106587146Y-101358353D01*
X106610618Y-101301688D01*
X106658796Y-101237331D01*
X106709091Y-101102483D01*
X106715500Y-101042873D01*
X106715499Y-101032312D01*
X106735179Y-100965275D01*
X106751818Y-100944626D01*
X107422037Y-100274408D01*
X107439075Y-100337993D01*
G37*
%TD.AperFunction*%
%TA.AperFunction,Conductor*%
G36*
X109020270Y-100906717D02*
G01*
X109020270Y-100906716D01*
X109059622Y-100852555D01*
X109064232Y-100843507D01*
X109112205Y-100792709D01*
X109180025Y-100775912D01*
X109246161Y-100798447D01*
X109285204Y-100843504D01*
X109289949Y-100852817D01*
X109414890Y-101024786D01*
X109414896Y-101024792D01*
X109565208Y-101175104D01*
X109703642Y-101275682D01*
X109746308Y-101331011D01*
X109752287Y-101400625D01*
X109719682Y-101462420D01*
X109658843Y-101496777D01*
X109630757Y-101500000D01*
X108718392Y-101500000D01*
X108651353Y-101480315D01*
X108605598Y-101427511D01*
X108595654Y-101358353D01*
X108624679Y-101294797D01*
X108645506Y-101275683D01*
X108666716Y-101260272D01*
X108666717Y-101260270D01*
X108034408Y-100627962D01*
X108097993Y-100610925D01*
X108212007Y-100545099D01*
X108305099Y-100452007D01*
X108370925Y-100337993D01*
X108387962Y-100274409D01*
X109020270Y-100906717D01*
G37*
%TD.AperFunction*%
%TA.AperFunction,Conductor*%
G36*
X120581945Y-95167323D02*
G01*
X120625397Y-95222038D01*
X120634500Y-95268672D01*
X120634500Y-98193689D01*
X120614815Y-98260728D01*
X120598181Y-98281370D01*
X119386370Y-99493181D01*
X119325047Y-99526666D01*
X119298689Y-99529500D01*
X116803075Y-99529500D01*
X116788470Y-99525211D01*
X116773263Y-99525863D01*
X116755627Y-99515567D01*
X116736036Y-99509815D01*
X116725137Y-99497768D01*
X116712923Y-99490638D01*
X116692590Y-99461795D01*
X116690142Y-99456990D01*
X116677249Y-99388322D01*
X116703528Y-99323583D01*
X116760636Y-99283328D01*
X116800630Y-99276701D01*
X117363246Y-99276701D01*
X117363249Y-99276701D01*
X117507074Y-99238163D01*
X117636024Y-99163714D01*
X119702513Y-97097225D01*
X119776962Y-96968275D01*
X119815500Y-96824450D01*
X119815500Y-96675550D01*
X119787576Y-96571337D01*
X119779827Y-96542416D01*
X119775602Y-96510323D01*
X119775602Y-95876533D01*
X119795287Y-95809494D01*
X119843307Y-95766048D01*
X119917918Y-95728033D01*
X120009774Y-95661295D01*
X120089888Y-95603091D01*
X120089890Y-95603088D01*
X120089894Y-95603086D01*
X120240206Y-95452774D01*
X120240208Y-95452770D01*
X120240211Y-95452768D01*
X120365150Y-95280802D01*
X120365149Y-95280802D01*
X120365153Y-95280798D01*
X120400015Y-95212376D01*
X120447989Y-95161581D01*
X120515810Y-95144786D01*
X120581945Y-95167323D01*
G37*
%TD.AperFunction*%
%TA.AperFunction,Conductor*%
G36*
X161359563Y-88266640D02*
G01*
X161366271Y-88266113D01*
X161434648Y-88280477D01*
X161484405Y-88329528D01*
X161500000Y-88389731D01*
X161500000Y-89094012D01*
X161480315Y-89161051D01*
X161427511Y-89206806D01*
X161358353Y-89216750D01*
X161294797Y-89187725D01*
X161275687Y-89166905D01*
X161274624Y-89165444D01*
X161274398Y-89165132D01*
X161124086Y-89014820D01*
X161124080Y-89014814D01*
X160952111Y-88889873D01*
X160942798Y-88885128D01*
X160892001Y-88837154D01*
X160875206Y-88769333D01*
X160897743Y-88703198D01*
X160942801Y-88664156D01*
X160951849Y-88659546D01*
X161006010Y-88620194D01*
X161006011Y-88620194D01*
X160373702Y-87987886D01*
X160437287Y-87970849D01*
X160551301Y-87905023D01*
X160644393Y-87811931D01*
X160710219Y-87697917D01*
X160727256Y-87634332D01*
X161359563Y-88266640D01*
G37*
%TD.AperFunction*%
%TA.AperFunction,Conductor*%
G36*
X161397802Y-86255537D02*
G01*
X161402358Y-86255212D01*
X161429284Y-86269915D01*
X161457203Y-86282665D01*
X161459673Y-86286508D01*
X161463681Y-86288697D01*
X161478384Y-86315624D01*
X161494977Y-86341443D01*
X161495868Y-86347643D01*
X161497166Y-86350020D01*
X161500000Y-86376378D01*
X161500000Y-86620116D01*
X161480315Y-86687155D01*
X161427511Y-86732910D01*
X161366271Y-86743734D01*
X161359563Y-86743206D01*
X160727256Y-87375514D01*
X160710219Y-87311931D01*
X160644393Y-87197917D01*
X160551301Y-87104825D01*
X160437287Y-87038999D01*
X160373703Y-87021961D01*
X161043921Y-86351742D01*
X161105244Y-86318257D01*
X161131601Y-86315423D01*
X161142166Y-86315423D01*
X161201777Y-86309015D01*
X161332667Y-86260195D01*
X161363275Y-86258007D01*
X161393647Y-86253640D01*
X161397802Y-86255537D01*
G37*
%TD.AperFunction*%
%TD*%
M02*
