%TF.GenerationSoftware,KiCad,Pcbnew,10.0.1*%
%TF.CreationDate,2026-05-17T15:29:23+02:00*%
%TF.ProjectId,Debugger,44656275-6767-4657-922e-6b696361645f,2*%
%TF.SameCoordinates,Original*%
%TF.FileFunction,Legend,Bot*%
%TF.FilePolarity,Positive*%
%FSLAX46Y46*%
G04 Gerber Fmt 4.6, Leading zero omitted, Abs format (unit mm)*
G04 Created by KiCad (PCBNEW 10.0.1) date 2026-05-17 15:29:23*
%MOMM*%
%LPD*%
G01*
G04 APERTURE LIST*
G04 Aperture macros list*
%AMRoundRect*
0 Rectangle with rounded corners*
0 $1 Rounding radius*
0 $2 $3 $4 $5 $6 $7 $8 $9 X,Y pos of 4 corners*
0 Add a 4 corners polygon primitive as box body*
4,1,4,$2,$3,$4,$5,$6,$7,$8,$9,$2,$3,0*
0 Add four circle primitives for the rounded corners*
1,1,$1+$1,$2,$3*
1,1,$1+$1,$4,$5*
1,1,$1+$1,$6,$7*
1,1,$1+$1,$8,$9*
0 Add four rect primitives between the rounded corners*
20,1,$1+$1,$2,$3,$4,$5,0*
20,1,$1+$1,$4,$5,$6,$7,0*
20,1,$1+$1,$6,$7,$8,$9,0*
20,1,$1+$1,$8,$9,$2,$3,0*%
G04 Aperture macros list end*
%ADD10C,0.300000*%
%ADD11C,3.800000*%
%ADD12R,1.700000X1.700000*%
%ADD13C,1.700000*%
%ADD14R,1.050000X1.500000*%
%ADD15O,1.050000X1.500000*%
%ADD16RoundRect,0.250000X-0.550000X-0.550000X0.550000X-0.550000X0.550000X0.550000X-0.550000X0.550000X0*%
%ADD17C,1.600000*%
%ADD18RoundRect,0.250000X0.550000X-0.550000X0.550000X0.550000X-0.550000X0.550000X-0.550000X-0.550000X0*%
%ADD19C,2.000000*%
%ADD20RoundRect,0.250000X-0.350000X-0.350000X0.350000X-0.350000X0.350000X0.350000X-0.350000X0.350000X0*%
%ADD21C,1.200000*%
%ADD22C,2.340000*%
G04 APERTURE END LIST*
D10*
X156088346Y-101550828D02*
X156588346Y-100836542D01*
X156945489Y-101550828D02*
X156945489Y-100050828D01*
X156945489Y-100050828D02*
X156374060Y-100050828D01*
X156374060Y-100050828D02*
X156231203Y-100122257D01*
X156231203Y-100122257D02*
X156159774Y-100193685D01*
X156159774Y-100193685D02*
X156088346Y-100336542D01*
X156088346Y-100336542D02*
X156088346Y-100550828D01*
X156088346Y-100550828D02*
X156159774Y-100693685D01*
X156159774Y-100693685D02*
X156231203Y-100765114D01*
X156231203Y-100765114D02*
X156374060Y-100836542D01*
X156374060Y-100836542D02*
X156945489Y-100836542D01*
X154874060Y-101479400D02*
X155016917Y-101550828D01*
X155016917Y-101550828D02*
X155302632Y-101550828D01*
X155302632Y-101550828D02*
X155445489Y-101479400D01*
X155445489Y-101479400D02*
X155516917Y-101336542D01*
X155516917Y-101336542D02*
X155516917Y-100765114D01*
X155516917Y-100765114D02*
X155445489Y-100622257D01*
X155445489Y-100622257D02*
X155302632Y-100550828D01*
X155302632Y-100550828D02*
X155016917Y-100550828D01*
X155016917Y-100550828D02*
X154874060Y-100622257D01*
X154874060Y-100622257D02*
X154802632Y-100765114D01*
X154802632Y-100765114D02*
X154802632Y-100907971D01*
X154802632Y-100907971D02*
X155516917Y-101050828D01*
X154302632Y-100550828D02*
X153945489Y-101550828D01*
X153945489Y-101550828D02*
X153588346Y-100550828D01*
X153016918Y-101407971D02*
X152945489Y-101479400D01*
X152945489Y-101479400D02*
X153016918Y-101550828D01*
X153016918Y-101550828D02*
X153088346Y-101479400D01*
X153088346Y-101479400D02*
X153016918Y-101407971D01*
X153016918Y-101407971D02*
X153016918Y-101550828D01*
X151231203Y-100193685D02*
X151159775Y-100122257D01*
X151159775Y-100122257D02*
X151016918Y-100050828D01*
X151016918Y-100050828D02*
X150659775Y-100050828D01*
X150659775Y-100050828D02*
X150516918Y-100122257D01*
X150516918Y-100122257D02*
X150445489Y-100193685D01*
X150445489Y-100193685D02*
X150374060Y-100336542D01*
X150374060Y-100336542D02*
X150374060Y-100479400D01*
X150374060Y-100479400D02*
X150445489Y-100693685D01*
X150445489Y-100693685D02*
X151302632Y-101550828D01*
X151302632Y-101550828D02*
X150374060Y-101550828D01*
%LPC*%
D11*
%TO.C,H2*%
X160000000Y-100000000D03*
%TD*%
D12*
%TO.C,J1*%
X116670102Y-94572982D03*
D13*
X119210102Y-94572982D03*
%TD*%
D11*
%TO.C,H4*%
X100000000Y-80000000D03*
%TD*%
D14*
%TO.C,Q1*%
X124175000Y-81115000D03*
D15*
X125445000Y-81115000D03*
X126715000Y-81115000D03*
%TD*%
D16*
%TO.C,U3*%
X131728848Y-81758005D03*
D17*
X131728848Y-84298005D03*
X131728848Y-86838005D03*
X131728848Y-89378005D03*
X131728848Y-91918005D03*
X131728848Y-94458005D03*
X131728848Y-96998005D03*
X139348848Y-96998005D03*
X139348848Y-94458005D03*
X139348848Y-91918005D03*
X139348848Y-89378005D03*
X139348848Y-86838005D03*
X139348848Y-84298005D03*
X139348848Y-81758005D03*
%TD*%
D18*
%TO.C,U2*%
X111444941Y-89704705D03*
D17*
X113984941Y-89704705D03*
X116524941Y-89704705D03*
X119064941Y-89704705D03*
X119064941Y-82084705D03*
X116524941Y-82084705D03*
X113984941Y-82084705D03*
X111444941Y-82084705D03*
%TD*%
D12*
%TO.C,J4*%
X155571024Y-84957573D03*
D13*
X155571024Y-87497573D03*
X155571024Y-90037573D03*
X155571024Y-92577573D03*
X155571024Y-95117573D03*
%TD*%
D12*
%TO.C,J2*%
X105365000Y-100145000D03*
D13*
X107905000Y-100145000D03*
X110445000Y-100145000D03*
X112985000Y-100145000D03*
X115525000Y-100145000D03*
%TD*%
D19*
%TO.C,SW1*%
X123089766Y-100077554D03*
X123089766Y-93577554D03*
X127589766Y-100077554D03*
X127589766Y-93577554D03*
%TD*%
D20*
%TO.C,C3*%
X110854801Y-94900000D03*
D21*
X112854801Y-94900000D03*
%TD*%
D16*
%TO.C,U1*%
X143482766Y-81746272D03*
D17*
X143482766Y-84286272D03*
X143482766Y-86826272D03*
X143482766Y-89366272D03*
X143482766Y-91906272D03*
X143482766Y-94446272D03*
X143482766Y-96986272D03*
X151102766Y-96986272D03*
X151102766Y-94446272D03*
X151102766Y-91906272D03*
X151102766Y-89366272D03*
X151102766Y-86826272D03*
X151102766Y-84286272D03*
X151102766Y-81746272D03*
%TD*%
D12*
%TO.C,J3*%
X160244294Y-84964924D03*
D13*
X160244294Y-87504924D03*
X160244294Y-90044924D03*
X160244294Y-92584924D03*
X160244294Y-95124924D03*
%TD*%
D11*
%TO.C,H1*%
X100000000Y-100000000D03*
%TD*%
%TO.C,H3*%
X160000000Y-80000000D03*
%TD*%
D22*
%TO.C,RV1*%
X100915000Y-84095000D03*
X103415000Y-94095000D03*
X105915000Y-84095000D03*
%TD*%
%LPD*%
M02*
