M48
; DRILL file KiCad 10.0.1 date 2026-05-17T15:29:23
; FORMAT={-:-/ absolute / inch / decimal}
; #@! TF.CreationDate,2026-05-17T15:29:23+02:00
; #@! TF.GenerationSoftware,Kicad,Pcbnew,10.0.1
; #@! TF.FileFunction,Plated,1,4,PTH
FMAT,2
INCH
; #@! TA.AperFunction,Plated,PTH,ViaDrill
T1C0.0079
; #@! TA.AperFunction,Plated,PTH,ComponentDrill
T2C0.0236
; #@! TA.AperFunction,Plated,PTH,ComponentDrill
T3C0.0295
; #@! TA.AperFunction,Plated,PTH,ComponentDrill
T4C0.0315
; #@! TA.AperFunction,Plated,PTH,ComponentDrill
T5C0.0394
; #@! TA.AperFunction,Plated,PTH,ComponentDrill
T6C0.0433
; #@! TA.AperFunction,Plated,PTH,ComponentDrill
T7C0.0512
; #@! TA.AperFunction,Plated,PTH,ComponentDrill
T8C0.0866
%
G90
G05
T1
X3.9075Y-3.4646
X3.9075Y-3.5433
X3.9075Y-3.622
X4.0192Y-3.2273
X4.0601Y-3.1192
X4.1831Y-3.1201
X4.193Y-3.1976
X4.2024Y-3.1689
X4.2224Y-3.4646
X4.2224Y-3.5433
X4.2224Y-3.622
X4.3088Y-3.2334
X4.3898Y-3.3071
X4.5822Y-3.1593
X4.6224Y-3.9679
X4.6358Y-3.1791
X4.6752Y-3.4055
X4.7988Y-3.3622
X4.9628Y-3.5581
X4.9908Y-3.2798
X5.0544Y-3.195
X5.0591Y-3.435
X5.3278Y-3.8616
X5.3381Y-3.1842
X5.748Y-3.9272
X5.7988Y-3.1816
X5.8661Y-3.878
X6.0364Y-3.235
X6.1373Y-3.1475
T2
X4.3644Y-3.7362
X4.4431Y-3.7362
T3
X4.8888Y-3.1935
X4.9388Y-3.1935
X4.9888Y-3.1935
T4
X4.3876Y-3.2317
X4.3876Y-3.5317
X4.4876Y-3.2317
X4.4876Y-3.5317
X4.5876Y-3.2317
X4.5876Y-3.5317
X4.6876Y-3.2317
X4.6876Y-3.5317
X5.1862Y-3.2188
X5.1862Y-3.3188
X5.1862Y-3.4188
X5.1862Y-3.5188
X5.1862Y-3.6188
X5.1862Y-3.7188
X5.1862Y-3.8188
X5.4862Y-3.2188
X5.4862Y-3.3188
X5.4862Y-3.4188
X5.4862Y-3.5188
X5.4862Y-3.6188
X5.4862Y-3.7188
X5.4862Y-3.8188
X5.6489Y-3.2184
X5.6489Y-3.3184
X5.6489Y-3.4184
X5.6489Y-3.5184
X5.6489Y-3.6184
X5.6489Y-3.7184
X5.6489Y-3.8184
X5.9489Y-3.2184
X5.9489Y-3.3184
X5.9489Y-3.4184
X5.9489Y-3.5184
X5.9489Y-3.6184
X5.9489Y-3.7184
X5.9489Y-3.8184
T5
X4.1482Y-3.9427
X4.2482Y-3.9427
X4.3482Y-3.9427
X4.4482Y-3.9427
X4.5482Y-3.9427
X4.5933Y-3.7233
X4.6933Y-3.7233
X6.1248Y-3.3448
X6.1248Y-3.4448
X6.1248Y-3.5448
X6.1248Y-3.6448
X6.1248Y-3.7448
X6.3088Y-3.3451
X6.3088Y-3.4451
X6.3088Y-3.5451
X6.3088Y-3.6451
X6.3088Y-3.7451
T6
X4.8461Y-3.6842
X4.8461Y-3.9401
X5.0232Y-3.6842
X5.0232Y-3.9401
T7
X3.973Y-3.3108
X4.0715Y-3.7045
X4.1699Y-3.3108
T8
X3.937Y-3.1496
X3.937Y-3.937
X6.2992Y-3.1496
X6.2992Y-3.937
M30
