%TF.GenerationSoftware,KiCad,Pcbnew,10.0.1*%
%TF.CreationDate,2026-05-17T15:29:23+02:00*%
%TF.ProjectId,Debugger,44656275-6767-4657-922e-6b696361645f,2*%
%TF.SameCoordinates,Original*%
%TF.FileFunction,Paste,Top*%
%TF.FilePolarity,Positive*%
%FSLAX46Y46*%
G04 Gerber Fmt 4.6, Leading zero omitted, Abs format (unit mm)*
G04 Created by KiCad (PCBNEW 10.0.1) date 2026-05-17 15:29:23*
%MOMM*%
%LPD*%
G01*
G04 APERTURE LIST*
G04 Aperture macros list*
%AMRoundRect*
0 Rectangle with rounded corners*
0 $1 Rounding radius*
0 $2 $3 $4 $5 $6 $7 $8 $9 X,Y pos of 4 corners*
0 Add a 4 corners polygon primitive as box body*
4,1,4,$2,$3,$4,$5,$6,$7,$8,$9,$2,$3,0*
0 Add four circle primitives for the rounded corners*
1,1,$1+$1,$2,$3*
1,1,$1+$1,$4,$5*
1,1,$1+$1,$6,$7*
1,1,$1+$1,$8,$9*
0 Add four rect primitives between the rounded corners*
20,1,$1+$1,$2,$3,$4,$5,0*
20,1,$1+$1,$4,$5,$6,$7,0*
20,1,$1+$1,$6,$7,$8,$9,0*
20,1,$1+$1,$8,$9,$2,$3,0*%
G04 Aperture macros list end*
%ADD10RoundRect,0.200000X0.200000X0.275000X-0.200000X0.275000X-0.200000X-0.275000X0.200000X-0.275000X0*%
%ADD11RoundRect,0.218750X-0.218750X-0.256250X0.218750X-0.256250X0.218750X0.256250X-0.218750X0.256250X0*%
%ADD12RoundRect,0.200000X0.275000X-0.200000X0.275000X0.200000X-0.275000X0.200000X-0.275000X-0.200000X0*%
%ADD13RoundRect,0.250000X0.250000X0.475000X-0.250000X0.475000X-0.250000X-0.475000X0.250000X-0.475000X0*%
%ADD14RoundRect,0.200000X-0.275000X0.200000X-0.275000X-0.200000X0.275000X-0.200000X0.275000X0.200000X0*%
%ADD15RoundRect,0.225000X-0.225000X-0.250000X0.225000X-0.250000X0.225000X0.250000X-0.225000X0.250000X0*%
%ADD16RoundRect,0.200000X-0.200000X-0.275000X0.200000X-0.275000X0.200000X0.275000X-0.200000X0.275000X0*%
%ADD17RoundRect,0.225000X-0.250000X0.225000X-0.250000X-0.225000X0.250000X-0.225000X0.250000X0.225000X0*%
G04 APERTURE END LIST*
D10*
%TO.C,R4*%
X108471048Y-96833176D03*
X106821048Y-96833176D03*
%TD*%
D11*
%TO.C,D1*%
X146951508Y-99831699D03*
X148526508Y-99831699D03*
%TD*%
D12*
%TO.C,R3*%
X150149273Y-101175108D03*
X150149273Y-99525108D03*
%TD*%
%TO.C,R8*%
X135325000Y-101160000D03*
X135325000Y-99510000D03*
%TD*%
D13*
%TO.C,C4*%
X104859181Y-97280754D03*
X102959181Y-97280754D03*
%TD*%
D14*
%TO.C,R2*%
X123175000Y-85330000D03*
X123175000Y-86980000D03*
%TD*%
%TO.C,R6*%
X127150996Y-88715624D03*
X127150996Y-90365624D03*
%TD*%
D15*
%TO.C,C5*%
X150052766Y-79201272D03*
X151602766Y-79201272D03*
%TD*%
D11*
%TO.C,D4*%
X118748222Y-100812135D03*
X120323222Y-100812135D03*
%TD*%
D14*
%TO.C,R7*%
X123163047Y-88694058D03*
X123163047Y-90344058D03*
%TD*%
D16*
%TO.C,R5*%
X112580000Y-79345000D03*
X114230000Y-79345000D03*
%TD*%
D17*
%TO.C,C2*%
X108175000Y-79370000D03*
X108175000Y-80920000D03*
%TD*%
D12*
%TO.C,R1*%
X104810000Y-80890000D03*
X104810000Y-79240000D03*
%TD*%
D14*
%TO.C,R11*%
X127155000Y-85340000D03*
X127155000Y-86990000D03*
%TD*%
D15*
%TO.C,C1*%
X117620000Y-79315000D03*
X119170000Y-79315000D03*
%TD*%
D11*
%TO.C,D2*%
X132072500Y-99845000D03*
X133647500Y-99845000D03*
%TD*%
D16*
%TO.C,R10*%
X118680000Y-99005000D03*
X120330000Y-99005000D03*
%TD*%
D15*
%TO.C,C6*%
X138553835Y-79173217D03*
X140103835Y-79173217D03*
%TD*%
D11*
%TO.C,D3*%
X139588385Y-99829911D03*
X141163385Y-99829911D03*
%TD*%
D12*
%TO.C,R9*%
X142830000Y-101160000D03*
X142830000Y-99510000D03*
%TD*%
M02*
